<svg width="145" height="60" viewBox="0 0 145 60" fill="none" xmlns="http://www.w3.org/2000/svg">
<path d="M57.8788 48.9494C55.5244 48.9494 53.4281 48.5107 51.59 47.6331C49.7462 46.7518 48.1438 45.4539 46.9153 43.8468C45.635 42.1992 44.6609 40.208 43.9933 37.8733C43.3256 35.5386 42.9908 32.904 42.9887 29.9694C42.9887 27.0389 43.3236 24.4042 43.9933 22.0655C44.663 19.7267 45.637 17.7356 46.9153 16.0919C48.1442 14.4849 49.7465 13.1865 51.59 12.3041C53.4281 11.4347 55.5244 11 57.8788 11C60.2333 11 62.3254 11.4388 64.1553 12.3163C65.9945 13.2013 67.5932 14.4993 68.8206 16.1041C70.0989 17.7518 71.077 19.7429 71.7551 22.0776C72.4331 24.4123 72.7716 27.047 72.7706 29.9816C72.7706 32.9121 72.4321 35.5467 71.7551 37.8855C71.0781 40.2242 70.0999 42.2154 68.8206 43.859C67.5936 45.4638 65.9947 46.7614 64.1553 47.6453C62.3265 48.5137 60.2343 48.9484 57.8788 48.9494ZM57.8788 43.0884C58.6839 43.0984 59.4843 42.9682 60.2426 42.7038C60.958 42.4449 61.6173 42.0572 62.1865 41.5608C62.7974 41.0242 63.3167 40.3956 63.7245 39.6988C64.198 38.8919 64.5753 38.0346 64.8488 37.1437C65.1742 36.0812 65.4001 34.9919 65.5238 33.8894C65.6723 32.5909 65.744 31.2851 65.7384 29.9785C65.7424 28.6652 65.6681 27.3527 65.516 26.0478C65.3948 24.955 65.1715 23.8754 64.8488 22.8224C64.572 21.9341 64.1949 21.0787 63.7245 20.2719C63.3184 19.5699 62.799 18.9365 62.1865 18.3962C61.6165 17.9009 60.9574 17.5133 60.2426 17.2532C59.4841 16.9896 58.6838 16.8594 57.8788 16.8687C57.0706 16.8629 56.2673 16.9929 55.5042 17.2532C54.7774 17.5049 54.1081 17.8932 53.5339 18.3962C52.928 18.9391 52.4137 19.5721 52.0099 20.2719C51.5411 21.0814 51.166 21.9394 50.8917 22.83C50.5674 23.8803 50.3421 24.9574 50.2184 26.0478C50.0678 27.3508 49.9956 28.6612 50.0022 29.9724C49.9963 31.2791 50.0685 32.5849 50.2184 33.8834C50.3412 34.9879 50.5665 36.0792 50.8917 37.1437C51.1631 38.0354 51.5383 38.8938 52.0099 39.7018C52.4154 40.3964 52.9296 41.0247 53.5339 41.5638C54.1072 42.068 54.7768 42.4564 55.5042 42.7069C56.2673 42.9668 57.0707 43.0959 57.8788 43.0884Z" fill="#B3B3B3"/>
<path d="M19.872 48.9996C17.9996 49.011 16.1335 48.7857 14.3203 48.3293C12.6396 47.903 11.0201 47.2729 9.49943 46.4536C8.04027 45.6683 6.70163 44.6858 5.52302 43.5352C4.35657 42.3973 3.35227 41.111 2.53721 39.711C1.70412 38.2765 1.07176 36.7393 0.657084 35.1404C0.217024 33.4608 -0.00348449 31.7335 0.000828765 29.9998C-0.0230386 27.427 0.468819 24.8745 1.44863 22.4865C2.38043 20.2127 3.77887 18.1495 5.55773 16.4241C7.33659 14.6988 9.45817 13.3478 11.7917 12.4546C14.2301 11.4869 16.9256 11.0025 19.8782 11.0015C21.7102 10.99 23.5371 11.19 25.3211 11.5974C26.9331 11.966 28.4945 12.5206 29.9724 13.2496C31.3451 13.9316 32.6255 14.7782 33.784 15.7697C34.897 16.7254 35.8777 17.8189 36.7014 19.0225L31.0268 22.6233C30.5171 21.7615 29.884 20.9753 29.1467 20.2886C28.39 19.5862 27.5444 18.9814 26.6305 18.489C25.6553 17.9665 24.6129 17.5739 23.5312 17.3216C22.3329 17.0408 21.1042 16.903 19.872 16.9112C18.6586 16.904 17.4496 17.0543 16.2766 17.3581C15.1844 17.6425 14.1378 18.0732 13.1664 18.6379C12.2245 19.1861 11.3677 19.8633 10.6222 20.6489C9.87413 21.44 9.23764 22.3254 8.72965 23.2815C8.20012 24.2807 7.79897 25.34 7.53533 26.4354C7.25142 27.6031 7.11048 28.7996 7.11545 29.9998C7.11149 31.2079 7.25241 32.4124 7.53533 33.5885C7.79834 34.6979 8.20381 35.7704 8.74209 36.7804C9.25284 37.7381 9.88904 38.6267 10.6347 39.4237C11.373 40.211 12.2248 40.889 13.1633 41.4362C14.1359 42.0012 15.182 42.4353 16.2735 42.7266C17.4451 43.038 18.6548 43.1914 19.8689 43.1826C20.8605 43.1865 21.8502 43.0954 22.8236 42.9105C23.7285 42.7393 24.6107 42.4685 25.4533 42.1034C26.2527 41.7557 27.0079 41.318 27.7035 40.7993C28.3818 40.2925 28.9921 39.7042 29.5199 39.0483C30.0557 38.3764 30.5117 37.6472 30.8791 36.8747C31.2663 36.0604 31.5439 35.2006 31.7048 34.3165H19.491V28.6318H39.4881C39.498 30.5443 39.2936 32.4521 38.8785 34.3211C38.4961 36.0382 37.8942 37.7014 37.087 39.2717C36.3227 40.7533 35.3518 42.1242 34.2023 43.3452C33.0682 44.5456 31.758 45.5747 30.3146 46.3989C28.8069 47.2565 27.1843 47.9047 25.4937 48.3247C23.6569 48.783 21.7677 49.0098 19.872 48.9996Z" fill="#B3B3B3"/>
<path d="M125.102 48.9996C122.153 48.9996 119.457 48.5152 117.015 47.5465C114.681 46.6533 112.56 45.3023 110.781 43.577C109.002 41.8516 107.604 39.7884 106.672 37.5146C105.694 35.1257 105.204 32.5727 105.23 29.9998C105.207 27.4268 105.7 24.8743 106.681 22.4865C107.613 20.2127 109.011 18.1495 110.79 16.4241C112.569 14.6988 114.691 13.3478 117.024 12.4546C119.46 11.4849 122.152 11 125.102 11C128.051 11 130.74 11.4844 133.169 12.4531C135.515 13.3693 137.649 14.7358 139.446 16.4719C141.208 18.189 142.599 20.2342 143.537 22.4865C144.527 24.8722 145.024 27.4256 144.999 29.9998C145.024 32.574 144.527 35.1275 143.537 37.5131C142.6 39.7679 141.21 41.8159 139.447 43.5352C137.65 45.2686 135.516 46.6326 133.171 47.5465C130.738 48.5152 128.048 48.9996 125.102 48.9996ZM125.102 43.0884C126.309 43.0955 127.512 42.9453 128.678 42.6415C129.766 42.3561 130.809 41.926 131.778 41.3632C132.721 40.813 133.581 40.1355 134.331 39.3507C135.088 38.5606 135.733 37.6752 136.25 36.7181C136.786 35.7215 137.187 34.6614 137.444 33.5642C137.986 31.2123 137.986 28.7721 137.444 26.4202C137.186 25.3273 136.784 24.2713 136.25 23.2784C135.733 22.3215 135.087 21.4362 134.331 20.6458C133.58 19.862 132.721 19.1851 131.778 18.6349C130.809 18.0716 129.766 17.641 128.678 17.3551C126.328 16.7592 123.862 16.7592 121.512 17.3551C120.424 17.6409 119.38 18.0716 118.411 18.6349C117.471 19.1837 116.615 19.8608 115.87 20.6458C115.121 21.439 114.481 22.324 113.965 23.2784C113.43 24.272 113.024 25.3276 112.759 26.4202C112.198 28.7701 112.198 31.2143 112.759 33.5642C113.023 34.6611 113.428 35.7208 113.965 36.7181C114.481 37.6729 115.121 38.5579 115.87 39.3507C116.615 40.1366 117.47 40.8143 118.411 41.3632C119.38 41.926 120.424 42.3561 121.512 42.6415C122.683 42.9463 123.89 43.0966 125.102 43.0884Z" fill="#B3B3B3"/>
<path d="M74.4299 11.7448H81.4434L89.0914 40.1077L96.7394 11.7448H103.753L93.0554 48.2548H85.1243L74.4299 11.7448Z" fill="#B3B3B3"/>
</svg>
