<svg width="105" height="60" viewBox="0 0 105 60" fill="none" xmlns="http://www.w3.org/2000/svg">
<path d="M77.0691 23.5782C76.7113 24.3378 76.3493 25.0952 75.9957 25.8569C73.9305 30.3095 71.8611 34.7621 69.8127 39.221C69.6181 39.6437 69.3795 39.7965 68.915 39.7839C67.7474 39.7504 66.5799 39.7504 65.4123 39.7839C64.8955 39.7985 64.7072 39.6772 64.6653 39.106C64.2573 33.4334 63.8033 27.763 63.3764 22.0905C63.1483 19.0775 62.9475 16.0623 62.7361 13.0492C62.7278 12.9279 62.7361 12.8044 62.7361 12.635H68.3082C68.6116 17.7844 68.915 22.9484 69.2184 28.1104C69.2665 28.1292 69.3168 28.148 69.3649 28.1648C69.4779 27.9723 69.6118 27.7881 69.6997 27.5852C71.8172 22.7454 73.9263 17.9015 76.0522 13.0639C76.138 12.8714 76.364 12.6077 76.5293 12.6036C78.1739 12.5701 79.8185 12.5826 81.5176 12.5826C81.8691 17.6672 82.2164 22.7036 82.5638 27.7421C82.6119 27.7588 82.66 27.7777 82.7081 27.7944C82.8002 27.6375 82.9048 27.4868 82.9822 27.3215C84.9052 23.1346 87.0269 19.0544 89.4582 15.1396C91.6281 11.6432 93.9778 8.27856 96.8925 5.35338C98.7255 3.51416 100.709 1.86116 103.203 0.963519C103.643 0.804496 104.099 0.691508 104.595 0.664307C103.77 1.59333 102.927 2.50353 102.128 3.45348C99.1377 7.01266 96.7231 10.9568 94.5156 15.0287C90.5107 22.4169 87.278 30.1484 84.4176 38.0388C84.1917 38.6624 84.1226 39.5307 83.6769 39.832C83.1978 40.1543 82.3566 39.945 81.6745 39.9555C80.9024 39.9659 80.1303 39.945 79.3603 39.9638C79.0318 39.9722 78.877 39.8906 78.8435 39.5265C78.5505 36.3942 78.2409 33.264 77.9354 30.1316C77.7324 28.0371 77.5294 25.9426 77.3244 23.8481C77.316 23.7728 77.2742 23.6996 77.247 23.6264C77.1884 23.6096 77.1298 23.595 77.0712 23.5782H77.0691Z" fill="#B3B3B3"/>
<path d="M6.12383 27.8048C6.30796 27.4449 6.41468 27.2586 6.50047 27.062C8.55102 22.3729 10.5974 17.6817 12.6584 12.9968C12.7337 12.8252 12.9597 12.6097 13.1187 12.6055C14.6148 12.5762 16.113 12.5888 17.6551 12.5888C18.3037 17.5813 18.944 22.5193 19.5864 27.4574C19.6408 27.4679 19.6952 27.4804 19.7475 27.4909C19.8709 27.2273 20.0111 26.972 20.1136 26.7C21.8001 22.1825 23.4866 17.665 25.1542 13.1433C25.307 12.7269 25.4995 12.5679 25.9619 12.5762C27.5626 12.6076 29.1654 12.5888 30.8581 12.5888C30.3978 13.9593 29.9689 15.2566 29.5295 16.5476C27.3157 23.0404 25.0978 29.531 22.8819 36.0216C22.4927 37.1641 22.091 38.3024 21.7185 39.449C21.5993 39.8131 21.434 39.9805 21.0176 39.9721C19.7454 39.9428 18.4732 39.9407 17.2031 39.9679C16.747 39.9784 16.6151 39.811 16.5377 39.3758C15.8995 35.7705 15.2258 32.1695 14.5709 28.5664C14.2968 27.0536 14.0436 25.5366 13.6397 23.9757C13.5435 24.1556 13.4284 24.3272 13.351 24.5155C11.5662 28.8844 9.78554 33.2534 8.00281 37.6244C7.76009 38.2207 7.49436 38.8087 7.28302 39.4176C7.13656 39.8382 6.90011 39.9867 6.45025 39.9742C5.21991 39.9428 3.98958 39.9386 2.75925 39.97C2.31566 39.9805 2.17337 39.8173 2.14408 39.4113C2.06038 38.1852 1.95576 36.959 1.8616 35.7329C1.42848 30.1043 0.991165 24.4757 0.562222 18.8472C0.415753 16.9368 0.286025 15.0244 0.152111 13.114C0.141649 12.9717 0.152111 12.8294 0.152111 12.6453C0.344612 12.6244 0.503635 12.5909 0.662658 12.5909C1.95576 12.5867 3.24887 12.6013 4.53988 12.5804C4.95418 12.5741 5.11739 12.683 5.1404 13.1286C5.34546 16.851 5.57771 20.5713 5.8016 24.2916C5.86019 25.2688 5.92087 26.2459 5.98783 27.2231C5.9962 27.3528 6.04641 27.4804 6.12593 27.8068L6.12383 27.8048Z" fill="#B3B3B3"/>
<path d="M43.4385 40.7361C40.71 40.7131 38.0736 40.3302 35.659 38.9618C32.9891 37.449 31.4177 35.1222 30.7837 32.1719C29.342 25.4574 32.1396 17.7573 38.6009 14.0768C42.4258 11.8986 46.5353 11.4215 50.8205 12.1685C53.0343 12.5535 55.0639 13.3549 56.7609 14.8907C58.6461 16.5982 59.5982 18.7847 59.9309 21.237C60.3891 24.6037 60.0062 27.9013 58.6587 31.0295C56.2378 36.6476 51.8688 39.7171 45.8657 40.5457C45.0622 40.6566 44.2462 40.6754 43.4364 40.7361H43.4385ZM53.6327 23.7332C53.5992 23.2436 53.5972 22.7205 53.5197 22.2079C53.1557 19.7995 52.0425 17.9206 49.6509 17.0501C46.46 15.8909 42.5723 16.8911 40.3522 19.4752C37.5672 22.7205 36.4646 26.512 37.0713 30.7282C37.404 33.0465 38.6804 34.7539 40.9862 35.5574C44.037 36.6204 47.8765 35.639 50.0547 33.2432C52.4986 30.5524 53.5093 27.3301 53.6348 23.7312L53.6327 23.7332Z" fill="#B3B3B3"/>
<path d="M2.7627 42.9375H83.3867C83.3867 42.9375 64.8046 45.8813 43.0747 45.9856C21.3448 46.0899 2.7627 42.9375 2.7627 42.9375Z" fill="#B3B3B3"/>
<path d="M4.07439 55.0847L4.94887 55.0083C5.00303 55.5785 5.23081 55.9911 5.63221 56.2459C6.03361 56.4976 6.48917 56.6234 6.99888 56.6234C7.53727 56.6234 7.96415 56.5167 8.27954 56.3033C8.59811 56.0898 8.7574 55.7999 8.7574 55.4336C8.7574 55.2042 8.6905 55.0083 8.5567 54.8458C8.4229 54.6833 8.23494 54.5575 7.99282 54.4683C7.7539 54.3759 7.30152 54.2501 6.63571 54.0908C6.06865 53.9538 5.63699 53.8152 5.34072 53.6751C5.04763 53.5317 4.80711 53.3278 4.61915 53.0634C4.43438 52.799 4.34199 52.4916 4.34199 52.1411C4.34199 51.5773 4.56499 51.1153 5.01099 50.7554C5.45699 50.3922 6.05591 50.2106 6.80774 50.2106C7.60735 50.2106 8.23812 50.397 8.70005 50.7697C9.16517 51.1392 9.41206 51.6505 9.44073 52.3036L8.55192 52.3705C8.47865 51.4753 7.91318 51.0277 6.85552 51.0277C6.34262 51.0277 5.94441 51.1217 5.66088 51.3097C5.37735 51.4944 5.23559 51.7509 5.23559 52.079C5.23559 52.3657 5.34231 52.584 5.55575 52.7337C5.76601 52.8866 6.2136 53.0411 6.89853 53.1972C7.60576 53.3565 8.13459 53.511 8.48502 53.6607C8.83863 53.8073 9.12057 54.0287 9.33082 54.3249C9.54427 54.618 9.65099 54.9605 9.65099 55.3523C9.65099 55.9704 9.41206 56.4753 8.9342 56.8671C8.45953 57.259 7.83513 57.4549 7.061 57.4549C6.07662 57.4549 5.33594 57.2335 4.83897 56.7907C4.34199 56.3447 4.08714 55.776 4.07439 55.0847ZM11.6763 57.3354V50.3301H12.6034V53.8041L16.0822 50.3301H17.3389L14.4001 53.1685L17.468 57.3354H16.2447L13.7502 53.7897L12.6034 54.9079V57.3354H11.6763ZM19.1732 57.3354V50.3301H20.1002V57.3354H19.1732ZM22.5652 57.3354V50.3301H23.5161L27.1956 55.8302V50.3301H28.0844V57.3354H27.1335L23.454 51.8305V57.3354H22.5652ZM33.5926 55.0847L34.4671 55.0083C34.5212 55.5785 34.749 55.9911 35.1504 56.2459C35.5518 56.4976 36.0074 56.6234 36.5171 56.6234C37.0555 56.6234 37.4824 56.5167 37.7977 56.3033C38.1163 56.0898 38.2756 55.7999 38.2756 55.4336C38.2756 55.2042 38.2087 55.0083 38.0749 54.8458C37.9411 54.6833 37.7531 54.5575 37.511 54.4683C37.2721 54.3759 36.8197 54.2501 36.1539 54.0908C35.5869 53.9538 35.1552 53.8152 34.8589 53.6751C34.5658 53.5317 34.3253 53.3278 34.1374 53.0634C33.9526 52.799 33.8602 52.4916 33.8602 52.1411C33.8602 51.5773 34.0832 51.1153 34.5292 50.7554C34.9752 50.3922 35.5741 50.2106 36.3259 50.2106C37.1256 50.2106 37.7563 50.397 38.2183 50.7697C38.6834 51.1392 38.9303 51.6505 38.9589 52.3036L38.0701 52.3705C37.9968 51.4753 37.4314 51.0277 36.3737 51.0277C35.8608 51.0277 35.4626 51.1217 35.1791 51.3097C34.8956 51.4944 34.7538 51.7509 34.7538 52.079C34.7538 52.3657 34.8605 52.584 35.074 52.7337C35.2842 52.8866 35.7318 53.0411 36.4167 53.1972C37.124 53.3565 37.6528 53.511 38.0032 53.6607C38.3568 53.8073 38.6388 54.0287 38.849 54.3249C39.0625 54.618 39.1692 54.9605 39.1692 55.3523C39.1692 55.9704 38.9303 56.4753 38.4524 56.8671C37.9777 57.259 37.3533 57.4549 36.5792 57.4549C35.5948 57.4549 34.8541 57.2335 34.3572 56.7907C33.8602 56.3447 33.6053 55.776 33.5926 55.0847ZM46.2407 54.8793L47.1678 55.1134C46.9766 55.878 46.623 56.4594 46.1069 56.8576C45.594 57.2558 44.9808 57.4549 44.2672 57.4549C43.1362 57.4549 42.3048 57.0997 41.7727 56.3893C41.2407 55.6789 40.9747 54.8092 40.9747 53.7802C40.9747 52.6588 41.2821 51.7843 41.897 51.1568C42.5118 50.526 43.3067 50.2106 44.2815 50.2106C44.9824 50.2106 45.5733 50.3922 46.0543 50.7554C46.5386 51.1153 46.8699 51.6139 47.0483 52.251L46.1356 52.4661C45.8202 51.4913 45.2133 51.0038 44.3149 51.0038C43.5185 51.0038 42.9212 51.2555 42.523 51.7589C42.128 52.259 41.9304 52.9216 41.9304 53.7467C41.9304 54.7375 42.1375 55.4718 42.5517 55.9497C42.969 56.4243 43.5153 56.6617 44.1907 56.6617C44.7036 56.6617 45.1432 56.5119 45.5096 56.2125C45.8791 55.913 46.1228 55.4686 46.2407 54.8793ZM49.2266 57.3354V50.3301H50.1536V57.3354H49.2266ZM52.6186 57.3354V50.3301H57.6839V51.1568H53.5456V53.3023H57.421V54.1242H53.5456V56.5088H57.8463V57.3354H52.6186ZM59.9386 57.3354V50.3301H60.8895L64.569 55.8302V50.3301H65.4578V57.3354H64.5069L60.8274 51.8305V57.3354H59.9386ZM72.7874 54.8793L73.7144 55.1134C73.5233 55.878 73.1697 56.4594 72.6536 56.8576C72.1407 57.2558 71.5275 57.4549 70.8139 57.4549C69.6829 57.4549 68.8515 57.0997 68.3194 56.3893C67.7874 55.6789 67.5214 54.8092 67.5214 53.7802C67.5214 52.6588 67.8288 51.7843 68.4437 51.1568C69.0585 50.526 69.8534 50.2106 70.8282 50.2106C71.529 50.2106 72.12 50.3922 72.601 50.7554C73.0853 51.1153 73.4166 51.6139 73.595 52.251L72.6823 52.4661C72.3669 51.4913 71.76 51.0038 70.8616 51.0038C70.0652 51.0038 69.4679 51.2555 69.0697 51.7589C68.6746 52.259 68.4771 52.9216 68.4771 53.7467C68.4771 54.7375 68.6842 55.4718 69.0983 55.9497C69.5157 56.4243 70.062 56.6617 70.7374 56.6617C71.2503 56.6617 71.6899 56.5119 72.0563 56.2125C72.4258 55.913 72.6695 55.4686 72.7874 54.8793ZM75.649 57.3354V50.3301H80.7143V51.1568H76.576V53.3023H80.4515V54.1242H76.576V56.5088H80.8768V57.3354H75.649Z" fill="#B3B3B3"/>
</svg>
