<?xml version="1.0" encoding="utf-8"?>
<!-- Generator: Adobe Illustrator 27.5.0, SVG Export Plug-In . SVG Version: 6.00 Build 0)  -->
<svg version="1.1" xmlns="http://www.w3.org/2000/svg" xmlns:xlink="http://www.w3.org/1999/xlink" x="0px" y="0px"
	 viewBox="0 0 750 500" style="enable-background:new 0 0 750 500;" xml:space="preserve">
<g id="BACKGROUND">
	<rect id="XMLID_366_" style="fill:#FFFFFF;" width="750" height="500"/>
</g>
<g id="OBJECTS">
	<g id="XMLID_21_">
		<path id="XMLID_336_" style="fill:#CDD9EF;" d="M708.982,448.63H69.902c-0.19-0.43-0.39-0.86-0.58-1.3
			c-2.56-5.83-4.94-12.1-7.12-18.7c-10.81-32.74-16.67-73.61-15.81-108.92c0.32-13.54,2.1-27.47,8.81-39.23
			c6.71-11.77,19.27-20.97,32.8-20.42c11.88,0.48,22.62,8.12,34.5,8.44c17.87,0.48,32.22-15.98,37.09-33.18
			c4.87-17.19,3.01-35.48,4.25-53.31c3.37-48.64,32.33-95.53,75.89-117.46c43.55-21.92,100.35-16.41,136.87,15.9
			c21.36,18.89,40.22,47.69,68.71,46.45c18.85-0.82,33.92-15.2,50.83-23.57c28.91-14.3,66.08-9.9,90.85,10.76
			c24.76,20.67,35.75,56.44,26.86,87.45c-2.77,9.65-7.27,18.8-9.14,28.67c-1.87,9.87-0.56,21.16,6.71,28.09
			c10.09,9.63,26.18,6.9,40,8.78c24.16,3.29,43.35,23.04,52.9,45.48C722.592,355.47,708.982,448.63,708.982,448.63z"/>
		<g id="XMLID_19_">
			<g id="XMLID_310_">
				<path id="XMLID_338_" style="fill:#96D272;" d="M418.397,448.63H63.577c-0.19-0.43-0.39-0.86-0.58-1.3
					c-2.56-5.83-4.94-12.1-7.12-18.7c0.45,0,0.9,0.01,1.35,0.04c3.67,0.23,6.85,2.12,10.33,3.3c-0.62-8.93,6.32-17.77,15.16-19.26
					c8.83-1.49,18.94,5.61,21.28,14.26c2.57-4.76,10.72-4.84,15.55-2.39c0.42-5.33,4.73-9.94,9.89-11.32
					c5.17-1.38,10.88,0.23,15.01,3.63c4.12,3.4,7.55,9.17,8.68,14.39c2.1-2.34,5.25-3.51,8.37-3.83c1.51-0.15,3.03-0.12,4.54,0.01
					c1.21-5.97,4.49-11.58,9.96-14.91c7.18-4.37,18-4.46,22.82,2.06c3.76-6.32,11.32-10,18.87-12.1c8.21-2.27,17.1-3.08,25.39-1.04
					c8.28,2.04,16.85,9.18,20.17,16.39c-2.13-6.23,3.64-12.85,10.46-14.81c6.83-1.97,15.86,1.5,22.85,2.91
					c1.35-8.77,9.83-15.76,19.29-17.75c9.47-1.99,19.55,0.38,27.99,4.77c8.44,4.38,15.08,11.78,21.83,18.15
					c0.65-3.91,4.74-6.83,9.03-7.41c4.29-0.59,8.64,0.74,12.43,2.67c12.5,6.38,20.18,19.84,18.73,32.83
					c0.97,0.16,1.96,0.45,2.93,0.84C412.857,441.66,416.717,445.02,418.397,448.63z"/>
				<path id="XMLID_333_" style="fill:#50AA6E;" d="M375.188,437.72l-4.62,10.91H70.978c0.73-3,2.33-5.82,4.54-7.96
					c4.39-4.24,10.78-6.01,16.87-5.66c6.1,0.35,12.14,3.37,17.5,6.29c3.17-2.99,7.64-4.56,11.98-4.19
					c4.34,0.37,7.61,2.35,10.23,5.84c-0.3-3.42,2.55-6.31,5.55-7.96c8.99-4.95,21.16-1.85,27.82,5.95
					c4.04-3.46,10.63-2.97,14.38,0.79c3-7.18,12.63-11.23,20.23-9.58c0.56-7.85,7.38-14.78,15.22-15.46
					c7.85-0.69,16.13,3.87,18.05,11.5c5.4-5.65,14.43-6.72,21.77-4.04c7.34,2.68,13.5,8.68,17.91,15.13
					c0.08-2.75,1.6-5.42,3.92-6.89c2.33-1.47,5.97-1.33,8.48-0.22c-1.52-6.66-0.25-14.09,4.08-19.38c4.33-5.29,11.84-8.02,18.37-6
					c6.52,2.03,11.69,7.68,10.38,14.38c2-3,5.51-4.94,9.11-5.04c3.61-0.11,6.99,2.88,9.16,5.76c2.44-5.61,8.78-8.96,14.89-8.75
					c6.11,0.22,11.84,3.58,15.82,8.22C371.227,426,373.637,431.81,375.188,437.72z"/>
			</g>
			<g id="XMLID_35_">
				<path id="XMLID_337_" style="fill:#96D272;" d="M693.407,448.63h-285.79c0.22-2.88,0.61-5.74,1.17-8.57
					c3.14-16.06,11.53-31.12,23.81-41.98c5.69-5.03,12.47-9.3,20.02-10.04c7.55-0.74,15.89,2.87,18.84,9.87
					c5.41-7.27,15.95-10.69,24.68-8.25c8.73,2.43,15.17,12.07,12.97,20.86c9.28-1.58,19.92,1.95,23.43,10.69
					c2.18-6.92,5.48-12.72,11.42-16.87c5.95-4.16,13.79-5.82,20.7-3.61c6.91,2.22,12.52,8.58,13.07,15.82
					c6.53-5.22,13.38-11.21,21.61-12.7c8.23-1.48,17.98,2.08,20.8,9.95c1.12-6.88,6.61-13.52,13.36-15.25
					c6.74-1.73,14.39,0.89,18.68,6.38c4.28,5.49,4.95,13.54,1.63,19.67c9.53-4.24,21.89-1.35,29.86,5.37
					C689.178,434.61,692.647,441.49,693.407,448.63z"/>
				<path id="XMLID_332_" style="fill:#50AA6E;" d="M692.407,448.63h-255.59c-1.37-7.54-2.46-15.12-3.26-22.75l7.25-11.38
					c3.38-6.31,10.36-10.53,17.52-10.6c7.16-0.06,14.21,4.03,17.7,10.28c3.33-1.73,6.61-1.6,9.96,0.09c3.35,1.7,5.8,5.06,6.38,8.77
					c7.97-5.36,18.89-5.03,28.06-2.19c9.18,2.84,16.91,10,20.46,18.93c3.91-2.89,9.5-4.43,14.13-2.95
					c0.86-7.95,7.29-16.92,15.28-17.26c8-0.35,15.78,5.77,17.33,13.62c1.63-5.2,8.46-8.13,13.92-7.98
					c5.45,0.16,10.56,4.25,11.9,9.54c6.28-7.74,17.39-10.85,27.29-9.76c9.91,1.1,19.07,7.5,23.51,16.43
					c7.5-5.53,16.64-6.49,23.41-0.08C689.798,443.37,691.388,445.89,692.407,448.63z"/>
			</g>
		</g>
		<g id="XMLID_18_">
			<g id="XMLID_303_">
				<g id="XMLID_295_">
					<path id="XMLID_309_" style="fill:#F08961;" d="M701.612,421.72c-10.24,14.78-20.92,26.91-20.92,26.91h-62.65
						c0,0-49.84-73.04-26.57-88.35c15.1-9.94,46.12,65.48,46.12,65.48s-2.83-75.25,11.83-108.05v-0.01
						c4.43-9.9,10.44-15.93,18.61-14.86c23.42,3.08,13.79,56.86,4.71,92.56c-4.47,17.56-8.81,30.75-9.01,31.37
						c0.41-0.83,13.68-27.47,28.03-43.8c0,0,0.01,0,0.01-0.01c8.63-9.83,17.65-15.93,24.5-10.44
						C726.492,380.72,714.392,403.28,701.612,421.72z"/>
					<path id="XMLID_307_" style="fill:#F4AD73;" d="M701.612,421.72c6.79-16.47,14.36-38.43,8.72-43.12
						c-4.54-3.77-12.06-0.23-18.56,4.36c8.63-9.83,17.65-15.93,24.5-10.44C726.492,380.72,714.392,403.28,701.612,421.72z"/>
					<path id="XMLID_305_" style="fill:#F4AD73;" d="M672.742,395.4c2.8-24.99,7.36-80.62-6.85-84.08
						c-6.72-1.63-12.2,1.61-16.47,6.38c4.43-9.9,10.44-15.93,18.61-14.86C691.452,305.92,681.822,359.7,672.742,395.4z"/>
				</g>
				<g id="XMLID_302_">
					<path id="XMLID_297_" style="fill:none;stroke:#BD2C23;stroke-linecap:round;stroke-linejoin:round;stroke-miterlimit:10;" d="
						M658.842,343.319c-5.59,34.147-11.179,70.18-16.769,104.327"/>
					<path id="XMLID_299_" style="fill:none;stroke:#BD2C23;stroke-linecap:round;stroke-linejoin:round;stroke-miterlimit:10;" d="
						M595.934,381.623c12.473,20.367,26.084,44.424,36.274,66.023"/>
					<path id="XMLID_301_" style="fill:none;stroke:#BD2C23;stroke-linecap:round;stroke-linejoin:round;stroke-miterlimit:10;" d="
						M705.652,391.957c-13.415,17.772-29.268,38.634-42.683,56.406"/>
				</g>
			</g>
			<g id="XMLID_294_">
				<g id="XMLID_192_">
					<path id="XMLID_300_" style="fill:#F08961;" d="M125.327,448.63l-37.66-0.07c0,0-8.91-5.38-19.03-13.43c0,0,0,0-0.01-0.01
						c-15.33-12.18-33.42-30.47-27.36-45.35c4.02-9.87,13.44-5.24,23.3,3.88c14.5,13.42,29.97,36.55,30.64,37.56
						c-0.22-0.52-3.62-8.33-8.04-19.62c-12.89-32.96-34.51-95.62-11.45-93.33c5.11,0.5,9.54,3.64,13.37,8.53
						c19.62,25.01,23.66,95.98,23.66,95.98s13.38-55.07,32.4-49.97C160.188,376.84,125.327,448.63,125.327,448.63z"/>
					<path id="XMLID_298_" style="fill:#F4AD73;" d="M87.168,411.59c-12.89-32.96-34.51-95.62-11.45-93.33
						c5.11,0.5,9.54,3.64,13.37,8.53c-4.41-2.05-8.641-6.426-16.046,0.279C62.228,336.861,89.277,412.05,87.168,411.59z"/>
					<path id="XMLID_296_" style="fill:#F4AD73;" d="M68.628,435.12c-15.33-12.18-33.42-30.47-27.36-45.35
						c4.02-9.87,13.44-5.24,23.3,3.88c-6.93-4.15-15.163-9.24-19.621-0.739C38.58,405.053,57.408,421.41,68.628,435.12z"/>
				</g>
				<g id="XMLID_293_">
					<path id="XMLID_290_" style="fill:none;stroke:#BD2C23;stroke-linecap:round;stroke-linejoin:round;stroke-miterlimit:10;" d="
						M87.9,356.244c8.703,30.097,15.447,61.376,17.604,91.577"/>
					<path id="XMLID_291_" style="fill:none;stroke:#BD2C23;stroke-linecap:round;stroke-linejoin:round;stroke-miterlimit:10;" d="
						M135.402,399.283c-8.737,16.382-17.475,32.156-26.212,48.538"/>
					<path id="XMLID_292_" style="fill:none;stroke:#BD2C23;stroke-linecap:round;stroke-linejoin:round;stroke-miterlimit:10;" d="
						M58.874,406.238c13.963,14.328,27.362,27.254,41.325,41.582"/>
				</g>
			</g>
		</g>
		<g id="XMLID_17_">
			<g id="XMLID_278_">
				<g id="XMLID_33_">
					<g id="XMLID_29_">
						<polygon id="XMLID_27_" style="fill:#6678AA;" points="459.255,432.526 352.907,432.526 342.814,366.163 449.162,366.163 
													"/>
						<polygon id="XMLID_28_" style="fill:#7E9EC4;" points="442.581,432.526 352.907,432.526 342.814,366.163 432.488,366.163 
													"/>
					</g>
					<g id="XMLID_30_">
						<path id="XMLID_61_" style="fill:#6678AA;" d="M502.504,448.632H299.571c0-5.775,2.344-10.989,6.118-14.775
							c3.774-3.785,9-6.118,14.763-6.118h161.16C493.15,427.74,502.504,437.094,502.504,448.632z"/>
						<path id="XMLID_59_" style="fill:#96B4D6;" d="M471.491,448.632H299.571c0-5.775,2.344-10.989,6.118-14.775
							c3.774-3.785,9-6.118,14.763-6.118H450.61C462.148,427.74,471.491,437.094,471.491,448.632z"/>
					</g>
				</g>
				<g id="XMLID_277_">
					<path id="XMLID_26_" style="fill:#6678AA;" d="M572.448,380.202H215.5c-13.195,0-22.674-10.693-21.172-23.883l22.708-199.487
						c1.501-13.19,13.415-23.883,26.61-23.883h356.948c13.195,0,22.674,10.693,21.172,23.883l-22.708,199.487
						C597.557,369.509,585.643,380.202,572.448,380.202z"/>
					<path id="XMLID_24_" style="fill:#96B4D6;" d="M558.424,380.202H201.476c-13.195,0-22.674-10.693-21.172-23.883l22.708-199.487
						c1.501-13.19,13.415-23.883,26.61-23.883h356.948c13.195,0,22.674,10.693,21.172,23.883l-22.708,199.487
						C583.532,369.509,571.619,380.202,558.424,380.202z"/>
				</g>
			</g>
			<g id="XMLID_16_">
				<g id="XMLID_15_">
					<path id="XMLID_283_" style="fill:#E6F1F4;" d="M590.482,169.765c-0.012,0.366-0.046,0.732-0.091,1.109l-9.389,82.461
						l-10.12,88.945c-1.498,13.185-13.414,23.877-26.61,23.877H218.829c-13.185,0-22.665-10.692-21.167-23.877l6.93-60.871
						l12.579-110.535c0.046-0.366,0.091-0.743,0.149-1.109c2.024-12.682,13.631-22.779,26.462-22.779h325.442
						C582.042,146.985,591.351,157.083,590.482,169.765z"/>
					<g id="XMLID_14_">
						<path id="XMLID_281_" style="fill:#CDD9EF;" d="M590.482,169.765H217.32c2.024-12.682,13.631-22.779,26.462-22.779h325.442
							C582.042,146.985,591.351,157.083,590.482,169.765z"/>
						<g id="XMLID_274_">
							<circle id="XMLID_150_" style="fill:#F27D6B;" cx="568.848" cy="159.53" r="4.253"/>
							<circle id="XMLID_275_" style="fill:#EFC71B;" cx="552.549" cy="159.53" r="4.253"/>
							<circle id="XMLID_276_" style="fill:#4ECE82;" cx="535.837" cy="159.53" r="4.253"/>
						</g>
					</g>
				</g>
				<g id="XMLID_12_">
					<g id="XMLID_191_">
						<g id="XMLID_181_">
							<path id="XMLID_180_" style="fill:#96B4D6;" d="M557.322,190.462h-49.009c-0.61,0-1.037-0.548-0.953-1.224l0.041-0.334
								c0.084-0.676,0.646-1.224,1.256-1.224h49.009c0.61,0,1.037,0.548,0.953,1.224l-0.041,0.334
								C558.494,189.913,557.932,190.462,557.322,190.462z"/>
							<path id="XMLID_182_" style="fill:#96B4D6;" d="M565.731,197.317h-58.266c-0.61,0-1.037-0.548-0.953-1.224l0.041-0.334
								c0.084-0.676,0.646-1.224,1.256-1.224h58.266c0.61,0,1.037,0.548,0.953,1.224l-0.041,0.334
								C566.903,196.769,566.341,197.317,565.731,197.317z"/>
							<path id="XMLID_186_" style="fill:#96B4D6;" d="M564.883,204.172h-58.266c-0.61,0-1.037-0.548-0.953-1.224l0.041-0.334
								c0.084-0.676,0.646-1.224,1.256-1.224h58.266c0.61,0,1.037,0.548,0.953,1.224l-0.041,0.334
								C566.055,203.624,565.493,204.172,564.883,204.172z"/>
							<path id="XMLID_187_" style="fill:#96B4D6;" d="M564.035,211.028h-58.266c-0.61,0-1.037-0.548-0.953-1.224l0.041-0.334
								c0.084-0.676,0.646-1.224,1.256-1.224h58.266c0.61,0,1.037,0.548,0.953,1.224l-0.041,0.334
								C565.207,210.48,564.645,211.028,564.035,211.028z"/>
							<path id="XMLID_188_" style="fill:#96B4D6;" d="M563.187,217.883h-58.266c-0.61,0-1.037-0.548-0.953-1.224l0.041-0.334
								c0.084-0.676,0.646-1.224,1.256-1.224h58.266c0.61,0,1.037,0.548,0.953,1.224l-0.041,0.334
								C564.359,217.335,563.797,217.883,563.187,217.883z"/>
							<path id="XMLID_189_" style="fill:#96B4D6;" d="M562.339,224.739h-58.266c-0.61,0-1.037-0.548-0.953-1.224l0.041-0.334
								c0.084-0.676,0.646-1.224,1.256-1.224h58.266c0.61,0,1.037,0.548,0.953,1.224l-0.041,0.334
								C563.511,224.191,562.949,224.739,562.339,224.739z"/>
							<path id="XMLID_190_" style="fill:#96B4D6;" d="M561.491,231.594h-58.266c-0.61,0-1.037-0.548-0.953-1.224l0.041-0.334
								c0.084-0.676,0.646-1.224,1.256-1.224h58.266c0.61,0,1.037,0.548,0.953,1.224l-0.041,0.334
								C562.663,231.046,562.101,231.594,561.491,231.594z"/>
						</g>
						<g id="XMLID_197_">
							<path id="XMLID_204_" style="fill:#96B4D6;" d="M550.679,244.162H501.67c-0.61,0-1.037-0.548-0.953-1.224l0.041-0.334
								c0.084-0.676,0.646-1.224,1.256-1.224h49.009c0.61,0,1.037,0.548,0.953,1.224l-0.041,0.334
								C551.852,243.614,551.289,244.162,550.679,244.162z"/>
							<path id="XMLID_203_" style="fill:#96B4D6;" d="M559.088,251.018h-58.266c-0.61,0-1.037-0.548-0.953-1.224l0.041-0.334
								c0.084-0.676,0.646-1.224,1.256-1.224h58.265c0.61,0,1.037,0.548,0.953,1.224l-0.041,0.334
								C560.26,250.47,559.698,251.018,559.088,251.018z"/>
							<path id="XMLID_202_" style="fill:#96B4D6;" d="M558.24,257.873h-58.265c-0.61,0-1.037-0.548-0.953-1.224l0.041-0.334
								c0.084-0.676,0.646-1.224,1.256-1.224h58.266c0.61,0,1.037,0.548,0.953,1.224l-0.041,0.334
								C559.412,257.325,558.85,257.873,558.24,257.873z"/>
							<path id="XMLID_201_" style="fill:#96B4D6;" d="M557.392,264.729h-58.266c-0.61,0-1.037-0.548-0.953-1.224l0.041-0.334
								c0.084-0.676,0.646-1.224,1.256-1.224h58.266c0.61,0,1.037,0.548,0.953,1.224l-0.041,0.334
								C558.564,264.181,558.002,264.729,557.392,264.729z"/>
							<path id="XMLID_200_" style="fill:#96B4D6;" d="M556.544,271.584h-58.266c-0.61,0-1.037-0.548-0.953-1.224l0.041-0.334
								c0.084-0.676,0.646-1.224,1.256-1.224h58.265c0.61,0,1.037,0.548,0.953,1.224l-0.041,0.334
								C557.716,271.036,557.154,271.584,556.544,271.584z"/>
							<path id="XMLID_199_" style="fill:#96B4D6;" d="M555.696,278.44H497.43c-0.61,0-1.037-0.548-0.953-1.224l0.041-0.334
								c0.084-0.676,0.646-1.224,1.256-1.224h58.266c0.61,0,1.037,0.548,0.953,1.224l-0.041,0.334
								C556.868,277.891,556.306,278.44,555.696,278.44z"/>
							<path id="XMLID_198_" style="fill:#96B4D6;" d="M554.848,285.295h-58.266c-0.61,0-1.037-0.548-0.953-1.224l0.041-0.334
								c0.084-0.676,0.646-1.224,1.256-1.224h58.266c0.61,0,1.037,0.548,0.953,1.224l-0.041,0.334
								C556.02,284.747,555.458,285.295,554.848,285.295z"/>
						</g>
					</g>
					<g id="XMLID_194_">
						<g id="XMLID_267_">
							<path id="XMLID_289_" style="fill:#96B4D6;" d="M275.996,202.21h-49.134c-0.611,0-1.039-0.548-0.955-1.224l0.041-0.334
								c0.084-0.676,0.648-1.224,1.259-1.224h49.134c0.612,0,1.039,0.548,0.956,1.224l-0.042,0.334
								C277.171,201.662,276.608,202.21,275.996,202.21z"/>
							<path id="XMLID_288_" style="fill:#96B4D6;" d="M284.426,209.065h-58.414c-0.612,0-1.039-0.548-0.956-1.224l0.042-0.334
								c0.084-0.676,0.647-1.224,1.259-1.224h58.414c0.611,0,1.039,0.548,0.955,1.224l-0.041,0.334
								C285.602,208.517,285.038,209.065,284.426,209.065z"/>
							<path id="XMLID_287_" style="fill:#96B4D6;" d="M283.576,215.921h-58.414c-0.611,0-1.039-0.548-0.955-1.224l0.041-0.334
								c0.084-0.676,0.648-1.224,1.259-1.224h58.414c0.611,0,1.039,0.548,0.955,1.224l-0.041,0.334
								C284.751,215.372,284.188,215.921,283.576,215.921z"/>
							<path id="XMLID_286_" style="fill:#96B4D6;" d="M282.726,222.776h-58.414c-0.611,0-1.039-0.548-0.955-1.224l0.041-0.334
								c0.084-0.676,0.648-1.224,1.259-1.224h58.414c0.611,0,1.039,0.548,0.955,1.224l-0.041,0.334
								C283.901,222.228,283.337,222.776,282.726,222.776z"/>
							<path id="XMLID_285_" style="fill:#96B4D6;" d="M281.876,229.631h-58.414c-0.611,0-1.039-0.548-0.956-1.224l0.042-0.334
								c0.084-0.676,0.648-1.224,1.259-1.224h58.414c0.612,0,1.039,0.548,0.956,1.224l-0.042,0.334
								C283.051,229.083,282.487,229.631,281.876,229.631z"/>
							<path id="XMLID_284_" style="fill:#96B4D6;" d="M281.026,236.487h-58.414c-0.611,0-1.039-0.548-0.955-1.224l0.041-0.334
								c0.084-0.676,0.648-1.224,1.259-1.224h58.414c0.611,0,1.039,0.548,0.955,1.224l-0.041,0.334
								C282.201,235.939,281.637,236.487,281.026,236.487z"/>
							<path id="XMLID_282_" style="fill:#96B4D6;" d="M280.175,243.342h-58.414c-0.612,0-1.039-0.548-0.955-1.224l0.041-0.334
								c0.084-0.676,0.648-1.224,1.259-1.224h58.414c0.611,0,1.039,0.548,0.955,1.224l-0.041,0.334
								C281.351,242.794,280.787,243.342,280.175,243.342z"/>
						</g>
						<g id="XMLID_195_">
							<path id="XMLID_266_" style="fill:#96B4D6;" d="M269.336,255.911h-49.134c-0.611,0-1.039-0.548-0.955-1.224l0.041-0.334
								c0.084-0.676,0.648-1.224,1.259-1.224h49.134c0.612,0,1.039,0.548,0.955,1.224l-0.041,0.334
								C270.512,255.363,269.948,255.911,269.336,255.911z"/>
							<path id="XMLID_265_" style="fill:#96B4D6;" d="M277.767,262.766h-58.414c-0.612,0-1.039-0.548-0.955-1.224l0.041-0.334
								c0.084-0.676,0.648-1.224,1.259-1.224h58.414c0.612,0,1.039,0.548,0.955,1.224l-0.041,0.334
								C278.942,262.218,278.378,262.766,277.767,262.766z"/>
							<path id="XMLID_264_" style="fill:#96B4D6;" d="M276.917,269.621h-58.414c-0.611,0-1.039-0.548-0.955-1.224l0.041-0.334
								c0.084-0.676,0.648-1.224,1.259-1.224h58.414c0.612,0,1.039,0.548,0.956,1.224l-0.042,0.334
								C278.092,269.073,277.528,269.621,276.917,269.621z"/>
							<path id="XMLID_263_" style="fill:#96B4D6;" d="M276.066,276.477h-58.414c-0.612,0-1.039-0.548-0.955-1.224l0.041-0.334
								c0.084-0.676,0.648-1.224,1.259-1.224h58.414c0.611,0,1.039,0.548,0.955,1.224l-0.041,0.334
								C277.241,275.929,276.678,276.477,276.066,276.477z"/>
							<path id="XMLID_253_" style="fill:#96B4D6;" d="M275.216,283.332h-58.414c-0.612,0-1.039-0.548-0.956-1.224l0.042-0.334
								c0.084-0.676,0.647-1.224,1.259-1.224h58.414c0.612,0,1.039,0.548,0.955,1.224l-0.041,0.334
								C276.391,282.784,275.828,283.332,275.216,283.332z"/>
							<path id="XMLID_205_" style="fill:#96B4D6;" d="M274.366,290.188h-58.414c-0.611,0-1.039-0.548-0.955-1.224l0.041-0.334
								c0.084-0.676,0.648-1.224,1.259-1.224h58.414c0.612,0,1.039,0.548,0.955,1.224l-0.041,0.334
								C275.541,289.64,274.977,290.188,274.366,290.188z"/>
							<path id="XMLID_196_" style="fill:#96B4D6;" d="M273.516,297.043h-58.414c-0.611,0-1.039-0.548-0.955-1.224l0.041-0.334
								c0.084-0.676,0.648-1.224,1.259-1.224h58.414c0.611,0,1.039,0.548,0.955,1.224l-0.041,0.334
								C274.691,296.495,274.127,297.043,273.516,297.043z"/>
						</g>
					</g>
					<g id="XMLID_135_">
						<path id="XMLID_185_" style="fill:#96B4D6;" d="M402.58,225.131l2.203-8.969l-9.518-2.337
							c0.067-2.608-0.337-5.157-1.162-7.545l8.391-5.083l-4.789-7.895l-8.381,5.077c-1.743-1.832-3.813-3.378-6.15-4.517
							l2.337-9.518l-8.977-2.204l-2.337,9.518c-2.598-0.073-5.15,0.339-7.543,1.154l-5.077-8.381l-7.901,4.779l5.082,8.391
							c-1.837,1.733-3.376,3.805-4.525,6.148l-9.518-2.337l-2.202,8.969l9.518,2.337c-0.067,2.608,0.339,5.15,1.162,7.545
							l-8.389,5.075l4.787,7.903l8.389-5.075c1.735,1.83,3.807,3.369,6.142,4.515l-2.337,9.518l8.977,2.204l2.337-9.518
							c2.6,0.065,5.15-0.338,7.543-1.154l5.076,8.381l7.903-4.787l-5.084-8.383c1.84-1.741,3.376-3.805,4.525-6.148L402.58,225.131z
							 M370.748,225.08c-6.525-1.602-10.507-8.186-8.904-14.712c1.6-6.517,8.178-10.508,14.704-8.906
							c6.525,1.602,10.514,8.188,8.914,14.706C383.859,222.693,377.273,226.683,370.748,225.08z"/>
						<path id="XMLID_137_" style="fill:#96B4D6;" d="M438.367,266.986l2.73-6.691l-7.1-2.897c0.35-2.011,0.329-4.031-0.037-5.973
							l7.076-2.975l-2.804-6.659l-7.068,2.971c-1.14-1.617-2.565-3.051-4.244-4.199l2.897-7.1l-6.696-2.732l-2.897,7.1
							c-2.003-0.354-4.025-0.327-5.97,0.031l-2.971-7.068l-6.662,2.796l2.975,7.076c-1.62,1.131-3.048,2.56-4.205,4.242l-7.1-2.897
							l-2.73,6.691l7.1,2.897c-0.35,2.011-0.327,4.025,0.037,5.973l-7.074,2.969l2.802,6.664l7.073-2.969
							c1.134,1.615,2.562,3.043,4.238,4.197l-2.897,7.1l6.697,2.732l2.897-7.1c2.005,0.348,4.025,0.327,5.97-0.031l2.971,7.068
							l6.664-2.802l-2.977-7.07c1.623-1.137,3.048-2.56,4.205-4.242L438.367,266.986z M413.734,263.308
							c-4.867-1.986-7.197-7.537-5.21-12.405c1.984-4.862,7.532-7.199,12.399-5.213c4.868,1.986,7.203,7.54,5.219,12.402
							C424.156,262.959,418.602,265.294,413.734,263.308z"/>
						<path id="XMLID_141_" style="fill:#96B4D6;" d="M468.341,231.907l1.975-4.841l-5.137-2.096
							c0.253-1.455,0.238-2.916-0.027-4.321l5.12-2.152l-2.029-4.818l-5.114,2.15c-0.825-1.17-1.856-2.207-3.071-3.038l2.096-5.137
							l-4.845-1.977l-2.096,5.137c-1.449-0.256-2.912-0.236-4.32,0.023l-2.15-5.113l-4.82,2.023l2.152,5.119
							c-1.172,0.819-2.206,1.852-3.042,3.069l-5.137-2.096l-1.975,4.841l5.137,2.096c-0.253,1.455-0.236,2.912,0.027,4.321
							l-5.118,2.148l2.027,4.822l5.118-2.148c0.82,1.168,1.854,2.201,3.066,3.036l-2.096,5.137l4.845,1.977l2.096-5.137
							c1.451,0.252,2.912,0.236,4.319-0.023l2.15,5.114l4.822-2.027l-2.154-5.115c1.174-0.823,2.206-1.852,3.042-3.069
							L468.341,231.907z M450.519,229.246c-3.522-1.437-5.207-5.453-3.77-8.975c1.435-3.517,5.449-5.208,8.971-3.771
							c3.522,1.437,5.211,5.455,3.776,8.973C458.059,228.994,454.04,230.683,450.519,229.246z"/>
					</g>
					<g id="XMLID_10_">
						
							<path id="XMLID_193_" style="fill:none;stroke:#FFFFFF;stroke-width:2;stroke-linecap:round;stroke-linejoin:round;stroke-miterlimit:10;stroke-dasharray:12,6;" d="
							M498.025,117.568c0,0-18.717,9.223-25.243,35.947c-13.229,54.172,37.479,123.015-18.838,153.004
							c-41.134,21.904-20.003-74.066,0-53.196c18.338,19.133-70.358,95.431-125.917,61.801
							c-50.138-30.348-24.036-95.679,8.636-95.101"/>
						<g id="XMLID_254_">
							<g id="XMLID_248_">
								<polygon id="XMLID_252_" style="fill:#E56963;" points="504.708,126.422 555.556,78.67 507.747,108.051 								"/>
								<path id="XMLID_249_" style="fill:#F27D6B;" d="M496.218,97.761c2.522-0.875,59.338-19.09,59.338-19.09l-31.891,39.749
									L496.218,97.761z"/>
								<polygon id="XMLID_250_" style="fill:#C64542;" points="555.556,78.67 510.494,108.506 506.602,105.576 								"/>
								<polygon id="XMLID_251_" style="fill:#C64542;" points="506.602,105.576 504.708,126.422 510.494,108.506 								"/>
							</g>
						</g>
					</g>
					<g id="XMLID_9_">
						<path id="XMLID_13_" style="fill:#F8FCFF;" d="M580.556,255.837l-10.12,88.95c-1.5,13.18-13.42,23.87-26.61,23.87h-56.45
							c-0.25-0.36-0.47-0.73-0.68-1.1c-0.15,0.37-0.3,0.74-0.46,1.1h-267.85c-13.19,0-22.67-10.69-21.17-23.87l6.93-60.88
							c2.88,2.23,4.68,5.37,4.68,8.84c0,1.57-0.38,3.07-1.05,4.45c1.63-0.32,3.32-0.5,5.06-0.5c13.31,0,24.1,9.82,24.1,21.92
							c0,2.89-0.64,5.65-1.76,8.18c5.14,0.76,9.92,2.17,14.2,4.1c4.76-13.17,17.15-22.55,31.68-22.55
							c18.43,0,33.38,15.07,33.78,33.82c0.91-0.08,1.82-0.13,2.76-0.13c7.1,0,13.5,2.46,18.02,6.39c1.58-4.76,5.88-9.15,10.84-11.78
							c-0.89-2.9-1.37-5.98-1.37-9.17c0-17.24,13.98-31.22,31.23-31.22c13.88,0,25.65,9.06,29.71,21.6
							c15.22-1.14,30.57,7.13,34.66,18.18c4.6-2.13,9.89-3.34,15.52-3.34c0.94,0,1.86,0.04,2.79,0.11
							c-0.12-0.82-0.18-1.64-0.18-2.49c0-14.76,12.14-24.16,27.29-24.16c6.37,0,12.36,3.93,17.02,6.85
							c5.3-7.55,17.05-11.21,26.88-7.95c-0.67-7.84,8.79-15.93,17.35-15.34c-4.89-2-8.26-6.16-8.26-10.97
							c0-6.79,6.64-12.27,14.84-12.27c4.33,0,8.23,1.55,10.94,4.01c2.4-8.57,8.38-14.66,15.41-14.66
							C580.386,255.827,580.466,255.827,580.556,255.837z"/>
						<g id="XMLID_8_">
							<polygon id="XMLID_1_" style="fill:#F8FCFF;" points="326.028,282.512 316.743,349.059 252.841,345.733 296.219,273.694 
															"/>
							<g id="XMLID_2_">
								
									<line id="XMLID_4_" style="fill:none;stroke:#DFE8EF;stroke-linecap:round;stroke-linejoin:round;stroke-miterlimit:10;" x1="321.309" y1="290.188" x2="314.627" y2="324.03"/>
								
									<line id="XMLID_5_" style="fill:none;stroke:#DFE8EF;stroke-linecap:round;stroke-linejoin:round;stroke-miterlimit:10;" x1="309.32" y1="302.371" x2="302.881" y2="331.543"/>
								
									<line id="XMLID_6_" style="fill:none;stroke:#DFE8EF;stroke-linecap:round;stroke-linejoin:round;stroke-miterlimit:10;" x1="302.881" y1="295.652" x2="294.62" y2="319.718"/>
								
									<line id="XMLID_7_" style="fill:none;stroke:#DFE8EF;stroke-linecap:round;stroke-linejoin:round;stroke-miterlimit:10;" x1="296.219" y1="288.796" x2="279.078" y2="319.718"/>
							</g>
						</g>
					</g>
					<g id="XMLID_247_">
						<g id="XMLID_132_">
							<path id="XMLID_123_" style="fill:#DD4756;" d="M288.373,273.69l12.169-41.991l-37.141,34.073
								c-2.19,2.009-0.948,5.664,2.014,5.921L288.373,273.69z"/>
							<path id="XMLID_129_" style="fill:#DD4756;" d="M332.255,289.873l18.008-39.837l6.125,50.029
								c0.361,2.95-2.957,4.923-5.376,3.196L332.255,289.873z"/>
							<g id="XMLID_116_">
								<g id="XMLID_118_">
									<path id="XMLID_271_" style="fill:#F8D427;" d="M285.78,280.658l43.918,16.229l12.95-26.454l0.531-1.079l22.148-45.261
										l0.578-1.176l3.95-8.071l0,0l21.42-43.759c4.537-10.052,6.344-21.13,5.334-32.441l-0.122-1.39l-5.927-66.01
										c-0.166-1.914-2.977-2.954-4.353-1.603l-47.414,46.306l-0.991,0.966c-8.126,7.944-13.951,17.545-17.042,28.124
										l-14.422,55.916l-0.328,1.265L285.78,280.658z"/>
									<g id="XMLID_256_">
										<g id="XMLID_255_">
											<path id="XMLID_262_" style="fill:#EAB328;" d="M306.01,202.219c8.818-2.647,19.187-2.34,29.586,1.01
												c12.387,3.993,23.169,11.661,29.731,20.863l0.578-1.176c-6.754-9.17-17.564-16.778-29.951-20.771
												c-10.364-3.343-20.717-3.72-29.617-1.191L306.01,202.219z"/>
										</g>
										<path id="XMLID_131_" style="fill:#F9F09D;" d="M340.38,201.436c0.058,0.554,0.554,0.956,1.108,0.898
											c0.554-0.058,0.956-0.554,0.898-1.108c-0.058-0.554-0.554-0.956-1.108-0.898
											C340.724,200.386,340.322,200.882,340.38,201.436z"/>
										<path id="XMLID_259_" style="fill:#F9F09D;" d="M323.143,197.555c0.058,0.554,0.554,0.956,1.108,0.898
											c0.554-0.058,0.956-0.554,0.898-1.108c-0.058-0.554-0.554-0.956-1.108-0.898
											C323.487,196.504,323.085,197.001,323.143,197.555z"/>
										<path id="XMLID_260_" style="fill:#F9F09D;" d="M308.868,198.033c0.058,0.554,0.554,0.956,1.108,0.898
											c0.554-0.058,0.956-0.554,0.898-1.108c-0.058-0.554-0.554-0.956-1.108-0.898
											C309.212,196.983,308.81,197.479,308.868,198.033z"/>
										<path id="XMLID_257_" style="fill:#F9F09D;" d="M353.9,208.291c0.058,0.554,0.554,0.956,1.108,0.898
											c0.554-0.058,0.956-0.554,0.898-1.108c-0.058-0.554-0.554-0.956-1.108-0.898
											C354.244,207.241,353.842,207.737,353.9,208.291z"/>
										<path id="XMLID_258_" style="fill:#F9F09D;" d="M362.9,216.597c0.058,0.554,0.554,0.956,1.108,0.898
											c0.554-0.058,0.956-0.554,0.898-1.108c-0.058-0.554-0.554-0.956-1.108-0.898
											C363.244,215.547,362.842,216.043,362.9,216.597z"/>
									</g>
									<path id="XMLID_126_" style="fill:#E86457;" d="M338.794,115.946c20.779,2.91,40.009,10.013,57.69,21.309l-5.925-66.007
										c-0.17-1.916-2.98-2.954-4.355-1.609L338.794,115.946z"/>
								</g>
								<path id="XMLID_108_" style="fill:#E86457;" d="M283.035,286.344l45.052,16.641c1.374,0.507,2.898-0.195,3.405-1.568
									l0.636-1.721c0.507-1.373-0.195-2.898-1.568-3.405l-45.052-16.641c-1.373-0.507-2.898,0.195-3.405,1.568l-0.636,1.721
									C280.959,284.312,281.661,285.836,283.035,286.344z"/>
								<path id="XMLID_117_" style="fill:#E86457;" d="M288.169,268.528l47.598,17.581c1.49,0.55,3.143-0.211,3.693-1.701l0.48-1.3
									c0.55-1.49-0.211-3.143-1.701-3.693l-47.598-17.581c-1.49-0.55-3.143,0.211-3.693,1.701l-0.48,1.3
									C285.918,266.324,286.68,267.978,288.169,268.528z"/>
							</g>
							<g id="XMLID_130_">
								
									<ellipse id="XMLID_120_" transform="matrix(0.346 -0.9382 0.9382 0.346 78.5274 437.5504)" style="fill:#F9F09D;" cx="353.129" cy="162.446" rx="20.249" ry="20.92"/>
								<g id="XMLID_124_">
									<path id="XMLID_143_" style="fill:#102351;" d="M339.346,157.362c-2.809,7.618,1.085,16.062,8.703,18.871
										c1.524,0.562,3.084,0.857,4.617,0.898c1.276,0.044,2.528-0.079,3.742-0.363c1.48-0.344,2.905-0.903,4.203-1.68
										c2.81-1.67,5.084-4.268,6.299-7.562c2.809-7.618-1.085-16.062-8.692-18.867c-3.959-1.46-8.149-1.104-11.645,0.642
										c-1.312,0.65-2.511,1.487-3.581,2.506c-0.884,0.844-1.674,1.796-2.337,2.868l-0.004,0.011
										C340.136,155.52,339.699,156.407,339.346,157.362z"/>
									<path id="XMLID_139_" style="fill:#1F4968;" d="M346.573,149.301l14.038,25.787c2.81-1.67,5.084-4.268,6.299-7.562
										c2.809-7.618-1.085-16.062-8.692-18.867C354.259,147.2,350.069,147.556,346.573,149.301z"/>
									<path id="XMLID_136_" style="fill:#1F4968;" d="M340.654,154.676l-0.004,0.011l12.016,22.446
										c1.276,0.044,2.528-0.079,3.742-0.363c-3.43-6.299-10.796-20.07-13.416-24.961
										C342.107,152.652,341.318,153.604,340.654,154.676z"/>
								</g>
							</g>
						</g>
						<path id="XMLID_246_" style="opacity:0.29;fill:#FCFAF2;" d="M385.854,73.855c-1.725-1.277-48.623,45.493-54.301,59.859
							c-7.274,18.403-29.683,100.958-35.157,121.256c-0.69,2.56,0.684,5.224,3.17,6.146l16.483,6.116c0,0-12.82-8.66-6.914-32.157
							c5.906-23.497,17.585-81.653,27.82-99.047C353.959,107.129,386.948,74.664,385.854,73.855z"/>
					</g>
				</g>
			</g>
		</g>
		<g id="XMLID_245_">
			<g id="XMLID_244_">
				<g id="XMLID_31_">
					<g id="XMLID_208_">
						<path id="XMLID_210_" style="fill:#4B3141;" d="M212.172,448.155l-1.061,0.195c-1.816,0.334-3.559-0.867-3.893-2.683
							l-10.82-58.791c-0.334-1.816,0.867-3.559,2.683-3.893l1.061-0.195c1.816-0.334,3.559,0.867,3.893,2.683l10.82,58.791
							C215.19,446.078,213.988,447.821,212.172,448.155z"/>
						<path id="XMLID_209_" style="fill:#4B3141;" d="M148.673,448.155l1.061,0.195c1.816,0.334,3.559-0.867,3.894-2.683
							l10.82-58.791c0.334-1.816-0.867-3.559-2.683-3.893l-1.061-0.195c-1.816-0.334-3.559,0.867-3.894,2.683l-10.82,58.791
							C145.655,446.078,146.857,447.821,148.673,448.155z"/>
					</g>
					<g id="XMLID_176_">
						<path id="XMLID_174_" style="fill:#66485E;" d="M180.659,450.206l-1.061,0.195c-1.816,0.334-3.559-0.867-3.894-2.683
							l-10.82-58.791c-0.334-1.816,0.867-3.559,2.683-3.893l1.061-0.195c1.816-0.334,3.559,0.867,3.894,2.683l10.82,58.791
							C183.676,448.129,182.475,449.872,180.659,450.206z"/>
						<path id="XMLID_206_" style="fill:#66485E;" d="M117.16,450.206l1.061,0.195c1.816,0.334,3.559-0.867,3.894-2.683
							l10.82-58.791c0.334-1.816-0.867-3.559-2.683-3.893l-1.061-0.195c-1.816-0.334-3.559,0.867-3.894,2.683l-10.82,58.791
							C114.142,448.129,115.343,449.872,117.16,450.206z"/>
					</g>
					<polyline id="XMLID_171_" style="fill:#ED4F57;" points="101.319,321.084 145.239,319.718 183.588,372.339 213.697,378.823 
						214.823,397.058 170.081,397.058 125.62,388.66 					"/>
					<path id="XMLID_32_" style="fill:#FF6252;" d="M96.779,328.853l19.55,63.876c0.787,2.572,3.162,4.329,5.852,4.329h49.08
						c3.38,0,6.12-2.74,6.12-6.12v-1.087c0-3.389-2.754-6.133-6.143-6.12l-40.154,0.154c-2.695,0.01-5.079-1.743-5.872-4.318
						L108.48,325.26c-0.937-3.043-4.051-4.858-7.161-4.176l0,0C97.827,321.851,95.733,325.434,96.779,328.853z"/>
				</g>
				<g id="XMLID_234_">
					<g id="XMLID_227_">
						<path id="XMLID_223_" style="fill:#FCC495;" d="M173.38,315.125l5.886,15.773l26.219-3.211v7.848
							c0,0-32.539,10.405-34.857,8.929c-2.318-1.477-11.925-26.754-11.925-26.754L173.38,315.125z"/>
						<path id="XMLID_224_" style="fill:#F99569;" d="M154.219,303.674v-15.184c0,0,7.613,1.107,11.347,6.135
							c3.735,5.027,10.769,22.599,10.338,22.856c-0.431,0.257-17.833,4.705-17.833,4.705L154.219,303.674z"/>
					</g>
					<g id="XMLID_233_">
						<g id="XMLID_232_">
							<g id="XMLID_231_">
								<g id="XMLID_158_">
									<path id="XMLID_162_" style="fill:#102351;" d="M254.304,448.316h-31.274c-0.348,0.046-0.616-1.01-0.557-2.671
										c0.093-2.822,1.092-7.432,4.111-11.369c0.662-0.871,9.755,0.36,9.755,0.36l2.729,1.777c0,0,12.507,2.183,14.876,9.232
										C254.199,446.47,254.339,447.352,254.304,448.316z"/>
									<path id="XMLID_160_" style="fill:#406091;" d="M254.304,448.316h-31.274c-0.348,0.046-0.616-1.01-0.557-2.671h31.472
										C254.199,446.47,254.339,447.352,254.304,448.316z"/>
								</g>
								<path id="XMLID_148_" style="fill:#1A3187;" d="M166.26,346.416c0,0,43.438,3.348,50.912,7.926
									c7.397,4.531,22.901,82.281,22.901,82.281s-15.793,3.778-16.209,2.53c-0.416-1.249-16.223-57.28-20.801-59.777
									c-4.578-2.497-50.058-10.211-50.058-10.211L166.26,346.416z"/>
							</g>
							<g id="XMLID_230_">
								<g id="XMLID_156_">
									<path id="XMLID_172_" style="fill:#102351;" d="M219.592,448.316h-31.274c-0.348,0.046-0.615-1.01-0.557-2.671
										c0.093-2.822,1.092-7.432,4.111-11.369c0.662-0.871,9.755,0.36,9.755,0.36l2.729,1.777c0,0,12.508,2.183,14.877,9.232
										C219.488,446.47,219.627,447.352,219.592,448.316z"/>
									<path id="XMLID_168_" style="fill:#406091;" d="M219.592,448.316h-31.274c-0.348,0.046-0.615-1.01-0.557-2.671h31.472
										C219.488,446.47,219.627,447.352,219.592,448.316z"/>
								</g>
								<g id="XMLID_157_">
									<path id="XMLID_169_" style="fill:#20429B;" d="M204.36,436.411c-5.685,2.016-10.79,2.904-15.341,2.717l-10.617-56.879
										c0,0-38.887,2.115-47.109-2.658c-7.154-4.158-9.075-15.667-9.261-24.029c-0.105-4.622,0.209-7.978,0.209-7.978l5.83-10.533
										l0.592-1.069c0,0,0.848-0.023,2.288-0.046c8.28-0.151,36.268-0.104,37.36,7.049c0.151,1.01,0.186,2.009,0.139,2.973
										c-0.43,6.968-4.683,11.154-4.683,11.154s25.35-0.854,31.082,3.671C198.956,364.027,204.36,436.411,204.36,436.411z"/>
									<path id="XMLID_164_" style="fill:#1A3187;" d="M168.449,345.959c-7.653,2.032-34.584,8.989-46.418,9.604
										c-0.105-4.622,0.209-7.978,0.209-7.978l5.83-10.533l2.88-1.115c8.28-0.151,36.268-0.104,37.36,7.049
										C168.461,343.997,168.496,344.995,168.449,345.959z"/>
								</g>
							</g>
						</g>
						<path id="XMLID_229_" style="fill:#F48859;" d="M168.889,346.167l-47.846,7.189c0,0-4.564-24.55-6.736-40.216
							c-0.859-6.108-1.347-10.87-1.057-12.298c1.591-7.978,14.551-10.545,26.443-12.171c11.904-1.614,19.882,0.093,21.624,3.252
							c3.855,6.968,5.818,25.352,6.759,38.788C168.703,339.501,168.889,346.167,168.889,346.167z"/>
						<g id="XMLID_225_">
							<g id="XMLID_177_">
								<path id="XMLID_179_" style="fill:#FFE6A6;" d="M127.053,291.402c0,0,14.171,11.501,16.988,10.9
									c2.817-0.592,3.362-12.669,3.362-12.669s-0.826-0.178-1.672-0.949c-1.005-0.93-2.029-2.714-1.69-6.076l-12.941-6.912
									c0,0,0.272,3.691-0.197,7.673C130.452,287.145,129.72,290.041,127.053,291.402z"/>
								<path id="XMLID_178_" style="fill:#FCC495;" d="M130.903,283.37c2.808,2.611,8.922,7.316,14.829,5.315
									c-1.005-0.93-2.029-2.714-1.69-6.076l-12.941-6.912C131.1,275.697,131.373,279.388,130.903,283.37z"/>
							</g>
							<g id="XMLID_147_">
								<path id="XMLID_175_" style="fill:#FCC495;" d="M161.077,267.723c1.029,2.18-0.765,5.187-4.007,6.717
									c-3.242,1.53-6.703,1.002-7.732-1.178c-1.029-2.18,0.765-5.187,4.007-6.717
									C156.587,265.015,160.048,265.543,161.077,267.723z"/>
								<g id="XMLID_146_">
									<path id="XMLID_173_" style="fill:#FFE6A6;" d="M126.668,272.116c3.787,11.084,14.151,14.998,20.36,14.136
										c8.352-1.16,12.139-12.778,9.041-24.064c-0.203-0.732-0.434-1.451-0.689-2.148c-1.513-4.081-3.949-7.51-6.891-9.969
										c-4.282-3.59-9.63-5.148-14.737-3.745C128.057,247.885,122.302,259.337,126.668,272.116z"/>
									<path id="XMLID_133_" style="fill:#FCC495;" d="M129.574,271.055c0.092-0.26,5.365-5.379,4.951-11.788
										c0,0,2.675,2.315,6.888,2.695c3.753,0.338,6.755-1.354,6.213-2.733c0,0,4.354,1.747,7.027,1.17
										c2.673-0.577,1.07-3.734,1.07-3.734l-17.529-4.703l-12.758,5.625L129.574,271.055z"/>
								</g>
								<g id="XMLID_145_">
									<path id="XMLID_170_" style="fill:#102351;" d="M142.566,270.298c0.073,0.593,0.518,1.026,0.994,0.968
										c0.476-0.058,0.804-0.587,0.731-1.18c-0.073-0.593-0.518-1.026-0.994-0.968
										C142.82,269.177,142.493,269.705,142.566,270.298z"/>
									<path id="XMLID_165_" style="fill:#102351;" d="M153.979,268.798c0.073,0.593,0.518,1.026,0.994,0.968
										c0.476-0.059,0.803-0.587,0.731-1.18c-0.073-0.593-0.518-1.026-0.994-0.968
										C154.233,267.677,153.906,268.205,153.979,268.798z"/>
									
										<path id="XMLID_153_" style="fill:none;stroke:#102351;stroke-linecap:round;stroke-linejoin:round;stroke-miterlimit:10;" d="
										M144.649,264.106c-2.29-0.662-4.936-0.169-6.79,1.264"/>
									
										<path id="XMLID_152_" style="fill:none;stroke:#102351;stroke-linecap:round;stroke-linejoin:round;stroke-miterlimit:10;" d="
										M155.714,262.764c-1.603-0.692-3.076-0.467-4.46,0.671"/>
									
										<path id="XMLID_151_" style="fill:none;stroke:#DD665E;stroke-linecap:round;stroke-linejoin:round;stroke-miterlimit:10;" d="
										M150.483,269.771c0.406,1.531,0.416,3.145,0.031,4.69"/>
									<path id="XMLID_214_" style="fill:#DD665E;" d="M149.878,277.163c-2.354-0.388-4.964-1.136-7.277-2.35
										c0,0-1.28,4.744,2.248,5.767C148.348,281.594,149.878,277.163,149.878,277.163z"/>
								</g>
								<g id="XMLID_57_">
									<path id="XMLID_161_" style="fill:#102351;" d="M160.488,257.651c-1.283,0.895-2.642,1.448-2.642,1.448l-0.804,8.418
										c-0.09-3.113-1.859-7.997-1.859-7.997c-4.944,0.618-12.865-3.101-13.573-3.435c0.48,0.292,4.366,2.682,4.541,3.444
										c0.181,0.808-2.712,1.924-6.686,0.821c-3.975-1.115-6.217-3.273-6.217-3.273c0.915,8.125-4.526,16.983-4.526,16.983
										l-4.673-0.514c0,0-4.73-8.417-4.207-15.115c0.442-5.741,6.14-9.271,6.14-9.271s-4.322-0.084-3.513-2.36
										c0.819-2.288,6.272,0.337,6.272,0.337c-0.021-3.414,2.436-5.412,4.092-5.931c0.382-0.129,0.716-0.17,0.965-0.142
										c0.926,0.109-0.3,2.319-1.201,3.751c-0.431,0.685-0.789,1.197-0.789,1.197c0.866-0.668,1.773-1.189,2.72-1.574
										c8.729-3.622,20.317,4.047,25.955,7.368C164.281,254.049,162.481,256.259,160.488,257.651z"/>
									<path id="XMLID_159_" style="fill:#183960;" d="M160.488,257.651c0.259-0.652,0.347-1.365,0.139-2.018
										c-0.376-1.159-1.559-1.833-2.644-2.378c-5.302-2.684-10.726-5.119-16.248-7.307c-2.3-0.911-4.829-1.783-7.206-1.514
										c8.729-3.622,20.317,4.047,25.955,7.368C164.281,254.049,162.481,256.259,160.488,257.651z"/>
								</g>
								<path id="XMLID_154_" style="fill:#FFE6A6;" d="M131.856,274.656c-0.531,2.351-3.378,3.712-6.359,3.038
									c-2.981-0.674-4.966-3.126-4.435-5.477c0.531-2.351,3.378-3.712,6.359-3.038
									C130.402,269.853,132.388,272.305,131.856,274.656z"/>
							</g>
						</g>
						<g id="XMLID_213_">
							<g id="XMLID_212_">
								<rect id="XMLID_207_" x="176.639" y="338.808" style="fill:#FCED97;" width="73.628" height="2.792"/>
								<rect id="XMLID_211_" x="200.04" y="338.808" style="fill:#EAB51F;" width="50.226" height="2.792"/>
							</g>
							<g id="XMLID_167_">
								<g id="XMLID_163_">
									<polygon id="XMLID_217_" style="fill:#FCED97;" points="256.448,304.83 257.432,307.318 252.31,339.542 201.06,339.542 
										199.456,338.726 204.845,304.83 									"/>
									<polygon id="XMLID_215_" style="fill:#F8D427;" points="257.432,307.318 252.31,339.542 201.06,339.542 206.183,307.318 
																			"/>
								</g>
								<path id="XMLID_166_" style="fill:#FCED97;" d="M236.553,324.03c0,1.678-2.87,3.039-6.41,3.039
									c-3.54,0-6.41-1.361-6.41-3.039c0-1.678,2.87-3.039,6.41-3.039C233.683,320.991,236.553,322.351,236.553,324.03z"/>
							</g>
						</g>
						<g id="XMLID_226_">
							<path id="XMLID_228_" style="fill:#FFE6A6;" d="M174.126,334.275c0,0-32.354,19.522-38.544,17.768
								c-3.646-1.034-9.871-11.822-13.994-19.708c-2.439-4.657-4.134-8.303-4.134-8.303l2.381-1.312l13.715-7.595
								c0,0,0.279,0.755,0.732,1.974c0.569,1.51,1.405,3.728,2.346,6.12c2.218,5.633,4.959,12.206,5.923,12.682
								c1.939,0.976,27.523-9.198,27.523-9.198L174.126,334.275z"/>
							<path id="XMLID_218_" style="fill:#F99569;" d="M119.802,293.587c0,0-7.123,2.967-8.714,10.395
								c-1.591,7.427,5.992,26.915,5.992,26.915l19.866-8.711C136.945,322.186,128.516,295.041,119.802,293.587z"/>
							<g id="XMLID_222_">
								<path id="XMLID_216_" style="fill:#FFE6A6;" d="M166.846,329.05c0.339-0.612,10.771-10.38,12.637-11.326
									c1.094-0.555,7.265-1.522,8.613-1.154s7.159,6.239,5.175,7.962c-1.438,1.249-5.634-4.667-6.368-4.544
									c-0.735,0.122-2.939,0.832-2.939,0.832s7.075,2.973,6.93,5.192c-0.133,2.049-2.833,1.856-2.833,1.856
									s0.63,1.678-1.052,2.809c-1.308,0.879-3.06,0.499-3.06,0.499s0.364,1.473-1.102,2.646c-1.537,1.23-3.826,0.202-3.826,0.202
									s-3.476,2.448-7.353,1.111C168.284,333.967,166.846,329.05,166.846,329.05z"/>
								<g id="XMLID_221_">
									
										<path id="XMLID_149_" style="fill:none;stroke:#E56B57;stroke-width:0.5;stroke-linecap:round;stroke-linejoin:round;stroke-miterlimit:10;" d="
										M187.861,327.686c-1.771-1.408-3.661-2.666-5.645-3.754"/>
									
										<path id="XMLID_155_" style="fill:none;stroke:#E56B57;stroke-width:0.5;stroke-linecap:round;stroke-linejoin:round;stroke-miterlimit:10;" d="
										M183.786,330.993c-1.386-1.759-3.438-3.433-5.548-4.181"/>
									
										<path id="XMLID_219_" style="fill:none;stroke:#E56B57;stroke-width:0.5;stroke-linecap:round;stroke-linejoin:round;stroke-miterlimit:10;" d="
										M179.025,333.822c0.372-0.688,0.536-1.487,0.465-2.266"/>
									
										<path id="XMLID_220_" style="fill:none;stroke:#E56B57;stroke-width:0.5;stroke-linecap:round;stroke-linejoin:round;stroke-miterlimit:10;" d="
										M179.489,332.85c0.516,0.116,1.032,0.232,1.548,0.348"/>
								</g>
							</g>
						</g>
					</g>
				</g>
			</g>
			<g id="XMLID_243_">
				<g id="XMLID_237_">
					<rect id="XMLID_235_" x="165.554" y="341.868" style="fill:#C49467;" width="140.483" height="12.032"/>
					<rect id="XMLID_236_" x="163.495" y="341.6" style="fill:#785638;" width="144.602" height="6.284"/>
				</g>
				<g id="XMLID_242_">
					<g id="XMLID_240_">
						<rect id="XMLID_238_" x="232.944" y="353.9" style="fill:#C49467;" width="5.704" height="89.672"/>
						<rect id="XMLID_239_" x="232.944" y="353.9" style="fill:#AF6C46;" width="5.704" height="8.549"/>
					</g>
					<rect id="XMLID_241_" x="210.613" y="441.141" style="fill:#AF6C46;" width="50.365" height="7.177"/>
				</g>
			</g>
		</g>
		<g id="XMLID_11_">
			<g id="XMLID_103_">
				<g id="XMLID_88_">
					<g id="XMLID_36_">
						<path id="XMLID_101_" style="fill:#FFC484;" d="M617.348,358.353c-0.187,4.802-0.055,9.175,0.637,12.362
							c3.725,17.23-1.744,64.209-1.744,64.209c-3.063,2.261-6.76,3.187-9.706,1.7l-9.12-79.172l-2.967-25.823l-0.461-3.978
							l1.901-19.955l25.823,16.461c0,0-0.44,2.242-1.044,5.78C619.501,336.772,617.743,348.463,617.348,358.353z"/>
						<path id="XMLID_94_" style="fill:#F7A272;" d="M620.666,329.937c-1.165,6.835-2.923,18.526-3.318,28.416
							c-6.857,0.527-13.911,0.439-19.933-0.901l-2.967-25.823L620.666,329.937z"/>
					</g>
					<g id="XMLID_37_">
						<path id="XMLID_100_" style="fill:#FFC484;" d="M650.957,428.185l-9.671,5.257c0,0-20.4-65.441-21.487-71.924
							c-0.11-0.681-0.143-1.835-0.121-3.362c0.099-5.934,1.143-17.483,2.264-28.306c1.33-13.032,2.758-25.032,2.758-25.032
							l17.494,23.724l5.121,6.956c0,0-2.362,9.67-4.274,18.45c-1.484,6.824-2.703,13.098-2.319,13.878
							C645.709,378.132,650.957,428.185,650.957,428.185z"/>
						<path id="XMLID_95_" style="fill:#F7A272;" d="M647.313,335.497c0,0-2.362,9.67-4.274,18.45
							c-4.736,1.286-13.703,3.286-23.362,4.209c0.099-5.934,1.143-17.483,2.264-28.306l20.252-1.308L647.313,335.497z"/>
					</g>
				</g>
				<g id="XMLID_56_">
					<path id="XMLID_115_" style="fill:#243193;" d="M620.684,446.86c-1.198,1.066-36.807,3.087-34.829-0.693
						c0.824-1.571,5.373-4.022,10.109-6.241c5.67-2.648,11.593-4.956,11.593-4.956s5.34-4.901,8.417-1.648
						c0.396,0.428,0.802,0.945,1.187,1.549C619.809,438.882,622.167,445.553,620.684,446.86z"/>
					<path id="XMLID_113_" style="fill:#FFC484;" d="M617.161,434.871c-4.011,2.22-14.955,7.692-21.197,5.055
						c5.67-2.648,11.593-4.956,11.593-4.956s5.34-4.901,8.417-1.648C616.37,433.75,616.776,434.267,617.161,434.871z"/>
				</g>
				<g id="XMLID_102_">
					<path id="XMLID_109_" style="fill:#243193;" d="M659.599,439.088c-0.829,1.372-34.251,13.826-33.478,9.63
						c0.323-1.745,3.945-5.43,7.813-8.95c4.634-4.206,9.611-8.16,9.611-8.16s3.653-6.26,7.554-4.062
						c0.505,0.293,1.046,0.666,1.592,1.13C656.405,431.724,660.629,437.4,659.599,439.088z"/>
					<path id="XMLID_106_" style="fill:#FFC484;" d="M652.69,428.675c-3.176,3.306-12.014,11.768-18.756,11.093
						c4.634-4.206,9.611-8.16,9.611-8.16s3.653-6.26,7.554-4.062C651.603,427.838,652.144,428.211,652.69,428.675z"/>
				</g>
			</g>
			<g id="XMLID_84_">
				<path id="XMLID_128_" style="fill:#254099;" d="M646.379,351.996c-18.922,2.395-36.493,2.45-52.624,0
					c0,0-0.484-8.637-0.725-18.779c-0.253-10.45-0.275-22.515,0.725-28.405c1.648-9.637,3.395-17.647,4.659-22.933
					c1.044-4.395,1.736-6.901,1.736-6.901l27.065,1.791c2.033,2.154,3.868,4.417,5.516,6.758
					c5.461,7.736,8.956,16.373,11.142,24.823C649.698,330.777,646.379,351.996,646.379,351.996z"/>
				<path id="XMLID_99_" style="fill:#243193;" d="M646.379,352.001c-18.922,2.396-36.493,2.439-52.624,0
					c0,0-0.484-8.637-0.725-18.79c29.097,4.835,43.998-12.362,50.844-24.867C649.698,330.783,646.379,352.001,646.379,352.001z"/>
			</g>
			<g id="XMLID_112_">
				<path id="XMLID_121_" style="fill:#FFC484;" d="M591.855,245.826c0,0-3.231,5.45-6.154,9.384
					c-1.626,2.198-3.154,3.923-3.967,3.978c-2.762,0.173-25.971-14.091-29.474-16.254c-0.055-3.06-0.523-5.666-0.801-8.712
					c-0.094-1.037-0.011-4.097-0.352-4.243c-2.05-0.877-2.784,6.519-2.903,6.544c-1.565-2.155-2.071-3.428-3.187-5.237
					c-0.613-0.993-2.217-4.217-3.083-4.001c-2.15,0.538,1.334,6.523,2.434,8.597c-1.857-1.119-4.606-2.854-6.606-3.707
					c-0.798-0.34-1.998-0.94-2.612,0.023c-0.581,0.911,5.497,5.177,7.023,5.911c-1.564-0.212-9.099-2.992-9.789-0.763
					c-0.229,0.739,3.001,2.129,4.108,2.465c1.151,0.349,2.702,0.941,3.853,1.29c-1.923-0.215-7.398-0.135-7.75,0.992
					c-0.223,0.712,1.184,1.027,1.975,1.169c2.159,0.388,4.357,0.787,6.536,1.058c-0.043,0.061,2.084,3.916,5.37,4.63l-0.026,0.031
					c0,0,32.163,26.273,37.789,25.043c2.286-0.495,6.011-3.428,9.56-6.681c4.912-4.483,9.494-9.538,9.494-9.538L591.855,245.826z"/>
				<path id="XMLID_122_" style="fill:#F7A272;" d="M603.294,257.803c0,0-4.582,5.055-9.494,9.538l-8.098-12.131
					c2.923-3.934,6.154-9.384,6.154-9.384L603.294,257.803z"/>
				
					<path id="XMLID_111_" style="fill:none;stroke:#E56B57;stroke-width:0.5;stroke-linecap:round;stroke-linejoin:round;stroke-miterlimit:10;" d="
					M547.716,237.622c-1.396,1.61-2,3.877-1.59,5.969"/>
			</g>
			<g id="XMLID_97_">
				<g id="XMLID_96_">
					<path id="XMLID_114_" style="fill:#D5E8EF;" d="M605.027,238.612l-2.457-5.808c0,0-3.882,0.54-5.875,2.904
						c-1.993,2.364-11.134,16.394-11.134,16.394l13.949,11.565L605.027,238.612z"/>
					<path id="XMLID_127_" style="fill:#E8F5F9;" d="M638.764,241.694c-0.484,10.681-8.219,36.998-8.736,37.998
						c-1.176,2.242-28.691,1.374-30.658-1.725c-0.659-1.044-3.461-7.164-4.714-14.087c-0.033-0.132-0.055-0.275-0.077-0.417
						c-0.736-4.121-1.077-8.186-0.626-10.78c0.736-4.209,4.275-17.768,7.747-19.516c4.681-2.34,33.866-0.154,36.614,4.648
						c0.121,0.22,0.22,0.483,0.297,0.824v0.022c0.033,0.132,0.055,0.286,0.077,0.44
						C638.786,239.793,638.808,240.672,638.764,241.694z"/>
					<path id="XMLID_125_" style="fill:#D5E8EF;" d="M638.764,241.694c-0.484,10.681-8.219,36.998-8.736,37.998
						c-1.176,2.242-28.691,1.374-30.658-1.725c-0.659-1.044-3.461-7.164-4.714-14.087c-0.022-0.154-0.055-0.319-0.077-0.472
						c34.108,10.835,42.152-12.241,44.031-24.768c0.033,0.143,0.066,0.297,0.077,0.462
						C638.786,239.793,638.808,240.672,638.764,241.694z"/>
				</g>
				<g id="XMLID_23_">
					<g id="XMLID_83_">
						<path id="XMLID_93_" style="fill:#FFC484;" d="M630.32,235.252c0,0-14.556,10.358-17.374,9.757
							c-2.817-0.592-3.362-12.669-3.362-12.669s0.826-0.178,1.672-0.949c1.005-0.93,2.028-2.714,1.69-6.076l12.941-6.912
							c0,0-0.272,3.691,0.197,7.673C626.535,229.852,627.653,233.891,630.32,235.252z"/>
						<path id="XMLID_91_" style="fill:#F7A272;" d="M626.084,226.077c-2.808,2.611-8.922,7.316-14.829,5.315
							c1.005-0.93,2.028-2.714,1.69-6.076l12.941-6.912C625.887,218.404,625.615,222.095,626.084,226.077z"/>
					</g>
					<g id="XMLID_58_">
						<path id="XMLID_62_" style="fill:#0D1B47;" d="M623.433,188.814c0,0,3.721-9.885,14.034-7.872
							c10.313,2.014,8.483,16.476,8.3,19.222s-0.366,5.927,3.661,9.005c4.027,3.078,2.38,8.203-2.563,10.766
							s-0.549,4.21,1.648,6.224c2.197,2.014-3.478,6.041-9.336,5.126c-5.858-0.915-8.337-6.59-5.541-8.97
							c2.795-2.38-0.683-5.858-2.697-6.59C628.925,214.992,623.433,188.814,623.433,188.814z"/>
						<path id="XMLID_60_" style="fill:#F7A272;" d="M596.306,211.753c-0.755,2.289,1.392,5.055,4.795,6.179
							c3.404,1.123,6.775,0.178,7.531-2.111c0.755-2.289-1.392-5.055-4.795-6.178C600.433,208.519,597.062,209.464,596.306,211.753z
							"/>
						<path id="XMLID_63_" style="fill:#102351;" d="M598.907,201.268c0,0-0.204,7.47,1.673,11.663
							c1.877,4.192,7.148-14.387,7.148-14.387L598.907,201.268z"/>
						<g id="XMLID_85_">
							<path id="XMLID_69_" style="fill:#FFC484;" d="M633.278,211.305c-1.7,11.589-11.26,17.834-19.966,17.12
								c-9.241-0.761-14.218-10.668-12.518-22.248c0.113-0.751,0.253-1.493,0.423-2.216c1.005-4.235,3.005-7.936,5.625-10.734
								c3.813-4.085,8.931-6.283,14.171-5.513c5.841,0.855,9.795,5.231,11.57,11.176c0.347,1.164,0.61,2.404,0.779,3.681
								C633.747,205.313,633.729,208.281,633.278,211.305z"/>
							<path id="XMLID_65_" style="fill:#F7A272;" d="M633.362,202.571l-3.071,9.908c0,0-5.935-5.635-7.945-12.058
								c0,0-3.409,2.996-7.165,2.996c-3.747,0-4.076-2.339-4.076-2.339s-5.71,4.517-9.889,2.883
								c1.005-4.235,3.005-7.936,5.625-10.734l19.177-2.817l6.564,8.48C632.93,200.054,633.193,201.294,633.362,202.571z"/>
						</g>
						<g id="XMLID_64_">
							<g id="XMLID_66_">
								<g id="XMLID_67_">
									<path id="XMLID_68_" style="fill:#102351;" d="M616.182,213.049c0,0.597-0.389,1.082-0.869,1.082
										c-0.48,0-0.869-0.484-0.869-1.082c0-0.597,0.389-1.082,0.869-1.082C615.793,211.967,616.182,212.452,616.182,213.049z"/>
									<g id="XMLID_70_">
										<ellipse id="XMLID_71_" style="opacity:0.26;fill:#B8E9F4;" cx="617.289" cy="211.967" rx="5.036" ry="4.84"/>
										
											<ellipse id="XMLID_72_" style="fill:none;stroke:#E23452;stroke-miterlimit:10;" cx="617.289" cy="211.967" rx="5.036" ry="4.84"/>
									</g>
								</g>
								<g id="XMLID_73_">
									<path id="XMLID_76_" style="fill:#102351;" d="M603.439,213.049c0,0.597-0.389,1.082-0.869,1.082
										c-0.48,0-0.869-0.484-0.869-1.082c0-0.597,0.389-1.082,0.869-1.082C603.05,211.967,603.439,212.452,603.439,213.049z"/>
									<g id="XMLID_74_">
										<ellipse id="XMLID_75_" style="opacity:0.26;fill:#B8E9F4;" cx="604.546" cy="211.967" rx="5.036" ry="4.84"/>
										
											<ellipse id="XMLID_77_" style="fill:none;stroke:#E23452;stroke-miterlimit:10;" cx="604.546" cy="211.967" rx="5.036" ry="4.84"/>
									</g>
								</g>
								<path id="XMLID_78_" style="fill:none;stroke:#E23452;stroke-miterlimit:10;" d="M608.667,209.039
									c1.349-0.612,2.989-0.535,4.275,0.2"/>
								<path id="XMLID_79_" style="fill:none;stroke:#E23452;stroke-miterlimit:10;" d="M622.302,210.931
									c2.393,0.121,4.785,0.241,7.178,0.362"/>
							</g>
							<path id="XMLID_80_" style="fill:#102351;" d="M634.799,213.493h-5.447c0,0-5.71-10.828-5.71-16.538
								c0,0-5.017,4.342-8.33,4.649c-3.554,0.329-3.85-2.705-3.85-2.705s-5.757,4.001-10.161,3.879
								c-1.165-0.038-2.094-0.338-2.808-0.845c-4.01-2.836-1.089-12.077,6.546-15.589c7.72-3.55,15.636-2.573,19.534-0.15
								c0.639,0.394,1.174,0.836,1.578,1.296c0,0,7.034,0.958,9.748,7.128C639.983,203.886,634.799,213.493,634.799,213.493z"/>
							<path id="XMLID_81_" style="fill:#20426B;" d="M624.572,186.193c-3.935-0.517-13.204-1.174-18.904,2.986
								c-5.635,4.104-7.551,9.438-7.175,12.753c-4.01-2.836-1.089-12.077,6.546-15.589
								C612.758,182.793,620.675,183.77,624.572,186.193z"/>
						</g>
						<path id="XMLID_82_" style="fill:#FFC484;" d="M627.846,215.978c0.814,2.269,4.208,3.128,7.582,1.918
							c3.374-1.21,5.449-4.03,4.635-6.299c-0.814-2.269-4.208-3.128-7.582-1.918C629.107,210.888,627.032,213.709,627.846,215.978z"
							/>
						<g id="XMLID_86_">
							
								<path id="XMLID_87_" style="fill:none;stroke:#102351;stroke-linecap:round;stroke-linejoin:round;stroke-miterlimit:10;" d="
								M614.627,204.13c2.192-0.936,4.878-0.769,6.893,0.428"/>
							
								<path id="XMLID_89_" style="fill:none;stroke:#102351;stroke-linecap:round;stroke-linejoin:round;stroke-miterlimit:10;" d="
								M601.805,203.981c1.992-0.903,3.949-0.879,5.923,0.062"/>
							
								<path id="XMLID_90_" style="fill:none;stroke:#E56B57;stroke-linecap:round;stroke-linejoin:round;stroke-miterlimit:10;" d="
								M610.439,214.131c-0.331,1.549-0.264,3.162,0.195,4.686"/>
							
								<path id="XMLID_92_" style="fill:none;stroke:#E56B57;stroke-linecap:round;stroke-linejoin:round;stroke-miterlimit:10;" d="
								M613.421,221.495c2.122,0.031,4.233-0.993,5.523-2.678"/>
						</g>
					</g>
				</g>
			</g>
			<g id="XMLID_20_">
				<g id="XMLID_98_">
					<g id="XMLID_104_">
						<polygon id="XMLID_107_" style="fill:#FFC484;" points="660.247,322.475 652.884,324.838 634.94,271.687 632.138,263.391 
							645.006,259.182 645.764,262.314 						"/>
						<path id="XMLID_105_" style="fill:#F7A272;" d="M645.764,262.314c-2.89,2.846-7.296,6.967-10.824,9.373l-2.802-8.296
							l12.867-4.209L645.764,262.314z"/>
					</g>
					<path id="XMLID_110_" style="fill:#E8F5F9;" d="M626.084,245.889l7.87-10.651c0,0,5.288,1.085,7.241,5.325
						c1.953,4.24,6.125,18.623,6.125,18.623l-17.001,9.778L626.084,245.889z"/>
				</g>
				<path id="XMLID_304_" style="fill:#FFC484;" d="M652.808,320.704c0,0-2.057,3.574-0.595,6.985
					c1.462,3.411,4.029,9.086,5.025,8.479s-1.279-7.371-1.279-7.371s12.097,8.432,13.212,7.685c1.115-0.747-6.033-7.113-6.033-7.113
					s8.979,6.344,9.791,5.099c0.812-1.245-7.52-7.274-7.52-7.274s8.408,5.368,8.928,3.754c0.52-1.614-6.818-5.917-6.818-5.917
					s6.437,3.744,6.576,2.486c0.152-1.378-4.698-4.319-8.567-6.448c-4.113-2.263-7.632-3.502-7.632-3.502L652.808,320.704z"/>
			</g>
		</g>
		<g id="XMLID_3_">
			<g id="XMLID_322_">
				<g id="XMLID_344_">
					<path id="XMLID_341_" style="fill:#F9F09D;" d="M131.937,166.445c2.533,5.655,2.796,11.682,1.218,17.12
						c-2.288,7.887-2.346,16.255-0.695,24.299l0.541,2.635l-19.382,7.284l-1.373-2.418c-4.171-7.343-10.161-13.404-17.128-18.177
						c-4.06-2.782-7.336-6.797-9.2-11.757c-5.03-13.386,2.21-28.375,16.1-32.602C113.89,149.216,126.863,155.119,131.937,166.445z"
						/>
					<g id="XMLID_343_">
						
							<line id="XMLID_340_" style="fill:none;stroke:#F8D427;stroke-linecap:round;stroke-linejoin:round;stroke-miterlimit:10;" x1="119.477" y1="217.32" x2="96.005" y2="178.826"/>
						
							<line id="XMLID_339_" style="fill:none;stroke:#F8D427;stroke-linecap:round;stroke-linejoin:round;stroke-miterlimit:10;" x1="128.286" y1="214.01" x2="120.599" y2="169.584"/>
						
							<polyline id="XMLID_342_" style="fill:none;stroke:#F8D427;stroke-linecap:round;stroke-linejoin:round;stroke-miterlimit:10;" points="
							101.082,186.867 109.694,191.288 111.236,183.717 118.504,187.977 122.14,178.489 						"/>
					</g>
				</g>
				<g id="XMLID_323_">
					<path id="XMLID_325_" style="fill:#EFAE1D;" d="M138.277,225.415c1.094,2.911-2.145,6.82-7.234,8.733
						c-5.089,1.912-10.101,1.103-11.194-1.808c-1.094-2.911,2.145-6.82,7.234-8.733
						C132.171,221.695,137.183,222.505,138.277,225.415z"/>
					<g id="XMLID_324_">
						<path id="XMLID_334_" style="fill:#F8D427;" d="M135.537,214.208l-21.387,8.037c-1.367,0.514-2.892-0.178-3.406-1.545
							l-0.189-0.502c-0.514-1.367,0.178-2.892,1.545-3.406l21.387-8.037c1.367-0.514,2.892,0.178,3.406,1.545l0.189,0.502
							C137.596,212.169,136.904,213.694,135.537,214.208z"/>
						<path id="XMLID_335_" style="fill:#F8D427;" d="M137.587,219.66l-21.387,8.037c-1.367,0.514-2.892-0.178-3.406-1.545
							l-0.189-0.502c-0.514-1.367,0.178-2.892,1.545-3.406l21.387-8.037c1.367-0.514,2.892,0.178,3.406,1.545l0.189,0.502
							C139.645,217.622,138.953,219.146,137.587,219.66z"/>
						<path id="XMLID_345_" style="fill:#F8D427;" d="M139.635,225.113l-21.387,8.037c-1.367,0.514-2.892-0.178-3.406-1.545
							l-0.189-0.502c-0.514-1.367,0.178-2.892,1.545-3.406l21.387-8.037c1.367-0.514,2.892,0.178,3.406,1.545l0.189,0.502
							C141.694,223.074,141.003,224.599,139.635,225.113z"/>
						
							<line id="XMLID_346_" style="fill:none;stroke:#EFAE1D;stroke-linecap:round;stroke-linejoin:round;stroke-miterlimit:10;" x1="115.098" y1="221.888" x2="134.67" y2="214.533"/>
						
							<line id="XMLID_347_" style="fill:none;stroke:#EFAE1D;stroke-linecap:round;stroke-linejoin:round;stroke-miterlimit:10;" x1="117.147" y1="227.341" x2="136.719" y2="219.986"/>
					</g>
				</g>
				<path id="XMLID_348_" style="opacity:0.6;fill:#F9F7CD;" d="M126.442,164.865c0.121,2.098-6.118-3.523-11.872-5.143
					c-7.2-2.027-14.335-1.903-11.743-3.878c2.931-2.232,10.251-1.291,13.118-0.323C120.047,156.907,126.26,161.71,126.442,164.865z"
					/>
			</g>
			<g id="XMLID_349_">
				<g id="XMLID_358_">
					<path id="XMLID_363_" style="fill:#F9F09D;" d="M677.236,128.106c-1.845,4.379-5.086,7.679-8.96,9.64
						c-5.619,2.844-10.34,7.189-13.987,12.323l-1.194,1.682l-14.224-7.056l0.637-2.035c1.935-6.18,2.199-12.709,1.23-19.112
						c-0.565-3.732-0.028-7.669,1.778-11.309c4.873-9.823,17.064-13.607,26.701-8.031
						C677.454,108.975,680.931,119.336,677.236,128.106z"/>
					<g id="XMLID_359_">
						
							<line id="XMLID_362_" style="fill:none;stroke:#F8D427;stroke-linecap:round;stroke-linejoin:round;stroke-miterlimit:10;" x1="642.195" y1="147.738" x2="651.496" y2="114.439"/>
						
							<line id="XMLID_361_" style="fill:none;stroke:#F8D427;stroke-linecap:round;stroke-linejoin:round;stroke-miterlimit:10;" x1="648.66" y1="150.945" x2="669.544" y2="123.392"/>
						
							<polyline id="XMLID_360_" style="fill:none;stroke:#F8D427;stroke-linecap:round;stroke-linejoin:round;stroke-miterlimit:10;" points="
							649.644,121.492 651.672,128.634 656.723,125.537 658.137,131.841 665.359,128.915 						"/>
					</g>
				</g>
				<g id="XMLID_350_">
					<path id="XMLID_357_" style="fill:#EFAE1D;" d="M647.493,162.513c-1.06,2.136-4.946,2.366-8.68,0.513
						c-3.734-1.852-5.903-5.086-4.843-7.222c1.06-2.136,4.946-2.366,8.68-0.513C646.384,157.144,648.553,160.377,647.493,162.513z"
						/>
					<g id="XMLID_351_">
						<path id="XMLID_356_" style="fill:#F8D427;" d="M652.159,155.022l-15.327-7.603c-1.105-0.548-1.556-1.888-1.008-2.993l0,0
							c0.548-1.105,1.888-1.556,2.993-1.008l15.327,7.603c1.105,0.548,1.556,1.888,1.008,2.993l0,0
							C654.604,155.119,653.264,155.57,652.159,155.022z"/>
						<path id="XMLID_355_" style="fill:#F8D427;" d="M650.174,159.024l-15.327-7.603c-1.105-0.548-1.556-1.888-1.008-2.993l0,0
							c0.548-1.105,1.888-1.556,2.993-1.008l15.327,7.603c1.105,0.548,1.556,1.888,1.008,2.993l0,0
							C652.619,159.12,651.279,159.572,650.174,159.024z"/>
						<path id="XMLID_354_" style="fill:#F8D427;" d="M648.189,163.025l-15.327-7.603c-1.105-0.548-1.556-1.888-1.008-2.993l0,0
							c0.548-1.105,1.888-1.556,2.993-1.008l15.327,7.603c1.105,0.548,1.556,1.888,1.008,2.993l0,0
							C650.634,163.122,649.294,163.573,648.189,163.025z"/>
						
							<line id="XMLID_353_" style="fill:none;stroke:#EFAE1D;stroke-linecap:round;stroke-linejoin:round;stroke-miterlimit:10;" x1="637.344" y1="147.673" x2="651.707" y2="154.798"/>
						
							<line id="XMLID_352_" style="fill:none;stroke:#EFAE1D;stroke-linecap:round;stroke-linejoin:round;stroke-miterlimit:10;" x1="635.359" y1="151.674" x2="649.722" y2="158.799"/>
					</g>
				</g>
				<path id="XMLID_365_" style="opacity:0.6;fill:#F9F7CD;" d="M675.247,124.199c-1.113,1.166-1.226-5.273-3.328-9.347
					c-2.63-5.097-6.433-9.032-3.97-8.612c2.785,0.475,6.087,5.072,7.045,7.185C676.363,116.45,676.921,122.446,675.247,124.199z"/>
			</g>
		</g>
	</g>
</g>
</svg>
