<?xml version="1.0" encoding="utf-8"?>
<!-- Generator: Adobe Illustrator 27.5.0, SVG Export Plug-In . SVG Version: 6.00 Build 0)  -->
<svg version="1.1" xmlns="http://www.w3.org/2000/svg" xmlns:xlink="http://www.w3.org/1999/xlink" x="0px" y="0px"
	 viewBox="0 0 750 500" style="enable-background:new 0 0 750 500;" xml:space="preserve">
<g id="BACKGROUND_1_">
	<g id="BACKGROUND">
		<rect style="fill:#FFFFFF;" width="750" height="500"/>
	</g>
</g>
<g id="OBJECTS">
	<g>
		<g>
			<path style="fill:#ECF5FB;" d="M229.602,434.259c-62.44,6.37-130.16-15.11-167.76-65.36c-37.6-50.25-35.36-130.14,13.05-170.08
				c44.42-36.64,109.81-31.94,161.67-56.95c50.52-24.37,85.26-75.58,137.71-95.45c45.96-17.41,97.98-7.59,143.63,10.62
				c49.26,19.65,95.31,49.42,128.52,90.76c33.21,41.34,52.69,94.93,47.41,147.7c-5.28,52.77-37.3,103.53-85.45,125.75
				c-36.82,16.99-78.95,16.7-119.5,16.09C418.622,436.289,348.342,435.228,229.602,434.259z"/>
			<g>
				<g>
					<path style="fill:#B9DADC;" d="M583.972,184.799c-5.54-12.41-12.09-33.05,1.93-53.74c9.04-13.34,35.66-24.34,59.32-30.46
						c-7.33,23.67-1.89,48.39-15.13,65.91C617.942,182.589,602.472,189.439,583.972,184.799z"/>
					<g>
						<path style="fill:none;stroke:#E1F5F5;stroke-linecap:round;stroke-miterlimit:10;" d="M641.942,104.609
							c-30.34,47.81-48,46.26-57.43,77.77"/>
						<path style="fill:none;stroke:#E1F5F5;stroke-linecap:round;stroke-miterlimit:10;" d="M589.342,169.539
							c-3.49-4.54-7.53-13.38-8.99-21.12"/>
						<path style="fill:none;stroke:#E1F5F5;stroke-linecap:round;stroke-miterlimit:10;" d="M601.922,153.009
							c-3.2-5.67-5.8-18.2-6.52-26.39"/>
						<path style="fill:none;stroke:#E1F5F5;stroke-linecap:round;stroke-miterlimit:10;" d="M622.822,130.779
							c-1.44-5.06-2.56-12.23-2.64-18.25"/>
						<path style="fill:none;stroke:#E1F5F5;stroke-linecap:round;stroke-miterlimit:10;" d="M625.002,128.749
							c2.8-0.5,10.4-1.92,14.54-4.18"/>
						<path style="fill:none;stroke:#E1F5F5;stroke-linecap:round;stroke-miterlimit:10;" d="M605.592,149.569
							c11-0.32,19.84-0.64,31.12-2.2"/>
						<path style="fill:none;stroke:#E1F5F5;stroke-linecap:round;stroke-miterlimit:10;" d="M588.042,174.109
							c8.15,4.18,15.34,6.11,25.52,4.87"/>
					</g>
				</g>
				<g>
					<path style="fill:#B9DADC;" d="M163.512,274.018c9.29-15.59,20.7-41.69,1.01-69.1c-12.69-17.67-52.14-33.39-87.47-42.67
						c9.35,30.82-0.68,62.22,18.05,85.51C112.312,269.139,135.192,278.868,163.512,274.018z"/>
					<g>
						<path style="fill:none;stroke:#E1F5F5;stroke-linecap:round;stroke-miterlimit:10;" d="M81.722,167.609
							c42.38,63.2,69.19,62.27,81.15,103.28"/>
						<path style="fill:none;stroke:#E1F5F5;stroke-linecap:round;stroke-miterlimit:10;" d="M156.502,254.118
							c5.61-5.62,12.36-16.72,15.14-26.56"/>
						<path style="fill:none;stroke:#E1F5F5;stroke-linecap:round;stroke-miterlimit:10;" d="M138.692,232.139
							c5.25-7.09,10.1-23.02,11.79-33.48"/>
						<path style="fill:none;stroke:#E1F5F5;stroke-linecap:round;stroke-miterlimit:10;" d="M108.712,202.349
							c2.54-6.41,4.77-15.54,5.32-23.26"/>
						<path style="fill:none;stroke:#E1F5F5;stroke-linecap:round;stroke-miterlimit:10;" d="M105.572,199.609
							c-4.2-0.81-15.59-3.09-21.68-6.24"/>
						<path style="fill:none;stroke:#E1F5F5;stroke-linecap:round;stroke-miterlimit:10;" d="M133.392,227.499
							c-16.6-1.07-29.96-2.02-46.89-4.69"/>
						<path style="fill:none;stroke:#E1F5F5;stroke-linecap:round;stroke-miterlimit:10;" d="M158.132,260.059
							c-12.62,4.87-23.65,6.92-38.95,4.71"/>
					</g>
				</g>
				<g>
					<path style="fill:none;stroke:#87C7C4;stroke-linecap:round;stroke-miterlimit:10;" d="M577.112,277.059
						c4.6-39.94,40.83-45.03,56.18-76"/>
					<g>
						<path style="fill:#87C7C4;" d="M627.342,211.079c-2.76-3.89-2.57-9.12-0.89-13.6c1.68-4.47,4.68-8.41,7.39-12.44
							c2.71-4.03,5.23-8.35,5.75-13.05c3.15,8.01,3.65,16.95,1.42,25.33c-0.88,3.3-2.21,6.58-4.54,9.22
							C634.142,209.179,630.682,211.109,627.342,211.079z"/>
						<path style="fill:#87C7C4;" d="M613.562,225.469c5.26-5.72,6.2-13.41,6.17-20.58c-0.03-7.17-0.76-14.53,1.89-21.4
							C610.562,195.189,603.292,210.569,613.562,225.469z"/>
						<path style="fill:#87C7C4;" d="M616.382,222.889c4.13-6.46,12.79-8.93,19.82-9.72c7.03-0.79,14.53-1.17,20.06-5.91
							c-3.8,7.46-9.86,13.06-16.95,15.66C632.222,225.519,623.032,225.819,616.382,222.889z"/>
						<path style="fill:#87C7C4;" d="M599.902,236.649c7.69-14.42,6.15-31.84-3.38-45.37c0.18,8.01-2.09,15.86-2.85,23.84
							C592.892,223.089,594.232,230.949,599.902,236.649z"/>
						<path style="fill:#87C7C4;" d="M603.412,233.499c14.3-5.24,30.64-2.39,44.7,3.81c-7.45,1.54-14.97,3.1-22.61,3.09
							C617.872,240.399,610.012,238.719,603.412,233.499z"/>
						<path style="fill:#87C7C4;" d="M592.172,243.739c14.63-2.87,29.95,0.15,41.92,7.52
							C619.862,256.609,602.982,253.769,592.172,243.739z"/>
						<path style="fill:#87C7C4;" d="M589.982,247.199c4.24-13.33,1.16-28.55-8.02-39.65c-0.64,6.84-1.27,13.69-1.91,20.53
							c-0.35,3.8-0.69,7.73,0.63,11.36C581.992,243.079,585.422,246.349,589.982,247.199z"/>
						<path style="fill:#87C7C4;" d="M583.592,255.969c13.95-3.36,29.26,1.05,38.55,11.12c-2.2-1.85-5.27-2.46-8.24-2.48
							c-2.97-0.02-5.94,0.49-8.92,0.61C596.612,265.529,588.322,262.539,583.592,255.969z"/>
					</g>
				</g>
				<g>
					<path style="fill:none;stroke:#87C7C4;stroke-linecap:round;stroke-miterlimit:10;" d="M169.232,380.169
						c-11.31-49.56-57.54-50.94-81.11-87.74"/>
					<g>
						<path style="fill:#87C7C4;" d="M96.982,304.208c2.93-5.27,1.97-11.82-0.76-17.21c-2.73-5.39-7.04-9.93-11.01-14.61
							c-3.97-4.69-7.72-9.77-9.03-15.6c-2.85,10.5-2.24,21.81,1.72,32.03c1.56,4.03,3.69,7.96,6.98,10.95
							C88.172,302.759,92.792,304.699,96.982,304.208z"/>
						<path style="fill:#87C7C4;" d="M116.302,320.379c-7.4-6.46-9.64-15.99-10.6-25.01c-0.96-9.02-1.05-18.37-5.33-26.64
							C115.882,281.919,127.142,300.229,116.302,320.379z"/>
						<path style="fill:#87C7C4;" d="M112.392,317.529c-6.09-7.55-17.3-9.45-26.25-9.48c-8.95-0.03-18.42,0.54-26.03-4.65
							c5.8,8.85,14.2,15.05,23.47,17.34C92.852,323.029,104.442,322.129,112.392,317.529z"/>
						<path style="fill:#87C7C4;" d="M135.012,332.548c-11.66-17.05-12.14-39.16-2.02-57.48c0.88,10.09,4.81,19.65,6.88,29.56
							C141.942,314.539,141.342,324.589,135.012,332.548z"/>
						<path style="fill:#87C7C4;" d="M130.162,329.078c-18.7-4.61-38.84,1.24-55.65,10.97c9.58,0.91,19.24,1.82,28.84,0.76
							C112.942,339.738,122.592,336.548,130.162,329.078z"/>
						<path style="fill:#87C7C4;" d="M145.702,340.389c-18.78-1.58-37.61,4.33-51.64,15.25
							C112.682,360.388,133.502,354.479,145.702,340.389z"/>
						<path style="fill:#87C7C4;" d="M148.932,344.439c-7.17-16.16-5.41-35.72,4.6-50.93c1.75,8.51,3.49,17.02,5.24,25.54
							c0.97,4.73,1.94,9.62,0.79,14.37C158.412,338.148,154.542,342.738,148.932,344.439z"/>
						<path style="fill:#87C7C4;" d="M158.172,354.569c-17.99-2.3-36.63,5.37-46.9,19.3c2.51-2.63,6.29-3.82,10.02-4.25
							c3.73-0.43,7.54-0.2,11.29-0.47C143.132,368.388,153.142,363.479,158.172,354.569z"/>
					</g>
				</g>
				<g>
					<path style="fill:#B9DADC;" d="M684.342,276.238c-7.93,10.26-7.9,16.17-10.44,22.14c-2.53,5.98-6.67,11.55-12.63,14.8
						c-3.4,1.85-7.49,3.06-9.62,6.13c-2.43,3.49-1.54,8.4-4.11,11.8c-3.56,4.72-11.42,3.99-16.76,6.93
						c-7.38,4.06-8.49,14.11-15.52,18.65c-7.15,4.62-17.78,1.87-25.12,6.24c-4.32,2.57-6.73,7.18-10.75,10.12
						c-6.22,4.55-14.99,4.37-21.6,2.73c-0.04-0.01-0.08-0.02-0.11-0.03c-0.01-0.03-0.02-0.06-0.03-0.09c-2.73-7.84-2.37-16.5,1-24
						c1.67-3.71,4.09-7.28,4.21-11.33c0.15-4.79-2.94-9.81-0.94-14.19c2.25-4.91,9.22-5.74,14.02-8.65
						c5.83-3.54,8.33-10.17,10.71-16.26c2.38-6.1,5.52-12.64,11.87-15.34c6.24-2.66,14.1-0.88,20.1-3.99
						c4.66-2.42,7.72-7.57,13.03-8.29c4.71-0.63,9.27,2.59,14.03,2.33c3.02-0.16,5.68-1.69,8.51-2.64
						C663.662,270.109,674.782,272.849,684.342,276.238z"/>
					<g>
						<path style="fill:none;stroke:#E1F5F5;stroke-linecap:round;stroke-miterlimit:10;" d="M673.402,280.009
							c-48.57,18.9-95.92,55.51-120.64,103.9"/>
						<path style="fill:none;stroke:#E1F5F5;stroke-linecap:round;stroke-miterlimit:10;" d="M634.552,298.849
							c-0.17-6.81,0.35-13.63,1.56-20.34"/>
						<path style="fill:none;stroke:#E1F5F5;stroke-linecap:round;stroke-miterlimit:10;" d="M641.692,295.208
							c9.65,1.01,19.14,3.57,27.98,7.56"/>
						<path style="fill:none;stroke:#E1F5F5;stroke-linecap:round;stroke-miterlimit:10;" d="M600.842,323.479
							c-2.78-10.23-3.07-20.81-2.12-31.36"/>
						<path style="fill:none;stroke:#E1F5F5;stroke-linecap:round;stroke-miterlimit:10;" d="M608.892,317.279
							c11.86,2.97,23.39,7.21,34.34,12.63"/>
						<path style="fill:none;stroke:#E1F5F5;stroke-linecap:round;stroke-miterlimit:10;" d="M577.532,347.449
							c9.2,1.26,18.42,2.88,26.97,6.49"/>
						<path style="fill:none;stroke:#E1F5F5;stroke-linecap:round;stroke-miterlimit:10;" d="M572.802,352.719
							c-2.65-8.69-3.22-18-1.65-26.95"/>
					</g>
				</g>
				<g>
					<path style="fill:#B9DADC;" d="M136.342,60.029c2.9,11.48,0.72,16.42,0.67,22.34c-0.06,5.93,1.37,12.1,5.18,16.99
						c2.17,2.79,5.16,5.29,5.82,8.64c0.76,3.8-1.77,7.6-0.86,11.38c1.26,5.25,8.1,7.5,11.5,11.91c4.7,6.09,1.96,14.91,6.19,21.27
						c4.31,6.48,14.2,8.05,18.76,14.38c2.68,3.72,3.02,8.46,5.31,12.39c3.55,6.08,10.95,9.12,17.09,10.16
						c0.04,0,0.07,0.01,0.11,0.02c0.02-0.02,0.04-0.04,0.06-0.06c5.14-5.57,8-12.95,7.91-20.45c-0.05-3.71-0.77-7.59,0.6-11.02
						c1.62-4.07,6.04-7.14,5.96-11.54c-0.1-4.93-5.63-8.17-8.59-12.36c-3.59-5.09-3.26-11.55-3.04-17.52
						c0.23-5.97-0.02-12.59-4.34-17.17c-4.26-4.5-11.49-5.88-15.37-10.67c-3.02-3.72-3.7-9.15-7.89-11.69
						c-3.71-2.24-8.7-1.21-12.59-3.16c-2.46-1.24-4.14-3.49-6.16-5.31C155.882,62.429,145.582,60.669,136.342,60.029z"/>
					<g>
						<path style="fill:none;stroke:#E1F5F5;stroke-linecap:round;stroke-miterlimit:10;" d="M144.132,67.169
							c33.77,33.52,60.07,81.43,63.13,130.95"/>
						<path style="fill:none;stroke:#E1F5F5;stroke-linecap:round;stroke-miterlimit:10;" d="M169.782,97.089
							c2.63-5.64,4.67-11.54,6.1-17.6"/>
						<path style="fill:none;stroke:#E1F5F5;stroke-linecap:round;stroke-miterlimit:10;" d="M165.132,91.449
							c-8.45-2.68-17.32-3.99-26.18-3.86"/>
						<path style="fill:none;stroke:#E1F5F5;stroke-linecap:round;stroke-miterlimit:10;" d="M189.032,129.999
							c6.05-7.55,10.15-16.3,13.21-25.48"/>
						<path style="fill:none;stroke:#E1F5F5;stroke-linecap:round;stroke-miterlimit:10;" d="M184.552,121.879
							c-11.01-1.84-22.21-2.49-33.35-1.94"/>
						<path style="fill:none;stroke:#E1F5F5;stroke-linecap:round;stroke-miterlimit:10;" d="M199.802,158.569
							c-8.16-2.3-16.47-4.3-24.94-4.4"/>
						<path style="fill:none;stroke:#E1F5F5;stroke-linecap:round;stroke-miterlimit:10;" d="M201.852,164.699
							c5.39-6.31,9.26-13.9,11.2-21.96"/>
					</g>
				</g>
				<g>
					<path style="fill:none;stroke:#87C7C4;stroke-miterlimit:10;" d="M365.662,128.669c-18.36-13.47-32.64-31.51-40.98-51.74"/>
					<path style="fill:#87C7C4;" d="M331.702,91.249c-11.38-7.21-16.86-20.75-13.7-33.01
						C326.052,67.269,330.962,78.449,331.702,91.249z"/>
					<path style="fill:#87C7C4;" d="M336.132,97.569c-7.5-7.39-19.06-11.51-30.72-10.95
						C311.062,94.849,322.662,99.529,336.132,97.569z"/>
					<path style="fill:#87C7C4;" d="M337.732,100.429c-4.52-10.04-3.47-22.16,2.72-31.42
						C344.422,79.149,343.342,90.969,337.732,100.429z"/>
					<path style="fill:#87C7C4;" d="M343.682,108.259c-2.3-10.13,2.62-21.24,12.76-28.78
						C358.062,89.609,353.192,100.429,343.682,108.259z"/>
					<path style="fill:#87C7C4;" d="M350.382,115.969c-0.6-10.37,6.08-20.7,17.31-26.78
						C367.622,99.469,361.052,109.519,350.382,115.969z"/>
					<path style="fill:#87C7C4;" d="M343.402,107.309c-10.74,4.18-23.7,2.04-33.56-5.55
						C320.702,98.189,333.322,100.339,343.402,107.309z"/>
				</g>
				<g>
					<path style="fill:none;stroke:#87C7C4;stroke-miterlimit:10;" d="M530.532,118.699c20.8-9.25,38.61-23.83,51.06-41.82"/>
					<path style="fill:#87C7C4;" d="M571.682,89.369c12.66-4.62,20.89-16.69,20.42-29.34
						C582.312,67.139,575.122,77.019,571.682,89.369z"/>
					<path style="fill:#87C7C4;" d="M566.002,94.599c8.9-5.62,21.07-7.18,32.35-4.16C591.082,97.279,578.752,99.379,566.002,94.599z
						"/>
					<path style="fill:#87C7C4;" d="M563.842,97.059c6.55-8.84,8.11-20.92,4.03-31.28C561.822,74.839,560.372,86.609,563.842,97.059
						z"/>
					<path style="fill:#87C7C4;" d="M556.352,103.439c4.41-9.41,1.96-21.31-6.33-30.84
						C546.272,82.149,548.722,93.749,556.352,103.439z"/>
					<path style="fill:#87C7C4;" d="M548.162,109.539c2.8-10-1.53-21.52-11.21-29.85
						C534.832,89.749,539.122,100.969,548.162,109.539z"/>
					<path style="fill:#87C7C4;" d="M556.832,102.569c9.61,6.38,22.72,7.04,33.97,1.73
						C580.952,98.489,568.162,97.899,556.832,102.569z"/>
				</g>
				<g>
					<g>
						<path style="fill:none;stroke:#B9DADC;stroke-miterlimit:10;" d="M168.892,199.099c-23.67-22.28-43.19-48.97-57.23-78.29"/>
						<path style="fill:none;stroke:#B9DADC;stroke-miterlimit:10;" d="M123.502,142.539c2.5-6.43,3.74-13.37,3.62-20.29"/>
						<path style="fill:none;stroke:#B9DADC;stroke-miterlimit:10;" d="M132.832,156.989c-14.15-1.37-27.68-8.38-36.97-19.14"/>
						<path style="fill:none;stroke:#B9DADC;stroke-miterlimit:10;" d="M142.332,169.229c5.5-8.56,8.6-18.41,8.94-28.4"/>
						<path style="fill:none;stroke:#B9DADC;stroke-miterlimit:10;" d="M119.052,135.939c-5.39,0.51-10.96-1.23-15.11-4.7"/>
						<path style="fill:none;stroke:#B9DADC;stroke-miterlimit:10;" d="M148.362,155.449c-2.92-3.82-4.77-8.44-5.3-13.22"/>
						<path style="fill:none;stroke:#B9DADC;stroke-miterlimit:10;" d="M150.122,151.839c4.85-1.89,9.03-5.47,11.65-9.98"/>
						<path style="fill:none;stroke:#B9DADC;stroke-miterlimit:10;" d="M111.902,150.449c0.74-2.52,0.66-5.27-0.22-7.75"/>
						<path style="fill:none;stroke:#B9DADC;stroke-miterlimit:10;" d="M106.812,147.809c-5.74,1.36-12.07,0.03-16.78-3.53"/>
					</g>
					<path style="fill:#B9DADC;" d="M110.252,113.969c2.22,0,4.02,1.8,4.02,4.02s-1.8,4.02-4.02,4.02c-2.22,0-4.02-1.8-4.02-4.02
						S108.032,113.969,110.252,113.969z"/>
					<circle style="fill:#B9DADC;" cx="101.152" cy="129.129" r="4.02"/>
					<circle style="fill:#B9DADC;" cx="94.472" cy="136.569" r="4.02"/>
					<circle style="fill:#B9DADC;" cx="87.542" cy="142.319" r="4.02"/>
					<path style="fill:#B9DADC;" d="M110.852,136.449c2.22,0,4.02,1.8,4.02,4.02s-1.8,4.02-4.02,4.02c-2.22,0-4.02-1.8-4.02-4.02
						S108.632,136.449,110.852,136.449z"/>
					<circle style="fill:#B9DADC;" cx="142.322" cy="139.369" r="4.02"/>
					<path style="fill:#B9DADC;" d="M152.202,133.919c2.22,0,4.02,1.8,4.02,4.02s-1.8,4.02-4.02,4.02c-2.22,0-4.02-1.8-4.02-4.02
						S149.982,133.919,152.202,133.919z"/>
					<path style="fill:#B9DADC;" d="M162.762,134.899c2.22,0,4.02,1.8,4.02,4.02s-1.8,4.02-4.02,4.02c-2.22,0-4.02-1.8-4.02-4.02
						S160.542,134.899,162.762,134.899z"/>
					<circle style="fill:#B9DADC;" cx="127.282" cy="119.199" r="4.02"/>
				</g>
				<g>
					<g>
						<path style="fill:none;stroke:#B9DADC;stroke-miterlimit:10;" d="M245.972,433.809c-31.09-9.52-60.38-24.84-85.94-44.93"/>
						<path style="fill:none;stroke:#B9DADC;stroke-miterlimit:10;" d="M180.262,403.129c-0.59-6.87-2.55-13.65-5.72-19.8"/>
						<path style="fill:none;stroke:#B9DADC;stroke-miterlimit:10;" d="M195.012,411.969c-13.3,5.03-28.54,4.72-41.63-0.83"/>
						<path style="fill:none;stroke:#B9DADC;stroke-miterlimit:10;" d="M208.952,418.749c1.15-10.11-0.42-20.32-4.53-29.42"/>
						<path style="fill:none;stroke:#B9DADC;stroke-miterlimit:10;" d="M173.352,399.178c-4.61,2.84-10.37,3.74-15.63,2.46"/>
						<path style="fill:none;stroke:#B9DADC;stroke-miterlimit:10;" d="M208.262,403.728c-4.3-2.14-8.01-5.47-10.6-9.52"/>
						<path style="fill:none;stroke:#B9DADC;stroke-miterlimit:10;" d="M208.252,399.699c3.52-3.84,5.68-8.9,6.04-14.1"/>
						<path style="fill:none;stroke:#B9DADC;stroke-miterlimit:10;" d="M173.352,415.358c-0.45-2.59-1.74-5.02-3.62-6.85"/>
						<path style="fill:none;stroke:#B9DADC;stroke-miterlimit:10;" d="M167.622,415.228c-4.55,3.76-10.81,5.36-16.61,4.25"/>
					</g>
					<path style="fill:#B9DADC;" d="M157.532,382.949c2.22,0,4.02,1.8,4.02,4.02c0,2.22-1.8,4.02-4.02,4.02
						c-2.22,0-4.02-1.8-4.02-4.02C153.512,384.748,155.312,382.949,157.532,382.949z"/>
					<path style="fill:#B9DADC;" d="M154.282,396.958c2.22,0,4.02,1.8,4.02,4.02c0,2.22-1.8,4.02-4.02,4.02
						c-2.22,0-4.02-1.8-4.02-4.02C150.262,398.758,152.062,396.958,154.282,396.958z"/>
					<circle style="fill:#B9DADC;" cx="151.582" cy="410.608" r="4.02"/>
					<path style="fill:#B9DADC;" d="M147.902,414.809c2.22,0,4.02,1.8,4.02,4.02c0,2.22-1.8,4.02-4.02,4.02
						c-2.22,0-4.02-1.8-4.02-4.02C143.882,416.608,145.682,414.809,147.902,414.809z"/>
					<path style="fill:#B9DADC;" d="M168.002,402.839c2.22,0,4.02,1.8,4.02,4.02c0,2.22-1.8,4.02-4.02,4.02
						c-2.22,0-4.02-1.8-4.02-4.02C163.982,404.638,165.782,402.839,168.002,402.839z"/>
					<circle style="fill:#B9DADC;" cx="195.742" cy="391.969" r="4.02"/>
					<circle style="fill:#B9DADC;" cx="203.962" cy="386.319" r="4.02"/>
					<circle style="fill:#B9DADC;" cx="213.882" cy="382.529" r="4.02"/>
					<circle style="fill:#B9DADC;" cx="173.332" cy="380.529" r="4.02"/>
				</g>
				<g>
					<g>
						<path style="fill:none;stroke:#B9DADC;stroke-miterlimit:10;" d="M426.042,148.759c23.67-22.28,43.19-48.97,57.23-78.29"/>
						<path style="fill:none;stroke:#B9DADC;stroke-miterlimit:10;" d="M471.422,92.199c-2.5-6.43-3.74-13.37-3.62-20.29"/>
						<path style="fill:none;stroke:#B9DADC;stroke-miterlimit:10;" d="M462.092,106.639c14.15-1.37,27.68-8.38,36.97-19.14"/>
						<path style="fill:none;stroke:#B9DADC;stroke-miterlimit:10;" d="M452.592,118.889c-5.5-8.56-8.6-18.41-8.94-28.4"/>
						<path style="fill:none;stroke:#B9DADC;stroke-miterlimit:10;" d="M475.872,85.599c5.39,0.51,10.96-1.23,15.11-4.7"/>
						<path style="fill:none;stroke:#B9DADC;stroke-miterlimit:10;" d="M446.562,105.109c2.92-3.82,4.77-8.44,5.3-13.22"/>
						<path style="fill:none;stroke:#B9DADC;stroke-miterlimit:10;" d="M444.802,101.499c-4.85-1.89-9.03-5.47-11.65-9.98"/>
						<path style="fill:none;stroke:#B9DADC;stroke-miterlimit:10;" d="M483.022,100.109c-0.74-2.52-0.66-5.27,0.22-7.75"/>
						<path style="fill:none;stroke:#B9DADC;stroke-miterlimit:10;" d="M488.112,97.469c5.74,1.36,12.07,0.03,16.78-3.53"/>
					</g>
					<circle style="fill:#B9DADC;" cx="484.672" cy="67.649" r="4.02"/>
					<path style="fill:#B9DADC;" d="M493.772,74.769c2.22,0,4.02,1.8,4.02,4.02s-1.8,4.02-4.02,4.02c-2.22,0-4.02-1.8-4.02-4.02
						S491.552,74.769,493.772,74.769z"/>
					<circle style="fill:#B9DADC;" cx="500.452" cy="86.229" r="4.02"/>
					<path style="fill:#B9DADC;" d="M507.382,87.959c2.22,0,4.02,1.8,4.02,4.02s-1.8,4.02-4.02,4.02c-2.22,0-4.02-1.8-4.02-4.02
						S505.162,87.959,507.382,87.959z"/>
					<path style="fill:#B9DADC;" d="M484.072,86.099c2.22,0,4.02,1.8,4.02,4.02s-1.8,4.02-4.02,4.02c-2.22,0-4.02-1.8-4.02-4.02
						S481.852,86.099,484.072,86.099z"/>
					<path style="fill:#B9DADC;" d="M452.602,85.009c2.22,0,4.02,1.8,4.02,4.02s-1.8,4.02-4.02,4.02c-2.22,0-4.02-1.8-4.02-4.02
						S450.382,85.009,452.602,85.009z"/>
					<path style="fill:#B9DADC;" d="M442.722,83.569c2.22,0,4.02,1.8,4.02,4.02s-1.8,4.02-4.02,4.02c-2.22,0-4.02-1.8-4.02-4.02
						S440.502,83.569,442.722,83.569z"/>
					<path style="fill:#B9DADC;" d="M432.162,84.559c2.22,0,4.02,1.8,4.02,4.02c0,2.22-1.8,4.02-4.02,4.02
						c-2.22,0-4.02-1.8-4.02-4.02C428.142,86.358,429.942,84.559,432.162,84.559z"/>
					<path style="fill:#B9DADC;" d="M467.652,64.839c2.22,0,4.02,1.8,4.02,4.02s-1.8,4.02-4.02,4.02c-2.22,0-4.02-1.8-4.02-4.02
						S465.432,64.839,467.652,64.839z"/>
				</g>
				<g>
					<g>
						<path style="fill:none;stroke:#B9DADC;stroke-miterlimit:10;" d="M295.002,152.669c-20.29-25.4-35.84-54.58-45.6-85.59"/>
						<path style="fill:none;stroke:#B9DADC;stroke-miterlimit:10;" d="M258.062,90.269c3.39-6.01,5.6-12.71,6.45-19.57"/>
						<path style="fill:none;stroke:#B9DADC;stroke-miterlimit:10;" d="M265.252,105.889c-13.82-3.36-26.22-12.2-33.9-24.17"/>
						<path style="fill:none;stroke:#B9DADC;stroke-miterlimit:10;" d="M272.932,119.349c6.65-7.7,11.11-17.01,12.86-26.85"/>
						<path style="fill:none;stroke:#B9DADC;stroke-miterlimit:10;" d="M254.582,83.109c-5.41-0.26-10.67-2.76-14.29-6.79"/>
						<path style="fill:none;stroke:#B9DADC;stroke-miterlimit:10;" d="M280.842,106.559c-2.35-4.19-3.53-9.03-3.38-13.84"/>
						<path style="fill:none;stroke:#B9DADC;stroke-miterlimit:10;" d="M283.102,103.229c5.07-1.19,9.71-4.14,12.94-8.23"/>
						<path style="fill:none;stroke:#B9DADC;stroke-miterlimit:10;" d="M245.452,96.469c1.09-2.39,1.4-5.13,0.88-7.7"/>
						<path style="fill:none;stroke:#B9DADC;stroke-miterlimit:10;" d="M240.792,93.129c-5.88,0.54-11.95-1.67-16.11-5.87"/>
					</g>
					<circle style="fill:#B9DADC;" cx="248.412" cy="64.099" r="4.02"/>
					<circle style="fill:#B9DADC;" cx="237.822" cy="73.839" r="4.02"/>
					<circle style="fill:#B9DADC;" cx="230.162" cy="80.259" r="4.02"/>
					<path style="fill:#B9DADC;" d="M222.482,80.949c2.22,0,4.02,1.8,4.02,4.02s-1.8,4.02-4.02,4.02c-2.22,0-4.02-1.8-4.02-4.02
						S220.262,80.949,222.482,80.949z"/>
					<circle style="fill:#B9DADC;" cx="245.832" cy="86.429" r="4.02"/>
					<path style="fill:#B9DADC;" d="M277.132,85.769c2.22,0,4.02,1.8,4.02,4.02s-1.8,4.02-4.02,4.02c-2.22,0-4.02-1.8-4.02-4.02
						S274.912,85.769,277.132,85.769z"/>
					<circle style="fill:#B9DADC;" cx="287.112" cy="89.769" r="4.02"/>
					<path style="fill:#B9DADC;" d="M297.432,88.209c2.22,0,4.02,1.8,4.02,4.02s-1.8,4.02-4.02,4.02c-2.22,0-4.02-1.8-4.02-4.02
						S295.212,88.209,297.432,88.209z"/>
					<path style="fill:#B9DADC;" d="M265.092,63.679c2.22,0,4.02,1.8,4.02,4.02s-1.8,4.02-4.02,4.02c-2.22,0-4.02-1.8-4.02-4.02
						S262.872,63.679,265.092,63.679z"/>
				</g>
			</g>
		</g>
		<g>
			<g>
				<ellipse style="fill:#ECF5FB;" cx="380.142" cy="440.418" rx="334" ry="13.39"/>
				<ellipse style="fill:#ECF5FB;" cx="236.102" cy="453.798" rx="82.25" ry="8.88"/>
			</g>
			<g>
				<g>
					<g>
						<path style="fill:#145675;" d="M114.182,340.159L114.182,340.159c0-1.66,1.34-3,3-3h47.5v6h-47.5
							C115.522,343.159,114.182,341.819,114.182,340.159z"/>
						<polygon style="fill:#043351;" points="64.662,440.839 120.492,314.659 127.902,317.909 73.942,440.839 						"/>
						<path style="fill:#145675;" d="M96.592,376.039L96.592,376.039c0-1.66,1.34-3,3-3h50v6h-50
							C97.932,379.039,96.592,377.699,96.592,376.039z"/>
						<path style="fill:#145675;" d="M81.092,414.039L81.092,414.039c0-1.66,1.34-3,3-3h50v6h-50
							C82.432,417.039,81.092,415.698,81.092,414.039z"/>
					</g>
					<g>
						<path style="fill:#075E6B;" d="M151.032,188.759l-2.18-15.09c0,0,11.42,0.3,14.11,4.1c2.25,3.17,14.59,22.74,14.59,22.74
							l-7.03,15.7l-16.56-15.89L151.032,188.759z"/>
						<g>
							<g>
								<g>
									<path style="fill:#37253B;" d="M129.522,373.428c-1.22,2.08-30.56,0.45-31.55-0.64c-0.42-0.46-0.55-1.26-0.48-2.25
										c0.32-4.29,4.43-12.23,4.43-12.23l3.69-4.61l10.27,4.61c0,0,12.04,7.54,13.76,12.73
										C129.932,371.919,129.932,372.729,129.522,373.428z"/>
									<path style="fill:#78677A;" d="M129.522,373.428c-1.22,2.08-30.56,0.45-31.55-0.64c-0.42-0.46-0.55-1.26-0.48-2.25
										c5.53,0.73,17.25,1.8,32.15,0.5C129.932,371.919,129.932,372.729,129.522,373.428z"/>
								</g>
								<g>
									<path style="fill:#37253B;" d="M167.672,339.428c0.01,0.87-0.19,1.52-0.65,1.89c-3.61,2.87-29.97-17.71-29.01-21.28
										c0.15-0.55,0.47-1.09,0.92-1.61c2.46-2.92,8.62-5.33,8.62-5.33l5.54-1.81l4.98,6.78
										C158.072,318.069,167.622,333.559,167.672,339.428z"/>
									<path style="fill:#78677A;" d="M167.672,339.428c0.01,0.87-0.19,1.52-0.65,1.89c-3.61,2.87-29.97-17.71-29.01-21.28
										c0.15-0.55,0.47-1.09,0.92-1.61C143.442,322.928,157.732,336.559,167.672,339.428z"/>
								</g>
								<g>
									<path style="fill:#5E8DC0;" d="M194.932,284.029c-0.28,5.03-33.78,39.5-33.78,39.5c-2.96,0.47-13.46-8.24-13.69-10.32
										c0,0,7.78-9.31,13.8-17.09c0,0,0-0.01,0.01-0.01c3.87-5.01,7.02-9.38,6.9-10.23c-0.2-1.4-26.34-21.52-29.37-23.85
										c-0.19-0.15-0.29-0.22-0.29-0.22l-20.81,97.3c-2.46,1.33-13.78,0.37-15.81-0.93l9.56-118.02l0.34-4.3l6.89-5.91l29.01-4.84
										c0,0,3.01,3.3,7.5,8.36C168.592,248.489,195.202,279.029,194.932,284.029z"/>
									<path style="fill:#4671B3;" d="M172.322,284.689c0.26,1.12-5.77,7.55-11.05,11.42c3.87-5.01,7.02-9.38,6.9-10.23
										c-0.2-1.4-26.34-21.52-29.37-23.85c-0.04-0.32-0.09-0.64-0.13-0.96c2.82-1.84,5.4-3.98,7.98-6.13
										C153.112,266.169,171.562,281.479,172.322,284.689z"/>
								</g>
							</g>
							<path style="fill:#0D747C;" d="M111.132,240.579c0,0-0.86-45.31,4.93-56.91c5.04-10.1,36.6-11.89,40.83-8.27
								c4.7,4.03-1.28,59.26-1.28,59.26C151.992,238.279,118.142,241.719,111.132,240.579z"/>
							<g>
								<g>
									<path style="fill:#F9D0B8;" d="M141.392,185.939c-9.51-1.58-13.17-9.3-13.17-9.3c1.47-0.89,2.11-3.92,2.37-6.93
										c0.31-3.53,0.1-7.03,0.1-7.03l14.05,4.29c-1.48,4.93-0.36,6.49,0.38,6.98c0.29,0.19,0.53,0.22,0.53,0.22
										S147.942,187.019,141.392,185.939z"/>
									<path style="fill:#EDA98E;" d="M145.122,173.949c-2.99,0.74-6.2,0.55-9.07-0.56c-2.06-0.8-3.93-2.08-5.46-3.68
										c0.31-3.53,0.1-7.03,0.1-7.03l14.05,4.29C143.262,171.899,144.382,173.459,145.122,173.949z"/>
								</g>
								<path style="fill:#EDA98E;" d="M153.257,152.429c2.616-1.089,5.359-0.475,6.127,1.37c0.768,1.846-0.729,4.225-3.345,5.313
									c-2.616,1.089-5.359,0.475-6.127-1.37C149.143,155.897,150.641,153.518,153.257,152.429z"/>
								<path style="fill:#110B13;" d="M154.582,143.129c1.28,4.24,0.92,8.95-1.11,12.76c-1.11-3.85-2.12-7.73-3.17-11.6
									C151.792,143.579,153.332,143.009,154.582,143.129z"/>
								<g>
									<path style="fill:#F9D0B8;" d="M145.172,171.969c-11.83,2.52-20.92-10.81-21.5-16.58c-0.52-5.18,0.7-10.06,3.1-13.75
										c1.17-1.8,2.6-3.3,4.25-4.43c1.79-1.24,3.85-2.04,6.06-2.26c7.16-0.72,11.15,1.29,13.46,4.34c0,0.01,0,0.01,0.01,0.01
										c1.75,2.31,2.53,5.2,3.01,7.97c0.31,1.81,0.49,3.57,0.71,5.05C155.372,159.749,154.332,170.009,145.172,171.969z"/>
								</g>
								<g>
									<path style="fill:none;stroke:#110B13;stroke-linecap:round;stroke-miterlimit:10;" d="M141.272,152.279
										c-1.68-0.92-4.07-1.09-6.01,0.05"/>
									<path style="fill:none;stroke:#110B13;stroke-linecap:round;stroke-miterlimit:10;" d="M153.952,152.599
										c-1-0.92-2.97-0.88-4.43,0.06"/>
									<path style="fill:#3A4154;" d="M151.121,157.937c0.005-0.552,0.286-0.998,0.628-0.995c0.342,0.003,0.616,0.453,0.612,1.005
										c-0.005,0.552-0.286,0.998-0.628,0.995C151.39,158.939,151.116,158.489,151.121,157.937z"/>
									<path style="fill:#3A4154;" d="M140.074,156.452c0.342-0.01,0.633,0.43,0.648,0.982c0.016,0.552-0.249,1.008-0.591,1.017
										c-0.342,0.01-0.633-0.43-0.648-0.982C139.467,156.917,139.732,156.462,140.074,156.452z"/>
									<path style="fill:none;stroke:#D96C5D;stroke-linecap:round;stroke-miterlimit:10;" d="M146.962,157.929
										c0.24,1.28,0.11,2.62-0.38,3.83"/>
									<path style="fill:none;stroke:#D96C5D;stroke-linecap:round;stroke-miterlimit:10;" d="M144.692,165.129
										c-1.09,0.3-2.28,0.2-3.31-0.26c-1.03-0.46-1.89-1.29-2.39-2.31"/>
								</g>
								<path style="fill:#EDA98E;" d="M153.562,147.269c-7.3,1.92-15.04,2.06-22.39,0.4c0.44,2.87-0.31,6.23-1.99,9.05
									c-1.87-5.82-2.32-10.58-2.41-15.08c1.17-1.8,2.6-3.3,4.25-4.43c5.67-0.19,11.37,0.26,16.96,1.32
									c0.88,0.17,1.78,0.37,2.57,0.76c0,0.01,0,0.01,0.01,0.01C152.302,141.609,153.082,144.499,153.562,147.269z"/>
								<path style="fill:#110B13;" d="M156.162,144.199c0.01,0.19,0.01,0.38,0.01,0.57c-6.77,2.73-20.6,2.76-26.46,0.87
									c0.76,2.9,0.38,11.85-0.57,16.86c-2.07-0.56-2.6,1.75-4.94,1.12c-4.29-7.64-10.64-20.76-2.68-22.81
									c-0.58-1.49-0.23-3.74,0.81-5.71c0.52-1.02,1.22-1.95,2.06-2.69c5.22-4.56,13.87-4.58,20.82-2.04
									C151.572,132.699,156.032,138.379,156.162,144.199z"/>
								<path style="fill:#37253B;" d="M156.162,144.199c-1.48-2.65-3.23-5.11-5.57-7c-3.34-2.69-7.66-3.95-11.94-4.36
									c-5.52-0.53-11.16,0.26-16.34,2.27c0.52-1.02,1.22-1.95,2.06-2.69c5.22-4.56,13.87-4.58,20.82-2.04
									C151.572,132.699,156.032,138.379,156.162,144.199z"/>
								<path style="fill:#F9D0B8;" d="M120.427,160.977c0.004-1.999,2.469-3.615,5.507-3.61c3.037,0.006,5.497,1.631,5.493,3.63
									c-0.004,1.999-2.469,3.615-5.507,3.61C122.883,164.601,120.423,162.976,120.427,160.977z"/>
							</g>
						</g>
					</g>
				</g>
				<g>
					<g>
						<g>
							<polygon style="fill:#0C7878;" points="465.852,369.039 448.962,430.039 307.742,430.039 290.852,369.039 							"/>
							<rect x="266.352" y="422.539" style="fill:#27B3AC;" width="224" height="15"/>
						</g>
						<g>
							<g>
								<path style="fill:#5CBAB5;" d="M161.852,367.559v-243.38c0-12.32,9.99-22.31,22.31-22.31h388.38
									c12.32,0,22.31,9.99,22.31,22.31v243.38c0,12.32-9.99,22.31-22.31,22.31h-388.38
									C171.832,389.868,161.852,379.879,161.852,367.559z"/>
								<circle style="fill:#A9EBE3;" cx="378.352" cy="369.039" r="12.5"/>
							</g>
							<g>
								<g>
									<path style="fill:#D5EAF8;" d="M580.722,138.969v189.38c0,12.33-9.99,22.31-22.31,22.31h-360.12
										c-12.32,0-22.31-9.98-22.31-22.31v-189.38c0-1.78,0.21-3.52,0.61-5.18c2.33-9.82,11.16-17.13,21.7-17.13h360.12
										c10.54,0,19.37,7.31,21.7,17.13C580.512,135.449,580.722,137.189,580.722,138.969z"/>
									<g>
										<path style="fill:#9BD5E6;" d="M580.112,133.789h-403.52c2.33-9.82,11.16-17.13,21.7-17.13h360.12
											C568.952,116.659,577.782,123.969,580.112,133.789z"/>
										<g>
											<path style="fill:#D5EAF8;" d="M512.062,120.789c2.452,0,4.44,1.988,4.44,4.44c0,2.452-1.988,4.44-4.44,4.44
												c-2.452,0-4.44-1.988-4.44-4.44C507.622,122.776,509.61,120.789,512.062,120.789z"/>
											<path style="fill:#D5EAF8;" d="M533.062,120.789c2.452,0,4.44,1.988,4.44,4.44c0,2.452-1.988,4.44-4.44,4.44
												c-2.452,0-4.44-1.988-4.44-4.44C528.622,122.776,530.61,120.789,533.062,120.789z"/>
											<path style="fill:#D5EAF8;" d="M556.062,120.789c2.452,0,4.44,1.988,4.44,4.44c0,2.452-1.988,4.44-4.44,4.44
												c-2.452,0-4.44-1.988-4.44-4.44C551.622,122.776,553.61,120.789,556.062,120.789z"/>
										</g>
									</g>
								</g>
								<g>
									<g>
										<g>
											<path style="fill:#EBFAFF;" d="M580.722,217.649v82.11c-6.57,8.44-17.06,13.9-28.88,13.9c-7.86,0-15.13-2.42-21.06-6.53
												c-2.73,13.3-15.32,23.35-30.44,23.35c-0.25,0-0.49-0.01-0.74-0.01c-2.18,9.11-9.01,16.59-18.06,20.19h-24.4
												c-2.88-1.14-5.53-2.69-7.89-4.55c-4.13,2.51-8.95,4.13-14.13,4.55c-0.92,0.08-1.84,0.12-2.78,0.12
												c-0.9,0-1.78-0.04-2.66-0.12c-0.5-0.04-0.99-0.09-1.48-0.15c-0.01,0.05-0.01,0.1-0.02,0.15h-154.94
												c-2.49-5.2-3.9-11.11-3.9-17.38c0-3.16,0.37-6.23,1.04-9.16c-7.6-0.49-14.45-3.53-19.56-8.2
												c-4.51,7.12-12.01,11.78-20.5,11.78c-13.45,0-24.42-11.68-24.98-26.32c-8.39-1.36-15.49-6.95-19.36-14.69
												c-2.97,1.71-6.37,2.76-10,2.94v-64.19c2.11-0.85,4.42-1.31,6.84-1.31c9.94,0,18,7.84,18,17.5c0,1.67-0.26,3.27-0.71,4.8
												c2.87-1.14,5.97-1.77,9.21-1.77c14.63,0,26.5,12.77,26.5,28.52c0,0.07-0.01,0.13-0.01,0.2
												c4.13,1.01,7.87,3.15,10.95,6.11c5.55-7.75,15.04-12.86,25.82-12.86c17.12,0,31,12.89,31,28.79c0,0,0,0.01,0,0.02
												c0.25-0.01,0.51-0.02,0.76-0.02c14.7,0,27.27,9.8,32.45,23.68c0.85-0.06,1.69-0.11,2.55-0.11
												c4.93,0,9.58,1.07,13.71,2.97c7,3.21,12.51,8.81,15.29,15.64c3.07-7.54,9.45-13.57,17.5-16.56
												c3.55-1.32,7.44-2.05,11.5-2.05c1.41,0,2.79,0.1,4.15,0.27c1.48-14.61,14.73-26.05,30.85-26.05
												c7.67,0,14.68,2.59,20.09,6.87c4.87-2.94,10.67-4.66,16.91-4.66c0.25,0,0.5,0.01,0.75,0.01
												c2.85-11.92,13.67-21.07,27.01-22.36c-0.49-2.05-0.76-4.21-0.76-6.44c0-13.8,10.08-25,22.5-25
												c6.16,0,11.74,2.76,15.81,7.21c5.11-2.66,10.96-4.18,17.19-4.18h0.17c-0.11-0.99-0.17-2-0.17-3.03
												c0-13.8,10.08-25,22.5-25C576.562,216.629,578.702,216.989,580.722,217.649z"/>
										</g>
										<g>
											<path style="fill:#FFFFFF;" d="M580.722,256.898v71.45c0,12.33-9.99,22.31-22.31,22.31h-123.29
												c-0.92,0.08-1.84,0.12-2.78,0.12c-0.9,0-1.78-0.04-2.66-0.12h-231.39c-12.32,0-22.31-9.98-22.31-22.31v-68.26
												c10.3,0.67,18.44,9.23,18.44,19.7c0,3.45-0.89,6.7-2.44,9.52c0.15,0,0.29-0.01,0.44-0.01c14.75,0,27.5,9.42,33.62,23.11
												c2.51-0.63,5.13-0.96,7.82-0.96c4.49,0,8.76,0.92,12.63,2.59c3.28-11.2,13.62-19.38,25.88-19.38
												c14.9,0,26.97,12.07,26.97,26.96c0,7.92-3.41,15.04-8.84,19.97c3.22,0.95,6.13,2.28,8.65,3.9
												c3.45-5.03,9.23-8.33,15.79-8.33c7.24,0,13.54,4.02,16.79,9.96c3.42-8.06,40.58-89.9,40.58-89.9l18.41,5.16l-2.61,80.8
												c9.54-12.86,18.81-5.73,24.4,3.44c0.89-2.92,2.36-5.61,4.32-7.92c-0.99-2.76-1.53-5.8-1.53-8.98
												c0-12.92,8.96-23.4,20.03-23.4c10.78,0,19.57,9.96,20.01,22.44c4.06-7.5,11.13-13.27,19.68-15.84
												c-0.55-2.1-0.85-4.31-0.85-6.6c0-13.76,10.74-24.92,24-24.92c8.99,0,16.82,5.14,20.93,12.74
												c9.82-7.41,22.38-11.85,36.07-11.85c0.4,0,0.81,0.02,1.21,0.03c-0.91-2.07-1.42-4.31-1.42-6.64
												c0-10.48,10.08-18.98,22.5-18.98C578.572,256.699,579.662,256.768,580.722,256.898z"/>
										</g>
									</g>
									<g>
										<g>
											<polygon style="fill:#F47D20;" points="349.472,197.339 307.552,253.939 350.792,253.779 											"/>
											<polygon style="fill:#F47D20;" points="427.992,211.859 449.142,279.368 408.612,263.298 											"/>
											<polygon style="fill:#D9611C;" points="360.352,281.259 360.082,281.589 360.142,281.229 											"/>
											<polygon style="fill:#C7511E;" points="397.232,310.419 345.682,301.509 363.932,275.609 364.162,275.279 
												388.332,279.449 388.452,279.839 											"/>
											<polygon style="fill:#D9611C;" points="390.632,286.499 390.572,286.859 390.422,286.458 											"/>
											<g>
												<path style="fill:#FDD256;" d="M432.402,210.129c-5.68,33.92-25.53,62.73-38.91,73.5c-4.75,3.82-32.28-0.62-35.62-6.16
													c-9.06-14.99-17.86-51.9-12.74-82.43c3.75-22.43,13.25-49.53,24.22-73.41c15.58-33.89,34.15-61.29,43.54-59.66
													c9.19,1.59,17.3,32.63,20.76,69.03C436.192,157.659,436.242,187.189,432.402,210.129z"/>
												<path style="fill:#F47D20;" d="M433.652,130.999c-19.64-7.11-41.94-10.33-64.31-9.37
													c15.58-33.89,34.15-61.29,43.54-59.66C422.082,63.549,430.192,94.599,433.652,130.999z"/>
											</g>
											<path style="fill:#F47D20;" d="M355.512,280.089l0.06-0.35c0.24-1.43,1.43-2.42,2.67-2.21l34.95,6.04
												c1.23,0.21,2.04,1.55,1.8,2.98l-0.06,0.35c-0.24,1.43-1.43,2.42-2.67,2.21l-34.95-6.04
												C356.082,282.859,355.272,281.529,355.512,280.089z"/>
											<path style="opacity:0.251;fill:#FFFBF7;enable-background:new    ;" d="M353.242,255.868
												c-6.58-20.95-6.16-43.76-2.18-65.47c3.98-21.7,11.56-42.53,19.65-63c8.61-21.81,15.61-38.52,36.11-59.67
												c-17.73,31.17-31.67,63.7-40.69,98.59c-9.02,34.89-10.9,74.93-0.12,109.27
												C364.042,277.039,358.222,271.738,353.242,255.868z"/>
											<path style="fill:#F47D20;" d="M346.362,257.439L346.362,257.439c0.26-1.53,1.74-2.55,3.31-2.28l58.87,10.18
												c1.57,0.27,2.64,1.73,2.39,3.26l0,0c-0.26,1.53-1.74,2.55-3.31,2.28l-58.87-10.18
												C347.172,260.428,346.112,258.969,346.362,257.439z"/>
										</g>
										<g>
											<circle style="fill:#F59F49;" cx="394.982" cy="156.959" r="19.69"/>
											<g>
												
													<ellipse transform="matrix(0.9239 -0.3827 0.3827 0.9239 -28.7156 162.7939)" style="fill:#D9611C;" cx="394.852" cy="153.579" rx="18.98" ry="18.98"/>
												<g>
													<g>
														<g>
															<path style="fill:#F2CB9B;" d="M393.062,136.629c0.751,0,1.36,0.609,1.36,1.36s-0.609,1.36-1.36,1.36
																c-0.751,0-1.36-0.609-1.36-1.36S392.311,136.629,393.062,136.629z"/>
															<circle style="fill:#F2CB9B;" cx="396.642" cy="169.169" r="1.36"/>
														</g>
														<g>
															<path style="fill:#F2CB9B;" d="M410.442,150.429c0.751,0,1.36,0.609,1.36,1.36s-0.609,1.36-1.36,1.36
																c-0.751,0-1.36-0.609-1.36-1.36S409.691,150.429,410.442,150.429z"/>
															<path style="fill:#F2CB9B;" d="M379.262,154.009c0.751,0,1.36,0.609,1.36,1.36c0,0.751-0.609,1.36-1.36,1.36
																s-1.36-0.609-1.36-1.36C377.902,154.617,378.511,154.009,379.262,154.009z"/>
														</g>
													</g>
													<g>
														<g>
															<path style="fill:#F2CB9B;" d="M403.502,139.129c0.751,0,1.36,0.609,1.36,1.36s-0.609,1.36-1.36,1.36
																c-0.751,0-1.36-0.609-1.36-1.36S402.751,139.129,403.502,139.129z"/>
															<circle style="fill:#F2CB9B;" cx="386.202" cy="166.679" r="1.36"/>
														</g>
														<g>
															<path style="fill:#F2CB9B;" d="M407.942,160.869c0.751,0,1.36,0.609,1.36,1.36c0,0.751-0.609,1.36-1.36,1.36
																c-0.751,0-1.36-0.609-1.36-1.36C406.582,161.477,407.191,160.869,407.942,160.869z"/>
															<path style="fill:#F2CB9B;" d="M381.752,143.569c0.751,0,1.36,0.609,1.36,1.36s-0.609,1.36-1.36,1.36
																c-0.751,0-1.36-0.609-1.36-1.36S381.001,143.569,381.752,143.569z"/>
														</g>
													</g>
												</g>
											</g>
											<g>
												<path style="fill:#291D1D;" d="M407.512,152.129c0.14,1.22,0.1,2.42-0.09,3.57c-0.91,5.45-5.34,9.88-11.12,10.55
													c-0.79,0.09-1.58,0.11-2.35,0.05c-3.47-0.24-6.61-1.89-8.79-4.43v-0.01c-0.42-0.47-0.79-0.97-1.12-1.51
													c-0.41-0.65-0.76-1.35-1.05-2.07c-0.4-1.02-0.68-2.1-0.81-3.24c-0.02-0.17-0.04-0.33-0.04-0.5
													c-0.52-6.79,4.42-12.83,11.24-13.62c1.14-0.13,2.27-0.11,3.35,0.05c0.77,0.12,1.52,0.31,2.25,0.55
													c0.6,0.2,1.17,0.46,1.72,0.75c2.98,1.55,5.29,4.24,6.31,7.57C407.262,150.579,407.422,151.339,407.512,152.129z"/>
												<path style="fill:#A39B99;" d="M396.752,140.969l-13.75,17.31c-0.4-1.02-0.68-2.1-0.81-3.24
													c-0.8-6.99,4.21-13.32,11.2-14.12C394.532,140.789,395.662,140.809,396.752,140.969z"/>
												<path style="fill:#A39B99;" d="M407.512,152.129c0.8,6.99-4.21,13.31-11.21,14.11c-0.79,0.09-1.58,0.11-2.35,0.05
													l13.07-16.46C407.262,150.579,407.422,151.339,407.512,152.129z"/>
												<path style="fill:#A39B99;" d="M400.722,142.269l-15.55,19.59c-0.42-0.47-0.79-0.97-1.12-1.51l14.95-18.83
													C399.592,141.729,400.162,141.979,400.722,142.269z"/>
												<path style="opacity:0.3608;fill:#291D1D;enable-background:new    ;" d="M407.512,152.129
													c0.14,1.22,0.1,2.42-0.09,3.57c-1.03-5.05-3.93-10.95-11.78-11.6c-8.89-0.73-12.24,5.68-13.49,10.44
													c-0.52-6.79,4.42-12.83,11.24-13.62c1.14-0.13,2.27-0.11,3.35,0.05c0.77,0.12,1.52,0.31,2.25,0.55
													c0.6,0.2,1.17,0.46,1.72,0.75c2.98,1.55,5.29,4.24,6.31,7.57C407.262,150.579,407.422,151.339,407.512,152.129z"/>
											</g>
										</g>
									</g>
								</g>
								<g>
									<g>
										<g>
											<path style="fill:#9BD5E6;" d="M329.592,184.629l3.56-6.95l-7.26-3.71c0.29-1.35,0.4-2.72,0.32-4.06l7.76-2.51l-2.4-7.43
												l-7.76,2.51c-0.73-1.14-1.61-2.18-2.64-3.11l3.71-7.26l-6.95-3.56l-3.71,7.26c-1.35-0.29-2.72-0.4-4.06-0.32l-2.51-7.76
												l-7.43,2.4l2.51,7.76c-1.14,0.73-2.18,1.61-3.11,2.64l-7.26-3.71l-3.56,6.95l7.26,3.71c-0.29,1.35-0.4,2.72-0.32,4.06
												l-7.76,2.51l2.4,7.43l7.76-2.51c0.73,1.14,1.61,2.18,2.64,3.11l-3.71,7.26l6.95,3.56l3.71-7.26
												c1.35,0.29,2.72,0.4,4.06,0.32l2.51,7.76l7.43-2.4l-2.51-7.76c1.14-0.73,2.18-1.61,3.11-2.64L329.592,184.629z
												 M306.252,179.949c-5.1-2.61-7.12-8.86-4.51-13.97c2.61-5.1,8.86-7.12,13.97-4.51c5.1,2.61,7.12,8.86,4.51,13.97
												C317.612,180.539,311.352,182.559,306.252,179.949z"/>
										</g>
										<g>
											<path style="fill:#9BD5E6;" d="M225.452,184.779l4.1-4.1l-4.28-4.28c0.52-0.89,0.9-1.83,1.16-2.8h6.05v-5.8h-6.05
												c-0.26-0.97-0.64-1.91-1.16-2.8l4.28-4.28l-4.1-4.1l-4.28,4.28c-0.89-0.52-1.83-0.9-2.8-1.16v-6.05h-5.8v6.05
												c-0.97,0.26-1.91,0.64-2.8,1.16l-4.28-4.28l-4.1,4.1l4.28,4.28c-0.52,0.89-0.9,1.83-1.16,2.8h-6.05v5.8h6.05
												c0.26,0.97,0.64,1.91,1.16,2.8l-4.28,4.28l4.1,4.1l4.28-4.28c0.89,0.52,1.83,0.9,2.8,1.16v6.05h5.8v-6.05
												c0.97-0.26,1.91-0.64,2.8-1.16L225.452,184.779z M210.032,176.159c-3.01-3.01-3.01-7.88,0-10.89
												c3.01-3.01,7.88-3.01,10.89,0c3.01,3.01,3.01,7.88,0,10.89C217.922,179.169,213.042,179.169,210.032,176.159z"/>
										</g>
										<g>
											<path style="fill:#9BD5E6;" d="M276.302,253.569l11.43-6.83l-7.13-11.93c1.65-1.69,3.03-3.57,4.14-5.58l13.48,3.39
												l3.25-12.91l-13.48-3.39c-0.03-2.3-0.35-4.61-1.01-6.88l11.93-7.13l-6.83-11.43l-11.93,7.13
												c-1.68-1.65-3.57-3.03-5.58-4.14l3.39-13.48l-12.91-3.25l-3.39,13.48c-2.3,0.03-4.61,0.35-6.88,1.01l-7.13-11.93
												l-11.43,6.83l7.13,11.93c-1.65,1.68-3.03,3.57-4.14,5.58l-13.48-3.39l-3.25,12.91l13.48,3.39
												c0.03,2.3,0.35,4.61,1.01,6.88l-11.93,7.13l6.83,11.43l11.93-7.13c1.68,1.65,3.57,3.03,5.58,4.14l-3.39,13.48l12.91,3.25
												l3.39-13.48c2.3-0.03,4.61-0.35,6.88-1.01L276.302,253.569z M246.792,225.709c-5.01-8.39-2.28-19.25,6.11-24.27
												s19.25-2.28,24.27,6.11c5.01,8.39,2.28,19.25-6.11,24.27C262.672,236.839,251.812,234.099,246.792,225.709z"/>
										</g>
									</g>
									<g>
										<g>
											<rect x="454.852" y="203.159" style="fill:#9BD5E6;" width="8.95" height="21.68"/>
											<rect x="532.092" y="159.799" style="fill:#9BD5E6;" width="8.01" height="65.03"/>
											<rect x="512.892" y="176.769" style="fill:#9BD5E6;" width="8.48" height="48.07"/>
											<rect x="492.722" y="189.219" style="fill:#9BD5E6;" width="8.72" height="35.61"/>
											<rect x="472.972" y="185.719" style="fill:#9BD5E6;" width="8.95" height="39.11"/>
										</g>
										<g>
											<polygon style="fill:#9BD5E6;" points="533.232,147.369 519.982,150.339 527.772,159.799 											"/>
											<polyline style="fill:none;stroke:#9BD5E6;stroke-miterlimit:10;" points="526.992,152.499 500.212,177.229 
												480.832,175.779 457.162,194.199 											"/>
										</g>
										<polyline style="fill:none;stroke:#9BD5E6;stroke-miterlimit:10;" points="445.142,153.489 445.282,224.949 
											545.142,224.829 										"/>
									</g>
								</g>
							</g>
						</g>
					</g>
					<g>
						<polygon style="fill:#043351;" points="115.202,442.249 170.642,316.958 178.002,320.189 124.412,442.238 						"/>
						<g>
							<g>
								<path style="fill:#F9D0B8;" d="M198.152,196.379c0,0-23.08,18.73-32.85,19.83c-4.04,0.45-11.74-0.92-18.85-2.53
									c-8.28-1.87-15.77-4.06-15.77-4.06l1.06-6.83l2.29-14.75c0,0,1.99,1.16,4.9,2.78c3.47,1.95,8.25,4.58,12.48,6.72
									c4.47,2.26,8.34,3.98,9.4,3.78c7.87-1.49,33.15-12.31,33.15-12.31L198.152,196.379z"/>
								<path style="fill:#EDA98E;" d="M151.412,197.539c-0.56,3.87-1.92,10.59-4.96,16.14c-8.28-1.87-15.77-4.06-15.77-4.06
									l1.06-6.83l7.19-11.97C142.402,192.769,147.182,195.399,151.412,197.539z"/>
							</g>
							<path style="fill:#1D9999;" d="M116.102,184.509c1.37-2.68,3.92-4.91,9.72-2.53c9.55,3.92,24.48,13.22,24.48,13.22
								c-1.57,3.81-8,19.61-10.14,21.02c0,0-14.65-7.04-21.78-16.29C114.882,195.379,113.782,189.039,116.102,184.509z"/>
							<g>
								<path style="fill:#F9D0B8;" d="M193.392,191.389c0.5-4.68,1.61-9.28,3.31-13.65c0.25-0.64,0.67-1.38,1.33-1.34
									c0.43,0.03,0.78,0.42,0.91,0.84c0.13,0.43,0.09,0.89,0.05,1.33c-0.2,2.22-0.4,4.45-0.26,6.58
									c6.06,2.02,12.21,3.76,18.43,5.19c0.57,0.13,1.26,0.4,1.3,1c0.03,0.41-0.3,0.76-0.67,0.9c-0.37,0.13-0.78,0.09-1.17,0.05
									c-3.15-0.35-6.3-0.69-9.44-1.04c2.71,1.29,5.42,2.58,8.13,3.86c0.46,0.22,0.94,0.45,1.29,0.83
									c0.35,0.38,0.55,0.96,0.36,1.45c-0.19,0.49-0.87,0.74-1.29,0.46c0.04,0.49-0.18,0.99-0.57,1.27
									c-0.38,0.29-0.92,0.34-1.47,0.13c-0.04,0.58-0.57,1.01-1.12,1.12c-0.55,0.11-1.11-0.04-1.65-0.18
									c-4.39-1.16-8.78-2.32-13.17-3.49c-0.58-0.15-1.17-0.31-1.69-0.62C194.542,195.229,193.172,193.479,193.392,191.389z"/>
								<g>
									<path style="fill:none;stroke:#EDA98E;stroke-width:0.5;stroke-linecap:round;stroke-miterlimit:10;" d="M215.262,197.769
										c-3.68-1.02-7.23-2.47-10.57-4.32"/>
									<path style="fill:none;stroke:#EDA98E;stroke-width:0.5;stroke-linecap:round;stroke-miterlimit:10;" d="M213.152,199.229
										c-3.2-0.94-6.3-2.2-9.24-3.77"/>
								</g>
							</g>
						</g>
					</g>
				</g>
				<g>
					<path style="fill:#092330;" d="M211.642,325.029c-3.03,4.77-4.15,10.81-3.67,16.44c0.38,4.42-1.93,8.07-4.84,9.28
						c-1.78,0.73-3.69,1.9-3.98,3.81c-0.39,2.61,2.5,4.8,2.32,7.44c-0.19,2.73-3.37,4.1-4.88,6.38c-1.41,2.11-1.26,5.01-0.08,7.26
						c1.18,2.25,3.24,3.93,5.45,5.18c8.36,4.73,18.63,3.92,28.17,2.8c3.24-0.38,6.55-0.79,9.52-2.16c2.97-1.36,5.6-3.85,6.32-7.04
						c1.54-6.85-6.01-13.49-4.06-20.24c0.55-1.91,1.84-3.59,2.16-5.56c0.36-2.23-0.6-4.44-1.28-6.59c-0.68-2.15-1.06-4.7,0.27-6.53
						C233.002,332.379,222.222,328.689,211.642,325.029z"/>
					<g>
						<path style="fill:#FFFFFF;" d="M199.062,418.118c0,0,1.05-39.12,6.43-50.91c3.47-7.6,27.12-8.57,35.68-1.77
							c4.84,3.85,0.41,51.26,0.41,51.26C237.082,422.518,207.422,422.849,199.062,418.118z"/>
						<g>
							<path style="fill:#F9D0B8;" d="M226.122,374.138c-9.18-2.95-11.68-11.12-11.68-11.12c1.58-0.67,2.66-3.57,3.35-6.51
								c0.82-3.45,1.12-6.94,1.12-6.94l13.28,6.29c-2.18,4.66-1.3,6.37-0.64,6.96c0.26,0.23,0.49,0.29,0.49,0.29
								S232.442,376.159,226.122,374.138z"/>
							<path style="fill:#EDA98E;" d="M231.552,362.819c-3.07,0.3-6.21-0.36-8.89-1.87c-1.92-1.09-3.59-2.63-4.87-4.44
								c0.82-3.45,1.12-6.94,1.12-6.94l13.28,6.29C230.012,360.518,230.892,362.219,231.552,362.819z"/>
						</g>
					</g>
					<g>
						<path style="fill:#3C88C7;" d="M237.922,370.638l3.38-5.79c0,0,3.58,1.94,6.09,5.97c2.51,4.03,9.26,35.97,9.26,35.97
							l-14.31,2.48L237.922,370.638z"/>
						<g>
							<path style="fill:#2C70B6;" d="M195.922,417.868c0-12.75,1.48-25.47,3.97-37.97c0.85-4.27,1.04-10.6,3.72-14.03
								c1.65-2.11,7.98-4.53,12.48-5.49c2.12,5.04,2.67,11.48,3.05,17.56c0.9,14.29-1.01,28.65-3.6,43.07
								C208.742,420.939,201.952,419.909,195.922,417.868z"/>
							<path style="fill:#2C70B6;" d="M231.112,361.328c2.98,9.43,4.42,19.52,4.33,29.36s0.64,17.19-0.76,29.14
								c0,0,0.28,0.23,0.33,0.25c3.49-0.86,6.92-1.9,10.15-2.53c-0.5-16.36,1.54-48.44-2.97-52.12
								C240.342,363.919,234.572,361.749,231.112,361.328z"/>
						</g>
						<path style="fill:#3C88C7;" d="M219.332,389.949c0,0,0.65-21.69-2.86-29.84c0,0-4.04,0.84-4.46,1.35
							c0,0-0.34,10.62,0.78,12.56c1.12,1.94,4.31,2.96,4.31,2.96s-2.44,3.92-2.44,5.14S219.332,389.949,219.332,389.949z"/>
						<path style="fill:#3C88C7;" d="M235.342,388.839c0,0-0.38-16.09-4.44-27.67c0,0,2.59-0.03,4.52,1.13c0,0,5.19,9.57,4.5,11.65
							c-0.69,2.08-4.58,3.23-4.58,3.23s2.75,2.32,2.58,4.08C237.742,383.018,235.342,388.839,235.342,388.839z"/>
					</g>
					<g>
						<path style="fill:#EDA98E;" d="M239.838,344.541c2.636-1.039,5.367-0.373,6.1,1.487c0.733,1.86-0.809,4.21-3.445,5.249
							c-2.636,1.039-5.367,0.373-6.1-1.487C235.66,347.93,237.202,345.58,239.838,344.541z"/>
						<g>
							<g>
								<path style="fill:#F9D0B8;" d="M228.812,359.789c-12.09,0-17.62-12.24-17.62-20.65c0-15.58,10.17-18.71,16.08-18.49
									c13.8,0.53,15.72,12.24,14.49,21.79C240.842,349.599,240.122,359.789,228.812,359.789z"/>
							</g>
							<g>
								<path style="fill:none;stroke:#03455B;stroke-linecap:round;stroke-miterlimit:10;" d="M227.995,343.039
									c-1.681-0.928-4.066-1.115-6.007,0.031"/>
								<path style="fill:none;stroke:#03455B;stroke-linecap:round;stroke-miterlimit:10;" d="M240.619,343.086
									c-0.935-0.993-2.898-1.099-4.426-0.266"/>
								<path style="fill:#03455B;" d="M235.574,347.963c0.083-0.546,0.425-0.947,0.763-0.895c0.339,0.051,0.546,0.536,0.463,1.082
									c-0.083,0.546-0.425,0.947-0.763,0.895C235.698,348.993,235.491,348.509,235.574,347.963z"/>
								<path style="fill:#03455B;" d="M225.976,347.715c0.083-0.546,0.425-0.947,0.763-0.895c0.339,0.052,0.546,0.536,0.463,1.082
									c-0.083,0.546-0.425,0.947-0.763,0.895C226.1,348.745,225.893,348.261,225.976,347.715z"/>
								<path style="fill:none;stroke:#D96C5D;stroke-linecap:round;stroke-miterlimit:10;" d="M233.112,348.048
									c0.14,1.29-0.1,2.62-0.68,3.78"/>
								<path style="fill:none;stroke:#D96C5D;stroke-linecap:round;stroke-miterlimit:10;" d="M230.092,354.583
									c-1.09,0.3-2.28,0.2-3.31-0.26s-1.89-1.29-2.39-2.31"/>
							</g>
							<path style="fill:#EDA98E;" d="M216.012,346.219c0.68-0.96,2.09-3.62,2.09-3.62s10.36-4.34,15.03-12.66
								c2.87,3.38,5.24,5.47,7.45,8.88c0.68,2.49,0.79,4.08,1.06,5.75c0.26-3.75,0.39-8.51,0.38-12.28
								c-3.01-2.61-6.03-5.21-9.08-8.11c-6.3,4.57-12.6,9.15-19.02,13.74C214.512,340.358,214.952,343.608,216.012,346.219z"/>
						</g>
						<g>
							<path style="fill:#0C2C37;" d="M233.142,325.629c0.03,0.52-0.12,1.13-0.43,1.82c-2.13,4.9-11.71,13.38-15.17,14.51
								c-0.18,1.68-1.39,4.98-1.61,6.58c-1.59-0.37-3.6-0.81-4.74-0.99c-1.32-3.44-2.97-10.13-2.22-15.75
								c0.52-3.86,2.83-8.61,7.09-11.15c1.15-0.7,2.45-1.23,3.89-1.53c2.28-0.48,4.4-0.56,6.24-0.27c2.8,0.43,4.96,1.7,6.09,3.72
								C232.782,323.449,233.072,324.469,233.142,325.629z"/>
							<path style="fill:#0C2C37;" d="M244.192,337.678c-0.76,4.53-2.67,8.42-3.04,8.53c0.53-2.67,0.02-8.25,0.02-8.25
								s-3.36-5.26-8.46-10.51c-2.23-2.29-4.79-4.57-7.54-6.42c-0.61-0.41-1.23-0.79-1.85-1.15c0.54-0.29,1.56-0.73,2.87-1.03
								c2.08-0.5,4.9-0.67,7.66,0.57c4.51,2.02,8.93,5.21,10.34,11.58C244.662,333.139,244.562,335.488,244.192,337.678z"/>
							<path style="fill:#15444F;" d="M244.192,337.678c-0.35-3.49-1.7-6.98-3.98-9.74c-2.06-2.5-4.86-4.36-7.93-5.37
								c-1.73-0.58-3.56-0.88-5.39-0.87c-0.55-0.26-1.13-0.48-1.72-0.67c-2.83-0.92-6.05-1.05-9.11-0.38
								c1.15-0.7,2.45-1.23,3.89-1.53c2.28-0.48,4.4-0.56,6.24-0.27c2.08-0.5,4.9-0.67,7.66,0.57c4.51,2.02,8.93,5.21,10.34,11.58
								C244.662,333.139,244.562,335.488,244.192,337.678z"/>
						</g>
						<path style="fill:#F9D0B8;" d="M206.59,346.757c0.433-1.952,3.189-3,6.154-2.341c2.965,0.659,5.018,2.775,4.584,4.726
							c-0.433,1.952-3.189,3-6.154,2.341C208.209,350.825,206.157,348.709,206.59,346.757z"/>
					</g>
					<g>
						<path style="fill:#DB721D;" d="M265.812,412.819c-12.07-1.04-37.52,9.64-77.22,7.75c-0.06,5.52,3.42,10.65,8.01,13.72
							c4.59,3.07,10.16,4.33,15.65,4.86c15.29,1.49,52.47-7.39,54.87-10.47C269.522,425.618,269.582,413.148,265.812,412.819z"/>
						<g>
							<g>
								<path style="fill:#0C2C37;" d="M252.742,444.779c6.13,3.28,12.26,7.32,18.39,10.6c1.6,0.86,3.28,1.74,5.1,1.86
									c1.26,0.08,2.61-0.32,3.53-1.13c0.42-0.36,0.75-0.81,0.94-1.34c0.59-1.62-0.2-3.41-1.09-4.89
									c-3.84-6.37-13.41-13.06-15.84-13.61c-0.4-0.09-1.29,0.14-2.34,0.46c-1.52,0.47-3.38,1.14-4.59,1.37
									C254.862,441.409,253.802,442.719,252.742,444.779z"/>
								<path style="fill:#1F5E6B;" d="M261.432,436.728c4.99,2.59,9.52,6.07,13.3,10.24c1.72,1.91,3.31,3.99,4.27,6.38
									c0.35,0.88,0.61,1.81,0.76,2.76c0.42-0.36,0.75-0.81,0.94-1.34c0.59-1.62-0.2-3.41-1.09-4.89
									c-3.84-6.37-13.41-13.06-15.84-13.61C263.372,436.178,262.482,436.409,261.432,436.728z"/>
							</g>
							<path style="fill:#F2970F;" d="M194.132,411.238c-5.15,1.51-7.1,8.36-5.11,13.34c3.71,9.29,44.07,20.64,65.44,22.17
								c1.12-3.42,1.74-6.84,2.89-9.61c-14.72-7.27-29.44-14.53-44.17-21.8C207.322,412.448,200.752,409.289,194.132,411.238z"/>
						</g>
						<g>
							<g>
								<path style="fill:#0C2C37;" d="M206.662,445.698c-6.13,3.28-12.26,7.32-18.39,10.6c-1.6,0.86-3.28,1.74-5.1,1.86
									c-1.26,0.08-2.61-0.32-3.53-1.13c-0.42-0.36-0.75-0.81-0.94-1.34c-0.59-1.62,0.2-3.41,1.09-4.89
									c3.84-6.37,13.41-13.06,15.84-13.61c0.4-0.09,1.29,0.14,2.34,0.46c1.52,0.47,3.38,1.14,4.59,1.37
									C204.542,442.328,205.602,443.638,206.662,445.698z"/>
								<path style="fill:#1F5E6B;" d="M197.972,437.648c-4.99,2.59-9.52,6.07-13.3,10.24c-1.72,1.91-3.31,3.99-4.27,6.38
									c-0.35,0.88-0.61,1.81-0.76,2.76c-0.42-0.36-0.75-0.81-0.94-1.34c-0.59-1.62,0.2-3.41,1.09-4.89
									c3.84-6.37,13.41-13.06,15.84-13.61C196.032,437.099,196.922,437.328,197.972,437.648z"/>
							</g>
							<path style="fill:#F7A815;" d="M203.382,450.428c-1.49-3.69-3.73-9.13-4.82-12.72c18.09-7.04,36.17-14.09,54.26-21.13
								c4.18-1.63,8.64-3.29,13.09-2.58c6.48,1.04,13.43,7.48,7.75,15.7C266.702,439.738,237.502,446.668,203.382,450.428z"/>
						</g>
					</g>
					<g>
						<g>
							<path style="fill:#F9D0B8;" d="M217.662,419.569c0.42,1.38,1.83,2.29,3.25,2.47c1.43,0.18,2.87-0.24,4.2-0.8
								c0.91,0.81,1.89,1.54,2.94,2.17c0.4,0.25,0.99,0.45,1.29,0.09c0.31-0.36,0-0.93-0.37-1.23c-0.37-0.3-0.84-0.6-0.89-1.08
								c0.84,0.87,1.85,1.57,2.94,2.08c0.41,0.19,1.08,0.23,1.16-0.22c0.04-0.24-0.14-0.46-0.31-0.63
								c-0.87-0.91-1.74-1.82-2.61-2.73c1.26,0.95,2.51,1.89,3.77,2.84c0.32,0.24,0.78,0.48,1.09,0.23
								c0.39-0.32,0.03-0.93-0.33-1.29c-1.02-1-2.04-1.99-3.06-2.99c1.41,0.78,2.83,1.57,4.24,2.35c0.24,0.14,0.53,0.28,0.79,0.17
								c0.31-0.12,0.4-0.54,0.27-0.85c-0.12-0.31-0.4-0.52-0.67-0.72c-1.85-1.37-3.83-2.56-5.83-3.43c-2-1.39-4.69-1.2-7.06-0.61
								c-1.16,0.29-2.32,0.67-3.26,1.39S217.392,418.668,217.662,419.569z"/>
							<path style="fill:#3C88C7;" d="M198.562,375.849c1.8-5.24,3.82-10.59,7.97-11.75c1.92-0.54,4.83,10,3.43,18.5
								c-1.74,10.61-4.23,17.89-3.37,20.02c0.73,1.79,10.2,8.72,16.21,12.68c-2.93,1.88-4.1,4.05-4.44,5.7
								c-8.33-3.5-22.56-8.86-24.14-12.71C192.322,403.638,195.682,384.199,198.562,375.849z"/>
						</g>
						<g>
							<g>
								<rect x="218.372" y="421.999" style="fill:#8099B0;" width="52.75" height="2.5"/>
								<rect x="218.372" y="421.999" style="fill:#A7B9CC;" width="8.47" height="2.5"/>
							</g>
							<g>
								<polygon style="fill:#C4CED7;" points="279.062,392.089 280.132,393.638 272.392,422.608 228.232,422.939 226.842,421.948 
									234.642,392.259 								"/>
								<polygon style="fill:#A7B9CC;" points="280.132,393.638 272.392,422.608 228.232,422.939 236.002,393.809 								"/>
								<ellipse style="fill:#C4CED7;" cx="254.982" cy="409.428" rx="5.25" ry="2.62"/>
							</g>
						</g>
					</g>
				</g>
				<g>
					<g>
						<path style="fill:#FBD350;" d="M556.892,433.319c-9.65,3.58-19.66,3.09-28.16-0.51c-5.54-2.35-11.5-3.7-17.6-3.67l-16.72,0.07
							l-7.88-26.97l13.42-8.5c5.52-3.5,10.12-8.14,13.84-13.41c4.74-6.71,11.79-11.97,20.43-14.49
							c20.52-5.99,41.84,5.83,46.24,26.23C584.172,409.208,574.032,426.969,556.892,433.319z"/>
						<g>
							<path style="fill:none;stroke:#D67D1E;stroke-linecap:round;stroke-miterlimit:10;" d="M536.452,383.029
								c-17.42,9.49-34.84,18.97-52.13,28.59c0.22,4.44,0.63,7.5,2.46,12.08c26.62-2.81,32.36-1.9,59.9-4.82"/>
							<path style="fill:none;stroke:#D67D1E;stroke-linecap:round;stroke-miterlimit:10;" d="M524.252,389.648l8.32,1.38
								c0.76,0.13,1.12,1.07,0.65,1.68l-4.58,5.93c-0.47,0.61-0.12,1.55,0.64,1.68l7.29,1.28c0.77,0.13,1.12,1.1,0.62,1.7
								l-5.28,6.44c-0.47,0.57-0.18,1.49,0.53,1.68l7.43,2.04c0.8,0.22,1.03,1.31,0.39,1.83l-6.55,4.7"/>
						</g>
						<g style="opacity:0.2588;">
							<path style="fill:#FFFEF7;" d="M576.152,393.009c1.85,2.76,2.92,10.4-0.46,18.04c-3.38,7.64-9.12,12.81-14.52,13.96
								c-6.3,1.35,2.05-6.64,6.86-15.57C573.562,399.189,572.092,386.949,576.152,393.009z"/>
							<path style="fill:#FFFEF7;" d="M553.829,425.964c1.49-0.435,2.981,0.183,3.331,1.381c0.35,1.198-0.574,2.522-2.064,2.957
								c-1.49,0.435-2.981-0.183-3.331-1.381C551.416,427.724,552.34,426.4,553.829,425.964z"/>
						</g>
					</g>
					<g>
						<g>
							<path style="fill:#D67D1E;" d="M474.058,404.914c5.423-1.584,11.702,3.574,14.023,11.52
								c2.321,7.947-0.193,15.673-5.617,17.257c-5.423,1.584-11.702-3.574-14.023-11.52
								C466.12,414.224,468.635,406.498,474.058,404.914z"/>
							<g>
								<path style="fill:#FEA924;" d="M488.242,396.189l1.94-0.57c1.09-0.32,2.24,0.31,2.56,1.4l9.71,33.24
									c0.32,1.09-0.31,2.24-1.4,2.56l-1.94,0.57c-1.09,0.32-2.24-0.31-2.56-1.4l-9.71-33.24
									C486.522,397.659,487.152,396.509,488.242,396.189z"/>
								<path style="fill:#FEA924;" d="M482.352,397.909l1.94-0.57c1.09-0.32,2.24,0.31,2.56,1.4l9.71,33.24
									c0.32,1.09-0.31,2.24-1.4,2.56l-1.94,0.57c-1.09,0.32-2.24-0.31-2.56-1.4l-9.71-33.24
									C480.632,399.379,481.252,398.229,482.352,397.909z"/>
								<path style="fill:#FEA924;" d="M476.452,399.638l1.94-0.57c1.09-0.32,2.24,0.31,2.56,1.4l9.71,33.24
									c0.32,1.09-0.31,2.24-1.4,2.56l-1.94,0.57c-1.09,0.32-2.24-0.31-2.56-1.4l-9.71-33.24
									C474.732,401.099,475.362,399.958,476.452,399.638z"/>
								<path style="fill:#FEA924;" d="M470.562,401.358l1.94-0.57c1.09-0.32,2.24,0.31,2.56,1.4l9.71,33.24
									c0.32,1.09-0.31,2.24-1.4,2.56l-1.94,0.57c-1.09,0.32-2.24-0.31-2.56-1.4l-9.71-33.24
									C468.842,402.819,469.472,401.678,470.562,401.358z"/>
							</g>
						</g>
						<g>
							
								<line style="fill:none;stroke:#D67D1E;stroke-linecap:round;stroke-miterlimit:10;" x1="487.292" y1="400.349" x2="496.242" y2="430.298"/>
							
								<line style="fill:none;stroke:#D67D1E;stroke-linecap:round;stroke-miterlimit:10;" x1="481.582" y1="402.039" x2="490.532" y2="431.988"/>
							
								<line style="fill:none;stroke:#D67D1E;stroke-linecap:round;stroke-miterlimit:10;" x1="475.502" y1="403.819" x2="484.462" y2="433.759"/>
						</g>
					</g>
				</g>
				<g>
					<g>
						<path style="fill:#EDC34E;" d="M686.042,378.458v55.95c0,3.26-2.96,5.89-6.62,5.89h-39.87c-0.4,0-0.79-0.03-1.16-0.1
							c-3.11-0.49-5.46-2.89-5.46-5.79v-55.95c0-3.93,3.58-7.11,7.99-7.11h37.13C682.462,371.358,686.042,374.539,686.042,378.458z"
							/>
						<path style="fill:#FBD353;" d="M686.042,387.809v46.6c0,3.26-2.96,5.89-6.62,5.89h-39.87c-0.4,0-0.79-0.03-1.16-0.1v-52.4
							h47.65V387.809z"/>
						<path style="fill:#E6A43C;" d="M631.222,385.118v-9.84c0-2.91,2.36-5.27,5.27-5.27h45.99c2.91,0,5.27,2.36,5.27,5.27v9.84
							H631.222z"/>
					</g>
					<g>
						<g>
							<path style="fill:#EB6721;" d="M629.162,438.289c-2.29,2.55-27.17,4.17-29.82,3.14c-1.31-0.51-1.12-1.91-0.58-3.03
								c0.23-0.52,0.56-0.97,0.83-1.25c4.06-4.11,9.31-6.54,14.76-8.44c1.98-0.69,3.76-1.4,5.65-1.77c1.89-0.38,3.98-0.17,5.52,0.98
								c1.8,1.35,3.22,4.55,3.75,7.08C629.602,436.518,629.602,437.798,629.162,438.289z"/>
							<path style="fill:#FAB778;" d="M629.162,438.289c-2.29,2.55-27.17,4.17-29.82,3.14c-1.31-0.51-1.12-1.91-0.58-3.03
								c4.2,0.51,16.89,1.46,30.51-3.4C629.602,436.518,629.602,437.798,629.162,438.289z"/>
						</g>
						<path style="fill:#083754;" d="M644.182,346.379c0,0-48.44,10.61-50.8,23.16c-2.31,12.29,13.3,45.47,18.05,60.34
							c1.97,0.42,9.27,1.19,14.7-2.24l-14.2-42.17l42.31-21.66L644.182,346.379z"/>
						<g>
							<path style="fill:#F77D27;" d="M643.302,442.059c-2.29,2.55-27.17,4.17-29.82,3.14c-0.89-0.34-1.08-1.1-0.95-1.89
								c0.15-0.93,0.73-1.91,1.2-2.39c4.06-4.1,9.31-6.54,14.76-8.44c1.98-0.68,3.76-1.4,5.65-1.77s3.98-0.17,5.52,0.99
								c2.11,1.58,3.68,5.66,3.94,8.27C643.712,440.939,643.612,441.708,643.302,442.059z"/>
							<path style="fill:#FAB778;" d="M643.302,442.059c-2.29,2.55-27.17,4.17-29.82,3.14c-0.89-0.34-1.08-1.1-0.95-1.89
								c5.76,0.02,20.23-0.27,31.07-3.34C643.712,440.939,643.612,441.708,643.302,442.059z"/>
						</g>
						<g>
							<path style="fill:#0D4460;" d="M629.962,381.039l9.09,50.3c-2.96,2.45-12.98,3.47-14.32,2.61c0,0-22.67-55.56-16.09-64.76
								c6.59-9.18,35.48-15.02,35.48-15.02c-1.18-1.58-2.07-3.45-2.76-5.48c-0.99-2.87-1.62-6.04-2.17-9.21
								c-0.51-2.82-0.97-5.61-1.6-8.17l29.68-3.41c0,0,1.73,2.83,4.02,6.92c1.65,2.93,3.59,6.53,5.37,10.21
								c2.9,5.94,5.43,12.09,5.73,15.99C684.032,381.809,629.962,381.039,629.962,381.039z"/>
							<path style="fill:#083754;" d="M676.662,345.029c-5.82,2.23-11.8,4.07-17.97,4.85c-5.78,0.73-11.78,0.47-17.33-1.19
								c-0.99-2.87-1.62-6.04-2.17-9.21c3.21,0.13,6.46-0.26,9.65-0.7c7.53-1.04,15.02-2.36,22.45-3.96
								C672.932,337.759,674.872,341.349,676.662,345.029z"/>
						</g>
					</g>
					<g>
						<g>
							<path style="fill:#EDA98E;" d="M637.702,320.749c-0.5,7.81-0.05,14.22-2.02,21.79c-4.94,3.55-14.84,7.62-20.84,9.94
								c-3.12-1.5-2.36-3.5-3.49-5.99c6.14-3.56,14.56-8.84,15.13-10.35c0.89-2.39,0.31-16.95,0.76-24.77
								C630.512,314.449,635.722,316.789,637.702,320.749z"/>
							<path style="fill:#FF943D;" d="M641.582,305.988c-1.7-1.77-2.32-4.27-3.47-6.44c-1.15-2.17-0.73-5.56-3.09-4.88
								c-2.74,0.79-5.9,3.61-6.72,7.4c-1.61,7.44-1.97,12.09-2.79,21.14c5.52,1.38,12.56,3.46,18.16,2.44
								C643.412,319.509,642.632,311.488,641.582,305.988z"/>
						</g>
						<path style="fill:#F77D27;" d="M676.882,343.189c-13.51,3.82-25.22,5.8-38.61,1.57c-0.12-1.79-0.18-3.41-0.24-5
							c-0.18-5.03-1.56-9.97-4.12-14.31c-1.99-3.37-3.59-6.68-3.59-8.8c0-4.45-0.37-14.44,0.93-18.44c0.59-1.82,2.32-3.23,4.46-3.7
							c8.55-1.91,17.46-1.03,25.98,2.26c2.78,1.07,4.91,3.11,5.85,5.6c2.43,6.46,3.49,13.29,3.83,20.15
							c0.3,5.91,1.73,11.71,4.01,17.17C675.862,340.798,676.352,341.958,676.882,343.189z"/>
						<g>
							<g>
								<polygon style="fill:#73D1CE;" points="651.872,350.969 629.562,362.099 595.062,362.759 593.972,360.839 594.572,360.509 
									613.692,349.779 651.572,349.238 651.572,349.249 								"/>
								<g>
									<polygon style="fill:#D4FAF9;" points="651.572,349.238 651.572,349.249 628.722,360.659 594.572,360.509 613.692,349.779 
																			"/>
									<g>
										<g>
											<polygon style="fill:#0D4460;" points="627.172,359.199 640.662,352.678 611.172,352.999 617.792,358.178 											"/>
											<g>
												
													<line style="fill:none;stroke:#D4FAF9;stroke-width:0.5;stroke-miterlimit:10;" x1="632.852" y1="357.199" x2="618.162" y2="357.048"/>
												
													<line style="fill:none;stroke:#D4FAF9;stroke-width:0.5;stroke-miterlimit:10;" x1="636.262" y1="355.488" x2="621.582" y2="355.339"/>
												
													<line style="fill:none;stroke:#D4FAF9;stroke-width:0.5;stroke-miterlimit:10;" x1="639.182" y1="353.789" x2="624.502" y2="353.638"/>
												
													<line style="fill:none;stroke:#D4FAF9;stroke-width:0.5;stroke-miterlimit:10;" x1="640.272" y1="351.238" x2="627.132" y2="357.789"/>
												
													<line style="fill:none;stroke:#D4FAF9;stroke-width:0.5;stroke-miterlimit:10;" x1="637.112" y1="350.509" x2="623.962" y2="357.059"/>
												
													<line style="fill:none;stroke:#D4FAF9;stroke-width:0.5;stroke-miterlimit:10;" x1="631.842" y1="350.509" x2="620.562" y2="356.328"/>
											</g>
										</g>
										<polygon style="fill:#0D4460;" points="625.912,350.268 636.672,350.268 632.612,352.169 621.812,352.268 										"/>
									</g>
								</g>
							</g>
							<g>
								<polyline style="fill:#21A69D;" points="583.922,338.229 572.752,332.659 574.332,330.759 609.882,330.488 629.542,359.819 
									628.342,361.439 								"/>
								<polygon style="fill:#108B8B;" points="628.342,361.428 608.822,332.449 572.752,332.608 592.222,361.539 								"/>
								<path style="fill:#84D1CD;" d="M598.852,343.988c3.154,0,5.71,1.07,5.71,2.39c0,1.32-2.556,2.39-5.71,2.39
									c-3.154,0-5.71-1.07-5.71-2.39C593.142,345.059,595.698,343.988,598.852,343.988z"/>
							</g>
						</g>
						<g>
							<g>
								<path style="fill:#F9D0B8;" d="M675.752,341.289c-1.19,3.02-26.83,10.29-26.83,10.29l-2.93-6.32c0,0,17.59-6.83,17.19-8.56
									c-0.2-0.92-1.49-5.12-2.67-8.9c-1.05-3.4-2.02-6.46-2.02-6.46l12.32-3.6c0,0,1,3.36,2.12,7.57
									C674.572,331.509,676.462,339.499,675.752,341.289z"/>
								<path style="fill:#EDA98E;" d="M672.932,325.328c-3.89,1.73-8.18,2.58-12.43,2.49c-1.05-3.4-2.02-6.46-2.02-6.46l12.32-3.6
									C670.812,317.749,671.812,321.118,672.932,325.328z"/>
							</g>
							<path style="fill:#FF943D;" d="M658.552,325.849c-2.36-5.84-3.43-12.2-3.1-18.49c0.13-2.45,0.5-4.99,1.9-7
								c1.4-2.01,4.09-3.3,6.37-2.42c1.8,0.7,2.9,2.5,3.8,4.22c2.91,5.61,5.02,11.64,6.23,17.84
								C670.592,323.798,666.262,324.868,658.552,325.849z"/>
							<path style="fill:#F9D0B8;" d="M649.452,345.138c-4.34-1.59-11.31-4.4-13.83-3.51c-2.61,0.92-5.11,4.6-6.21,8.34
								c-0.11,0.37-0.2,0.75-0.11,1.13c0.09,0.37,0.42,0.71,0.8,0.67c0.32-0.04,0.55-0.31,0.74-0.56c1.37-1.78,2.73-3.55,4.46-5.37
								c-1.43,1.82-2.45,3.98-2.94,6.25c-0.12,0.56-0.1,1.32,0.44,1.5c0.51,0.16,0.95-0.37,1.22-0.83c1.16-1.95,2.31-3.89,3.81-5.98
								c-0.96,1.62-1.63,3.41-1.98,5.26c-0.09,0.5-0.07,1.17,0.41,1.33c0.44,0.15,0.84-0.29,1.09-0.68
								c1.03-1.54,1.97-3.14,2.91-4.86c-0.41,1.39-0.82,2.79-1.23,4.18c-0.16,0.55-0.25,1.3,0.25,1.58
								c0.46,0.25,0.99-0.14,1.34-0.53c0.96-1.07,1.7-1.84,2.17-3.05c1.09,1.35,2.74,1.74,4.46,1.89c1.72,0.15,3.75-0.99,5.16-1.89
								C651.492,348.289,650.442,347.059,649.452,345.138z"/>
						</g>
					</g>
					<g>
						<path style="fill:#01384F;" d="M621.532,266.289c-1.22,3.19,0.87,10.01,1.27,13.45c1.33,11.4-2.85,11.07-2.14,17.12
							c0.29,2.51,2.38,4.45,4.57,5.18c2.19,0.73,4.58,0.35,6.69-0.61c2.11-0.96,3.99-2.47,5.78-4.05c1.6-1.41,3.55-3.5,3.34-6.02
							c-0.75-9.1-2.83-17.47-3.58-26.58c-0.04-0.46-0.11-0.99-0.47-1.23c-0.23-0.15-0.52-0.14-0.78-0.11
							C632.032,263.779,626.152,264.599,621.532,266.289z"/>
						<g>
							<g>
								<path style="fill:#F9D0B8;" d="M654.612,295.358c-3.9,3.19-10.89,10.49-14.4,9.79c-2.28-0.46-2.17-3.04-1.18-6.77
									c0.18-0.64,0.37-1.33,0.58-2.04c0.07-0.73,0.05-1.41-0.03-2.06c-0.27-2.43-1.39-4.23-2.21-5.75
									c4.75-1.92,7.96-3.93,11.49-6.72c0.38,2.07,0.85,3.99,1.49,5.81c0.42,1.24,0.94,2.44,1.55,3.61
									C652.642,292.639,653.522,294.018,654.612,295.358z"/>
							</g>
							<path style="fill:#EDA98E;" d="M650.362,287.618c-0.21,0.25-0.44,0.5-0.66,0.74c-2.34,2.52-5.22,4.66-8.52,5.61
								c-0.52,0.15-1.05,0.26-1.59,0.31c-0.27-2.43-1.39-4.23-2.21-5.75c4.75-1.92,7.96-3.93,11.49-6.72
								C649.242,283.879,649.712,285.798,650.362,287.618z"/>
						</g>
						<g>
							<path style="fill:#F9D0B8;" d="M653.392,272.409c0,4.58-1.72,9.08-4.38,12.62c-0.63,0.84-1.31,1.63-2.02,2.36
								c-3.03,3.05-6.81,5-10.51,5c-8.27,0-13.06-9.75-13.06-19.98c0-0.49,0.02-0.97,0.05-1.45c0.07-1.02,0.2-2.03,0.39-2.99
								c1.61-8.08,7.52-14.08,14.55-14.08C646.682,253.879,653.392,262.178,653.392,272.409z"/>
							<g>
								<path style="fill:none;stroke:#03455B;stroke-linecap:round;stroke-miterlimit:10;" d="M634.521,275.223
									c1.186-0.74,3.282-0.969,5.061-0.157"/>
								<path style="fill:none;stroke:#03455B;stroke-linecap:round;stroke-miterlimit:10;" d="M624.521,276.063
									c1.211-0.889,2.932-0.955,4.542-0.295"/>
								<path style="fill:#03455B;" d="M627.146,278.551c0.339-0.051,0.68,0.349,0.763,0.895c0.083,0.546-0.124,1.03-0.463,1.082
									c-0.339,0.051-0.68-0.349-0.763-0.896C626.6,279.086,626.807,278.602,627.146,278.551z"/>
								<path style="fill:#03455B;" d="M636.745,278.3c0.339-0.051,0.68,0.35,0.763,0.895c0.083,0.546-0.124,1.03-0.463,1.082
									c-0.339,0.052-0.68-0.349-0.763-0.895C636.2,278.836,636.407,278.352,636.745,278.3z"/>
								<path style="fill:none;stroke:#D96C5D;stroke-linecap:round;stroke-miterlimit:10;" d="M630.412,279.548
									c-0.14,1.29,0.1,2.62,0.68,3.78"/>
								<path style="fill:none;stroke:#D96C5D;stroke-linecap:round;stroke-miterlimit:10;" d="M634.082,286.289
									c1.09,0.3,2.28,0.2,3.31-0.26c1.03-0.46,1.89-1.29,2.39-2.31"/>
							</g>
							<path style="fill:#EDA98E;" d="M651.062,279.789c-0.5,1.51-1.21,3.41-2.06,5.24c-1.06,2.28-2.32,4.45-3.64,5.63
								c0.79-0.75,1.33-1.96,1.62-3.28c0.34-1.51,0.35-3.17,0.01-4.42c-1.01-3.76-2.69-5.6-4.16-7.46
								c-1.47-1.86-2.79-4.59-2.69-7.04c-4.21,2.49-11.73,3.99-16.68,2.48c0.07-1.02,0.2-2.03,0.39-2.99
								c7.33-2.67,16.07-5.27,23.38-7.17C648.462,267.099,649.702,273.409,651.062,279.789z"/>
						</g>
						<path style="fill:#03455B;" d="M658.962,286.689c-0.52-1.88-0.66-3.88-0.23-5.79c1.46-6.43,1.14-13.93-2.18-19.33
							c-2.25-3.65-6.62-6.33-10.38-4.79c-3.01,1.24-4.65,5.19-5.02,8.94c-0.5,5.01,0.81,10.2,3.56,14.09
							c1.88,2.66,2.44,6.3,1.39,9.55l-1.1,3.44c-0.93,2.89-1.83,6.33,0.32,8.74c0.86,0.96,2.03,1.43,3.21,1.55
							c4,0.4,8.74-2.31,10.62-6.46C660.442,293.738,659.942,290.219,658.962,286.689z"/>
						<g>
							<path style="fill:#03455B;" d="M651.272,258.518c-4.87,6.49-17.65,13.25-29.08,11.77c-1.35-0.18-2.24-0.59-2.81-1.15
								c-1.44-1.43-0.78-3.81,0.17-5.63c2.09-4.02,4.46-7.47,9.19-10.47c4.72-3.01,11.27-4.28,16.57-2.49
								c1.55,0.53,2.88,1.19,3.93,1.95C651.802,254.289,652.722,256.578,651.272,258.518z"/>
							<path style="fill:#116B80;" d="M649.242,252.489c-2.27-0.7-4.73-0.88-7.09-0.6c-4.43,0.53-8.57,2.49-12.42,4.74
								c-3.35,1.97-6.66,4.3-8.69,7.61c-0.9,1.47-1.49,3.18-1.67,4.89c-1.44-1.43-0.78-3.81,0.17-5.63
								c2.09-4.02,4.46-7.47,9.19-10.47c4.72-3.01,11.27-4.28,16.57-2.49C646.872,251.069,648.192,251.729,649.242,252.489z"/>
						</g>
					</g>
				</g>
			</g>
		</g>
	</g>
</g>
</svg>
