<svg xmlns="http://www.w3.org/2000/svg" enable-background="new 0 0 325 250" viewBox="0 0 325 250" id="Financialandbusinessmeeting"><linearGradient id="a" x1="161.245" x2="161.245" y1="207.367" y2="18.865" gradientUnits="userSpaceOnUse"><stop offset="0" stop-color="#00bba4" class="stopColor00a9bb svgShape"></stop><stop offset="1" stop-color="#007f70" class="stopColor00797f svgShape"></stop></linearGradient><path fill="url(#a)" d="M56.99,59.52c37.52-11.78,43.77,18.14,100.73,5.63s82.71-42.12,116.33-21.84
		c33.56,20.25,52.28,86.25,2.95,135.58s-242.26,53.56-259.71-36.7C7.83,93.29,35.45,66.29,56.99,59.52z"></path><linearGradient id="b" x1="161.209" x2="161.209" y1="18.358" y2="188.912" gradientUnits="userSpaceOnUse"><stop offset="0" stop-color="#3b0057" stop-opacity=".5" class="stopColor005357 svgShape"></stop><stop offset="1" stop-color="#3b0057" stop-opacity="0" class="stopColor005357 svgShape"></stop></linearGradient><path fill="url(#b)" d="M26.86,165.58c0.39,0.59,0.8,1.18,1.21,1.76v-2.39H42.6v14.53h-3.65c0.45,0.41,0.91,0.81,1.37,1.21
		h2.29v1.9c0.4,0.32,0.8,0.64,1.21,0.96v-2.86h14.53v12.27c0.4,0.22,0.81,0.43,1.21,0.64v-12.91h14.53v14.53H62.72
		c0.84,0.41,1.69,0.81,2.54,1.21h8.81v3.73c0.4,0.16,0.8,0.31,1.21,0.47v-4.19h14.53v8.9c0.4,0.11,0.81,0.22,1.21,0.33v-9.23h14.53
		v12.59c0.4,0.08,0.81,0.16,1.21,0.23v-12.82h14.53v14.53h-4.19c3.27,0.47,6.57,0.87,9.89,1.21h10.04v0.84
		c0.4,0.03,0.81,0.05,1.21,0.08v-0.92h14.53v1.42c0.4,0,0.81,0.01,1.21,0.01v-1.43h14.53v1.14c0.4-0.02,0.81-0.03,1.21-0.05v-1.08
		h14.53v0.01c3.48-0.35,6.94-0.75,10.35-1.22h-9.14v-14.53h14.53v13.74c0.4-0.06,0.81-0.13,1.21-0.19v-13.55h14.53v10.76
		c0.41-0.09,0.81-0.18,1.21-0.28v-10.48h14.53v6.63c0.41-0.12,0.81-0.25,1.21-0.37v-6.25h14.53v1.02c0.4-0.17,0.81-0.34,1.21-0.51
		v-0.51h1.17c0.91-0.4,1.81-0.8,2.7-1.21h-3.87v-14.53h14.53v8.91c0.41-0.25,0.81-0.5,1.21-0.74v-8.17h10.93
		c0.44-0.4,0.87-0.8,1.29-1.21h-12.22v-14.53h14.53v12.19c0.41-0.43,0.81-0.85,1.21-1.28v-10.91h8.98c0.29-0.4,0.57-0.81,0.85-1.21
		h-9.83v-14.53h14.53v7.15c0.41-0.72,0.82-1.43,1.21-2.15v-5h2.55c0.19-0.4,0.38-0.81,0.56-1.21h-3.11v-14.53h8.34
		c0.11-0.4,0.22-0.81,0.33-1.21h-8.67v-14.53h11.13c0.04-0.4,0.07-0.81,0.1-1.21h-11.23V102h11.14c-0.04-0.4-0.07-0.81-0.11-1.21
		h-11.02V86.26h8.34c-0.11-0.41-0.23-0.81-0.34-1.21h-8V70.52h2.35c-0.2-0.41-0.41-0.81-0.62-1.21h-1.73v-3.15
		c-0.39-0.68-0.8-1.35-1.21-2.01v5.17h-14.53V54.78h7.62c-0.36-0.41-0.72-0.81-1.09-1.21h-6.53v-6.15c-0.4-0.32-0.8-0.64-1.21-0.95
		v7.1h-14.53V39.04h1.09c-1.28-0.47-2.55-0.87-3.82-1.21h-13.01v-1.39c-0.4,0.02-0.81,0.04-1.21,0.07v1.32h-8.93
		c-1.58,0.35-3.17,0.75-4.78,1.21h13.71v14.53h-14.53v-14.3c-0.4,0.12-0.81,0.24-1.21,0.36v13.93h-14.53v-8.7
		c-0.4,0.16-0.81,0.32-1.21,0.48v8.22H201.2v-2.33c-0.4,0.16-0.81,0.32-1.21,0.48v1.84h-4.7c-1.05,0.4-2.11,0.81-3.19,1.21h7.89
		v14.53h-14.53V57.19c-0.4,0.14-0.8,0.28-1.21,0.42v11.7h-14.53v-7.15c-0.4,0.11-0.81,0.22-1.21,0.33v6.82h-14.53v-3.39
		c-0.4,0.08-0.81,0.16-1.21,0.23v3.16h-14.53v-1.27c-0.41,0.03-0.81,0.05-1.21,0.07v1.2H122.5v-1.49c-0.41-0.04-0.81-0.08-1.21-0.13
		v1.62h-14.53v-4.6c-0.41-0.12-0.81-0.24-1.21-0.35v4.96H91.02v-9.67c-0.4-0.12-0.81-0.24-1.21-0.36v10.03H75.29V56.74
		c-0.4-0.01-0.8-0.02-1.21-0.02v12.59H59.55V58.77c-0.4,0.11-0.8,0.22-1.21,0.34v10.19H43.81v-3.36c-0.4,0.27-0.81,0.54-1.21,0.82
		v2.54h-3.33c-0.48,0.39-0.97,0.8-1.44,1.21h4.77v14.53H28.07v-3.8c-0.41,0.57-0.82,1.14-1.21,1.74v2.07h-1.34
		c-0.24,0.39-0.47,0.81-0.7,1.21h2.04v14.53h-8.32c-0.12,0.4-0.24,0.8-0.36,1.21h8.68v14.53H15.64c-0.03,0.4-0.05,0.81-0.08,1.21
		h11.3v14.53H15.85c0.04,0.4,0.07,0.8,0.11,1.21h10.9V148h-8.17c0.12,0.41,0.24,0.81,0.37,1.21h7.8v14.53h-1.17
		c0.25,0.41,0.5,0.81,0.76,1.21h0.41V165.58z M279.89,70.52h14.53v14.53h-14.53V70.52z M279.89,86.26h14.53v14.53h-14.53V86.26z
		 M279.89,102h14.53v14.53h-14.53V102z M279.89,117.74h14.53v14.53h-14.53V117.74z M279.89,133.47h14.53V148h-14.53V133.47z
		 M264.15,54.78h14.53v14.53h-14.53V54.78z M264.15,70.52h14.53v14.53h-14.53V70.52z M264.15,86.26h14.53v14.53h-14.53V86.26z
		 M264.15,102h14.53v14.53h-14.53V102z M264.15,117.74h14.53v14.53h-14.53V117.74z M264.15,133.47h14.53V148h-14.53V133.47z
		 M264.15,149.21h14.53v14.53h-14.53V149.21z M248.42,39.04h14.53v14.53h-14.53V39.04z M248.42,54.78h14.53v14.53h-14.53V54.78z
		 M248.42,70.52h14.53v14.53h-14.53V70.52z M248.42,86.26h14.53v14.53h-14.53V86.26z M248.42,102h14.53v14.53h-14.53V102z
		 M248.42,117.74h14.53v14.53h-14.53V117.74z M248.42,133.47h14.53V148h-14.53V133.47z M248.42,149.21h14.53v14.53h-14.53V149.21z
		 M248.42,164.95h14.53v14.53h-14.53V164.95z M232.68,54.78h14.53v14.53h-14.53V54.78z M232.68,70.52h14.53v14.53h-14.53V70.52z
		 M232.68,86.26h14.53v14.53h-14.53V86.26z M232.68,102h14.53v14.53h-14.53V102z M232.68,117.74h14.53v14.53h-14.53V117.74z
		 M232.68,133.47h14.53V148h-14.53V133.47z M232.68,149.21h14.53v14.53h-14.53V149.21z M232.68,164.95h14.53v14.53h-14.53V164.95z
		 M232.68,180.69h14.53v14.53h-14.53V180.69z M216.94,54.78h14.53v14.53h-14.53V54.78z M216.94,70.52h14.53v14.53h-14.53V70.52z
		 M216.94,86.26h14.53v14.53h-14.53V86.26z M216.94,102h14.53v14.53h-14.53V102z M216.94,117.74h14.53v14.53h-14.53V117.74z
		 M216.94,133.47h14.53V148h-14.53V133.47z M216.94,149.21h14.53v14.53h-14.53V149.21z M216.94,164.95h14.53v14.53h-14.53V164.95z
		 M216.94,180.69h14.53v14.53h-14.53V180.69z M201.2,54.78h14.53v14.53H201.2V54.78z M201.2,70.52h14.53v14.53H201.2V70.52z
		 M201.2,86.26h14.53v14.53H201.2V86.26z M201.2,102h14.53v14.53H201.2V102z M201.2,117.74h14.53v14.53H201.2V117.74z M201.2,133.47
		h14.53V148H201.2V133.47z M201.2,149.21h14.53v14.53H201.2V149.21z M201.2,164.95h14.53v14.53H201.2V164.95z M201.2,180.69h14.53
		v14.53H201.2V180.69z M185.46,70.52h14.53v14.53h-14.53V70.52z M185.46,86.26h14.53v14.53h-14.53V86.26z M185.46,102h14.53v14.53
		h-14.53V102z M185.46,117.74h14.53v14.53h-14.53V117.74z M185.46,133.47h14.53V148h-14.53V133.47z M185.46,149.21h14.53v14.53
		h-14.53V149.21z M185.46,164.95h14.53v14.53h-14.53V164.95z M185.46,180.69h14.53v14.53h-14.53V180.69z M169.72,70.52h14.53v14.53
		h-14.53V70.52z M169.72,86.26h14.53v14.53h-14.53V86.26z M169.72,102h14.53v14.53h-14.53V102z M169.72,117.74h14.53v14.53h-14.53
		V117.74z M169.72,133.47h14.53V148h-14.53V133.47z M169.72,149.21h14.53v14.53h-14.53V149.21z M169.72,164.95h14.53v14.53h-14.53
		V164.95z M169.72,180.69h14.53v14.53h-14.53V180.69z M169.72,196.43h14.53v14.53h-14.53V196.43z M153.98,70.52h14.53v14.53h-14.53
		V70.52z M153.98,86.26h14.53v14.53h-14.53V86.26z M153.98,102h14.53v14.53h-14.53V102z M153.98,117.74h14.53v14.53h-14.53V117.74z
		 M153.98,133.47h14.53V148h-14.53V133.47z M153.98,149.21h14.53v14.53h-14.53V149.21z M153.98,164.95h14.53v14.53h-14.53V164.95z
		 M153.98,180.69h14.53v14.53h-14.53V180.69z M153.98,196.43h14.53v14.53h-14.53V196.43z M138.24,70.52h14.53v14.53h-14.53V70.52z
		 M138.24,86.26h14.53v14.53h-14.53V86.26z M138.24,102h14.53v14.53h-14.53V102z M138.24,117.74h14.53v14.53h-14.53V117.74z
		 M138.24,133.47h14.53V148h-14.53V133.47z M138.24,149.21h14.53v14.53h-14.53V149.21z M138.24,164.95h14.53v14.53h-14.53V164.95z
		 M138.24,180.69h14.53v14.53h-14.53V180.69z M138.24,196.43h14.53v14.53h-14.53V196.43z M122.5,70.52h14.53v14.53H122.5V70.52z
		 M122.5,86.26h14.53v14.53H122.5V86.26z M122.5,102h14.53v14.53H122.5V102z M122.5,117.74h14.53v14.53H122.5V117.74z M122.5,133.47
		h14.53V148H122.5V133.47z M122.5,149.21h14.53v14.53H122.5V149.21z M122.5,164.95h14.53v14.53H122.5V164.95z M122.5,180.69h14.53
		v14.53H122.5V180.69z M122.5,196.43h14.53v14.53H122.5V196.43z M106.76,70.52h14.53v14.53h-14.53V70.52z M106.76,86.26h14.53v14.53
		h-14.53V86.26z M106.76,102h14.53v14.53h-14.53V102z M106.76,117.74h14.53v14.53h-14.53V117.74z M106.76,133.47h14.53V148h-14.53
		V133.47z M106.76,149.21h14.53v14.53h-14.53V149.21z M106.76,164.95h14.53v14.53h-14.53V164.95z M106.76,180.69h14.53v14.53h-14.53
		V180.69z M91.02,70.52h14.53v14.53H91.02V70.52z M91.02,86.26h14.53v14.53H91.02V86.26z M91.02,102h14.53v14.53H91.02V102z
		 M91.02,117.74h14.53v14.53H91.02V117.74z M91.02,133.47h14.53V148H91.02V133.47z M91.02,149.21h14.53v14.53H91.02V149.21z
		 M91.02,164.95h14.53v14.53H91.02V164.95z M91.02,180.69h14.53v14.53H91.02V180.69z M75.29,70.52h14.53v14.53H75.29V70.52z
		 M75.29,86.26h14.53v14.53H75.29V86.26z M75.29,102h14.53v14.53H75.29V102z M75.29,117.74h14.53v14.53H75.29V117.74z M75.29,133.47
		h14.53V148H75.29V133.47z M75.29,149.21h14.53v14.53H75.29V149.21z M75.29,164.95h14.53v14.53H75.29V164.95z M75.29,180.69h14.53
		v14.53H75.29V180.69z M59.55,70.52h14.53v14.53H59.55V70.52z M59.55,86.26h14.53v14.53H59.55V86.26z M59.55,102h14.53v14.53H59.55
		V102z M59.55,117.74h14.53v14.53H59.55V117.74z M59.55,133.47h14.53V148H59.55V133.47z M59.55,149.21h14.53v14.53H59.55V149.21z
		 M59.55,164.95h14.53v14.53H59.55V164.95z M43.81,70.52h14.53v14.53H43.81V70.52z M43.81,86.26h14.53v14.53H43.81V86.26z
		 M43.81,102h14.53v14.53H43.81V102z M43.81,117.74h14.53v14.53H43.81V117.74z M43.81,133.47h14.53V148H43.81V133.47z M43.81,149.21
		h14.53v14.53H43.81V149.21z M43.81,164.95h14.53v14.53H43.81V164.95z M28.07,86.26H42.6v14.53H28.07V86.26z M28.07,102H42.6v14.53
		H28.07V102z M28.07,117.74H42.6v14.53H28.07V117.74z M28.07,133.47H42.6V148H28.07V133.47z M28.07,149.21H42.6v14.53H28.07V149.21z
		"></path><linearGradient id="c" x1="12.567" x2="316.495" y1="191.484" y2="191.484" gradientUnits="userSpaceOnUse"><stop offset=".002" stop-color="#110b02" stop-opacity="0" class="stopColor021111 svgShape"></stop><stop offset=".455" stop-color="#110b02" stop-opacity=".1" class="stopColor021111 svgShape"></stop><stop offset="1" stop-color="#110b02" stop-opacity="0" class="stopColor021111 svgShape"></stop></linearGradient><ellipse cx="163.64" cy="191.48" fill="url(#c)" rx="151.72" ry="2.79"></ellipse><polygon fill="#5fe4d4" points="146.18 102.62 145.55 102.62 145.55 104.71 143.91 104.71 143.91 131.45 145.55 131.45 145.55 133.54 146.18 133.54 146.18 131.45 147.81 131.45 147.81 104.71 146.18 104.71" class="color5ae5e5 svgShape"></polygon><polygon fill="#006054" points="75.04 80.49 74.41 80.49 74.41 83.51 72.77 83.51 72.77 115.48 74.41 115.48 74.41 118.49 75.04 118.49 75.04 115.48 76.67 115.48 76.67 83.51 75.04 83.51" class="color005460 svgShape"></polygon><polygon fill="#5fe4d4" points="35.71 105.64 35.08 105.64 35.08 107.87 33.46 107.87 33.46 119.81 35.08 119.81 35.08 122.05 35.71 122.05 35.71 119.81 37.35 119.81 37.35 107.87 35.71 107.87" opacity=".8" class="color5ae5e5 svgShape"></polygon><polygon fill="#00cbb3" points="271.71 79.29 271.71 76.26 271.07 76.26 271.07 79.29 269.45 79.29 269.45 95.67 271.07 95.67 271.07 98.69 271.71 98.69 271.71 95.67 273.34 95.67 273.34 79.29" class="color00c1cb svgShape"></polygon><polygon fill="#5fe4d4" points="303.19 107.05 303.19 104.02 302.55 104.02 302.55 107.05 300.92 107.05 300.92 123.43 302.55 123.43 302.55 126.45 303.19 126.45 303.19 123.43 304.81 123.43 304.81 107.05" opacity=".4" class="color5ae5e5 svgShape"></polygon><polygon fill="#5fe4d4" points="51.45 100.87 50.81 100.87 50.81 103.9 49.19 103.9 49.19 135.85 50.81 135.85 50.81 138.88 51.45 138.88 51.45 135.85 53.08 135.85 53.08 103.9 51.45 103.9" class="color5ae5e5 svgShape"></polygon><polygon fill="#5fe4d4" points="19.99 88.8 19.35 88.8 19.35 91.83 17.73 91.83 17.73 117.66 19.35 117.66 19.35 120.68 19.99 120.68 19.99 117.66 21.61 117.66 21.61 91.83 19.99 91.83" opacity=".4" class="color5ae5e5 svgShape"></polygon><polygon fill="#00cbb3" points="216.64 69.65 216 69.65 216 72.68 214.37 72.68 214.37 89.06 216 89.06 216 92.09 216.64 92.09 216.64 89.06 218.26 89.06 218.26 72.68 216.64 72.68" class="color00c1cb svgShape"></polygon><polygon fill="#006054" points="248.1 77.13 247.47 77.13 247.47 79.23 245.84 79.23 245.84 105.96 247.47 105.96 247.47 108.06 248.1 108.06 248.1 105.96 249.73 105.96 249.73 79.23 248.1 79.23" class="color005460 svgShape"></polygon><polygon fill="#00cbb3" points="208.77 63.74 208.14 63.74 208.14 65.83 206.51 65.83 206.51 77.12 208.14 77.12 208.14 79.21 208.77 79.21 208.77 77.12 210.4 77.12 210.4 65.83 208.77 65.83" class="color00c1cb svgShape"></polygon><polygon fill="#5fe4d4" points="295.32 96.97 294.69 96.97 294.69 99.07 293.06 99.07 293.06 125.8 294.69 125.8 294.69 127.9 295.32 127.9 295.32 125.8 296.95 125.8 296.95 99.07 295.32 99.07" opacity=".6" class="color5ae5e5 svgShape"></polygon><polygon fill="#5fe4d4" points="154.05 109.06 153.42 109.06 153.42 111.3 151.78 111.3 151.78 138.82 153.42 138.82 153.42 141.06 154.05 141.06 154.05 138.82 155.68 138.82 155.68 111.3 154.05 111.3" class="color5ae5e5 svgShape"></polygon><polygon fill="#5fe4d4" points="177.3 144.48 176.67 144.48 176.67 146.79 175.04 146.79 175.04 159.12 176.67 159.12 176.67 161.43 177.3 161.43 177.3 159.12 178.93 159.12 178.93 146.79 177.3 146.79" class="color5ae5e5 svgShape"></polygon><polygon fill="#006054" points="240.25 65.77 239.6 65.77 239.6 68.01 237.98 68.01 237.98 95.53 239.6 95.53 239.6 97.77 240.25 97.77 240.25 95.53 241.86 95.53 241.86 68.01 240.25 68.01" class="color005460 svgShape"></polygon><polygon fill="#006054" points="169.43 152.86 168.8 152.86 168.8 155.11 167.18 155.11 167.18 167.04 168.8 167.04 168.8 169.28 169.43 169.28 169.43 167.04 171.07 167.04 171.07 155.11 169.43 155.11" class="color005460 svgShape"></polygon><polygon fill="#006054" points="193.03 92.33 192.4 92.33 192.4 95.35 190.77 95.35 190.77 120.76 192.4 120.76 192.4 123.78 193.03 123.78 193.03 120.76 194.66 120.76 194.66 95.35 193.03 95.35" class="color005460 svgShape"></polygon><polygon fill="#00cbb3" points="255.98 73.7 255.34 73.7 255.34 76.72 253.71 76.72 253.71 93.1 255.34 93.1 255.34 96.13 255.98 96.13 255.98 93.1 257.6 93.1 257.6 76.72 255.98 76.72" class="color00c1cb svgShape"></polygon><polygon fill="#5fe4d4" points="224.5 72.76 223.86 72.76 223.86 75.78 222.24 75.78 222.24 105.55 223.86 105.55 223.86 108.57 224.5 108.57 224.5 105.55 226.14 105.55 226.14 75.78 224.5 75.78" class="color5ae5e5 svgShape"></polygon><polygon fill="#00cbb3" points="114.37 93.96 113.73 93.96 113.73 96.99 112.11 96.99 112.11 122.39 113.73 122.39 113.73 125.41 114.37 125.41 114.37 122.39 116 122.39 116 96.99 114.37 96.99" class="color00c1cb svgShape"></polygon><polygon fill="#006054" points="67.18 102.59 66.54 102.59 66.54 105.61 64.92 105.61 64.92 121.99 66.54 121.99 66.54 125.01 67.18 125.01 67.18 121.99 68.8 121.99 68.8 105.61 67.18 105.61" class="color005460 svgShape"></polygon><polygon fill="#5fe4d4" points="12.13 102.63 11.49 102.63 11.49 105.66 9.87 105.66 9.87 122.04 11.49 122.04 11.49 125.06 12.13 125.06 12.13 122.04 13.75 122.04 13.75 105.66 12.13 105.66" opacity=".2" class="color5ae5e5 svgShape"></polygon><polygon fill="#5fe4d4" points="43.58 101.85 42.95 101.85 42.95 104.09 41.32 104.09 41.32 116.03 42.95 116.03 42.95 118.26 43.58 118.26 43.58 116.03 45.21 116.03 45.21 104.09 43.58 104.09" class="color5ae5e5 svgShape"></polygon><polygon fill="#5fe4d4" points="27.85 97.24 27.22 97.24 27.22 99.48 25.59 99.48 25.59 111.42 27.22 111.42 27.22 113.65 27.85 113.65 27.85 111.42 29.48 111.42 29.48 99.48 27.85 99.48" opacity=".6" class="color5ae5e5 svgShape"></polygon><polygon fill="#5fe4d4" points="90.77 78.37 90.14 78.37 90.14 80.67 88.51 80.67 88.51 108.59 90.14 108.59 90.14 110.89 90.77 110.89 90.77 108.59 92.4 108.59 92.4 80.67 90.77 80.67" class="color5ae5e5 svgShape"></polygon><polygon fill="#006054" points="122.24 85.1 121.6 85.1 121.6 87.4 119.97 87.4 119.97 108.76 121.6 108.76 121.6 111.06 122.24 111.06 122.24 108.76 123.86 108.76 123.86 87.4 122.24 87.4" class="color005460 svgShape"></polygon><polygon fill="#5fe4d4" points="98.64 98.75 98 98.75 98 100.85 96.38 100.85 96.38 121.03 98 121.03 98 123.12 98.64 123.12 98.64 121.03 100.26 121.03 100.26 100.85 98.64 100.85" class="color5ae5e5 svgShape"></polygon><polygon fill="#00cbb3" points="106.5 113.18 105.87 113.18 105.87 115.28 104.24 115.28 104.24 135.46 105.87 135.46 105.87 137.55 106.5 137.55 106.5 135.46 108.13 135.46 108.13 115.28 106.5 115.28" class="color00c1cb svgShape"></polygon><polygon fill="#006054" points="130.1 95.09 129.46 95.09 129.46 97.32 127.84 97.32 127.84 118.28 129.46 118.28 129.46 120.52 130.1 120.52 130.1 118.28 131.73 118.28 131.73 97.32 130.1 97.32" class="color005460 svgShape"></polygon><polygon fill="#006054" points="59.32 87.48 58.68 87.48 58.68 89.57 57.05 89.57 57.05 116.3 58.68 116.3 58.68 118.4 59.32 118.4 59.32 116.3 60.94 116.3 60.94 89.57 59.32 89.57" class="color005460 svgShape"></polygon><path fill="#5fe4d4" d="M82.9,70.91c-0.21-0.05-0.42-0.11-0.63-0.16v1.1h-1.63v26.74h1.63v2.09h0.63v-2.09h1.63V71.85H82.9V70.91z
			" class="color5ae5e5 svgShape"></path><polygon fill="#00cbb3" points="161.57 128.3 160.94 128.3 160.94 131.33 159.31 131.33 159.31 163.29 160.94 163.29 160.94 166.32 161.57 166.32 161.57 163.29 163.2 163.29 163.2 131.33 161.57 131.33" class="color00c1cb svgShape"></polygon><polygon fill="#006054" points="263.85 79.7 263.21 79.7 263.21 82.73 261.58 82.73 261.58 114.69 263.21 114.69 263.21 117.72 263.85 117.72 263.85 114.69 265.47 114.69 265.47 82.73 263.85 82.73" class="color005460 svgShape"></polygon><polygon fill="#5fe4d4" points="279.57 86.82 279.57 83.79 278.94 83.79 278.94 86.82 277.32 86.82 277.32 112.21 278.94 112.21 278.94 115.24 279.57 115.24 279.57 112.21 281.21 112.21 281.21 86.82" class="color5ae5e5 svgShape"></polygon><polygon fill="#5fe4d4" points="287.44 101.03 287.44 98 286.81 98 286.81 101.03 285.19 101.03 285.19 118.33 286.81 118.33 286.81 121.36 287.44 121.36 287.44 118.33 289.08 118.33 289.08 101.03" opacity=".8" class="color5ae5e5 svgShape"></polygon><polygon fill="#00cbb3" points="185.16 125.13 184.53 125.13 184.53 127.37 182.91 127.37 182.91 154.89 184.53 154.89 184.53 157.13 185.16 157.13 185.16 154.89 186.79 154.89 186.79 127.37 185.16 127.37" class="color00c1cb svgShape"></polygon><polygon fill="#006054" points="137.97 91.97 137.33 91.97 137.33 94.21 135.7 94.21 135.7 115.17 137.33 115.17 137.33 117.41 137.97 117.41 137.97 115.17 139.59 115.17 139.59 94.21 137.97 94.21" class="color005460 svgShape"></polygon><polygon fill="#5fe4d4" points="232.38 58.06 231.74 58.06 231.74 61.09 230.11 61.09 230.11 93.05 231.74 93.05 231.74 96.07 232.38 96.07 232.38 93.05 234 93.05 234 61.09 232.38 61.09" class="color5ae5e5 svgShape"></polygon><polygon fill="#5fe4d4" points="200.9 69.84 200.26 69.84 200.26 72.87 198.64 72.87 198.64 98.27 200.26 98.27 200.26 101.29 200.9 101.29 200.9 98.27 202.53 98.27 202.53 72.87 200.9 72.87" class="color5ae5e5 svgShape"></polygon><polygon fill="#5fe4d4" points="311.05 99.51 310.42 99.51 310.42 101.6 308.79 101.6 308.79 112.77 310.42 112.77 310.42 114.85 311.05 114.85 311.05 112.77 312.69 112.77 312.69 101.6 311.05 101.6" opacity=".2" class="color5ae5e5 svgShape"></polygon><g fill="#000000" class="color000000 svgShape"><path fill="#08f4d8" d="M313.7,162.44h-60.73c-0.75,0-1.35-0.6-1.35-1.35v-29.08c0-0.75,0.6-1.35,1.35-1.35h60.73
			c0.75,0,1.35,0.6,1.35,1.35v29.08C315.05,161.84,314.45,162.44,313.7,162.44z" class="color08f4ed svgShape"></path><path fill="#07cfb7" d="M303.6,133.68h-40.54c-0.66,0-1.21,0.45-1.39,1.08c-0.79,2.85-3.06,5.09-5.93,5.83
			c-0.65,0.17-1.11,0.73-1.11,1.4v9.14c0,0.67,0.46,1.23,1.11,1.4c2.87,0.74,5.14,2.98,5.93,5.83c0.18,0.63,0.73,1.08,1.39,1.08
			h40.54c0.66,0,1.21-0.45,1.39-1.08c0.79-2.85,3.06-5.09,5.93-5.83c0.65-0.17,1.11-0.73,1.11-1.4v-9.14c0-0.67-0.46-1.23-1.11-1.4
			c-2.87-0.74-5.14-2.98-5.93-5.83C304.82,134.13,304.26,133.68,303.6,133.68z" class="color07cfc9 svgShape"></path><path fill="#059d8b" d="M287.3,150.48c-0.35,0.51-0.87,0.92-1.57,1.23c-0.39,0.17-0.83,0.28-1.31,0.36v1.86
			c0,0.13-0.1,0.23-0.23,0.23h-1.76c-0.13,0-0.23-0.1-0.23-0.23v-1.83c-0.52-0.06-1.02-0.15-1.52-0.29
			c-0.03-0.01-0.05-0.02-0.08-0.03c-0.06-0.02-0.12-0.04-0.18-0.06h0c0,0,0,0-0.09-0.03c-0.64-0.22-1.29-0.61-1.29-0.61
			c-0.16-0.1-0.23-0.32-0.15-0.5l0.57-1.27c0.08-0.17,0.28-0.23,0.44-0.14c0,0,0.6,0.37,1.16,0.57c0.07,0.03,0.14,0.05,0.22,0.08
			c0.02,0.01,0.04,0.01,0.06,0.02c0.63,0.2,1.25,0.3,1.88,0.3c0.72,0,1.25-0.11,1.59-0.32c0.34-0.21,0.51-0.5,0.51-0.85
			c0-0.26-0.1-0.47-0.3-0.65c-0.2-0.17-0.46-0.31-0.78-0.41c-0.32-0.1-0.75-0.22-1.29-0.34c-0.83-0.2-1.51-0.39-2.04-0.59
			c-0.53-0.2-0.99-0.52-1.36-0.95c-0.38-0.44-0.57-1.02-0.57-1.75c0-0.63,0.17-1.21,0.52-1.72c0.34-0.52,0.86-0.92,1.55-1.22
			c0.35-0.15,0.74-0.27,1.18-0.34v-1.81c0-0.13,0.1-0.23,0.23-0.23h1.76c0.13,0,0.23,0.1,0.23,0.23v1.74
			c0.4,0.04,0.79,0.11,1.18,0.2c0.06,0.02,0.12,0.04,0.18,0.05c0.06,0.02,0.12,0.03,0.18,0.05c0,0,0,0,0.01,0c0,0,0,0,0.09,0.03
			c0.48,0.15,0.98,0.42,0.98,0.42c0.17,0.09,0.25,0.31,0.18,0.49l-0.52,1.27c-0.07,0.18-0.27,0.25-0.44,0.16c0,0-0.51-0.26-0.92-0.4
			c-0.09-0.03-0.18-0.06-0.28-0.09c-0.51-0.14-1.01-0.22-1.52-0.22c-0.71,0-1.23,0.12-1.57,0.34c-0.34,0.23-0.51,0.53-0.51,0.9
			c0,0.37,0.2,0.65,0.59,0.84c0.39,0.18,0.98,0.36,1.79,0.54c0.83,0.2,1.51,0.4,2.04,0.59c0.53,0.2,0.98,0.51,1.36,0.93
			c0.38,0.43,0.57,1,0.57,1.73C287.82,149.4,287.65,149.97,287.3,150.48z" class="color059d98 svgShape"></path><circle cx="296.02" cy="146.55" r="3.48" fill="#ffffff" opacity=".5" class="colorffffff svgShape"></circle><circle cx="270.65" cy="146.55" r="3.48" fill="#ffffff" opacity=".5" class="colorffffff svgShape"></circle><circle cx="306.1" cy="146.55" r="1.88" fill="#ffffff" opacity=".25" class="colorffffff svgShape"></circle><circle cx="260.58" cy="146.55" r="1.88" fill="#ffffff" opacity=".25" class="colorffffff svgShape"></circle><path fill="#08f4d8" d="M251.62,161.09v-29.08c0-0.75,0.6-1.35,1.35-1.35h-0.94c-0.75,0-1.35,0.6-1.35,1.35v29.08
			c0,0.75,0.6,1.35,1.35,1.35h0.94C252.23,162.44,251.62,161.84,251.62,161.09z" class="color08f4ed svgShape"></path><linearGradient id="d" x1="251.828" x2="251.828" y1="125.074" y2="162.123" gradientUnits="userSpaceOnUse"><stop offset=".004" stop-color="#107a6d" stop-opacity="0" class="stopColor107a75 svgShape"></stop><stop offset="1" stop-color="#107a6d" stop-opacity=".5" class="stopColor107a75 svgShape"></stop></linearGradient><path fill="url(#d)" d="M251.62,161.09v-29.08c0-0.75,0.6-1.35,1.35-1.35h-0.94c-0.75,0-1.35,0.6-1.35,1.35v29.08
			c0,0.75,0.6,1.35,1.35,1.35h0.94C252.23,162.44,251.62,161.84,251.62,161.09z"></path><linearGradient id="e" x1="282.868" x2="282.868" y1="131.499" y2="159.866" gradientUnits="userSpaceOnUse"><stop offset=".004" stop-color="#048676" stop-opacity="0" class="stopColor048682 svgShape"></stop><stop offset="1" stop-color="#048676" stop-opacity=".5" class="stopColor048682 svgShape"></stop></linearGradient><path fill="url(#e)" d="M313.7,130.66h-61.67c-0.75,0-1.35,0.6-1.35,1.35v29.08c0,0.75,0.6,1.35,1.35,1.35h0.94
			c0,0,0,0,0,0h60.73c0.75,0,1.35-0.6,1.35-1.35v-29.08C315.05,131.27,314.45,130.66,313.7,130.66z"></path></g><g fill="#000000" class="color000000 svgShape"><path fill="#08f4d8" d="M298.01,176.96h-60.73c-0.75,0-1.35-0.6-1.35-1.35v-29.08c0-0.75,0.6-1.35,1.35-1.35h60.73
			c0.75,0,1.35,0.6,1.35,1.35v29.08C299.36,176.36,298.75,176.96,298.01,176.96z" class="color08f4ed svgShape"></path><path fill="#07cfb7" d="M287.91,148.2h-40.54c-0.66,0-1.21,0.45-1.39,1.08c-0.79,2.85-3.06,5.09-5.93,5.83
			c-0.65,0.17-1.11,0.73-1.11,1.4v9.14c0,0.67,0.46,1.23,1.11,1.4c2.87,0.74,5.14,2.98,5.93,5.83c0.18,0.63,0.73,1.08,1.39,1.08
			h40.54c0.66,0,1.21-0.45,1.39-1.08c0.79-2.85,3.06-5.09,5.93-5.83c0.65-0.17,1.11-0.73,1.11-1.4v-9.14c0-0.67-0.46-1.23-1.11-1.4
			c-2.87-0.74-5.14-2.98-5.93-5.83C289.12,148.65,288.57,148.2,287.91,148.2z" class="color07cfc9 svgShape"></path><path fill="#059d8b" d="M271.6,165c-0.35,0.51-0.87,0.92-1.57,1.23c-0.39,0.17-0.83,0.28-1.31,0.36v1.86
			c0,0.13-0.1,0.23-0.23,0.23h-1.76c-0.13,0-0.23-0.1-0.23-0.23v-1.83c-0.52-0.06-1.02-0.15-1.52-0.29
			c-0.03-0.01-0.05-0.02-0.08-0.03c-0.06-0.02-0.12-0.04-0.18-0.06h0c0,0,0,0-0.09-0.03c-0.64-0.22-1.29-0.61-1.29-0.61
			c-0.16-0.1-0.23-0.32-0.15-0.5l0.57-1.27c0.08-0.17,0.28-0.23,0.44-0.14c0,0,0.6,0.37,1.16,0.57c0.07,0.03,0.14,0.05,0.22,0.08
			c0.02,0.01,0.04,0.01,0.06,0.02c0.63,0.2,1.25,0.3,1.88,0.3c0.72,0,1.25-0.11,1.59-0.32c0.34-0.21,0.51-0.5,0.51-0.85
			c0-0.26-0.1-0.47-0.3-0.65c-0.2-0.17-0.46-0.31-0.78-0.41c-0.32-0.1-0.75-0.22-1.29-0.34c-0.83-0.2-1.51-0.39-2.04-0.59
			c-0.53-0.2-0.99-0.52-1.36-0.95c-0.38-0.44-0.57-1.02-0.57-1.75c0-0.63,0.17-1.21,0.52-1.72c0.34-0.52,0.86-0.92,1.55-1.22
			c0.35-0.15,0.74-0.27,1.18-0.34v-1.81c0-0.13,0.1-0.23,0.23-0.23h1.76c0.13,0,0.23,0.1,0.23,0.23v1.74
			c0.4,0.04,0.79,0.11,1.18,0.2c0.06,0.02,0.12,0.04,0.18,0.05c0.06,0.02,0.12,0.03,0.18,0.05c0,0,0,0,0.01,0c0,0,0,0,0.09,0.03
			c0.48,0.15,0.98,0.42,0.98,0.42c0.17,0.09,0.25,0.31,0.18,0.49l-0.52,1.27c-0.07,0.18-0.27,0.25-0.44,0.16c0,0-0.51-0.26-0.92-0.4
			c-0.09-0.03-0.18-0.06-0.28-0.09c-0.51-0.14-1.01-0.22-1.52-0.22c-0.71,0-1.23,0.12-1.57,0.34c-0.34,0.23-0.51,0.53-0.51,0.9
			c0,0.37,0.2,0.65,0.59,0.84c0.39,0.18,0.98,0.36,1.79,0.54c0.83,0.2,1.51,0.4,2.04,0.59c0.53,0.2,0.98,0.51,1.36,0.93
			c0.38,0.43,0.57,1,0.57,1.73C272.13,163.92,271.95,164.49,271.6,165z" class="color059d98 svgShape"></path><circle cx="280.32" cy="161.07" r="3.48" fill="#ffffff" opacity=".5" class="colorffffff svgShape"></circle><circle cx="254.96" cy="161.07" r="3.48" fill="#ffffff" opacity=".5" class="colorffffff svgShape"></circle><circle cx="290.4" cy="161.07" r="1.88" fill="#ffffff" opacity=".25" class="colorffffff svgShape"></circle><circle cx="244.88" cy="161.07" r="1.88" fill="#ffffff" opacity=".25" class="colorffffff svgShape"></circle><path fill="#08f4d8" d="M235.93,175.61v-29.08c0-0.75,0.6-1.35,1.35-1.35h-0.94c-0.75,0-1.35,0.6-1.35,1.35v29.08
			c0,0.75,0.6,1.35,1.35,1.35h0.94C236.53,176.96,235.93,176.36,235.93,175.61z" class="color08f4ed svgShape"></path><linearGradient id="f" x1="236.134" x2="236.134" y1="139.595" y2="176.643" gradientUnits="userSpaceOnUse"><stop offset=".004" stop-color="#107a6d" stop-opacity="0" class="stopColor107a75 svgShape"></stop><stop offset="1" stop-color="#107a6d" stop-opacity=".5" class="stopColor107a75 svgShape"></stop></linearGradient><path fill="url(#f)" d="M235.93,175.61v-29.08c0-0.75,0.6-1.35,1.35-1.35h-0.94c-0.75,0-1.35,0.6-1.35,1.35v29.08
			c0,0.75,0.6,1.35,1.35,1.35h0.94C236.53,176.96,235.93,176.36,235.93,175.61z"></path><linearGradient id="g" x1="267.173" x2="267.173" y1="147.648" y2="175.519" gradientUnits="userSpaceOnUse"><stop offset=".004" stop-color="#048676" stop-opacity="0" class="stopColor048682 svgShape"></stop><stop offset="1" stop-color="#048676" stop-opacity=".5" class="stopColor048682 svgShape"></stop></linearGradient><path fill="url(#g)" d="M298.01,145.18h-61.67c-0.75,0-1.35,0.6-1.35,1.35v29.08c0,0.75,0.6,1.35,1.35,1.35h61.67
			c0.75,0,1.35-0.6,1.35-1.35v-29.08C299.36,145.79,298.75,145.18,298.01,145.18z"></path></g><linearGradient id="h" x1="147.875" x2="147.875" y1="151.573" y2="188.1" gradientUnits="userSpaceOnUse"><stop offset="0" stop-color="#1a0026" class="stopColor002621 svgShape"></stop><stop offset="1" stop-color="#430f5b" class="stopColor0f5b57 svgShape"></stop></linearGradient><path fill="url(#h)" d="M142.18,190.94c-0.04,0.28,0.18,0.54,0.47,0.54h0.73c0.22,0,0.41-0.15,0.46-0.36l9.74-41.81h-5.16
		L142.18,190.94z"></path><g fill="#000000" class="color000000 svgShape"><linearGradient id="i" x1="147.05" x2="120.306" y1="137.988" y2="144.195" gradientUnits="userSpaceOnUse"><stop offset="0" stop-color="#ffdfae" class="stopColorffd1ae svgShape"></stop><stop offset="1" stop-color="#f9c678" class="stopColorf9ac78 svgShape"></stop></linearGradient><path fill="url(#i)" d="M127.2,138.53c0,0,2.41,4.32,2.89,5.73c0.35,1.01-0.92,2.6-2.59,2.16
			c-0.88-0.23-2.93-2.42-4.49-4.83C121.81,139.75,126.82,138.33,127.2,138.53z"></path><linearGradient id="j" x1="147.555" x2="120.81" y1="140.161" y2="146.369" gradientUnits="userSpaceOnUse"><stop offset="0" stop-color="#ffdfae" class="stopColorffd1ae svgShape"></stop><stop offset="1" stop-color="#f9c678" class="stopColorf9ac78 svgShape"></stop></linearGradient><path fill="url(#j)" d="M128.37,142.6c-1.99,0.72-2.37,1.91-1.55,3.36c0.24,0.43,0.95,0.55,1.81,0.53
			c0.97-0.03,2.15-0.26,3.07-0.47c3.3-0.76,11.74-3.08,17.52-4.6c0.65-0.17,1.1-0.71,0.97-1.23l0,0c-0.13-0.49-0.55-0.83-1.18-0.76
			C141.43,140.2,133.19,140.85,128.37,142.6z"></path><linearGradient id="k" x1="125.916" x2="137.23" y1="144.538" y2="142.336" gradientUnits="userSpaceOnUse"><stop offset="0" stop-color="#fcbc5c" stop-opacity=".5" class="stopColorfc9f5c svgShape"></stop><stop offset="1" stop-color="#d8a353" stop-opacity=".15" class="stopColorfc9f5b svgShape"></stop></linearGradient><path fill="url(#k)" d="M149.01,139.42c-5.06,0.52-10.41,0.98-14.84,1.76c0.86-0.13,0.38,1.14,0.22,1.92
			c-0.13,0.61-1.55,0.67-2.16,0.6c-0.61-0.06-0.78-1.98,0.14-2.18c-1.14,0.24-2.2,0.5-3.14,0.8c-0.16-0.31-0.32-0.64-0.49-0.96
			c-0.38,0.62-1.48,2.16-3.59,3.03c0.72,0.82,1.4,1.46,1.9,1.8c0.04,0.03,0.08,0.05,0.13,0.08c0.12,0.07,0.24,0.13,0.33,0.15
			c0.24,0.06,0.46,0.08,0.68,0.06c0.14,0.01,0.29,0.01,0.44,0.01c0.97-0.03,2.15-0.26,3.07-0.47c3.3-0.76,11.74-3.08,17.52-4.6
			c0.65-0.17,1.1-0.71,0.97-1.23C150.05,139.69,149.63,139.36,149.01,139.42z"></path><linearGradient id="l" x1="1865.075" x2="1861.638" y1="100.153" y2="108.926" gradientTransform="scale(-1 1) rotate(3.348 293.268 -33864.375)" gradientUnits="userSpaceOnUse"><stop offset="0" stop-color="#191510" class="stopColor101719 svgShape"></stop><stop offset="1" stop-color="#312437" class="stopColor243137 svgShape"></stop></linearGradient><path fill="url(#l)" d="M123.43,130.9c2.88,4.49,5.45,10.19,5.45,10.19s-1.58,3.27-5.74,3.85
			c-2.07-1.93-3.78-5.05-4.43-6.61C117.14,134.61,121.53,127.94,123.43,130.9z"></path><linearGradient id="m" x1="92.942" x2="92.942" y1="191.484" y2="156.219" gradientUnits="userSpaceOnUse"><stop offset=".002" stop-color="#00b19c" class="stopColor00b1a5 svgShape"></stop><stop offset="1" stop-color="#54efdc" class="stopColor54efea svgShape"></stop></linearGradient><path fill="url(#m)" d="M100.96,156.22h-4l-3.59,10.36h0l-8.42,24.32c-0.1,0.28,0.11,0.58,0.41,0.58h0.79
			c0.18,0,0.34-0.11,0.4-0.27l10.67-25.92l0-0.01L100.96,156.22z"></path><path fill="#1ca595" d="M119.36,136.88v-0.91c0-8.25-6.76-15.19-15.01-15c-9.01,0.2-16.26,7.57-16.26,16.63v10.38
			c0,12.63,10.24,22.87,22.87,22.87h7.17h1.23h1.61c10.27,0,18.6-8.33,18.6-18.6v0c0-1.9-1.54-3.44-3.44-3.44h-4.83
			C124.7,148.81,119.36,143.47,119.36,136.88z" class="color1ca59b svgShape"></path><linearGradient id="n" x1="137.888" x2="131.425" y1="191.007" y2="169.561" gradientUnits="userSpaceOnUse"><stop offset=".002" stop-color="#00b19c" class="stopColor00b1a5 svgShape"></stop><stop offset="1" stop-color="#54efdc" class="stopColor54efea svgShape"></stop></linearGradient><path fill="url(#n)" d="M130.46,160.29l-3.29,0.09l8.94,30.78c0.05,0.19,0.22,0.31,0.42,0.31h0.61
			c0.28,0,0.49-0.26,0.42-0.53L130.46,160.29z"></path><linearGradient id="o" x1="118.408" x2="118.408" y1="191.861" y2="164.312" gradientUnits="userSpaceOnUse"><stop offset=".002" stop-color="#00b19c" class="stopColor00b1a5 svgShape"></stop><stop offset="1" stop-color="#54efdc" class="stopColor54efea svgShape"></stop></linearGradient><path fill="url(#o)" d="M116.71,162.15l1.8,28.93c0.01,0.23,0.2,0.41,0.43,0.41h0.73c0.24,0,0.44-0.2,0.44-0.44
			l-0.22-29.75L116.71,162.15z"></path><path fill="#54efdc" d="M136.12,148.81h-4.83c-6.59,0-11.93-5.34-11.93-11.93v-0.91c0-8.15-6.58-14.99-14.69-14.99v0.99l0,0
			c7.55,0,13.69,6.28,13.69,14.01v0.91c0,7.14,5.79,12.93,12.93,12.93h4.83c1.35,0,2.45,1.1,2.44,2.45c0,1.98-0.33,3.89-0.94,5.67
			c-1.55,4.52-5.86,7.5-10.64,7.5h-9.16c-0.19,0-0.38-0.02-0.57-0.03v5.45h0.88h1.23h1.61c10.27,0,18.6-8.33,18.6-18.6v0
			C139.57,150.35,138.03,148.81,136.12,148.81z" class="color54efea svgShape"></path><linearGradient id="p" x1="119.679" x2="105.269" y1="112.356" y2="134.712" gradientUnits="userSpaceOnUse"><stop offset="0" stop-color="#191510" class="stopColor101719 svgShape"></stop><stop offset="1" stop-color="#312437" class="stopColor243137 svgShape"></stop></linearGradient><path fill="url(#p)" d="M114.14,112.92c-3.57,2.36-2.63,7.85-6.2,12.03c-8.77-1.85-15.26,3.93-15.71,11.3
			c-0.67,11.04,11.97,12.62,17.18,8.71c8.29-6.22,14.13-16.07,15.68-21.64c0.7-2.5,1.78-6.46,0.32-8.76
			C123.61,111.72,118.41,110.1,114.14,112.92z"></path><path fill="none" stroke="#3d005a" stroke-miterlimit="10" stroke-width=".115" d="M143.98,185.94" class="colorStroke00425a svgStroke"></path><path fill="#e2e2e2" d="M153.08,188.82c-0.58-0.28-1.5-0.45-2.63-0.89c-0.04,0.08-0.21,0.35-0.97,0.24
			c-0.88-0.12-2.4-0.86-3.44-1.73c-1.04-0.87-1.54-0.99-2.04-0.5c0,0-0.16-0.2-0.25-0.45c-0.32,0.25-0.91,0.59-1.69,0.52
			c-0.79-0.08-1.23-0.61-1.56-0.86c-0.2-0.15-0.37-0.2-0.56,0.02c-0.35,0.41-0.61,0.97-0.71,2.04c-0.06,0.67-0.08,1.38-0.09,1.97
			c0.21,0.01,3.3,0.18,5.92,0.55c2.7,0.38,7.26,0.55,8.73,0.01C153.72,189.36,153.54,189.04,153.08,188.82z" class="colore2e2e2 svgShape"></path><path fill="#13011c" d="M153.77,189.73c-1.48,0.53-6.04,0.36-8.73-0.01c-2.62-0.37-5.71-0.54-5.92-0.55
			c-0.01,0.5-0.01,0.92-0.01,1.17c-0.01,0.56,0.13,0.99,1.37,1c1.24,0.01,7.25,0.08,9.86,0.11c2.61,0.03,3.33,0.15,3.4-0.62
			C153.76,190.46,153.82,190.08,153.77,189.73z" class="color01121c svgShape"></path><path fill="#e58a00" d="M142.24,186.09L142.24,186.09c-0.07,0-0.13,0-0.2-0.01c-0.66-0.06-1.08-0.43-1.39-0.7
			c-0.09-0.08-0.17-0.15-0.25-0.2c-0.03-0.02-0.06,0.02-0.04,0.04c0.35,0.4,0.79,1.38,1.67,1.46c1.19,0.12,1.95-0.75,1.95-0.75
			c0,0-0.13-0.16-0.22-0.38C143.46,185.8,142.93,186.1,142.24,186.09z" class="colore54600 svgShape"></path><path fill="#bc7100" d="M145.21,185.84c-0.03-0.01-0.05-0.03-0.07-0.04c0,0,0,0,0,0c0,0,0,0,0,0
			C145.16,185.82,145.19,185.83,145.21,185.84C145.21,185.84,145.21,185.84,145.21,185.84z" class="colorbc5000 svgShape"></path><path fill="#bcbcbc" d="M148.87,188.88c0.28,0.36,0.8,0.56,1.54,0.57c0.03,0,0.05,0,0.08,0c1.93,0.02,2.86-0.21,3.06-0.27
			c-0.11-0.14-0.26-0.26-0.48-0.36c-0.58-0.28-1.5-0.45-2.63-0.89c-0.04,0.08-0.21,0.35-0.97,0.24c-0.23-0.03-0.5-0.11-0.8-0.21
			c0,0,0,0,0,0c0,0,0,0,0,0C148.64,188.11,148.6,188.53,148.87,188.88z" class="colorbcbcbc svgShape"></path><path fill="#bc7100" d="M139.15 188.14L139.15 188.14c0-.04 0-.07.01-.11C139.15 188.06 139.15 188.1 139.15 188.14zM145.29 185.89C145.29 185.89 145.29 185.89 145.29 185.89c.02.01.05.03.08.05 0 0 0 0 0 0C145.34 185.92 145.32 185.91 145.29 185.89z" class="colorbc5000 svgShape"></path><linearGradient id="q" x1="-1105.977" x2="-1116.582" y1="-100.896" y2="-89.955" gradientTransform="rotate(-14.805 607.199 -4766.32)" gradientUnits="userSpaceOnUse"><stop offset="0" stop-color="#ffdfae" class="stopColorffd1ae svgShape"></stop><stop offset="1" stop-color="#f9c678" class="stopColorf9ac78 svgShape"></stop></linearGradient><path fill="url(#q)" d="M142.04,186.69c1.19,0.12,1.95-0.75,1.95-0.75c0.14-0.12,0.21-0.23,0.28-0.31l-1.08-5.06
			c0,0-3.95,0.95-3.74,1.61c0.15,0.48,0.67,2.17,0.95,3.08C140.74,185.67,141.17,186.6,142.04,186.69z"></path><path fill="#13011c" d="M146.03,186.44c1.04,0.87,2.56,1.6,3.44,1.73c0.76,0.11,0.94-0.16,0.97-0.24
				c-0.63-0.25-1.33-0.58-2.09-1.06c-2.11-1.35-3.15-2.39-3.85-2.4c-0.7-0.01-0.91,0.6-0.77,1.02c0.08,0.25,0.25,0.45,0.25,0.45
				C144.49,185.44,144.99,185.57,146.03,186.44z" class="color01121c svgShape"></path><path fill="#7cd8cd" d="M146.91,185.75c-0.06-0.04-0.12-0.09-0.18-0.13c-0.03-0.02-0.08-0.02-0.11,0l-0.77,0.67
					c0.06,0.05,0.12,0.09,0.18,0.14c0.04,0.03,0.08,0.07,0.13,0.1l0.76-0.66C146.96,185.85,146.96,185.78,146.91,185.75z
					 M146.83,187.02c0.11,0.07,0.22,0.14,0.33,0.21l0.67-0.72c0.04-0.04,0.03-0.1-0.02-0.13c-0.06-0.04-0.12-0.08-0.18-0.12
					c-0.04-0.02-0.08-0.02-0.11,0.01L146.83,187.02z M146.05,185.13c-0.06-0.04-0.12-0.09-0.18-0.13c-0.03-0.02-0.07-0.02-0.1,0
					l-0.88,0.69c0.12,0.04,0.25,0.1,0.39,0.18l0.77-0.61C146.1,185.23,146.09,185.16,146.05,185.13z M147.9,187.63
					c0.12,0.06,0.24,0.11,0.36,0.16l0.51-0.7c0.03-0.04,0.02-0.1-0.03-0.12c-0.06-0.04-0.12-0.07-0.18-0.11
					c-0.04-0.02-0.09-0.01-0.12,0.02L147.9,187.63z M149.47,187.46l-0.41,0.62c0.14,0.04,0.28,0.07,0.4,0.09l0.34-0.52
					c0.03-0.04,0.01-0.1-0.04-0.13c-0.06-0.03-0.13-0.06-0.19-0.09C149.55,187.41,149.5,187.42,149.47,187.46z" class="color7cd8cf svgShape"></path><linearGradient id="r" x1="129.052" x2="135.706" y1="168.512" y2="181.055" gradientUnits="userSpaceOnUse"><stop offset="0" stop-color="#191510" class="stopColor101719 svgShape"></stop><stop offset="1" stop-color="#312437" class="stopColor243137 svgShape"></stop></linearGradient><path fill="url(#r)" d="M137.24,156.56c-2-2.16-19.61-4.96-26.77-4.96c-1.12,9.82-0.08,13.63,7.47,13.82
			c7.55,0.19,13.55,0.03,14.12,0.13C137.77,165.89,140.26,159.82,137.24,156.56z"></path><linearGradient id="s" x1="115.18" x2="121.76" y1="159.189" y2="168.314" gradientUnits="userSpaceOnUse"><stop offset="0" stop-color="#191510" class="stopColor101719 svgShape"></stop><stop offset="1" stop-color="#312437" class="stopColor243137 svgShape"></stop></linearGradient><path fill="url(#s)" d="M124.82,156.56c-2-2.16-11.88-4.4-19.03-4.4c-2.21,8.86-0.35,13.07,7.2,13.26
			c7.55,0.19,6.07,0.03,6.65,0.13C125.35,165.89,127.84,159.82,124.82,156.56z"></path><linearGradient id="t" x1="135.679" x2="142.333" y1="164.997" y2="177.539" gradientUnits="userSpaceOnUse"><stop offset="0" stop-color="#191510" class="stopColor101719 svgShape"></stop><stop offset="1" stop-color="#312437" class="stopColor243137 svgShape"></stop></linearGradient><path fill="url(#t)" d="M138.2,158.11c-0.67-2.98-9.98-3.82-8.13,3.53c0.14,0.57,9.47,22.42,9.47,22.42
			s4.29-1.18,4.33-1.47C143.91,182.3,138.67,160.16,138.2,158.11z"></path><linearGradient id="u" x1="1806.947" x2="1810.261" y1="470.653" y2="461.921" gradientTransform="scale(-1 1) rotate(-24.42 196.02 4783.41)" gradientUnits="userSpaceOnUse"><stop offset="0" stop-color="#ffdfae" class="stopColorffd1ae svgShape"></stop><stop offset="1" stop-color="#f9c678" class="stopColorf9ac78 svgShape"></stop></linearGradient><polygon fill="url(#u)" points="122.3 183.31 121.63 189.51 118.87 189 118.76 182.54"></polygon><linearGradient id="v" x1="114.183" x2="120.742" y1="159.945" y2="169.041" gradientUnits="userSpaceOnUse"><stop offset="0" stop-color="#191510" class="stopColor101719 svgShape"></stop><stop offset="1" stop-color="#312437" class="stopColor243137 svgShape"></stop></linearGradient><path fill="url(#v)" d="M126.1,159.72c0.38-3.03-8.07-7-8.85,0.54c-0.06,0.58,1.18,21.27,1.35,23.37
			c0.08,0.96,3.71,0.45,3.85,0.2C122.59,183.59,125.84,161.81,126.1,159.72z"></path><path fill="#e2e2e2" d="M120.46,190.07c1.28-0.02,2.39-0.12,2.98-0.33c0.01,0.05,0,0.11,0,0.16c0,0,0,0,0,0
				c-0.01-0.7-0.04-1.53-0.09-2.32c-0.06-0.83-0.2-1.38-0.38-1.81c-0.09-0.22-0.2-0.42-0.32-0.58c-0.19-0.26-0.31-0.12-0.56-0.02
				c-0.49,0.19-0.69,0.78-1.6,0.78c-0.91,0-1.38-0.42-1.66-0.78c-0.17-0.21-0.37-0.24-0.56,0.02c-0.12,0.16-0.22,0.36-0.32,0.58
				c-0.18,0.43-0.32,0.98-0.38,1.81c-0.05,0.73-0.08,1.49-0.09,2.16C118.09,189.95,119.19,190.05,120.46,190.07z" class="colore2e2e2 svgShape"></path><path fill="#13011c" d="M123.44,189.73c-0.6,0.22-1.7,0.32-2.98,0.33c-1.28-0.02-2.39-0.12-2.98-0.33c-0.01,0.08,0,0.17,0,0.25
				c0,0.28,0.02,0.57,0.05,0.86c0.03,0.37,0.22,0.53,0.7,0.6c0.45,0.06,1.17,0.04,2.24,0.03c1.08,0.02,1.8,0.04,2.24-0.03
				c0.47-0.07,0.66-0.23,0.7-0.6c0.02-0.29,0.05-0.58,0.05-0.86C123.45,189.9,123.45,189.81,123.44,189.73z" class="color01121c svgShape"></path><path fill="#bcbcbc" d="M120.43,187.99c-0.01,0-0.02,0-0.03,0s-0.02,0-0.03,0c-1.11,0-1.73,0.06-1.73,0.58
				c0,0.11,0.02,0.25,0.11,0.37c0.28,0.37,0.81,0.56,1.57,0.57c0.02,0,0.03,0,0.05,0c0.01,0,0.02,0,0.03,0c0.01,0,0.02,0,0.03,0
				c0.02,0,0.03,0,0.05,0c0.76-0.01,1.29-0.2,1.57-0.57c0.09-0.12,0.11-0.26,0.11-0.37C122.16,188.05,121.54,187.99,120.43,187.99z" class="colorbcbcbc svgShape"></path><path fill="#13011c" d="M121.81,185.32c0,0-0.49-0.41-1.44-0.41c-0.91,0-1.33,0.47-1.33,0.47s0.13,0.63,0.3,1.94
				c0.06,0.47,0.09,0.96,0.11,1.2c0,0,0.46-0.09,0.96-0.09c0.55,0,1.02,0.09,1.02,0.09c0.02-0.24,0.05-0.73,0.11-1.2
				C121.7,186.01,121.81,185.32,121.81,185.32z" class="color01121c svgShape"></path><path fill="#7cd8cd" d="M119.08,185.61c0.01,0.08,0.03,0.16,0.05,0.29c0.37-0.21,1.58-0.76,2.59,0.05
				c0.02-0.12,0.03-0.22,0.05-0.3C120.72,184.9,119.54,185.36,119.08,185.61z M119.32,187.2c0.01,0.04,0.01,0.07,0.02,0.12
				c0.01,0.06,0.01,0.11,0.02,0.17c0.44-0.16,1.36-0.38,2.15,0.07c0.01-0.08,0.02-0.16,0.03-0.24c0-0.02,0-0.04,0.01-0.06
				C120.7,186.83,119.79,187.03,119.32,187.2z M119.2,186.39c0.01,0.09,0.03,0.19,0.04,0.29c0.42-0.19,1.47-0.55,2.36,0.07
				c0.01-0.1,0.03-0.21,0.04-0.3C120.71,185.87,119.68,186.18,119.2,186.39z M119.4,188.02c0.01,0.11,0.02,0.2,0.02,0.29
				c0.43-0.12,1.28-0.28,2,0.07c0.01-0.09,0.01-0.18,0.02-0.3C120.69,187.76,119.86,187.9,119.4,188.02z" class="color7cd8cf svgShape"></path><linearGradient id="w" x1="115.485" x2="115.485" y1="123.684" y2="138.016" gradientUnits="userSpaceOnUse"><stop offset="0" stop-color="#e78b00" class="stopColore72100 svgShape"></stop><stop offset="1" stop-color="#e98d01" class="stopColore93701 svgShape"></stop></linearGradient><path fill="url(#w)" d="M125.98,140.42c-0.07-2.27-2.74-3.41-2.45-6.25c0-0.02-0.01-0.03-0.01-0.05
			c0.16-1.55,0.2-2.73-0.09-3.21c-0.35-0.58-0.99-1.11-1.77-1.54c-1.77-0.99-4.19-1.57-4.99-1.63c-2.03-0.14-4.24,0.09-5.88,0.58
			c-0.89,0.27-1.63,0.61-2.07,1.02c-3.22,3-3.16,9.27-3.16,16.44c0,4.79-0.56,8.45-0.56,8.45s1.88,2.69,6.24,0.19
			c0.97-0.56,2.02-0.97,3.13-1.01c3.3-0.12,9.11-0.49,9.11-0.49s-0.51-0.83-0.94-7.15c-0.04-0.54-0.04-1.11-0.03-1.69
			C124.93,143.68,126.04,142.39,125.98,140.42z"></path><linearGradient id="x" x1="115.485" x2="115.485" y1="130" y2="153.522" gradientUnits="userSpaceOnUse"><stop offset="0" stop-color="#8e5703" stop-opacity=".5" class="stopColor8e0303 svgShape"></stop><stop offset="1" stop-color="#8e5703" class="stopColor8e0303 svgShape"></stop></linearGradient><path fill="url(#x)" d="M124.68,140.29c-0.69,0.54-0.75,1.15-1.53,1.09c-0.78-0.06-3.34-0.74-5.75-0.74
			c-2.42,0-3.33-0.07-3.45-1.78c-0.12-1.71-0.05-2.57,0.97-1.71c1.02,0.86,2.48,0.8,5.58,0.8c3.1,0,2.16-1.28,2.05-3.97
			c-0.1-2.57,0.25-3.89,0.74-3.26c-0.36-0.51-0.94-0.97-1.64-1.37c-1.77-0.99-4.19-1.57-4.99-1.63c-2.03-0.14-4.24,0.09-5.88,0.58
			c-0.89,0.27-1.63,0.61-2.07,1.02c-3.22,3-3.16,9.27-3.16,16.44c0,4.79-0.56,8.45-0.56,8.45s1.88,2.69,6.24,0.19
			c0.97-0.56,2.02-0.97,3.13-1.01c3.3-0.12,9.11-0.49,9.11-0.49s-0.51-0.83-0.94-7.15c-0.04-0.54-0.04-1.11-0.03-1.69
			c2.43-0.37,3.54-1.66,3.48-3.63c-0.02-0.64-0.25-1.18-0.55-1.7C125.83,139.38,125.35,139.76,124.68,140.29z" opacity=".5"></path><linearGradient id="y" x1="119.974" x2="119.974" y1="116.688" y2="139.058" gradientUnits="userSpaceOnUse"><stop offset="0" stop-color="#ffdfae" class="stopColorffd1ae svgShape"></stop><stop offset="1" stop-color="#f9c678" class="stopColorf9ac78 svgShape"></stop></linearGradient><path fill="url(#y)" d="M125.18,118.61c-0.12,2.16-1.36,6.49-2.91,7.78c-1.5,1.25-7.25,0.1-7.47-3.05
			c-0.14-2.03,0.12-4.7,0.32-6.34c0.11-0.93,0.77-1.7,1.67-1.94C119.61,114.3,125.46,113.34,125.18,118.61z"></path><linearGradient id="z" x1="119.974" x2="119.974" y1="116.688" y2="139.058" gradientUnits="userSpaceOnUse"><stop offset="0" stop-color="#ffdfae" class="stopColorffd1ae svgShape"></stop><stop offset="1" stop-color="#f9c678" class="stopColorf9ac78 svgShape"></stop></linearGradient><path fill="url(#z)" d="M125.18,118.61c-0.12,2.16-1.36,6.49-2.91,7.78c-1.5,1.25-7.25,0.1-7.47-3.05
			c-0.14-2.03,0.12-4.7,0.32-6.34c0.11-0.93,0.77-1.7,1.67-1.94C119.61,114.3,125.46,113.34,125.18,118.61z"></path><linearGradient id="A" x1="117.156" x2="117.156" y1="117.571" y2="138.705" gradientUnits="userSpaceOnUse"><stop offset="0" stop-color="#ffdfae" class="stopColorffd1ae svgShape"></stop><stop offset="1" stop-color="#f9c678" class="stopColorf9ac78 svgShape"></stop></linearGradient><path fill="url(#A)" d="M119.75,125.83c0,0-0.21,1.41-0.33,3.61c-0.08,1.36-1.19,1.68-2.61,1.62
			c-2.49-0.11-2.25-2.15-2.25-2.15s0.3-4.05,0.38-5.71C115.01,121.72,119.41,124.3,119.75,125.83z"></path><path fill="#54efdc" d="M107.9,154.18c0.06-0.62,0.1-1.24,0.1-1.88c0-1.92-1.52-3.49-3.44-3.49h-4.83c-0.29,0-0.58-0.01-0.86-0.03
			c-5.56-0.4-9.75-5.27-9.77-10.85c0-0.21,0-0.33,0-0.33c0-8.43,6.85-15.44,15.28-15.63l0.3,0v-0.99c-0.11,0-0.21-0.01-0.32-0.01
			c-9.01,0.2-16.26,7.57-16.26,16.63v10.38c0,12.63,10.24,22.87,22.87,22.87h6.29v-5.45C111.52,165.08,107.3,159.97,107.9,154.18z" class="color54efea svgShape"></path><linearGradient id="B" x1="134.344" x2="105.876" y1="144.238" y2="141.142" gradientUnits="userSpaceOnUse"><stop offset="0" stop-color="#ffdfae" class="stopColorffd1ae svgShape"></stop><stop offset="1" stop-color="#f9c678" class="stopColorf9ac78 svgShape"></stop></linearGradient><path fill="url(#B)" d="M129.37,144.19c0.6-0.25,1.76-0.76,1.74-1.27c-0.04-0.8-1.42-0.36-2.94-0.57
			c-0.98-0.14-2.44,2.43-1.58,2.43C127.27,144.78,128.31,144.63,129.37,144.19z"></path><linearGradient id="C" x1="131.967" x2="113.01" y1="141.723" y2="144.882" gradientUnits="userSpaceOnUse"><stop offset="0" stop-color="#ffdfae" class="stopColorffd1ae svgShape"></stop><stop offset="1" stop-color="#f9c678" class="stopColorf9ac78 svgShape"></stop></linearGradient><path fill="url(#C)" d="M125.93,144.7c-1.6-0.37-1.41-2.55-0.81-3.62c0.7-1.25,6.26-0.94,6.14,0.42
			c-0.05,0.62-1.28,0.32-1.43,0.31C129.69,143.38,128.15,145.22,125.93,144.7z"></path><linearGradient id="D" x1="134.162" x2="105.694" y1="145.916" y2="142.821" gradientUnits="userSpaceOnUse"><stop offset="0" stop-color="#ffdfae" class="stopColorffd1ae svgShape"></stop><stop offset="1" stop-color="#f9c678" class="stopColorf9ac78 svgShape"></stop></linearGradient><path fill="url(#D)" d="M111.26,142.02c-2.1,0.33-2.65,1.49-2.09,3.05c0.17,0.46,0.84,0.7,1.69,0.82
				c0.97,0.13,9.57-0.7,15.53-1.24c0.67-0.06,1.21-0.51,1.16-1.06l0,0c-0.04-0.51-0.41-0.87-1.03-0.95
				C119.62,141.73,115.71,141.32,111.26,142.02z"></path><linearGradient id="E" x1="134.335" x2="105.867" y1="144.321" y2="141.225" gradientUnits="userSpaceOnUse"><stop offset="0" stop-color="#ffdfae" class="stopColorffd1ae svgShape"></stop><stop offset="1" stop-color="#f9c678" class="stopColorf9ac78 svgShape"></stop></linearGradient><path fill="url(#E)" d="M112.39,138.07c0,0,0.3,4.94,0.12,6.41c-0.13,1.06-1.96,1.94-3.27,0.82
				c-0.69-0.59-1.59-3.45-1.96-6.3C107.01,136.83,112.13,137.72,112.39,138.07z"></path><linearGradient id="F" x1="109.202" x2="109.202" y1="135.909" y2="144.456" gradientUnits="userSpaceOnUse"><stop offset="0" stop-color="#191510" class="stopColor101719 svgShape"></stop><stop offset="1" stop-color="#312437" class="stopColor243137 svgShape"></stop></linearGradient><path fill="url(#F)" d="M112.33,130.02c0.39,5.32,0.46,11.32,0.46,11.32s-2.84,2.26-6.84,0.98
			c-0.27-2.49-0.4-4.79-0.31-6.48c0.11-2.22,1.31-4.83,2.82-6.28C109.92,128.16,112.15,127.63,112.33,130.02z"></path><linearGradient id="G" x1="106.65" x2="106.65" y1="186.233" y2="165.044" gradientUnits="userSpaceOnUse"><stop offset=".002" stop-color="#00b19c" class="stopColor00b1a5 svgShape"></stop><stop offset="1" stop-color="#54efdc" class="stopColor54efea svgShape"></stop></linearGradient><path fill="url(#G)" d="M105.05,160.51l0.86,30.55c0.01,0.24,0.2,0.42,0.44,0.42h0.64c0.24,0,0.43-0.19,0.44-0.42
			l0.83-31.29L105.05,160.51z"></path><path fill="#7a4b05" d="M121.62,129.34c-0.21-0.74-0.49-0.89-1.7-1.2c-0.11-0.03-0.25-0.04-0.4-0.07
			c-0.01,0.08-0.01,0.17-0.02,0.25c0.15,0.06,0.3,0.11,0.45,0.17c0.21,0.08,0.41,0.18,0.61,0.27c0.34,1.18,0.71,2.88,0.71,4.74
			c0,2.99-0.41,2.75-3.53,2.63c-2.73-0.1-3.1-1.51-3.1-4.34c0-1.86-0.65-3.28-1.1-4.05c0.29-0.04,0.6-0.07,0.92-0.1
			c0.07,0,0.13-0.01,0.2-0.01c0.01-0.08,0.01-0.17,0.02-0.26c-0.02,0-0.04,0-0.05,0v0v0c-1.85,0.01-2.71,0.1-2.28,0.6
			c0.6,0.66,1.2,2.09,1.2,5.11c0,2.61,1.47,4.17,5.22,4.17c3.8,0,3.23-0.3,3.36-2.81C122.27,131.48,121.99,130.58,121.62,129.34z" class="color7a1605 svgShape"></path><linearGradient id="H" x1="117.4" x2="117.4" y1="118.556" y2="136.758" gradientUnits="userSpaceOnUse"><stop offset="0" stop-color="#ffdfae" class="stopColorffd1ae svgShape"></stop><stop offset="1" stop-color="#f9c678" class="stopColorf9ac78 svgShape"></stop></linearGradient><path fill="url(#H)" d="M120.56,128.76c-0.2-0.09-0.4-0.19-0.61-0.27c-0.15-0.06-0.3-0.11-0.45-0.17c0,0,0-0.01,0-0.01
			c-1.18-0.43-2.35-0.7-2.83-0.73c-0.61-0.04-1.32-0.02-2.01,0.03c0,0,0,0.01,0,0.01c-0.07,0.01-0.13,0.01-0.2,0.01
			c-0.32,0.03-0.63,0.06-0.92,0.1c0.45,0.77,1.1,2.19,1.1,4.05c0,2.84,0.36,4.24,3.1,4.34c3.12,0.11,3.53,0.36,3.53-2.63
			C121.27,131.64,120.9,129.94,120.56,128.76z"></path><linearGradient id="I" x1="121.57" x2="107.16" y1="113.575" y2="135.931" gradientUnits="userSpaceOnUse"><stop offset="0" stop-color="#191510" class="stopColor101719 svgShape"></stop><stop offset="1" stop-color="#312437" class="stopColor243137 svgShape"></stop></linearGradient><path fill="url(#I)" d="M125.67,117.38c0.02,0.46-0.25,0.99-0.48,1.1c-2.74,1.37-5.88-0.87-7.21-0.14
			c-0.63,0.35-0.75,1.24-0.75,1.24s-1.57-1.39-2.14,0.1c-0.55,1.42,1.64,2.28,1.64,2.28s-1.2,3.56-3.91,3.29
			c-0.5-0.13,0.23-3.64,0.32-7.35c0.09-3.92,1.74-4.53,6.41-4.63C120.54,113.25,125.48,111.73,125.67,117.38z"></path><linearGradient id="J" x1="119.357" x2="119.357" y1="116.186" y2="140.345" gradientUnits="userSpaceOnUse"><stop offset="0" stop-color="#fcbc5c" stop-opacity=".5" class="stopColorfc9f5c svgShape"></stop><stop offset="1" stop-color="#d8a353" stop-opacity=".15" class="stopColorfc9f5b svgShape"></stop></linearGradient><path fill="url(#J)" d="M125.18,118.61c0-0.05,0-0.08,0-0.13c-2.74,1.36-5.87-0.88-7.19-0.15
			c-0.63,0.35-0.75,1.24-0.75,1.24s-1.57-1.39-2.14,0.1c-0.55,1.42,1.64,2.28,1.64,2.28s-0.51,1.49-1.6,2.47
			c-0.09,0.08-0.17,0.15-0.26,0.22c-0.06,0.99-0.14,2.11-0.2,2.97l0,0c-0.07,0.01-0.13,0.01-0.2,0.01c-0.32,0.03-0.63,0.06-0.92,0.1
			c0.45,0.77,1.1,2.19,1.1,4.05c0,2.84,0.36,4.24,3.1,4.34c3.12,0.11,3.53,0.36,3.53-2.63c0-1.86-0.37-3.56-0.71-4.74
			c-0.19-0.09-0.38-0.18-0.58-0.26c0.24,0.61,0.55,1.59,0.72,2.93c0.3,2.35,0.4,3.72-1.98,3.63c-2.12-0.08-2.37-0.54-2.77-2.64
			c-0.41-2.11,0.08-3.37,0.08-4.41c0-0.39,0.04-0.92,0.09-1.43c0.04-0.44,0.5-0.68,0.89-0.49c1.86,0.93,4.34,1.06,5.25,0.3
			c0.18-0.15,0.36-0.35,0.53-0.57c-0.7,0.69-2.29,0.61-5.06-0.55c-2.78-1.16-1.1-2.2-0.76-2.89c0.34-0.7,0.45-0.9,0.18-1.27
			c-0.27-0.37-0.78,0.34-1.3,0c-0.51-0.34-0.89-1.32-0.28-1.65c0.61-0.33,1.7,1.37,1.76,1.32c0.06-0.06,0.21-0.8,0.49-1.44
			c0.28-0.64,1.11-0.08,3.83,0.36c2.71,0.44,3.53-0.75,3.32,0.41C125.09,119.55,125.15,119.04,125.18,118.61z"></path><linearGradient id="K" x1="134.446" x2="105.978" y1="143.3" y2="140.205" gradientUnits="userSpaceOnUse"><stop offset="0" stop-color="#ffdfae" class="stopColorffd1ae svgShape"></stop><stop offset="1" stop-color="#f9c678" class="stopColorf9ac78 svgShape"></stop></linearGradient><path fill="url(#K)" d="M125.93,144.7c-1.6-0.37-1.41-2.55-0.81-3.62c0.7-1.25,6.26-0.94,6.14,0.42
			c-0.05,0.62-1.28,0.32-1.43,0.31C129.69,143.38,128.15,145.22,125.93,144.7z"></path><linearGradient id="L" x1="107.87" x2="129.439" y1="143.1" y2="143.1" gradientUnits="userSpaceOnUse"><stop offset="0" stop-color="#fcbc5c" stop-opacity=".5" class="stopColorfc9f5c svgShape"></stop><stop offset="1" stop-color="#d8a353" stop-opacity=".15" class="stopColorfc9f5b svgShape"></stop></linearGradient><path fill="url(#L)" d="M125.12,141.08c-0.34,0.61-0.54,1.56-0.36,2.35c0.03,0.14-0.02,0.4-0.24,0.4
			c-0.26-0.01-0.6-0.02-0.86-0.04l0,0c-0.97-0.05-7.64,0.2-10.26,0.38c-2.65,0.19-1.79-2.15-0.85-2.32c0-0.11-0.01-0.22-0.01-0.33
			c-0.6,0.39-2.24,1.29-4.48,1.19c0.38,1.29,0.81,2.29,1.19,2.61c0.36,0.31,0.76,0.45,1.15,0.5c0.15,0.03,0.3,0.07,0.47,0.09
			c0.94,0.13,9.13-0.66,15.06-1.19c0,0,0.01,0,0.01,0c0.47,0.11,0.91,0.11,1.32,0.03c0.61-0.07,1.35-0.22,2.12-0.54
			c0.57-0.86,0.65-1.77,0.98-1.77c-0.19-0.01-0.41-0.01-0.64-0.01c-0.17,0.56-0.35,0.88-0.66,1.23c-0.82,0.92-3.19,1.2-3.55,0.09
			c-0.22-0.68,0.07-1.57,0.35-1.96c0.53-0.72,3.16-0.13,3.98,0.03c0.15,0.01,1.38,0.31,1.43-0.31
			C131.38,140.14,125.82,139.83,125.12,141.08z"></path></g><g fill="#000000" class="color000000 svgShape"><path fill="#e2e2e2" d="M91.79,132.29c0.01,0.01,0.01,0.01,0.02,0.01l-0.45-0.54c0,0,0,0,0,0l-0.01-0.01l-0.01,0
			c-0.13-0.15-0.32-0.24-0.55-0.24H73.47c-0.48,0-0.94,0.39-1.03,0.86l-1.78,9.94h0l-0.53,2.94H59.31c-0.17,0-0.31,0.18-0.31,0.35
			v0.22c0,0.17,0.13,0.27,0.31,0.27h11.14v0l0.97,0c0,0,0,0,0,0h17.31c0.48,0,0.95-0.36,1.03-0.83l2.21-12.35
			C92,132.67,91.93,132.45,91.79,132.29z M91.83,132.34l-0.02-0.02C91.81,132.32,91.82,132.33,91.83,132.34L91.83,132.34z" class="colore2e2e2 svgShape"></path><linearGradient id="M" x1="80.828" x2="80.828" y1="130.031" y2="146.246" gradientUnits="userSpaceOnUse"><stop offset="0" stop-color="#ad59d4" class="stopColorb3b3b3 svgShape"></stop><stop offset="1" stop-color="#ad59d4" stop-opacity=".5" class="stopColorb3b3b3 svgShape"></stop></linearGradient><path fill="url(#M)" d="M89.33,144.5l2.17-12.13c0.08-0.47-0.24-0.86-0.72-0.86H73.47c-0.48,0-0.94,0.39-1.03,0.86
			l-2.29,12.88h18.29C88.87,145.25,89.25,144.93,89.33,144.5z"></path><linearGradient id="N" x1="80.916" x2="80.916" y1="125.371" y2="152.873" gradientUnits="userSpaceOnUse"><stop offset="0" stop-color="#191510" class="stopColor101719 svgShape"></stop><stop offset="1" stop-color="#312437" class="stopColor243137 svgShape"></stop></linearGradient><path fill="url(#N)" d="M70.83,144.26l2.1-11.8c0.04-0.25,0.29-0.45,0.54-0.45h17.31c0.08,0,0.15,0.03,0.19,0.07
			c0.04,0.05,0.05,0.12,0.04,0.2l-2.17,12.13c-0.03,0.2-0.2,0.34-0.4,0.34H71.24C70.98,144.75,70.78,144.51,70.83,144.26z"></path><linearGradient id="O" x1="80.689" x2="59.531" y1="145.672" y2="145.672" gradientUnits="userSpaceOnUse"><stop offset="0" stop-color="#ad59d4" stop-opacity=".5" class="stopColorb3b3b3 svgShape"></stop><stop offset="1" stop-color="#ad59d4" stop-opacity="0" class="stopColorb3b3b3 svgShape"></stop></linearGradient><path fill="url(#O)" d="M77.31,145.25h-18c-0.17,0-0.31,0.18-0.31,0.35v0.22c0,0.17,0.13,0.27,0.31,0.27l18,0
			c-0.17,0-0.31-0.09-0.31-0.27v-0.22C77,145.43,77.13,145.25,77.31,145.25z"></path><path fill="#cdf9f4" d="M86.19,138.65c1.63,0,3.18-1.32,3.47-2.94h-2.94L86.19,138.65z" class="colorcdf9f6 svgShape"></path><path fill="#54efdc" d="M87.24,132.76c-1.63,0-3.18,1.32-3.47,2.94c-0.29,1.63,0.79,2.94,2.42,2.94l0.53-2.94h2.94
				C89.95,134.08,88.87,132.76,87.24,132.76z" class="color54efea svgShape"></path><polygon fill="#54efdc" points="71.65 144 81.54 144 82.6 138.1 72.7 138.1" class="color54efea svgShape"></polygon><path fill="#ffffff" d="M72.83,137.35h1.02l0.63-3.52h-1.03L72.83,137.35z M76.38,137.35h1.03l0.82-4.59H77.2L76.38,137.35z
				 M82.33,133.83l-0.63,3.52h1.03l0.63-3.52H82.33z M74.6,137.35h1.03l0.69-3.87h-1.03L74.6,137.35z M79.93,137.35h1.03l0.31-1.76
				h-1.03L79.93,137.35z M78.15,137.35h1.03l0.54-3.04H78.7L78.15,137.35z" class="colorffffff svgShape"></path><polygon fill="#17af9d" points="72.57 138.84 82.46 138.84 82.6 138.1 72.7 138.1" class="color17afa7 svgShape"></polygon><path fill="#54efdc" d="M84.64,139.4l-0.08,0.47h4.36L89,139.4H84.64z M82.29,144h5.89l0.08-0.47h-5.89L82.29,144z
				 M82.85,140.9h5.89l0.08-0.47h-5.89L82.85,140.9z M82.48,142.97h5.89l0.08-0.47h-5.89L82.48,142.97z M82.66,141.93h5.89
				l0.08-0.47h-5.89L82.66,141.93z" opacity=".5" class="color54efea svgShape"></path><polygon fill="#54efdc" points="82.73 137.35 72.83 137.35 72.85 137.24 82.75 137.24" class="color54efea svgShape"></polygon><path fill="#17af9d" d="M82.31,139.72l0.02-0.1h-2.4l0.14-0.78h-0.1l-0.14,0.78h-2.4l0.14-0.78h-0.1l-0.14,0.78
				h-2.4l0.14-0.78h-0.1l-0.14,0.78h-2.4l-0.02,0.1h2.4l-0.14,0.78h-2.4l-0.02,0.1h2.4l-0.14,0.78h-2.4l-0.02,0.1h2.4l-0.14,0.78
				h-2.4l-0.02,0.1h2.4l-0.14,0.78h-2.4l-0.02,0.1h2.4L74.04,144h0.1l0.14-0.78h2.4L76.54,144h0.1l0.14-0.78h2.4L79.04,144h0.1
				l0.14-0.78h2.4l0.02-0.1h-2.4l0.14-0.78h2.4l0.02-0.1h-2.4l0.14-0.78H82l0.02-0.1h-2.4l0.14-0.78h2.4l0.02-0.1h-2.4l0.14-0.78
				H82.31z M74.91,139.72h2.4l-0.14,0.78h-2.4L74.91,139.72z M74.75,140.59h2.4l-0.14,0.78h-2.4L74.75,140.59z M74.59,141.47h2.4
				l-0.14,0.78h-2.4L74.59,141.47z M74.3,143.12l0.14-0.78h2.4l-0.14,0.78H74.3z M79.2,143.12h-2.4l0.14-0.78h2.4L79.2,143.12z
				 M79.36,142.25h-2.4l0.14-0.78h2.4L79.36,142.25z M79.51,141.37h-2.4l0.14-0.78h2.4L79.51,141.37z M79.67,140.49h-2.4l0.14-0.78
				h2.4L79.67,140.49z" opacity=".25" class="color17afa7 svgShape"></path></g><g fill="#000000" class="color000000 svgShape"><linearGradient id="P" x1="225.772" x2="225.772" y1="175.829" y2="150.406" gradientUnits="userSpaceOnUse"><stop offset="0" stop-color="#280654" class="stopColor063354 svgShape"></stop><stop offset="1" stop-color="#14001e" class="stopColor00131e svgShape"></stop></linearGradient><path fill="url(#P)" d="M248.56,178.1l-11-73.42h-36.5l4.68,31.24l6.32,42.17l1.94,12.96c0.04,0.24,0.25,0.42,0.49,0.42h1
			c0.3,0,0.54-0.27,0.49-0.57l-1.92-12.81l-3.69-24.63h32.5l3.69,24.63l1.94,12.96c0.04,0.24,0.25,0.42,0.49,0.42h1
			c0.3,0,0.54-0.27,0.49-0.57L248.56,178.1z"></path><path fill="#e2e2e2" d="M237.2,147.31h-48.62c-0.57,0-0.97-0.46-0.88-1.02l9.63-64.27c0.13-0.9,0.99-1.64,1.9-1.64h47.16
				c1.03,0,1.75,0.83,1.59,1.85l-9.6,64.06C238.3,146.85,237.77,147.31,237.2,147.31z" class="colore2e2e2 svgShape"></path><path fill="#ffffff" d="M189.84,145.31l9.37-62.54c0.03-0.23,0.23-0.39,0.46-0.39h45.76c0.28,0,0.5,0.25,0.46,0.53l-9.35,62.4
				H189.84z" class="colorffffff svgShape"></path><polygon fill="#54efdc" points="200.62 86.75 198.23 102.69 240.92 102.69 243.31 86.75" opacity=".75" class="color54efea svgShape"></polygon><polygon fill="#2da597" points="200.98 84.38 200.62 86.75 243.31 86.75 243.67 84.38" class="color2da59c svgShape"></polygon><ellipse cx="242.3" cy="85.56" fill="#ffffff" rx=".46" ry=".39" transform="rotate(-42.856 242.294 85.56)" class="colorffffff svgShape"></ellipse><ellipse cx="237.33" cy="85.56" fill="#ffffff" opacity=".5" rx=".46" ry=".39" transform="rotate(-42.856 237.317 85.56)" class="colorffffff svgShape"></ellipse><ellipse cx="232.35" cy="85.56" fill="#ffffff" opacity=".25" rx=".46" ry=".39" transform="rotate(-42.856 232.34 85.56)" class="colorffffff svgShape"></ellipse><polygon fill="#54efdc" points="197.58 107.06 195.19 123 237.88 123 240.27 107.06" opacity=".75" class="color54efea svgShape"></polygon><polygon fill="#2da597" points="197.93 104.69 197.58 107.06 240.27 107.06 240.62 104.69" class="color2da59c svgShape"></polygon><ellipse cx="239.26" cy="105.88" fill="#ffffff" rx=".46" ry=".39" transform="rotate(-42.856 239.25 105.87)" class="colorffffff svgShape"></ellipse><ellipse cx="234.28" cy="105.88" fill="#ffffff" opacity=".5" rx=".46" ry=".39" transform="rotate(-42.856 234.273 105.87)" class="colorffffff svgShape"></ellipse><ellipse cx="229.31" cy="105.88" fill="#ffffff" opacity=".25" rx=".46" ry=".39" transform="rotate(-42.856 229.296 105.87)" class="colorffffff svgShape"></ellipse><g fill="#000000" class="color000000 svgShape"><polygon fill="#54efdc" points="194.53 127.37 192.14 143.31 234.83 143.31 237.22 127.37" opacity=".75" class="color54efea svgShape"></polygon><polygon fill="#2da597" points="194.89 125 194.53 127.37 237.22 127.37 237.58 125" class="color2da59c svgShape"></polygon><ellipse cx="236.21" cy="126.19" fill="#ffffff" rx=".46" ry=".39" transform="rotate(-42.856 236.206 126.18)" class="colorffffff svgShape"></ellipse><ellipse cx="231.24" cy="126.19" fill="#ffffff" opacity=".5" rx=".46" ry=".39" transform="rotate(-42.856 231.229 126.18)" class="colorffffff svgShape"></ellipse><ellipse cx="226.26" cy="126.19" fill="#ffffff" opacity=".25" rx=".46" ry=".39" transform="rotate(-42.856 226.252 126.18)" class="colorffffff svgShape"></ellipse><g fill="#000000" class="color000000 svgShape"><polygon fill="#8526fe" points="210.35 141.81 212.96 141.81 214.54 131.3 211.92 131.3" opacity=".5" class="color063354 svgShape"></polygon><polygon fill="#8526fe" points="206.23 141.81 208.85 141.81 209.92 134.62 207.3 134.62" opacity=".75" class="color063354 svgShape"></polygon><polygon fill="#8526fe" points="202.11 141.81 204.73 141.81 206.37 130.83 203.75 130.83" opacity=".5" class="color063354 svgShape"></polygon><polygon fill="#8526fe" points="232.06 134.37 230.94 141.81 233.56 141.81 234.67 134.37" opacity=".25" class="color063354 svgShape"></polygon><polygon fill="#8526fe" points="197.99 141.81 200.61 141.81 202.55 128.87 199.93 128.87" opacity=".25" class="color063354 svgShape"></polygon><polygon fill="#8526fe" points="226.82 141.81 229.44 141.81 230.94 131.78 228.32 131.78" opacity=".5" class="color063354 svgShape"></polygon><polygon fill="#8526fe" points="193.87 141.81 196.49 141.81 197.84 132.8 195.22 132.8" opacity=".5" class="color063354 svgShape"></polygon><polygon fill="#8526fe" points="222.7 141.81 225.32 141.81 226.2 135.93 223.58 135.93" opacity=".75" class="color063354 svgShape"></polygon><polygon fill="#8526fe" points="214.46 141.81 217.08 141.81 218.1 135.01 215.48 135.01" opacity=".25" class="color063354 svgShape"></polygon><polygon fill="#8526fe" points="218.58 141.81 221.2 141.81 222.71 131.78 220.09 131.78" opacity=".5" class="color063354 svgShape"></polygon></g></g><g fill="#000000" class="color000000 svgShape"><path fill="#8526fe" d="M203.95 90.34c-.39 0-.77.32-.82.72-.06.4.22.72.61.72.4 0 .77-.32.83-.72C204.62 90.66 204.35 90.34 203.95 90.34zM207.57 95.35c-.4 0-.77.32-.82.72-.06.4.21.72.61.72.4 0 .76-.32.82-.72C208.24 95.68 207.97 95.35 207.57 95.35zM212.96 88.52c-.39 0-.76.32-.82.72-.06.4.21.72.61.72.39 0 .77-.32.82-.72C213.63 88.84 213.36 88.52 212.96 88.52zM216.46 94.38c-.4 0-.77.32-.82.72-.06.4.21.71.61.71.4 0 .76-.32.82-.71C217.12 94.7 216.85 94.38 216.46 94.38zM220.06 99.49c-.39 0-.76.32-.82.72-.06.4.21.72.61.72.4 0 .76-.32.82-.72C220.73 99.81 220.45 99.49 220.06 99.49zM225.59 91.77c-.39 0-.76.32-.82.72-.06.4.21.72.61.72.4 0 .77-.32.82-.72C226.25 92.09 225.98 91.77 225.59 91.77zM229.03 97.91c-.39 0-.76.32-.82.72-.06.4.21.72.61.72.4 0 .77-.32.83-.72C229.7 98.23 229.43 97.91 229.03 97.91zM234.29 92.01c-.4 0-.76.32-.82.71-.06.4.21.72.61.72.4 0 .77-.32.82-.72C234.96 92.33 234.68 92.01 234.29 92.01zM238.13 95.54c-.4 0-.77.32-.83.72-.06.4.21.72.61.72.39 0 .76-.32.82-.72C238.8 95.86 238.52 95.54 238.13 95.54z" opacity=".75" class="color063354 svgShape"></path><path fill="#ffffff" d="M218.4,97.67c-0.3-1.06-0.62-2.13-1.34-2.54c-0.02,0.12-0.07,0.22-0.14,0.32
					c0.6,0.39,0.89,1.38,1.17,2.36c0.27,0.96,0.56,1.94,1.16,2.36c0.03-0.12,0.08-0.22,0.15-0.31
					C218.92,99.46,218.66,98.59,218.4,97.67z M214.97,92.32c-0.22-1.26-0.46-2.65-1.4-3.1c0,0,0,0.01,0,0.01
					c-0.02,0.11-0.06,0.22-0.13,0.31c0.77,0.42,0.99,1.66,1.2,2.87c0.19,1.08,0.38,2.18,1,2.62c0.03-0.12,0.08-0.22,0.15-0.32
					C215.32,94.32,215.15,93.34,214.97,92.32z M205.89,93.57c-0.16-1.04-0.35-2.19-1.33-2.55c0,0.01,0,0.03,0,0.04
					c-0.02,0.1-0.05,0.2-0.11,0.29c0.79,0.33,0.96,1.3,1.11,2.33c0.15,0.98,0.32,2.04,1.18,2.41c0-0.01,0-0.01,0-0.02
					c0.02-0.11,0.06-0.21,0.11-0.3C206.19,95.45,206.05,94.57,205.89,93.57z M210.05,92.58c-0.54,1.39-1.05,2.71-1.91,3.16
					c0.04,0.1,0.06,0.2,0.04,0.32c1.03-0.48,1.61-1.96,2.17-3.41c0.52-1.35,1.03-2.63,1.83-3.09c-0.04-0.1-0.06-0.21-0.04-0.33
					C211.16,89.73,210.6,91.18,210.05,92.58z M222.13,96.73c-0.49,1.22-0.99,2.48-1.56,3.03c0.06,0.09,0.09,0.2,0.1,0.32
					c0.69-0.57,1.22-1.89,1.78-3.29c0.65-1.61,1.37-3.4,2.37-3.96c-0.04-0.1-0.06-0.2-0.05-0.32C223.6,93.09,222.82,95,222.13,96.73
					z M227.37,95.52c-0.15-1.29-0.3-2.61-1.18-3.04c0,0,0,0.01,0,0.01c-0.02,0.12-0.07,0.22-0.13,0.32c0.7,0.41,0.84,1.58,0.98,2.81
					c0.15,1.27,0.3,2.58,1.17,3.02c0,0,0-0.01,0-0.01c0.02-0.12,0.07-0.22,0.13-0.32C227.64,97.9,227.51,96.74,227.37,95.52z
					 M237.4,95.99c-0.65-0.23-0.84-0.83-1.04-1.51c-0.22-0.74-0.48-1.56-1.46-1.82c0,0.02,0.01,0.05,0,0.07
					c-0.01,0.09-0.05,0.17-0.09,0.25c0.8,0.23,1.01,0.88,1.24,1.64c0.21,0.68,0.44,1.43,1.26,1.69c0-0.02-0.01-0.03,0-0.05
					C237.32,96.16,237.35,96.07,237.4,95.99z M233.47,92.7c-1.08,0.42-1.65,1.78-2.15,3c-0.47,1.13-0.93,2.2-1.71,2.59
					c0.04,0.1,0.06,0.21,0.04,0.33c0,0.01,0,0.01-0.01,0.01c0.97-0.42,1.48-1.66,1.98-2.86c0.5-1.21,0.99-2.35,1.87-2.74
					c-0.03-0.1-0.05-0.2-0.03-0.31C233.47,92.72,233.47,92.71,233.47,92.7z" class="colorffffff svgShape"></path></g><path fill="#8526fe" d="M232.58,117.02c-2.12,0-1.56-3.36-4.5-3.36c-2.94,0-3.24,6.65-6,6.65
				c-2.75,0-2.03-3.23-4.51-3.23c-2.48,0-1.39-3.23-4.52-3.23c-3.13,0-1.74-5.07-4.24-5.07c-2.37,0-3.14,7.57-6.13,7.57
				c-2.82,0-0.56-5.71-3.48-6.33c-0.28-0.06-0.6,0.17-0.64,0.47l-1.6,10.71c-0.02,0.16,0.09,0.29,0.25,0.29h39.11
				c0.16,0,0.31-0.13,0.34-0.29l1.64-10.92c0.07-0.44-0.45-0.64-0.79-0.31C235.63,111.78,234.33,117.02,232.58,117.02z" opacity=".75" class="color063354 svgShape"></path><path fill="#8526fe" d="M236.75 149.31h-47.91c-.84 0-1.48-.75-1.36-1.58l.36-2.42h50.69l-.42 2.83C238.01 148.81 237.43 149.31 236.75 149.31zM189.62 191.48h-1c-.3 0-.54-.27-.49-.57l6.24-41.6h2l-6.26 41.75C190.07 191.3 189.86 191.48 189.62 191.48zM224.07 191.48h-1c-.3 0-.54-.27-.49-.57l6.24-41.6h2l-6.26 41.75C224.52 191.3 224.31 191.48 224.07 191.48z" class="color063354 svgShape"></path></g><g fill="#000000" class="color000000 svgShape"><linearGradient id="Q" x1="178.194" x2="178.194" y1="151.573" y2="188.1" gradientUnits="userSpaceOnUse"><stop offset="0" stop-color="#1a0026" class="stopColor002621 svgShape"></stop><stop offset="1" stop-color="#430f5b" class="stopColor0f5b57 svgShape"></stop></linearGradient><path fill="url(#Q)" d="M177.65,149.31h-5.16l9.74,41.81c0.05,0.21,0.24,0.36,0.46,0.36h0.73c0.29,0,0.51-0.26,0.46-0.54
			L177.65,149.31z"></path><linearGradient id="R" x1="256.514" x2="96.663" y1="147.703" y2="147.703" gradientUnits="userSpaceOnUse"><stop offset="0" stop-color="#1a0026" class="stopColor002621 svgShape"></stop><stop offset="1" stop-color="#430f5b" class="stopColor0f5b57 svgShape"></stop></linearGradient><path fill="url(#R)" d="M183.9,147.93c0,0.76-0.62,1.38-1.38,1.38H50.18c-0.76,0-1.38-0.62-1.38-1.38v-0.46
				c0-0.76,0.62-1.38,1.38-1.38h132.34c0.76,0,1.38,0.62,1.38,1.38V147.93z"></path><path fill="#430f5b" d="M90.36,147.93c0,0.76-0.62,1.38-1.38,1.38H50.18c-0.76,0-1.38-0.62-1.38-1.38v-0.46
				c0-0.76,0.62-1.38,1.38-1.38h38.81c0.76,0,1.38,0.62,1.38,1.38V147.93z" class="color0f5b57 svgShape"></path><path fill="#29003c" d="M90.36,147.93c0,0.76-0.62,1.38-1.38,1.38H50.18c-0.76,0-1.38-0.62-1.38-1.38v-0.46
				c0-0.76,0.62-1.38,1.38-1.38h38.81c0.76,0,1.38,0.62,1.38,1.38V147.93z" class="color003c37 svgShape"></path><linearGradient id="S" x1="69.577" x2="69.577" y1="151.27" y2="190.405" gradientUnits="userSpaceOnUse"><stop offset="0" stop-color="#1a0026" class="stopColor002621 svgShape"></stop><stop offset="1" stop-color="#430f5b" class="stopColor0f5b57 svgShape"></stop></linearGradient><path fill="url(#S)" d="M48.72,190.94c-0.04,0.28,0.18,0.54,0.47,0.54h0.73c0.22,0,0.41-0.15,0.46-0.36l9.74-41.81h-5.16
				L48.72,190.94z M84.19,149.31h-5.16l9.74,41.81c0.05,0.21,0.24,0.36,0.46,0.36h0.73c0.29,0,0.51-0.26,0.47-0.54L84.19,149.31z"></path></g><g fill="#000000" class="color000000 svgShape"><path fill="#e2e2e2" d="M135.23,145.27c-0.08,0.47,0.24,0.83,0.72,0.83h17.31c0.48,0,0.95-0.36,1.03-0.83l2.21-12.35
			c0.08-0.47-0.24-0.86-0.72-0.86h-17.31c-0.48,0-0.94,0.39-1.03,0.86L135.23,145.27z" class="colore2e2e2 svgShape"></path><path fill="#e2e2e2" d="M156.37,132.34l-0.02-0.02C156.36,132.32,156.36,132.33,156.37,132.34L156.37,132.34z M123.54,145.6v0.22
			c0,0.17,0.13,0.27,0.31,0.27h11.14v0l0.97,0c-0.48,0-0.81-0.36-0.72-0.83l2.21-12.35c0.08-0.47,0.55-0.86,1.03-0.86h17.31
			c0.24,0,0.44,0.1,0.57,0.25l-0.45-0.54c0,0,0,0,0,0l-0.01-0.01l-0.01,0c-0.13-0.15-0.32-0.24-0.55-0.24h-17.31
			c-0.48,0-0.94,0.39-1.03,0.86l-1.78,9.94h0l-0.53,2.94h-10.83C123.67,145.25,123.54,145.43,123.54,145.6z" class="colore2e2e2 svgShape"></path><linearGradient id="T" x1="237.865" x2="237.865" y1="147.28" y2="132.764" gradientTransform="matrix(-1 0 0 1 383.733 0)" gradientUnits="userSpaceOnUse"><stop offset="0" stop-color="#cccccc" class="stopColorcccccc svgShape"></stop><stop offset="1" stop-color="#cccccc" stop-opacity=".5" class="stopColorcccccc svgShape"></stop></linearGradient><path fill="url(#T)" d="M135.23,145.27c-0.08,0.47,0.24,0.83,0.72,0.83h17.31c0.48,0,0.95-0.36,1.03-0.83l2.21-12.35
			c0.08-0.47-0.24-0.86-0.72-0.86h-17.31c-0.48,0-0.94,0.39-1.03,0.86L135.23,145.27z"></path><path fill="#ffffff" d="M143.36,139.07c-0.24,1.39,0.69,2.51,2.08,2.51c1.38,0,2.7-1.12,2.94-2.51c0.24-1.38-0.69-2.51-2.08-2.51
				C144.91,136.57,143.6,137.69,143.36,139.07z" class="colorffffff svgShape"></path><linearGradient id="U" x1="237.646" x2="237.646" y1="142.959" y2="136.927" gradientTransform="matrix(-1 0 0 1 383.733 0)" gradientUnits="userSpaceOnUse"><stop offset="0" stop-color="#cccccc" class="stopColorcccccc svgShape"></stop><stop offset="1" stop-color="#cccccc" stop-opacity=".5" class="stopColorcccccc svgShape"></stop></linearGradient><path fill="url(#U)" d="M145.09,141.24c1.38,0,2.7-1.12,2.94-2.51c0.12-0.67-0.05-1.28-0.4-1.73
			c0.59,0.45,0.9,1.21,0.75,2.08c-0.24,1.39-1.55,2.51-2.94,2.51c-0.71,0-1.3-0.3-1.67-0.77
			C144.12,141.08,144.57,141.24,145.09,141.24z" opacity=".25"></path></g><g fill="#000000" class="color000000 svgShape"><linearGradient id="V" x1="64.409" x2="48.627" y1="192.029" y2="194.659" gradientTransform="rotate(5.438 580.326 140.062)" gradientUnits="userSpaceOnUse"><stop offset="0" stop-color="#ffdfae" class="stopColorffd1ae svgShape"></stop><stop offset="1" stop-color="#f9c678" class="stopColorf9ac78 svgShape"></stop></linearGradient><path fill="url(#V)" d="M45.09,141.51c-2.12,0.01-2.83,1.13-2.39,2.73c0.16,0.59,0.8,0.89,1.63,1.09
				c0.95,0.22,6.45,0.2,12.43,0.23c0.68,0,1.17-0.4,1.25-0.94c0.08-0.47-0.29-1.16-0.9-1.3C50.35,141.76,48.72,141.49,45.09,141.51z
				"></path><linearGradient id="W" x1="62.691" x2="43.733" y1="143.65" y2="146.81" gradientUnits="userSpaceOnUse"><stop offset="0" stop-color="#ffdfae" class="stopColorffd1ae svgShape"></stop><stop offset="1" stop-color="#f9c678" class="stopColorf9ac78 svgShape"></stop></linearGradient><path fill="url(#W)" d="M59.91,145.04c0.6-0.25,1.76-0.76,1.74-1.27c-0.04-0.8-1.42-0.36-2.94-0.57
					c-0.98-0.14-2.44,2.43-1.58,2.43C57.81,145.63,58.85,145.48,59.91,145.04z"></path><linearGradient id="X" x1="62.512" x2="43.554" y1="142.577" y2="145.737" gradientUnits="userSpaceOnUse"><stop offset="0" stop-color="#ffdfae" class="stopColorffd1ae svgShape"></stop><stop offset="1" stop-color="#f9c678" class="stopColorf9ac78 svgShape"></stop></linearGradient><path fill="url(#X)" d="M56.48,145.56c-1.6-0.37-1.41-2.55-0.81-3.62c0.7-1.25,6.26-0.94,6.14,0.42
					c-0.05,0.62-1.28,0.32-1.43,0.31C60.23,144.24,58.7,146.07,56.48,145.56z"></path><linearGradient id="Y" x1="64.409" x2="48.627" y1="192.029" y2="194.659" gradientTransform="rotate(5.438 580.326 140.062)" gradientUnits="userSpaceOnUse"><stop offset="0" stop-color="#ffdfae" class="stopColorffd1ae svgShape"></stop><stop offset="1" stop-color="#f9c678" class="stopColorf9ac78 svgShape"></stop></linearGradient><path fill="url(#Y)" d="M45.09,141.51c-2.12,0.01-2.83,1.13-2.39,2.73c0.16,0.59,0.8,0.89,1.63,1.09
					c0.95,0.22,6.45,0.2,12.43,0.23c0.68,0,1.17-0.4,1.25-0.94c0.08-0.47-0.29-1.16-0.9-1.3C50.35,141.76,48.72,141.49,45.09,141.51
					z"></path><linearGradient id="Z" x1="62.691" x2="43.733" y1="143.65" y2="146.81" gradientUnits="userSpaceOnUse"><stop offset="0" stop-color="#ffdfae" class="stopColorffd1ae svgShape"></stop><stop offset="1" stop-color="#f9c678" class="stopColorf9ac78 svgShape"></stop></linearGradient><path fill="url(#Z)" d="M59.91,145.04c0.6-0.25,1.76-0.76,1.74-1.27c-0.04-0.8-1.42-0.36-2.94-0.57
						c-0.98-0.14-2.44,2.43-1.58,2.43C57.81,145.63,58.85,145.48,59.91,145.04z"></path><linearGradient id="aa" x1="62.512" x2="43.554" y1="142.577" y2="145.737" gradientUnits="userSpaceOnUse"><stop offset="0" stop-color="#ffdfae" class="stopColorffd1ae svgShape"></stop><stop offset="1" stop-color="#f9c678" class="stopColorf9ac78 svgShape"></stop></linearGradient><path fill="url(#aa)" d="M56.48,145.56c-1.6-0.37-1.41-2.55-0.81-3.62c0.7-1.25,6.26-0.94,6.14,0.42
						c-0.05,0.62-1.28,0.32-1.43,0.31C60.23,144.24,58.7,146.07,56.48,145.56z"></path><linearGradient id="ab" x1="39.867" x2="63.278" y1="143.394" y2="143.394" gradientUnits="userSpaceOnUse"><stop offset="0" stop-color="#fcbc5c" stop-opacity=".5" class="stopColorfc9f5c svgShape"></stop><stop offset="1" stop-color="#d8a353" stop-opacity=".15" class="stopColorfc9f5b svgShape"></stop></linearGradient><path fill="url(#ab)" d="M61.46,141.78c0.14,0.12,0.01,0.21-0.54,0.14c-0.64-0.09-2.13-0.11-2.62-0.09
				c-0.49,0.02-0.75-0.66-0.19-0.68c-1.14,0.04-2.17,0.29-2.44,0.78c-0.15,0.27-0.28,0.62-0.36,0.98c-5.28-1.2-6.94-1.43-10.22-1.4
				c-2.12,0.01-2.83,1.13-2.39,2.73c0.16,0.59,0.8,0.89,1.63,1.09c0.94,0.22,6.32,0.2,12.22,0.23c0.18,0.03,0.36,0.05,0.54,0.05
				c0.02,0,0.03,0.01,0.04,0.01c0.01,0,0.02,0,0.03,0c0.11,0,0.22-0.01,0.32-0.02c0.66-0.04,1.53-0.2,2.43-0.57
				c0.59-0.25,1.76-0.76,1.74-1.27c-0.02-0.51-0.59-0.52-1.39-0.51c0.06-0.2,0.1-0.41,0.12-0.61c0.15,0.01,1.38,0.31,1.43-0.31
				C61.83,142.13,61.69,141.94,61.46,141.78z"></path><linearGradient id="ac" x1="67.499" x2="67.778" y1="141.089" y2="142.972" gradientUnits="userSpaceOnUse"><stop offset="0" stop-color="#ffdfae" class="stopColorffd1ae svgShape"></stop><stop offset="1" stop-color="#f9c678" class="stopColorf9ac78 svgShape"></stop></linearGradient><path fill="url(#ac)" d="M66.49,143.34c-0.12-0.63-0.12-1.91,0.35-2.12c0.73-0.33,0.96,1.1,1.84,2.36
			c0.57,0.81,1.17,1.75,0.32,1.65C67.77,145.09,66.73,144.6,66.49,143.34z"></path><linearGradient id="ad" x1="67.499" x2="67.778" y1="141.089" y2="142.972" gradientUnits="userSpaceOnUse"><stop offset="0" stop-color="#ffdfae" class="stopColorffd1ae svgShape"></stop><stop offset="1" stop-color="#f9c678" class="stopColorf9ac78 svgShape"></stop></linearGradient><path fill="url(#ad)" d="M66.49,143.34c-0.12-0.63-0.12-1.91,0.35-2.12c0.73-0.33,0.96,1.1,1.84,2.36
			c0.57,0.81,1.17,1.75,0.32,1.65C67.77,145.09,66.73,144.6,66.49,143.34z"></path><linearGradient id="ae" x1="74.573" x2="55.615" y1="142.172" y2="145.332" gradientUnits="userSpaceOnUse"><stop offset="0" stop-color="#ffdfae" class="stopColorffd1ae svgShape"></stop><stop offset="1" stop-color="#f9c678" class="stopColorf9ac78 svgShape"></stop></linearGradient><path fill="url(#ae)" d="M68.54,145.15c-1.6-0.37-1.41-2.55-0.81-3.62c0.7-1.25,6.26-0.94,6.14,0.42
			c-0.05,0.62-1.28,0.32-1.43,0.31C72.3,143.83,70.76,145.67,68.54,145.15z"></path><path fill="#13011c" d="M70.35,185.68c0.01,0.03,0.02,0.06,0.04,0.08c0.01,0.02,0.02,0.04,0.03,0.06
				c0.07,0.13,0.14,0.21,0.14,0.21c0.5-0.5,1.37-0.79,2.42,0.07s2.39,1.63,3.25,1.84c0.54,0.13,0.7,0.11,0.77,0.06
				c0.02-0.02,0.04-0.05,0.04-0.06c-0.64-0.24-1.34-0.56-2.1-1.03c-2.12-1.32-3.18-2.35-3.88-2.35c-0.7,0-0.9,0.61-0.75,1.02
				C70.32,185.62,70.33,185.65,70.35,185.68z" class="color01121c svgShape"></path><path fill="none" stroke="#3d005a" stroke-miterlimit="10" stroke-width=".115" d="M70.56,186.03" class="colorStroke00425a svgStroke"></path><path fill="#13011c" d="M80.39,189.71c-1.47,0.55-6.03,0.44-8.73,0.09c-2.62-0.34-5.72-0.47-5.93-0.48c0,0.5,0,0.92,0,1.17
				c0,0.56,0.14,0.99,1.38,0.99c1.24,0,7.25,0,9.86-0.01c2.61,0,3.33,0.11,3.39-0.66C80.39,190.44,80.45,190.06,80.39,189.71z" class="color01121c svgShape"></path><path fill="#bc7100" d="M65.75,188.29L65.75,188.29c0-0.04,0-0.07,0-0.11C65.76,188.22,65.75,188.25,65.75,188.29z" class="colorbc5000 svgShape"></path><linearGradient id="af" x1="-1031.809" x2="-1043.197" y1="212.478" y2="224.229" gradientTransform="rotate(-15.498 -593.218 -3851.046)" gradientUnits="userSpaceOnUse"><stop offset="0" stop-color="#ffdfae" class="stopColorffd1ae svgShape"></stop><stop offset="1" stop-color="#f9c678" class="stopColorf9ac78 svgShape"></stop></linearGradient><path fill="url(#af)" d="M68.62,186.81c1.19,0.1,1.94-0.77,1.94-0.77c0.14-0.12,0.21-0.14,0.28-0.23l-0.18-5.13l-4.08,1.7
				l0.38,3.01C66.96,185.39,67.75,186.73,68.62,186.81z"></path><path fill="#e2e2e2" d="M79.69,188.8c-0.59-0.27-1.5-0.43-2.65-0.86c-0.03,0.08-0.07,0.18-0.81,0c-0.87-0.21-2.21-0.98-3.25-1.84
				c-1.05-0.86-1.92-0.57-2.42-0.07c0,0-0.52,0.54-1.41,0.41c-0.79-0.11-0.93-1.22-2.2-1.26c-0.6-0.02-1.07,1.1-1.15,2.16
				c-0.05,0.67-0.07,1.38-0.07,1.97c0.21,0.01,3.31,0.14,5.93,0.48c2.7,0.35,7.26,0.46,8.73-0.09
				C80.34,189.34,80.16,189.02,79.69,188.8z" class="colore2e2e2 svgShape"></path><path fill="#54efdc" d="M73.9,186.78c0.12,0.08,0.25,0.16,0.37,0.23c0.03-0.19,0.05-0.36,0.04-0.51
				c-0.15-0.1-0.29-0.19-0.42-0.28C73.92,186.37,73.92,186.56,73.9,186.78z M75.88,187.43c0.02,0.09,0.03,0.24,0.03,0.4
				c0.11,0.04,0.23,0.09,0.32,0.11c0.03,0.01,0.05,0.01,0.08,0.02c0-0.11,0.01-0.24,0-0.33C76.17,187.57,76.03,187.5,75.88,187.43z
				 M74.85,186.85c0.03,0.12,0.03,0.31,0.02,0.51c0.13,0.07,0.26,0.13,0.39,0.2c0.02-0.17,0.03-0.33,0.02-0.47
				c-0.11-0.07-0.22-0.11-0.34-0.19C74.91,186.89,74.88,186.87,74.85,186.85z M72.99,186.11c0.12,0.1,0.25,0.18,0.37,0.28
				c0.02-0.19,0.03-0.36,0.02-0.51c-0.15-0.1-0.3-0.21-0.43-0.3C72.98,185.69,73,185.88,72.99,186.11z M71.93,185.58
				c0.12,0.02,0.25,0.06,0.38,0.12c0.03-0.2,0.04-0.39,0.02-0.55c-0.16-0.1-0.3-0.2-0.43-0.27
				C71.94,185.03,71.97,185.27,71.93,185.58z" class="color54efea svgShape"></path><path fill="#bcbcbc" d="M79.69,188.8c-0.59-0.27-1.5-0.43-2.65-0.86c-0.01,0.01-0.02,0.04-0.04,0.06
				c-0.06,0.05-0.22,0.07-0.77-0.06c-0.22-0.05-0.47-0.14-0.74-0.26c0,0,0,0,0,0c-0.09,0.75,1.01,1.12,1.76,1.21
				C79.31,189.15,79.9,188.9,79.69,188.8z" class="colorbcbcbc svgShape"></path><path fill="#13011c" d="M51.64,185.68c0.01,0.03,0.02,0.06,0.04,0.08c0.01,0.02,0.02,0.04,0.03,0.06
				c0.07,0.13,0.14,0.21,0.14,0.21c0.5-0.5,1.37-0.79,2.42,0.07s2.39,1.63,3.25,1.84c0.54,0.13,0.7,0.11,0.77,0.06
				c0.02-0.02,0.04-0.05,0.04-0.06c-0.64-0.24-1.34-0.56-2.1-1.03c-2.12-1.32-3.18-2.35-3.88-2.35c-0.7,0-0.9,0.61-0.75,1.02
				C51.61,185.62,51.62,185.65,51.64,185.68z" class="color01121c svgShape"></path><path fill="none" stroke="#3d005a" stroke-miterlimit="10" stroke-width=".115" d="M51.85,186.03" class="colorStroke00425a svgStroke"></path><path fill="#13011c" d="M61.68,189.71c-1.47,0.55-6.03,0.44-8.73,0.09c-2.62-0.34-5.72-0.47-5.93-0.48c0,0.5,0,0.92,0,1.17
				c0,0.56,0.14,0.99,1.38,0.99c1.24,0,7.25,0,9.86-0.01c2.61,0,3.33,0.11,3.39-0.66C61.68,190.44,61.74,190.06,61.68,189.71z" class="color01121c svgShape"></path><path fill="#bc7100" d="M47.04,188.29L47.04,188.29c0-0.04,0-0.07,0-0.11C47.05,188.22,47.05,188.25,47.04,188.29z" class="colorbc5000 svgShape"></path><linearGradient id="ag" x1="-1064.576" x2="-1076.3" y1="419.209" y2="431.305" gradientTransform="rotate(7.432 1313.173 8897.164)" gradientUnits="userSpaceOnUse"><stop offset="0" stop-color="#ffdfae" class="stopColorffd1ae svgShape"></stop><stop offset="1" stop-color="#f9c678" class="stopColorf9ac78 svgShape"></stop></linearGradient><path fill="url(#ag)" d="M49.4,186.76c1.06,0.56,2.09,0.05,2.09,0.05c0.17-0.06,0.25-0.05,0.35-0.1l1.83-4.8l-4.42-0.02
				l-1.01,3.84C48.23,185.72,48.63,186.35,49.4,186.76z"></path><path fill="#e2e2e2" d="M60.98,188.8c-0.59-0.27-1.5-0.43-2.65-0.86c-0.03,0.08-0.07,0.18-0.81,0c-0.87-0.21-2.21-0.98-3.25-1.84
				c-1.05-0.86-1.92-0.57-2.42-0.07c0,0-0.52,0.54-1.41,0.41c-0.79-0.11-0.93-1.22-2.2-1.26c-0.6-0.02-1.07,1.1-1.15,2.16
				c-0.05,0.67-0.07,1.38-0.07,1.97c0.21,0.01,3.31,0.14,5.93,0.48c2.7,0.35,7.26,0.46,8.73-0.09
				C61.63,189.34,61.45,189.02,60.98,188.8z" class="colore2e2e2 svgShape"></path><path fill="#54efdc" d="M55.19,186.78c0.12,0.08,0.25,0.16,0.37,0.23c0.03-0.19,0.05-0.36,0.04-0.51
				c-0.15-0.1-0.29-0.19-0.42-0.28C55.21,186.37,55.21,186.56,55.19,186.78z M57.17,187.43c0.02,0.09,0.03,0.24,0.03,0.4
				c0.11,0.04,0.23,0.09,0.32,0.11c0.03,0.01,0.05,0.01,0.08,0.02c0-0.11,0.01-0.24,0-0.33C57.46,187.57,57.32,187.5,57.17,187.43z
				 M56.14,186.85c0.03,0.12,0.03,0.31,0.02,0.51c0.13,0.07,0.26,0.13,0.39,0.2c0.02-0.17,0.03-0.33,0.02-0.47
				c-0.11-0.07-0.22-0.11-0.34-0.19C56.2,186.89,56.17,186.87,56.14,186.85z M54.28,186.11c0.12,0.1,0.25,0.18,0.37,0.28
				c0.02-0.19,0.03-0.36,0.02-0.51c-0.15-0.1-0.3-0.21-0.43-0.3C54.27,185.69,54.29,185.88,54.28,186.11z M53.22,185.58
				c0.12,0.02,0.25,0.06,0.38,0.12c0.03-0.2,0.04-0.39,0.02-0.55c-0.16-0.1-0.3-0.2-0.43-0.27
				C53.23,185.03,53.26,185.27,53.22,185.58z" class="color54efea svgShape"></path><path fill="#bcbcbc" d="M60.98,188.8c-0.59-0.27-1.5-0.43-2.65-0.86c-0.01,0.01-0.02,0.04-0.04,0.06
				c-0.06,0.05-0.22,0.07-0.77-0.06c-0.22-0.05-0.47-0.14-0.74-0.26c0,0,0,0,0,0c-0.09,0.75,1.01,1.12,1.76,1.21
				C60.6,189.15,61.19,188.9,60.98,188.8z" class="colorbcbcbc svgShape"></path><g fill="#000000" class="color000000 svgShape"><linearGradient id="ah" x1="1771.606" x2="1758.231" y1="629.592" y2="634.687" gradientTransform="scale(-1 1) rotate(-44.088 265.044 2628.302)" gradientUnits="userSpaceOnUse"><stop offset="0" stop-color="#191510" class="stopColor101719 svgShape"></stop><stop offset="1" stop-color="#312437" class="stopColor243137 svgShape"></stop></linearGradient><path fill="url(#ah)" d="M63.04,160.82c1.18-2.82-5.9-8.9-8.67-1.85c-0.21,0.54-5.58,23.65-5.58,23.65l4.24,1.67
				C53.03,184.29,62.22,162.76,63.04,160.82z"></path></g><linearGradient id="ai" x1="1941.655" x2="1930.853" y1="158.273" y2="162.387" gradientTransform="matrix(-1 0 0 1 1987.223 0)" gradientUnits="userSpaceOnUse"><stop offset="0" stop-color="#191510" class="stopColor101719 svgShape"></stop><stop offset="1" stop-color="#312437" class="stopColor243137 svgShape"></stop></linearGradient><path fill="url(#ai)" d="M61.98,155.92c-2-2.16-15-2.02-15-2.02s-5.5,0-12.66,0c-1.12,9.82,1.71,10.69,9.26,10.88
			c7.55,0.19,12.65,0.03,13.22,0.13C62.51,165.25,64.99,159.18,61.98,155.92z"></path><g fill="#000000" class="color000000 svgShape"><linearGradient id="aj" x1="1935.264" x2="1924.462" y1="158.273" y2="162.387" gradientTransform="matrix(-1 0 0 1 1987.223 0)" gradientUnits="userSpaceOnUse"><stop offset="0" stop-color="#191510" class="stopColor101719 svgShape"></stop><stop offset="1" stop-color="#312437" class="stopColor243137 svgShape"></stop></linearGradient><path fill="url(#aj)" d="M68.37,155.92c-2-2.16-15-2.02-15-2.02s-5.5,0-12.66,0c-1.12,9.82,1.71,10.69,9.26,10.88
				c7.55,0.19,12.65,0.03,13.22,0.13C68.9,165.25,71.38,159.18,68.37,155.92z"></path><linearGradient id="ak" x1="1915.853" x2="1902.477" y1="363.979" y2="369.075" gradientTransform="scale(-1 1) rotate(-17.728 255.342 6544.026)" gradientUnits="userSpaceOnUse"><stop offset="0" stop-color="#191510" class="stopColor101719 svgShape"></stop><stop offset="1" stop-color="#312437" class="stopColor243137 svgShape"></stop></linearGradient><path fill="url(#ak)" d="M69.52,157.73c-0.19-3.05-9.24-5.36-8.59,2.19c0.05,0.58,5.5,23.67,5.5,23.67
				s4.45-0.11,4.54-0.39C71.06,182.94,69.65,159.83,69.52,157.73z"></path></g><linearGradient id="al" x1="1942.854" x2="1942.854" y1="124.445" y2="138.715" gradientTransform="matrix(-1 0 0 1 1987.223 0)" gradientUnits="userSpaceOnUse"><stop offset="0" stop-color="#e78b00" class="stopColore72100 svgShape"></stop><stop offset="1" stop-color="#e98d01" class="stopColore93701 svgShape"></stop></linearGradient><path fill="url(#al)" d="M37.71,126.36c-5.88,5.15-3.61,28.44-3.61,28.44s4.68,1.77,17.1,1.17
			c2.61-0.13,3.87-2.05,3.87-2.05s-0.96-6.28-1.39-10.75c-0.5-5.31,1.63-13.68-0.08-15.16c-1.67-1.44-4.79-2.68-5.94-2.76
			C44.54,125.04,38.99,125.23,37.71,126.36z"></path><linearGradient id="am" x1="44.368" x2="44.368" y1="127.127" y2="148.247" gradientUnits="userSpaceOnUse"><stop offset="0" stop-color="#8e5703" stop-opacity=".5" class="stopColor8e0303 svgShape"></stop><stop offset="1" stop-color="#8e5703" class="stopColor8e0303 svgShape"></stop></linearGradient><path fill="url(#am)" d="M54.22,147.87c-2.32,0.03-4.91-0.14-5.14-1.19c-1.79-11.62,2.99-15.78,5.13-17.03
			c-0.09-0.76-0.27-1.34-0.61-1.64c-1.67-1.44-4.79-2.68-5.94-2.76c-3.13-0.22-8.68-0.02-9.96,1.1c-5.88,5.15-3.61,28.44-3.61,28.44
			s1.84,0.69,6.26,1.06l0,0c0.39,0.03,0.81,0.06,1.24,0.09c0.09,0.01,0.18,0.01,0.27,0.02c0.37,0.02,0.76,0.04,1.17,0.06
			c0.11,0,0.23,0.01,0.34,0.01c1.02,0.04,2.13,0.05,3.34,0.05c0.11,0,0.22,0,0.33,0c0.51,0,1.04-0.01,1.58-0.03
			c0.14,0,0.28-0.01,0.42-0.01c0.69-0.02,1.39-0.04,2.14-0.08c2.61-0.13,3.87-2.05,3.87-2.05S54.63,151.08,54.22,147.87z" opacity=".5"></path><linearGradient id="an" x1="47.533" x2="47.533" y1="111.965" y2="128.883" gradientUnits="userSpaceOnUse"><stop offset="0" stop-color="#ffdfae" class="stopColorffd1ae svgShape"></stop><stop offset="1" stop-color="#f9c678" class="stopColorf9ac78 svgShape"></stop></linearGradient><path fill="url(#an)" d="M53.16,113.98c0,0-0.87,8.2-3.26,8.83c-1.15,0.31-2.01-0.16-2.36-0.2
			c-0.04,0.32-0.36,2.83-0.36,2.83s-4.84,0.98-5.15,0.3c-0.3-0.69-0.05-1.84,0.68-5.99c0.27-1.56,1.02-10.96,5.11-10.22
			C51.89,110.26,52.86,112.63,53.16,113.98z"></path><linearGradient id="ao" x1="47.533" x2="47.533" y1="127.978" y2="110.564" gradientUnits="userSpaceOnUse"><stop offset="0" stop-color="#fcbc5c" stop-opacity=".5" class="stopColorfc9f5c svgShape"></stop><stop offset="1" stop-color="#d8a353" stop-opacity=".15" class="stopColorfc9f5b svgShape"></stop></linearGradient><path fill="url(#ao)" d="M53.16,113.98c-0.3-1.34-1.27-3.71-5.34-4.45c-4.08-0.74-4.83,8.66-5.11,10.22
			c-0.73,4.15-0.98,5.29-0.68,5.99c0.31,0.68,5.15-0.3,5.15-0.3s0.11-0.9,0.21-1.69c-0.71,0.12-1.04,0.04-0.92-0.67
			c0.14-0.78,0.37-0.67,1.06-0.47c0.35,0.04,1.21,0.51,2.36,0.2c0.44-0.12,0.82-0.49,1.16-1.01c-0.5,0.71-1.72,0.5-3.06-0.02
			c-1.35-0.52-0.04-1.66,0.34-2.37c0.38-0.71-0.23-1.15-0.97-1.32c-0.74-0.16-0.81-1.07-0.11-1.33c0.7-0.26,1.29,0.92,1.83,0.59
			c0.54-0.33,0.6-1.05,0.78-1.33c0.17-0.28,0.29-0.17,1.25-0.17c0.95,0,1.87-0.64,1.66,0.62C53.04,115.07,53.16,113.98,53.16,113.98
			z"></path><linearGradient id="ap" x1="1937.297" x2="1932.831" y1="176.989" y2="187.942" gradientTransform="scale(-1 1) rotate(-7.071 412.965 16199.443)" gradientUnits="userSpaceOnUse"><stop offset="0" stop-color="#e78b00" class="stopColore72100 svgShape"></stop><stop offset="1" stop-color="#e98d01" class="stopColore93701 svgShape"></stop></linearGradient><path fill="url(#ap)" d="M52.42,114.74c-1.22,0.39-2.6,0.27-2.6,0.27s-0.72,1.55-0.95,1.73c-0.23,0.18-1.37-0.88-2.1-0.26
			c-1.07,0.91,0.35,2.27,0.67,2.49c0.32,0.21-1.15,2.97-3.39,3.02c-3.29,0.08-4.25-1.48-4.37-4.71c-0.13-3.55,0.9-7.15,3.77-8.41
			c2.87-1.26,5,1.51,9-0.41C54.19,107.64,58.34,112.86,52.42,114.74z"></path><linearGradient id="aq" x1="1943.094" x2="1941.973" y1="124.365" y2="127.115" gradientTransform="matrix(-1 0 0 1 1987.223 0)" gradientUnits="userSpaceOnUse"><stop offset="0" stop-color="#191510" class="stopColor101719 svgShape"></stop><stop offset="1" stop-color="#312437" class="stopColor243137 svgShape"></stop></linearGradient><path fill="url(#aq)" d="M47.67,125.25c0,0,0.11-0.87-0.34-1c-0.32,0.22-2.01,0.7-3.62,0.58c-1.13-0.08-1.52-0.3-1.76-0.45
			c-0.26,0.08-0.61,0.79-0.69,1.26c0.24,0.47,2.08,0.76,3.92,0.58C46.83,126.06,47.41,125.73,47.67,125.25z"></path><g fill="#000000" class="color000000 svgShape"><linearGradient id="ar" x1="23.707" x2="23.707" y1="191.484" y2="159.769" gradientUnits="userSpaceOnUse"><stop offset=".002" stop-color="#00b19c" class="stopColor00b1a5 svgShape"></stop><stop offset="1" stop-color="#54efdc" class="stopColor54efea svgShape"></stop></linearGradient><path fill="url(#ar)" d="M32.48,160.51l0.86,30.55c0.01,0.24,0.2,0.42,0.44,0.42h0.64c0.24,0,0.43-0.19,0.44-0.42
				l0.83-31.29L32.48,160.51z M12.17,191.48h0.79c0.18,0,0.34-0.11,0.4-0.27l10.67-25.92l-2.18-3.55l-10.09,29.17
				C11.66,191.19,11.87,191.48,12.17,191.48z"></path><path fill="#54efdc" d="M40.9,136.88v-0.91c0-8.25-6.76-15.19-15.01-15c-9.01,0.2-16.26,7.57-16.26,16.63v7.34
				c0,14.31,11.6,25.91,25.91,25.91h4.13h1.23h4.61c8.61,0,15.6-6.98,15.6-15.6v-3c0-1.9-1.54-3.44-3.44-3.44h-4.83
				C46.24,148.81,40.9,143.47,40.9,136.88z" class="color54efea svgShape"></path><linearGradient id="as" x1="49.002" x2="49.002" y1="191.874" y2="163.412" gradientUnits="userSpaceOnUse"><stop offset=".002" stop-color="#00b19c" class="stopColor00b1a5 svgShape"></stop><stop offset="1" stop-color="#54efdc" class="stopColor54efea svgShape"></stop></linearGradient><path fill="url(#as)" d="M53.29,160.29L50,160.39l8.94,30.78c0.05,0.19,0.22,0.31,0.42,0.31h0.61
				c0.28,0,0.49-0.26,0.42-0.53L53.29,160.29z M37.6,162.15l1.8,28.93c0.01,0.23,0.2,0.41,0.43,0.41h0.73c0.24,0,0.44-0.2,0.44-0.44
				l-0.22-29.75L37.6,162.15z"></path></g><g fill="#000000" class="color000000 svgShape"><linearGradient id="at" x1="94.911" x2="75.953" y1="254.669" y2="257.828" gradientTransform="rotate(13.904 540.348 128.341)" gradientUnits="userSpaceOnUse"><stop offset="0" stop-color="#ffdfae" class="stopColorffd1ae svgShape"></stop><stop offset="1" stop-color="#f9c678" class="stopColorf9ac78 svgShape"></stop></linearGradient><path fill="url(#at)" d="M56.36,138.33c0,0,1.47,4.72,1.65,6.2c0.13,1.06-1.44,2.36-2.98,1.58
				c-0.81-0.41-2.37-2.97-3.4-5.65C50.84,138.41,56.03,138.05,56.36,138.33z"></path><linearGradient id="au" x1="1927.544" x2="1923.987" y1="210.806" y2="219.887" gradientTransform="scale(-1 1) rotate(-9.788 474.151 11724.031)" gradientUnits="userSpaceOnUse"><stop offset="0" stop-color="#191510" class="stopColor101719 svgShape"></stop><stop offset="1" stop-color="#312437" class="stopColor243137 svgShape"></stop></linearGradient><path fill="url(#au)" d="M54.35,129.36c1.54,5.11,2.91,10.95,2.91,10.95s-3.82,3.2-8.07,2.61
				c-0.57-2.03-1.63-5.49-1.92-7.16C46.59,131.79,52.81,124.25,54.35,129.36z"></path></g><linearGradient id="av" x1="73.623" x2="57.866" y1="130.602" y2="133.228" gradientTransform="rotate(-1.812 416.745 146.479)" gradientUnits="userSpaceOnUse"><stop offset="0" stop-color="#ffdfae" class="stopColorffd1ae svgShape"></stop><stop offset="1" stop-color="#f9c678" class="stopColorf9ac78 svgShape"></stop></linearGradient><path fill="url(#av)" d="M56.55,142.56c-2.1,0.28-2.6,1.57-1.99,3.12c0.18,0.46,0.86,0.68,1.72,0.77
			c0.97,0.1,6.42-0.62,12.36-1.35c0.67-0.08,1.1-0.55,1.12-1.09c0.02-0.48-0.43-1.11-1.05-1.17
			C61.79,142.14,60.15,142.07,56.55,142.56z"></path><linearGradient id="aw" x1="46.352" x2="75.841" y1="145.101" y2="140.983" gradientUnits="userSpaceOnUse"><stop offset="0" stop-color="#fcbc5c" stop-opacity=".5" class="stopColorfc9f5c svgShape"></stop><stop offset="1" stop-color="#d8a353" stop-opacity=".15" class="stopColorfc9f5b svgShape"></stop></linearGradient><path fill="url(#aw)" d="M73.8,141.67c-0.59-1.12-5.42-1.31-6.08-0.14c-0.03,0.05-0.09,0.18-0.09,0.17
			c0,0-0.18,0.34-0.31,0.52c-0.2,0.27-0.28,0.26-0.57,0.26c-0.29,0-0.33-0.03-0.33-0.11c0,0.08,0,0.16,0,0.24
			c0.29,0.03,0.74,0.07,0.65,0.06c0.94,0.1,0.83,0.67,0.36,0.67c0,0,0,0-0.01,0c-1.76-0.14-4.01-0.19-6.1-0.19
			c-3.32,0-4.63,0.84-4.79,0.33c-0.16-0.51-0.48-1.15,0-1.31c0.48-0.16,0.75-0.64,0.95,0.08c-0.16-0.58-0.33-1.19-0.49-1.74
			c-0.6,0.45-2.27,1.59-4.4,2.16c0.73,1.45,1.51,2.66,2.09,3.2c0.28,0.33,0.86,0.51,1.58,0.59c0.96,0.1,6.31-0.61,12.18-1.33v0
			c0.06-0.01,0.12-0.01,0.18-0.02c0.16-0.02,0.3-0.06,0.42-0.12l0.01,0c0.96-0.35,1.94-0.8,2.42-1.99c0.47-1.2,0.17-1.39,0.92-1.28
			C73.15,141.82,73.93,141.98,73.8,141.67z"></path></g><g fill="#000000" class="color000000 svgShape"><path fill="#08f4d8" d="M313.7,191.48h-60.73c-0.75,0-1.35-0.6-1.35-1.35v-29.08c0-0.75,0.6-1.35,1.35-1.35h60.73
				c0.75,0,1.35,0.6,1.35,1.35v29.08C315.05,190.88,314.45,191.48,313.7,191.48z" class="color08f4ed svgShape"></path><path fill="#07cfb7" d="M303.6,162.72h-40.54c-0.66,0-1.21,0.45-1.39,1.08c-0.79,2.85-3.06,5.09-5.93,5.83
				c-0.65,0.17-1.11,0.73-1.11,1.4v9.14c0,0.67,0.46,1.23,1.11,1.4c2.87,0.74,5.14,2.98,5.93,5.83c0.18,0.63,0.73,1.08,1.39,1.08
				h40.54c0.66,0,1.21-0.45,1.39-1.08c0.79-2.85,3.06-5.09,5.93-5.83c0.65-0.17,1.11-0.73,1.11-1.4v-9.14c0-0.67-0.46-1.23-1.11-1.4
				c-2.87-0.74-5.14-2.98-5.93-5.83C304.82,163.17,304.26,162.72,303.6,162.72z" class="color07cfc9 svgShape"></path><path fill="#059d8b" d="M287.3,179.52c-0.35,0.51-0.87,0.92-1.57,1.23c-0.39,0.17-0.83,0.28-1.31,0.36v1.86
				c0,0.13-0.1,0.23-0.23,0.23h-1.76c-0.13,0-0.23-0.1-0.23-0.23v-1.83c-0.52-0.06-1.02-0.15-1.52-0.29
				c-0.03-0.01-0.05-0.02-0.08-0.03c-0.06-0.02-0.12-0.04-0.18-0.06h0c0,0,0,0-0.09-0.03c-0.64-0.22-1.29-0.61-1.29-0.61
				c-0.16-0.1-0.23-0.32-0.15-0.5l0.57-1.27c0.08-0.17,0.28-0.23,0.44-0.14c0,0,0.6,0.37,1.16,0.57c0.07,0.03,0.14,0.05,0.22,0.08
				c0.02,0.01,0.04,0.01,0.06,0.02c0.63,0.2,1.25,0.3,1.88,0.3c0.72,0,1.25-0.11,1.59-0.32c0.34-0.21,0.51-0.5,0.51-0.85
				c0-0.26-0.1-0.47-0.3-0.65c-0.2-0.17-0.46-0.31-0.78-0.41c-0.32-0.1-0.75-0.22-1.29-0.34c-0.83-0.2-1.51-0.39-2.04-0.59
				c-0.53-0.2-0.99-0.52-1.36-0.95c-0.38-0.44-0.57-1.02-0.57-1.75c0-0.63,0.17-1.21,0.52-1.72c0.34-0.52,0.86-0.92,1.55-1.22
				c0.35-0.15,0.74-0.27,1.18-0.34v-1.81c0-0.13,0.1-0.23,0.23-0.23h1.76c0.13,0,0.23,0.1,0.23,0.23v1.74
				c0.4,0.04,0.79,0.11,1.18,0.2c0.06,0.02,0.12,0.04,0.18,0.05c0.06,0.02,0.12,0.03,0.18,0.05c0,0,0,0,0.01,0c0,0,0,0,0.09,0.03
				c0.48,0.15,0.98,0.42,0.98,0.42c0.17,0.09,0.25,0.31,0.18,0.49l-0.52,1.27c-0.07,0.18-0.27,0.25-0.44,0.16
				c0,0-0.51-0.26-0.92-0.4c-0.09-0.03-0.18-0.06-0.28-0.09c-0.51-0.14-1.01-0.22-1.52-0.22c-0.71,0-1.23,0.12-1.57,0.34
				c-0.34,0.23-0.51,0.53-0.51,0.9c0,0.37,0.2,0.65,0.59,0.84c0.39,0.18,0.98,0.36,1.79,0.54c0.83,0.2,1.51,0.4,2.04,0.59
				c0.53,0.2,0.98,0.51,1.36,0.93c0.38,0.43,0.57,1,0.57,1.73C287.82,178.44,287.65,179.01,287.3,179.52z" class="color059d98 svgShape"></path><circle cx="296.02" cy="175.59" r="3.48" fill="#ffffff" opacity=".5" class="colorffffff svgShape"></circle><circle cx="270.65" cy="175.59" r="3.48" fill="#ffffff" opacity=".5" class="colorffffff svgShape"></circle><circle cx="306.1" cy="175.59" r="1.88" fill="#ffffff" opacity=".25" class="colorffffff svgShape"></circle><circle cx="260.58" cy="175.59" r="1.88" fill="#ffffff" opacity=".25" class="colorffffff svgShape"></circle><path fill="#08f4d8" d="M251.62,190.13v-29.08c0-0.75,0.6-1.35,1.35-1.35h-0.94c-0.75,0-1.35,0.6-1.35,1.35v29.08
				c0,0.75,0.6,1.35,1.35,1.35h0.94C252.23,191.48,251.62,190.88,251.62,190.13z" class="color08f4ed svgShape"></path><linearGradient id="ax" x1="251.828" x2="251.828" y1="154.116" y2="191.164" gradientUnits="userSpaceOnUse"><stop offset=".004" stop-color="#107a6d" stop-opacity="0" class="stopColor107a75 svgShape"></stop><stop offset="1" stop-color="#107a6d" stop-opacity=".5" class="stopColor107a75 svgShape"></stop></linearGradient><path fill="url(#ax)" d="M251.62,190.13v-29.08c0-0.75,0.6-1.35,1.35-1.35h-0.94c-0.75,0-1.35,0.6-1.35,1.35v29.08
				c0,0.75,0.6,1.35,1.35,1.35h0.94C252.23,191.48,251.62,190.88,251.62,190.13z"></path><linearGradient id="ay" x1="282.868" x2="282.868" y1="160.638" y2="214.398" gradientUnits="userSpaceOnUse"><stop offset=".004" stop-color="#048676" stop-opacity="0" class="stopColor048682 svgShape"></stop><stop offset="1" stop-color="#048676" stop-opacity=".5" class="stopColor048682 svgShape"></stop></linearGradient><path fill="url(#ay)" d="M313.7,159.7h-61.67c-0.75,0-1.35,0.6-1.35,1.35v29.08c0,0.75,0.6,1.35,1.35,1.35h0.94
				c0,0,0,0,0,0h60.73c0.75,0,1.35-0.6,1.35-1.35v-29.08C315.05,160.31,314.45,159.7,313.7,159.7z"></path><g fill="#000000" class="color000000 svgShape"><path fill="#240333" d="M231.7,190.11v-26.42c0-0.76,0.62-1.38,1.38-1.38h-0.89c-0.76,0-1.38,0.62-1.38,1.38v26.42
				c0,0.76,0.62,1.38,1.38,1.38h0.89C232.32,191.48,231.7,190.87,231.7,190.11z" class="color032333 svgShape"></path><path fill="#8526fe" d="M275.6,191.48h-42.53c-0.76,0-1.38-0.62-1.38-1.38v-26.42c0-0.76,0.62-1.38,1.38-1.38h42.53
				c0.76,0,1.38,0.62,1.38,1.38v26.42C276.98,190.87,276.36,191.48,275.6,191.48z" class="color063354 svgShape"></path><path fill="#ffffff" d="M233.7,189.02v-6.93c0-0.26,0.21-0.47,0.47-0.47h6.93c0.26,0,0.47,0.21,0.47,0.47v6.93
				c0,0.26-0.21,0.47-0.47,0.47h-6.93C233.91,189.48,233.7,189.27,233.7,189.02z" opacity=".5" class="colorffffff svgShape"></path><path fill="#ffffff" d="M243.57,189.02v-6.93c0-0.26,0.21-0.47,0.47-0.47h6.93c0.26,0,0.47,0.21,0.47,0.47v6.93
				c0,0.26-0.21,0.47-0.47,0.47h-6.93C243.78,189.48,243.57,189.27,243.57,189.02z" opacity=".25" class="colorffffff svgShape"></path><path fill="#1b0028" d="M266.45 189.25v-1.03c0-.13.11-.24.23-.24h8.06c.13 0 .23.11.23.24v1.03c0 .13-.11.24-.23.24h-8.06C266.55 189.48 266.45 189.38 266.45 189.25zM262.55 189.25v-1.03c0-.13.11-.24.23-.24h2.43c.13 0 .24.11.24.24v1.03c0 .13-.11.24-.24.24h-2.43C262.66 189.48 262.55 189.38 262.55 189.25zM272.09 186.75v-1.03c0-.13.11-.24.24-.24h2.43c.13 0 .23.11.23.24v1.03c0 .13-.11.24-.23.24h-2.43C272.19 186.98 272.09 186.88 272.09 186.75zM264.74 186.75v-1.03c0-.13.11-.24.24-.24h5.88c.13 0 .23.11.23.24v1.03c0 .13-.11.24-.23.24h-5.88C264.84 186.98 264.74 186.88 264.74 186.75z" opacity=".75" class="color001928 svgShape"></path><linearGradient id="az" x1="253.898" x2="253.898" y1="179.595" y2="172.117" gradientUnits="userSpaceOnUse"><stop offset=".004" stop-color="#1b0028" stop-opacity="0" class="stopColor001928 svgShape"></stop><stop offset="1" stop-color="#1b0028" stop-opacity=".75" class="stopColor001928 svgShape"></stop></linearGradient><rect width="46.16" height="9.19" x="230.82" y="171.57" fill="url(#az)" opacity=".5"></rect><linearGradient id="aA" x1="253.898" x2="253.898" y1="163.821" y2="166.221" gradientUnits="userSpaceOnUse"><stop offset=".004" stop-color="#1b0028" stop-opacity="0" class="stopColor001928 svgShape"></stop><stop offset="1" stop-color="#1b0028" stop-opacity=".75" class="stopColor001928 svgShape"></stop></linearGradient><rect width="46.16" height="1.89" x="230.82" y="163.69" fill="url(#aA)" opacity=".5"></rect><g fill="#000000" class="color000000 svgShape"><path fill="#cecece" d="M268.79,174.14l1.74,0l1.88,0l1.64,0c0.23,0,0.41,0.18,0.41,0.41l0,1.99l0,2.09
					c0,0.23-0.18,0.41-0.41,0.41l-5.27,0c-0.23,0-0.41-0.18-0.41-0.41v-2.09v-1.99C268.38,174.33,268.56,174.14,268.79,174.14z" opacity=".75" class="colorcecece svgShape"></path><path fill="#ffffff" d="M274.47,175.87l0-0.27l-1.85,0l0-1.45h-0.21h-0.07l0,1.45h-1.85v-1.45h-0.27v1.45h-1.85
					l0,0.27h1.85l0,1.45l-1.85,0v0.27h1.85l0,1.45h0.27l0-1.45h1.85v1.45l0.27,0l0-1.45l1.85,0v-0.27l-1.85,0v-1.45L274.47,175.87z
					 M272.35,177.32h-1.85v-1.45h1.85V177.32z" opacity=".25" class="colorffffff svgShape"></path></g><rect width="46.16" height="5.98" x="230.82" y="165.58" fill="#ffffff" opacity=".5" class="colorffffff svgShape"></rect></g></g></svg>