<svg xmlns="http://www.w3.org/2000/svg" viewBox="0 0 2000 2000" id="Businesspeoplediscussingonanalysisgraph"><polygon fill="#b0d377" points="497.45 1237.57 494.7 1263.73 572.43 1263.73 539.76 1236.27 497.45 1237.57" class="color9d83e8 svgShape"></polygon><path fill="#ffe297" d="m591.72,778.68c-3.74-10.7-13.92-17.77-25.26-17.7-27.87.17-51.82,5.22-67.01,9.43-7.84,2.17-11.11,11.61-6.16,18.07,5.49,7.16,10.77,16.2,9.91,23.74-1.72,15.07-6.03,40.91-6.03,40.91,0,0-9.91-26.27-27.13-17.66-17.23,8.61,1.29,53.83,24.55,35.74l-5.77,35.78c-.79,4.9.63,9.89,3.93,13.6,8.5,9.56,27.58,24.9,56.23,13.61,3.78-1.49,6.46-4.94,6.89-8.98l3.75-34.73c26.49-4.98,39.72-37.66,39.51-66.01-.15-19.99-3.73-35.3-7.41-45.81Z" class="colorffb197 svgShape"></path><path fill="#b0d377" d="m489.71,903.09s-23.07,9.27-19.84,35.11c3.23,25.83,15.5,249.34,15.5,249.34l-9.69,69.17h-197.3c-50.96,0-82.7-55.3-56.99-99.31l106.82-182.85c10.49-17.95,27.51-31.14,47.51-36.82l71.22-20.22s13.7-21.99,43.83-21.01l-1.06,6.58Z" class="color9d83e8 svgShape"></path><polygon fill="#ffe294" points="353.27 1164.27 356.48 1117.76 330.46 1159.13 353.27 1164.27" class="colorff9497 svgShape"></polygon><path fill="#b0d377" d="M719.71 1140.23c-5.58-6.08-9.63-13.4-11.82-21.36l-32.91-119.52c-5.6-15.6-17.1-28.39-32.02-35.61l-50.58-24.48c-9.91-18.09-34.45-30.81-34.45-30.81l-1.06 9.8s12.14 8.97 13.44 19.95c1.16 9.89-36.84 220.28-44.41 262.03l39.23.77c8.11.16 16 2.4 22.97 6.43h18c2.86 0 5.64.66 8.16 1.83l12.82-58.54s30.38 55.86 61.9 82.53h26.68l17.87-77.96-13.82-15.06zM1263.44 222.07c-26.52-26.52-35.56-63.89-27.14-97.82h-488.22c-29.46 0-53.56 24.1-53.56 53.56v337.68c0 29.46 24.1 53.56 53.56 53.56h463.41l69.45 68.89v-68.89h1.83c29.46 0 53.56-24.1 53.56-53.56V252.26c-26.38 0-52.76-10.06-72.89-30.19z" class="color9d83e8 svgShape"></path><path fill="#f7f7f6" d="m1553.18,655.66c2.36,15.15,8.35,27.11,12.99,34.49,3.28,5.22,2.37,12.07-2.23,16.19-8.68,7.78-17.43,14.06-26.16,19.07l79.17,13.42c21.88,3.71,40.5,18,49.76,38.16l62.01,174.44,31.49,50.73h204.12v-346.5h-411.16Z" class="colorf6f6f7 svgShape"></path><rect width="44.6" height="44.6" x="1842.88" y="757.53" fill="#ffffff" class="colorffffff svgShape"></rect><rect width="44.6" height="44.6" x="1764.17" y="757.53" fill="#ffffff" class="colorffffff svgShape"></rect><polygon fill="#ffffff" points="1701.87 875.87 1730.06 875.87 1730.06 831.27 1686.01 831.27 1701.87 875.87" class="colorffffff svgShape"></polygon><rect width="44.6" height="44.6" x="1842.88" y="905.02" fill="#ffffff" class="colorffffff svgShape"></rect><rect width="44.6" height="44.6" x="1764.17" y="831.27" fill="#ffffff" class="colorffffff svgShape"></rect><path fill="#ffe297" d="M1158.21 800.08l-14.44-19.37c1.55-12-4.95-29.33-8.58-41.15-2.69-8.74-3.4-16.9-3.54-22.01l.04-2.74c.06-4.18-3.59-7.45-7.73-6.95-5.12.62-10.19 3.72-10.44 9.75l-1.08 27.52-32.86-49.46c-2.56-3.85-7.66-5.08-11.69-2.81l-.23.13c-4.5 2.53-5.88 8.36-2.99 12.64l-7.88-11.83c-2.06-3.06-5.78-4.56-9.39-3.78l-.1.02c-4.91 1.05-8.26 6.08-6.67 10.84.25.74.6 1.46 1.05 2.13l7.81 11.73c-2.08-3.08-5.9-4.66-9.49-3.66-6.24 1.74-8.44 8.68-5.17 13.54l7.96 11.95c-2.76-4.1-8.78-4.91-12.93-2.23-4.14 2.68-5.29 8.22-2.55 12.32l27.09 39.67h0c4.24 5.99 7.65 10.63 9.67 13.04 8.61 10.24 20.34 14.88 29.04 16.99l14.59 19.46 50.5-35.77zM1870.91 1134.78l-2.58-.92c-4.74-1.91-12.14-5.42-19.4-10.99-9.81-7.53-23.78-19.66-35.57-22.39l-9.29-14.35c-13.79 14.49-39.9 25.81-53.59 31.07l11.78 18.32c-1.06 8.89-.79 21.5 5.8 33.14 1.55 2.74 4.71 7.55 8.85 13.61h0s27.74 39.22 27.74 39.22c2.89 4 8.48 4.85 12.44 1.9 3.96-2.95 5.3-8.88 2.42-12.89l8.43 11.63c3.41 4.76 10.68 5.12 14.49-.12 2.19-3.01 2.04-7.14-.12-10.17l8.27 11.41c.48.66 1.03 1.24 1.63 1.73 3.9 3.15 9.79 1.77 12.49-2.47l.05-.09c1.98-3.11 1.87-7.12-.27-10.12l-8.34-11.51c3 4.2 8.95 4.93 12.89 1.6l.21-.17c3.53-2.99 4.16-8.2 1.44-11.94l-34.9-48.05 26.17 8.58c5.74 1.87 10.42-1.8 12.78-6.39 1.91-3.71.12-8.27-3.81-9.67z" class="colorffb197 svgShape"></path><path fill="#f7f7f6" d="m1348.56,751.48l69.6-20.45c-10.46-4.19-19.39-8.91-26.31-13.03-9.04-5.39-12.23-16.9-7.21-26.14,6.35-11.7,12.46-24.38,15.83-36.2h-59.39v98.89c2.36-1.26,4.85-2.3,7.47-3.07Z" class="colorf6f6f7 svgShape"></path><path fill="#ffc11c" d="M1418.16 731.03l-69.6 20.45c-12.45 3.66-22.33 13.16-26.48 25.45l-53.13 157.38-104.65-138.55-66.11 46.82 120.31 169.79c26.09 35.1 79.87 30.97 100.3-7.71l34.07-64.52c.05.15.1.29.16.44 6.31 17.64 8.04 36.57 4.79 55.02-12.7 71.98-41.2 209.15-41.2 209.15 28.42 15.5 66.02 22.18 66.02 22.18l31.01-204.78 16.85-300.49-12.33 9.35zM1728.72 951.43l-62.01-174.44c-9.25-20.17-27.88-34.46-49.76-38.16l-79.17-13.42-31.01-11.72 13.14 310.81 13.24 195.36s59.43 3.23 110.46-19.38l-45.22-226.15s12.27-76.82 11.63-120.74l37.75 111.99c3.64 10.65 8.38 20.88 14.14 30.55l79.67 124.3s51.68-16.8 67.18-40.05l-80.04-128.93z" class="colorffc71c svgShape"></path><path fill="#4f7d7b" d="m1533.15,1219.84l-10.56-155.78c-57.43,7.45-114.97-2.09-114.97-2.09h0s-24.98,164.97-24.98,164.97c0,0-13.37-2.38-30.19-7.58l-.77,37.34h265.96l-3.6-45.95c-41.93,11.2-80.9,9.09-80.9,9.09Z" class="color4f667d svgShape"></path><path fill="#ffe297" d="M1727.88 1913.62c-35.35-8.78-62.6-36.72-76.76-52.88-6.77-7.73-9.84-17.21-10.94-27.86l-6.38-98.6c-24.82 9.38-56.19 5.65-71.7 2.85l10.99 78.69c1.24 12 1.22 24.09-.05 36.09-1.83 17.33-4.3 42.52-4.3 52.67 0 16.15 3.45 45.86 3.45 45.86h34.24v-31.65s30.36 31.65 48.45 31.65h100.13s4.09-29.07-27.13-36.82zM1407.85 1815.82l7.47-72.1c-23.68 7.7-55.46 1.71-71.54-2.3l-3.01 91.47c-.34 10.27-4.16 20.13-10.94 27.86-14.16 16.16-41.41 44.1-76.76 52.88-31.22 7.75-27.13 36.82-27.13 36.82h100.13c18.09 0 48.45-31.65 48.45-31.65v31.65h34.24s3.45-29.72 3.45-45.86c0-10.15-2.47-35.34-4.3-52.67-1.27-12-1.29-24.09-.05-36.09z" class="colorffb197 svgShape"></path><polygon fill="#f7f7f6" points="105.84 1299.19 56.84 1950.44 87.35 1950.44 163.37 1299.19 105.84 1299.19" class="colorf6f6f7 svgShape"></polygon><polygon fill="#f7f7f6" points="1894.16 1299.19 1943.16 1950.44 1912.65 1950.44 1836.63 1299.19 1894.16 1299.19" class="colorf6f6f7 svgShape"></polygon><rect width="42.48" height="651.25" x="978.76" y="1299.19" fill="#f7f7f6" class="colorf6f6f7 svgShape"></rect><path fill="#ef6656" d="m515.3,874.34c-1.56-1.13-3.73-.78-4.85.78-1.12,1.55-.78,3.72.78,4.85,16.23,11.74,31.41,17.65,45.26,17.65.89,0,1.76-.07,2.63-.12l.76-6.99c-13.2,1.11-28.17-4.3-44.58-16.16Z" class="coloref7756 svgShape"></path><path fill="#1c4f4c" d="m470.3,835.48c17.23-8.61,27.13,17.66,27.13,17.66,0,0,4.31-25.84,6.03-40.91.86-7.54-4.41-16.58-9.91-23.74-4.95-6.46-1.68-15.9,6.16-18.07,15.18-4.21,39.12-9.26,66.97-9.43,11.36-.07,21.56,7.01,25.31,17.74,2.51,7.2,4.95,16.69,6.31,28.34,11.69-15.34,37.78-56.47-9.25-67.18,0,0-11.63-66.54-64.92-27.13,0,0-32.31,26.89-57.83,38.77-13.8,6.43-22.62,20.36-22.54,35.58.11,20,3.95,44.81,20.19,57.49.79-4,2.8-7.34,6.34-9.11Z" class="color1c3c4f svgShape"></path><polygon fill="#f7f7f6" points="475.68 1256.71 500.38 1256.71 509.92 1196.9 484.47 1193.96 475.68 1256.71" class="colorf6f6f7 svgShape"></polygon><path fill="#3ca39d" d="m328.18,1163.23c-.66,0-1.33-.19-1.92-.58-1.6-1.06-2.03-3.22-.97-4.81,2.14-3.21,52.4-78.76,60.73-87.09,5.77-5.77,5.89-22.38,5.45-28.29-.14-1.91,1.29-3.58,3.2-3.72,1.93-.14,3.58,1.29,3.72,3.2.19,2.5,1.58,24.67-7.47,33.72-6.51,6.51-45.41,64.31-59.85,86.03-.67,1.01-1.77,1.55-2.89,1.55Z" class="color4a3ca3 svgShape"></path><path fill="#9ff5f0" d="M489.71 903.09l1.06-6.58c-30.13-.98-43.83 21.01-43.83 21.01 0 0-10.01 16.15-13.24 52.97-3.23 36.82-4.52 57.49-4.52 57.49l23.9 14.21-16.47 19.7 26.7 121.93 22.07 3.71s-12.27-223.51-15.5-249.34c-3.23-25.83 19.84-35.11 19.84-35.11zM557.94 908.45l-1.06 9.8s12.14 8.97 13.44 19.95c1.16 9.89-36.84 220.28-44.41 262.03l18.66.37 43.54-129.74-17.84-19.19 23.39-9.47s.66-25.41 1.21-51.25c.55-25.84-2.49-51.68-2.49-51.68-9.91-18.09-34.45-30.81-34.45-30.81z" class="colorc59ff5 svgShape"></path><path fill="#e9ece4" d="m570.32,938.19c-1.29-10.98-13.44-19.95-13.44-19.95l-.76,6.99c-.44,4.04-3.11,7.49-6.89,8.98-28.65,11.29-47.73-4.05-56.23-13.61-3.3-3.71-4.72-8.7-3.93-13.6l.63-3.91h0s-4.42,1.77-9.11,5.93c-.67.59-1.35,1.24-2.02,1.93-1.01,1.04-2,2.19-2.93,3.47-.31.42-.62.86-.92,1.31-.6.9-1.16,1.86-1.69,2.87-2.62,5.06-4.18,11.52-3.17,19.59.35,2.83.81,8.02,1.36,15.02.15,2,.32,4.15.48,6.43.08,1.14.17,2.32.26,3.53.17,2.42.35,4.96.54,7.62.37,5.32.75,11.11,1.15,17.26.2,3.07.4,6.24.61,9.48.52,8.1,1.05,16.69,1.6,25.56.98,15.96,1.99,32.84,2.97,49.47.11,1.85.22,3.69.32,5.53,3.34,57.01,6.22,109.45,6.22,109.45l-.9,6.42,25.45,2.94-.48,3,16.47.32c7.57-41.75,45.57-252.15,44.41-262.03Z" class="colore4e6ec svgShape"></path><path fill="#f7f7f6" d="M493.01 920.6c-3.3-3.71-4.72-8.7-3.93-13.6l.63-3.91h0s-4.42 1.77-9.11 5.93c-.67.59-1.35 1.24-2.02 1.93-1.01 1.04-2 2.19-2.93 3.47-.31.42-.62.86-.92 1.31-.6.9-1.16 1.86-1.69 2.87-2.62 5.06-4.18 11.52-3.17 19.59.05.42.11.91.17 1.43 12.99 14.71 31.76 29.19 31.76 29.19l20.22-31.28c-13.81-2.37-23.58-10.83-29.01-16.94zM570.32 938.19c-1.29-10.98-13.44-19.95-13.44-19.95l-.76 6.99c-.44 4.04-3.11 7.49-6.89 8.98-3.37 1.33-6.6 2.28-9.71 2.92l10.66 28.62s9-2.48 17.78-7.67c1.65-11.03 2.55-18.24 2.35-19.88z" class="colorf6f6f7 svgShape"></path><path fill="#ffdd83" d="m539.53,937.13s0,0,0,0c-6.42,1.33-12.27,1.32-17.53.41l-11.88,18.37,6.25,13.66,20.99.54,8.81-15.1-6.66-17.87Z" class="colorff8387 svgShape"></path><path fill="#ffe294" d="m537.37,970.11l-20.99-.54-34.42,157.05c2,35.09,3.42,60.91,3.42,60.91l-.9,6.42,25.45,2.94-.48,3,16.47.32c2.79-15.39,9.71-53.67,17.28-96.38l-5.82-133.73Z" class="colorff9497 svgShape"></path><path fill="#4f7d7b" d="m753.52,1341.7l-112.79-21.42c-50.18-1.03-80.86,21.71-91.27,31,37.18,14.94,59.95,52.77,55.29,92.64l-2.13,18.3c47.61,8.52,111.43,7.61,111.43,7.61l-52.97,354h107.5l79.58-336.19c15.8-66.73-27.28-133.14-94.64-145.93Z" class="color4f667d svgShape"></path><path fill="#b0d377" d="M548.63 1350.94c.28.11.55.23.83.34 10.41-9.29 41.09-32.03 91.27-31l-11.52-21.1h-119.29l31 48.84c2.62.96 5.2 1.93 7.72 2.91zM505.6 1336.92s-.01 0-.02 0c1.73-14.65 4.34-37.72 4.34-37.72h-187.64c-8.69 35.26-4.86 68.14-4.86 68.14l18.73-11.2c53.07-36.18 116.69-32.95 169.45-19.22z" class="color9d83e8 svgShape"></path><path fill="#4f7d7b" d="m540.92,1348.03l-31-48.84s-2.61,23.07-4.34,37.72c12.48,3.25,24.35,7.08,35.34,11.12Z" class="color4f667d svgShape"></path><path fill="#ffe294" d="M602.62 1462.22l-4.66 39.91h64.15c18.44 0 34.26-14 35.54-32.35-22.08-.31-62.37-1.71-95.04-7.56zM451.14 1462.72s-40.7-3.23-80.75-14.21c-40.05-10.98-34.24-92.37-34.24-92.37l-18.73 11.2s-3.84-32.88 4.86-68.14h-76.88c-3.1 24.32-11.33 106.61 10.44 161.32 10.05 25.25 34.73 41.62 61.91 41.62h133.39v-39.4z" class="colorff9497 svgShape"></path><path fill="#e86c5d" d="m326.46,1444.02c-.24,0-.49-.02-.74-.08-23.38-5.05-39.76-23.43-47.36-53.15-5.61-21.95-4.51-42.11-4.46-42.96.11-1.91,1.78-3.39,3.67-3.26,1.91.11,3.38,1.75,3.27,3.67-.05.78-3.92,78.06,46.36,88.92,1.87.4,3.07,2.25,2.66,4.13-.35,1.63-1.79,2.74-3.39,2.74Z" class="colore85d62 svgShape"></path><path fill="#ffdd83" d="M451.14 1502.13h-133.39c-12.17 0-23.83-3.3-33.92-9.2.48 4.53 1.49 10.81 3.62 17.22 4.96 14.86 19.09 24.71 34.75 24.71h128.93v-32.73zM662.12 1502.13h-64.15l-3.82 32.73h37.94c14.02 0 26.97-7.92 32.97-20.59 1.85-3.91 3.55-8.28 4.81-13.01-2.51.55-5.09.87-7.75.87z" class="colorff8387 svgShape"></path><path fill="#e9ece4" d="M832.92 1915.27c-8.84-11.35-21.64-19.41-36.34-22.17-19.15-3.59-39.7-8.85-46.67-15.66-11.34-11.09-2.11-41.71 2.08-53.62h-81l-21.2 126.61h193.63c.74-12.59-2.74-25.22-10.49-35.17zM582.92 1893.1c-19.15-3.59-26.49-8.85-33.45-15.66-11.34-11.09-7.38-41.71-3.19-53.62h-81l-15.94 126.61h171.26l-2.7-11.69c-5.39-23.3-11.48-41.24-34.98-45.65z" class="colore4e6ec svgShape"></path><path fill="#ffd566" d="M322.21 1534.86c-3.49 0-6.9-.52-10.16-1.44l-55.89 417.02h35.87l75.35-415.58h-45.18zM671.14 1756.59l-29.87-222.91c-2.96.76-6.04 1.17-9.18 1.17h-37.94l-3.23 27.68 64.37 355.01 15.7-93.72h-9.9l10.06-67.23z" class="colorf4a37a svgShape"></path><path fill="#ef6656" d="M1119.27 792.2c-.74 0-1.48-.23-2.11-.72-8.83-6.78-13.83-14.71-14.85-23.59-1.59-13.74 7.07-24.5 7.44-24.95 1.21-1.48 3.4-1.7 4.89-.49 1.48 1.21 1.7 3.4.49 4.88-.14.17-7.19 9.09-5.92 19.82.82 6.91 4.92 13.24 12.18 18.81 1.52 1.17 1.81 3.35.64 4.87-.68.89-1.71 1.36-2.76 1.36zM1089.68 746.71c-1.12 0-2.22-.54-2.89-1.55l-25.03-37.59c-1.06-1.6-.63-3.75.97-4.81 1.59-1.06 3.75-.63 4.81.97l25.03 37.59c1.06 1.6.63 3.75-.97 4.81-.59.39-1.26.58-1.92.58zM1075.1 756.7c-1.12 0-2.22-.54-2.89-1.55l-25.61-38.46c-1.06-1.6-.63-3.75.97-4.81 1.6-1.06 3.75-.63 4.81.97l25.61 38.46c1.06 1.6.63 3.75-.97 4.81-.59.39-1.26.58-1.92.58zM1060.47 766.61c-1.12 0-2.22-.54-2.89-1.55l-17.67-26.54c-1.06-1.6-.63-3.75.97-4.81 1.59-1.06 3.75-.63 4.81.97l17.67 26.54c1.06 1.6.63 3.75-.97 4.81-.59.39-1.26.58-1.92.58zM1825.69 1147.19c-4.43 0-9.67-.77-14.78-3.38-7.96-4.05-13.66-11.5-16.93-22.14-.56-1.83.46-3.78 2.3-4.34 1.83-.57 3.78.46 4.34 2.3 2.7 8.78 7.22 14.83 13.45 18 9.73 4.96 20.47 1.37 20.58 1.34 1.82-.62 3.79.35 4.41 2.16.62 1.81-.34 3.79-2.16 4.41-.32.11-4.95 1.65-11.2 1.65zM1856.14 1204.28c-1.07 0-2.14-.5-2.81-1.43l-26.51-36.56c-1.13-1.55-.78-3.72.77-4.85 1.55-1.13 3.72-.78 4.85.77l26.51 36.56c1.13 1.55.78 3.72-.77 4.85-.62.45-1.33.66-2.03.66zM1842.31 1215.32c-1.08 0-2.14-.5-2.81-1.43l-27.12-37.41c-1.13-1.55-.78-3.72.77-4.85 1.56-1.13 3.72-.78 4.85.77l27.12 37.41c1.13 1.55.78 3.72-.77 4.85-.62.45-1.33.66-2.03.66zM1819.51 1213.98c-1.08 0-2.14-.5-2.81-1.43l-18.72-25.82c-1.13-1.55-.78-3.72.77-4.85 1.55-1.13 3.72-.78 4.85.77l18.72 25.82c1.13 1.55.78 3.72-.77 4.85-.62.45-1.33.66-2.03.66z" class="coloref7756 svgShape"></path><path fill="#3ca39d" d="M656.37 1049.68c.41-1.87-.78-3.72-2.65-4.13-1.87-.4-3.72.78-4.13 2.65l-22.49 102.53s1.88 3.45 5.18 9.04l24.1-110.08zM380.4 996.57c-1.31 0-2.57-.75-3.16-2.02-5.28-11.49-13.04-22.3-13.12-22.4-1.12-1.56-.77-3.73.78-4.85 1.56-1.12 3.72-.77 4.85.78.33.46 8.23 11.45 13.8 23.57.8 1.74.04 3.8-1.7 4.6-.47.22-.96.32-1.45.32z" class="color4a3ca3 svgShape"></path><path fill="#f02e17" d="M449.33 1950.44h171.26l-2.7-11.69c-5.39-23.3-11.48-41.24-34.98-45.65-19.15-3.59-26.49-8.85-33.45-15.66-5.55-5.43-7.42-15.54-7.41-25.84h-80.28l-12.44 98.83zM832.92 1915.27c-8.84-11.35-21.64-19.41-36.34-22.17-19.15-3.59-39.7-8.85-46.67-15.66-5.55-5.43-6.16-15.54-4.86-25.84h-78.72l-16.55 98.83h193.63c.74-12.59-2.74-25.22-10.49-35.17z" class="colorc46c3f svgShape"></path><path fill="#1c4f4c" d="M1566.17 690.14c-6.06-9.65-14.46-27.11-13.99-49.32.69-32.89 3.69-152.03-130.08-127.57-12.77 2.34-20.89 14.94-17.99 27.6.7 3.05 1.5 6.08 2.41 8.86 0 0-31.45 19.22-22.16 40.79 7 16.26 14.14 23.99 17.24 35.58 1.18-34.31 10.27-53.21 13.59-59.01 0 0 33.33 50.74 88.49 44.73 0 0-4.37 13.11-4.37 25.12 0 0 13.93-12.29 22.39-4.37 7.87 7.36 4.18 38.29-18.29 35.62l3.38 45.52 31.01 11.72c8.73-5.01 17.48-11.3 26.16-19.07 4.59-4.11 5.51-10.97 2.23-16.19zM1402.45 647.24c-2.32 14.01-9.91 30.09-17.8 44.62-5.02 9.25-1.83 20.76 7.21 26.14 6.92 4.12 15.85 8.84 26.31 13.03l12.33-9.35 4.17-29.03c-17.39-5.29-28.92-22.66-32.21-45.42z" class="color1c3c4f svgShape"></path><path fill="#382725" d="m1503.4,670.18c-.08,0-.16,0-.24-.01-1.87-.22-3.83-.66-5.84-1.3-1.06-.34-1.65-1.47-1.31-2.54.34-1.06,1.48-1.65,2.54-1.31,1.76.56,3.47.95,5.08,1.14,1.11.13,1.9,1.13,1.76,2.24-.12,1.03-.99,1.78-2,1.78Z" class="color382c25 svgShape"></path><path fill="#ffe297" d="m1506.77,713.68l-3.38-45.52c22.47,2.67,26.16-28.26,18.29-35.62-8.46-7.92-22.39,4.37-22.39,4.37,0-12.01,4.37-25.12,4.37-25.12-55.15,6.01-88.49-44.73-88.49-44.73-3.55,6.21-13.72,27.42-13.72,66.48,0,29.34,12.45,52.81,33.2,59.12l-4.17,29.03-16.85,300.49-6.03,39.8s57.54,9.54,114.97,2.09l-2.68-39.57-13.14-310.81Z" class="colorffb197 svgShape"></path><path fill="#ef6656" d="m1492.54,679.2c-1.04-1.61-3.19-2.07-4.8-1.03-19.12,12.36-37.33,17.28-53.09,14.49l-.99,6.89c3.17.55,6.42.86,9.74.86,14.95,0,31.29-5.53,48.11-16.4,1.61-1.04,2.07-3.19,1.03-4.8Z" class="coloref7756 svgShape"></path><path fill="#f9c232" d="M1352.87 940.16c-8.32-28.02-14.48-69.45-3.69-120.79.39-1.88-.81-3.72-2.68-4.11-1.88-.4-3.72.81-4.11 2.68-11.93 56.7-3.53 102.16 5.92 130.85l4.56-8.64s-.04-.12 0 0zM1277.83 958.32c.29 1.69 1.76 2.88 3.42 2.88.2 0 .4-.02.6-.05 1.89-.33 3.15-2.13 2.82-4.02-1.96-11.22-6.39-21.99-12.83-31.38l-2.89 8.57c4.33 7.45 7.4 15.52 8.88 24.01zM1621.7 797.08c-.45 0-.91-.09-1.35-.28-1.77-.75-2.59-2.78-1.84-4.55 4.83-11.41 12.12-21.75 12.42-22.19 1.11-1.57 3.28-1.93 4.84-.83 1.56 1.11 1.93 3.27.83 4.84-.07.1-7.17 10.18-11.69 20.88-.56 1.32-1.85 2.12-3.2 2.12z" class="colorf99132 svgShape"></path><path fill="#f7f7f6" d="m1520.29,1030.16l-.38-5.67-9.4-222.36c-39.67,21.99-73,7.09-84.55.4l-12.31,219.65-.96,6.37-5.06,33.44s57.54,9.54,114.97,2.09l-2.3-33.9Z" class="colorf6f6f7 svgShape"></path><path fill="#1c4f4c" d="M1479.9 1259.59c-1.68 0-3.16-1.22-3.43-2.93l-11.66-73.95c-.78-4.96-4.41-9.06-9.24-10.44l-13.01-3.71c-1.84-.53-2.91-2.45-2.39-4.29.53-1.84 2.45-2.91 4.29-2.39l13.01 3.71c7.42 2.12 12.99 8.41 14.2 16.03l11.66 73.95c.3 1.89-1 3.67-2.89 3.97-.18.03-.37.04-.54.04zM1374.51 1918.79v31.65h34.24s3.45-29.72 3.45-45.86c0-9.73-2.27-33.28-4.07-50.48l-7.09.13c-11.49.22-22.48 4.74-30.77 12.7-12.79 12.28-33.1 30.59-49.47 39.85-20.28 11.47-34.42.68-39.66-4.63-8.63 4.89-18.01 8.97-28.07 11.47-31.22 7.75-27.13 36.82-27.13 36.82h100.13c18.09 0 48.45-31.65 48.45-31.65zM1606.43 1918.79v31.65h-34.24s-3.45-29.72-3.45-45.86c0-9.73 2.27-33.28 4.07-50.48l7.09.13c11.49.22 22.48 4.74 30.77 12.7 12.79 12.28 33.1 30.59 49.47 39.85 20.28 11.47 34.42.68 39.66-4.63 8.63 4.89 18.01 8.97 28.07 11.47 31.22 7.75 27.13 36.82 27.13 36.82 0 0-82.04 0-100.13 0-18.09 0-48.45-31.65-48.45-31.65z" class="color1c3c4f svgShape"></path><path fill="#4f7d7b" d="M1350.08 1299.19l-16.54 439.37s61.37 20.03 93.02 0l46.35-439.37h-122.83zM1484.05 1299.19l68.48 435.92s58.14 15.07 92.38-6.24l-24.81-429.68h-136.05z" class="color4f667d svgShape"></path><path fill="#5cbab5" d="M956.86 631.32h-267.15c-18.16 0-33.02 14.86-33.02 33.02v199.8c0 18.16 14.86 33.02 33.02 33.02h7.02v49.8l50.21-49.8h209.92c18.16 0 33.02-14.86 33.02-33.02v-199.8c0-18.16-14.86-33.02-33.02-33.02zM1042.01 1212.83h225.24v43.88h-225.24c-12.12 0-21.94-9.82-21.94-21.94 0-12.12 9.82-21.94 21.94-21.94z" class="color91dff2 svgShape"></path><path fill="#ffdc7e" d="m1070.99,1168.95h225.24v43.88h-225.24c-12.12,0-21.94-9.82-21.94-21.94h0c0-12.12,9.82-21.94,21.94-21.94Z" class="colorff8b7e svgShape"></path><path fill="#ffc11d" d="m1070.99,1125.08h225.24v43.88h-225.24c-12.12,0-21.94-9.82-21.94-21.94h0c0-12.12,9.82-21.94,21.94-21.94Z" class="colorffe91d svgShape"></path><rect width="29.87" height="190.33" x="1021.76" y="292.77" fill="#f7f7f6" class="colorf6f6f7 svgShape"></rect><rect width="29.87" height="154.36" x="1088.89" y="328.75" fill="#f7f7f6" class="colorf6f6f7 svgShape"></rect><rect width="29.87" height="113.47" x="1156.01" y="369.64" fill="#f7f7f6" class="colorf6f6f7 svgShape"></rect><rect width="29.87" height="79.69" x="1223.13" y="403.42" fill="#f7f7f6" class="colorf6f6f7 svgShape"></rect><path fill="#5cbab5" d="m1275.59,356.83c-.14,0-.29,0-.44-.03-134.23-16.79-240.3-139.44-241.36-140.68-1.24-1.46-1.07-3.65.39-4.89,1.46-1.24,3.65-1.07,4.9.39,1.04,1.22,105.42,121.85,236.94,138.3,1.9.24,3.25,1.97,3.01,3.88-.22,1.76-1.72,3.04-3.44,3.04Z" class="color91dff2 svgShape"></path><path fill="#5cbab5" d="m1030.07,239.51s-.06,0-.09,0c-1.92-.05-3.43-1.64-3.38-3.56l.7-27.99c.05-1.92,1.62-3.46,3.56-3.38l27.99.7c1.92.05,3.43,1.64,3.38,3.56-.05,1.92-1.63,3.44-3.56,3.38l-24.52-.62-.62,24.52c-.05,1.89-1.59,3.39-3.47,3.39Z" class="color91dff2 svgShape"></path><path fill="#e9ece4" d="m511.49,644.06c-1.04,0-2.06-.46-2.75-1.35l-15.66-20.21c-1.18-1.52-.9-3.7.62-4.87,1.51-1.17,3.7-.9,4.87.62l13.53,17.47,17.47-13.53c1.51-1.18,3.7-.9,4.87.62,1.18,1.52.9,3.7-.62,4.87l-20.21,15.66c-.63.49-1.38.73-2.12.73Z" class="colore4e6ec svgShape"></path><circle cx="300.79" cy="756.95" r="72.88" fill="#b0d377" class="colorafe02e svgShape"></circle><path fill="#ffffff" d="m296.35,786.55c-3.07,0-6.01-1.22-8.18-3.39l-20.75-20.75c-4.52-4.52-4.52-11.85,0-16.37,4.52-4.52,11.85-4.52,16.37,0l12.57,12.57,21.79-21.79c4.52-4.52,11.85-4.52,16.37,0,4.52,4.52,4.52,11.85,0,16.37l-29.98,29.98c-2.17,2.17-5.11,3.39-8.18,3.39Z" class="colorffffff svgShape"></path><circle cx="1703.07" cy="381.81" r="128.15" fill="#e9ece4" class="colore4e6ec svgShape"></circle><circle cx="1703.07" cy="381.81" r="104.26" fill="#ffffff" class="colorffffff svgShape"></circle><path fill="#f7f7f6" d="m1661.92,996.11c-5.76-9.66-10.5-19.9-14.14-30.55l-37.75-111.99c.65,43.93-11.63,120.74-11.63,120.74l5.57,27.84h61.83l-3.88-6.05Z" class="colorf6f6f7 svgShape"></path><path fill="#e9ece4" d="m1899.1,703.29h-296.07c-1.92,0-3.47-1.55-3.47-3.47s1.55-3.47,3.47-3.47h296.07c1.92,0,3.47,1.55,3.47,3.47s-1.55,3.47-3.47,3.47Z" class="colore4e6ec svgShape"></path><rect width="163.67" height="29" x="800.89" y="219.39" fill="#9ff5f0" class="colorc59ff5 svgShape"></rect><path fill="#f7f7f6" d="M962.67 289.86h-153.81c-1.92 0-3.47-1.55-3.47-3.47s1.55-3.47 3.47-3.47h153.81c1.92 0 3.47 1.55 3.47 3.47s-1.55 3.47-3.47 3.47zM939.51 318.69h-130.66c-1.92 0-3.47-1.55-3.47-3.47s1.55-3.47 3.47-3.47h130.66c1.92 0 3.47 1.55 3.47 3.47s-1.55 3.47-3.47 3.47zM962.67 347.53h-153.81c-1.92 0-3.47-1.55-3.47-3.47s1.55-3.47 3.47-3.47h153.81c1.92 0 3.47 1.55 3.47 3.47s-1.55 3.47-3.47 3.47zM939.51 376.37h-130.66c-1.92 0-3.47-1.55-3.47-3.47s1.55-3.47 3.47-3.47h130.66c1.92 0 3.47 1.55 3.47 3.47s-1.55 3.47-3.47 3.47zM962.67 405.2h-153.81c-1.92 0-3.47-1.55-3.47-3.47s1.55-3.47 3.47-3.47h153.81c1.92 0 3.47 1.55 3.47 3.47s-1.55 3.47-3.47 3.47zM939.51 434.04h-130.66c-1.92 0-3.47-1.55-3.47-3.47s1.55-3.47 3.47-3.47h130.66c1.92 0 3.47 1.55 3.47 3.47s-1.55 3.47-3.47 3.47zM962.67 462.87h-153.81c-1.92 0-3.47-1.55-3.47-3.47s1.55-3.47 3.47-3.47h153.81c1.92 0 3.47 1.55 3.47 3.47s-1.55 3.47-3.47 3.47zM939.51 491.71h-130.66c-1.92 0-3.47-1.55-3.47-3.47s1.55-3.47 3.47-3.47h130.66c1.92 0 3.47 1.55 3.47 3.47s-1.55 3.47-3.47 3.47zM775.26 301.86c-.89 0-1.78-.34-2.45-1.02l-9.32-9.32c-1.36-1.36-1.36-3.55 0-4.91 1.36-1.36 3.55-1.36 4.91 0l6.87 6.87 9.55-9.55c1.36-1.36 3.55-1.36 4.91 0 1.36 1.36 1.36 3.55 0 4.91l-12 12c-.68.68-1.57 1.02-2.45 1.02zM775.26 359.53c-.89 0-1.78-.34-2.45-1.02l-9.32-9.32c-1.36-1.36-1.36-3.55 0-4.91 1.36-1.36 3.55-1.36 4.91 0l6.87 6.87 9.55-9.55c1.36-1.36 3.55-1.36 4.91 0 1.36 1.36 1.36 3.55 0 4.91l-12 12c-.68.68-1.57 1.02-2.45 1.02zM775.26 417.2c-.89 0-1.78-.34-2.45-1.02l-9.32-9.32c-1.36-1.36-1.36-3.55 0-4.91 1.36-1.36 3.55-1.36 4.91 0l6.87 6.87 9.55-9.55c1.36-1.36 3.55-1.36 4.91 0 1.36 1.36 1.36 3.55 0 4.91l-12 12c-.68.68-1.57 1.02-2.45 1.02zM775.26 474.87c-.89 0-1.78-.34-2.45-1.02l-9.32-9.32c-1.36-1.36-1.36-3.55 0-4.91 1.35-1.36 3.55-1.36 4.91 0l6.87 6.87 9.55-9.55c1.36-1.36 3.55-1.36 4.91 0 1.36 1.36 1.36 3.55 0 4.91l-12 12c-.68.68-1.57 1.02-2.45 1.02z" class="colorf6f6f7 svgShape"></path><path fill="#e9ece4" d="M512.31 637.15c-.22.01-.45 0-.69-.02-1.9-.25-3.23-2-2.98-3.9.87-6.49 2-13.03 3.38-19.44.4-1.88 2.25-3.08 4.12-2.67 1.88.4 3.07 2.25 2.67 4.12-1.34 6.23-2.44 12.59-3.28 18.9-.22 1.67-1.6 2.9-3.22 3.01zm8.15-38.02c-.4.03-.81-.02-1.21-.14-1.84-.55-2.88-2.48-2.34-4.32 1.87-6.28 4.01-12.56 6.36-18.67.69-1.79 2.7-2.68 4.49-1.99 1.79.69 2.68 2.7 1.99 4.49-2.29 5.94-4.37 12.05-6.19 18.16-.43 1.43-1.7 2.38-3.11 2.47zm13.96-36.29c-.57.04-1.16-.07-1.71-.33-1.73-.82-2.46-2.9-1.64-4.63 2.82-5.92 5.91-11.79 9.18-17.46.96-1.66 3.08-2.23 4.74-1.27 1.66.96 2.23 3.08 1.27 4.74-3.18 5.51-6.18 11.22-8.93 16.98-.56 1.18-1.7 1.89-2.92 1.97zm19.41-33.68c-.75.05-1.52-.15-2.18-.6-1.58-1.08-1.99-3.25-.9-4.83 3.7-5.4 7.66-10.73 11.77-15.82 1.2-1.5 3.39-1.73 4.88-.53 1.49 1.2 1.73 3.39.52 4.88-4 4.96-7.85 10.14-11.45 15.39-.63.92-1.62 1.44-2.64 1.5zm24.4-30.26c-.93.06-1.88-.25-2.61-.94-1.39-1.32-1.46-3.51-.14-4.91 4.49-4.76 9.23-9.4 14.09-13.8 1.42-1.29 3.62-1.18 4.9.24 1.29 1.42 1.18 3.62-.24 4.9-4.72 4.28-9.33 8.79-13.7 13.42-.63.66-1.46 1.03-2.3 1.08zm28.81-26.08c-1.11.07-2.24-.39-2.97-1.35-1.17-1.52-.89-3.7.63-4.87 5.19-4.01 10.6-7.85 16.07-11.42 1.6-1.05 3.76-.59 4.81 1.01 1.05 1.61.6 3.76-1.01 4.81-5.32 3.47-10.58 7.21-15.63 11.1-.57.44-1.23.67-1.9.71zm32.54-21.24c-1.31.08-2.6-.58-3.27-1.8-.92-1.68-.3-3.79 1.38-4.71 5.73-3.13 11.68-6.08 17.67-8.76 1.75-.78 3.8 0 4.59 1.75.78 1.75 0 3.81-1.75 4.59-5.83 2.61-11.61 5.48-17.18 8.52-.46.25-.95.38-1.44.42zM1868.41 777.1h-6.03c-1.92 0-3.47-1.55-3.47-3.47s1.55-3.47 3.47-3.47h6.03c1.92 0 3.47 1.55 3.47 3.47s-1.55 3.47-3.47 3.47zM1868.41 924.58h-6.03c-1.92 0-3.47-1.55-3.47-3.47s1.55-3.47 3.47-3.47h6.03c1.92 0 3.47 1.55 3.47 3.47s-1.55 3.47-3.47 3.47zM1789.48 777.1h-6.03c-1.92 0-3.47-1.55-3.47-3.47s1.55-3.47 3.47-3.47h6.03c1.92 0 3.47 1.55 3.47 3.47s-1.55 3.47-3.47 3.47zM1789.48 850.84h-6.03c-1.92 0-3.47-1.55-3.47-3.47s1.55-3.47 3.47-3.47h6.03c1.92 0 3.47 1.55 3.47 3.47s-1.55 3.47-3.47 3.47zM1710.77 850.84h-3.71c-1.92 0-3.47-1.55-3.47-3.47s1.55-3.47 3.47-3.47h3.71c1.92 0 3.47 1.55 3.47 3.47s-1.55 3.47-3.47 3.47z" class="colore4e6ec svgShape"></path><path fill="#d9ddd3" d="M1706.54 284.62v-7.01c-2.32-.08-4.63-.06-6.94.01v6.99c0 1.92 1.55 3.47 3.47 3.47s3.47-1.55 3.47-3.47zM1706.54 486.01v-6.99c0-1.92-1.55-3.47-3.47-3.47s-3.47 1.55-3.47 3.47v7.01c2.32.08 4.63.06 6.94-.01zM1657.48 295.9l-3.5-6.07c-2.05 1.09-4.05 2.26-6.01 3.49l3.5 6.06c.96 1.66 3.08 2.23 4.74 1.27 1.66-.96 2.23-3.08 1.27-4.74zM1758.17 470.31l-3.5-6.06c-.96-1.66-3.08-2.23-4.74-1.27-1.66.96-2.23 3.08-1.27 4.74l3.5 6.07c2.05-1.09 4.05-2.26 6.01-3.48zM1620.63 330.21l-6.07-3.5c-1.22 1.97-2.37 3.98-3.46 6.02l6.06 3.5c1.66.96 3.78.39 4.74-1.27s.39-3.78-1.27-4.74zM1795.04 430.9l-6.06-3.5c-1.66-.96-3.78-.39-4.74 1.27-.96 1.66-.39 3.78 1.27 4.74l6.07 3.5c1.22-1.97 2.37-3.98 3.46-6.02zM1605.88 378.34h-7.01c-.08 2.32-.06 4.63.01 6.94h6.99c1.92 0 3.47-1.55 3.47-3.47 0-1.92-1.55-3.47-3.47-3.47zM1807.26 378.34h-6.99c-1.92 0-3.47 1.55-3.47 3.47 0 1.92 1.55 3.47 3.47 3.47h7.01c.08-2.32.06-4.63-.01-6.94zM1617.16 427.41l-6.07 3.5c1.09 2.05 2.26 4.05 3.49 6.01l6.06-3.5c1.66-.96 2.23-3.08 1.27-4.74-.96-1.66-3.08-2.23-4.74-1.27zM1791.57 326.71l-6.06 3.5c-1.66.96-2.23 3.08-1.27 4.74.96 1.66 3.08 2.23 4.74 1.27l6.07-3.5c-1.09-2.05-2.26-4.05-3.48-6.01zM1651.47 464.25l-3.5 6.07c1.97 1.22 3.98 2.37 6.02 3.46l3.5-6.06c.96-1.66.39-3.78-1.27-4.74-1.66-.96-3.78-.39-4.74 1.27zM1752.16 289.85l-3.5 6.06c-.96 1.66-.39 3.78 1.27 4.74 1.66.96 3.78.39 4.74-1.27l3.5-6.07c-1.97-1.22-3.98-2.37-6.02-3.46z" class="colord3d5dd svgShape"></path><path fill="#1c4f4c" d="m1698.17,374.04c-1.34,0-2.62-.78-3.19-2.09l-19.16-43.96c-.77-1.76.04-3.8,1.8-4.57,1.76-.77,3.8.04,4.57,1.8l19.16,43.96c.77,1.76-.04,3.8-1.8,4.57-.45.2-.92.29-1.38.29Z" class="color1c3c4f svgShape"></path><path fill="#f7f7f6" d="M800.78 728.16h-82.56c-1.92 0-3.47-1.55-3.47-3.47s1.55-3.47 3.47-3.47h82.56c1.92 0 3.47 1.55 3.47 3.47s-1.55 3.47-3.47 3.47zM800.78 751.61h-82.56c-1.92 0-3.47-1.55-3.47-3.47s1.55-3.47 3.47-3.47h82.56c1.92 0 3.47 1.55 3.47 3.47s-1.55 3.47-3.47 3.47zM800.78 831.84h-82.56c-1.92 0-3.47-1.55-3.47-3.47s1.55-3.47 3.47-3.47h82.56c1.92 0 3.47 1.55 3.47 3.47s-1.55 3.47-3.47 3.47zM800.78 855.29h-82.56c-1.92 0-3.47-1.55-3.47-3.47s1.55-3.47 3.47-3.47h82.56c1.92 0 3.47 1.55 3.47 3.47s-1.55 3.47-3.47 3.47z" class="colorf6f6f7 svgShape"></path><path fill="#c3fcf9" d="M777.07 677.2h-53.22c-6.35 0-11.54 5.19-11.54 11.54s5.19 11.54 11.54 11.54h53.22c6.35 0 11.54-5.19 11.54-11.54s-5.19-11.54-11.54-11.54zM777.07 781.35h-53.22c-6.35 0-11.54 5.19-11.54 11.54s5.19 11.54 11.54 11.54h53.22c6.35 0 11.54-5.19 11.54-11.54s-5.19-11.54-11.54-11.54zM854.55 700.28h53.22c6.35 0 11.54-5.19 11.54-11.54s-5.19-11.54-11.54-11.54h-53.22c-6.35 0-11.54 5.19-11.54 11.54s5.19 11.54 11.54 11.54zM907.77 781.35h-53.22c-6.35 0-11.54 5.19-11.54 11.54s5.19 11.54 11.54 11.54h53.22c6.35 0 11.54-5.19 11.54-11.54s-5.19-11.54-11.54-11.54z" class="colorc3f4fc svgShape"></path><path fill="#f7f7f6" d="M931.48 728.16h-82.56c-1.92 0-3.47-1.55-3.47-3.47s1.55-3.47 3.47-3.47h82.56c1.92 0 3.47 1.55 3.47 3.47s-1.55 3.47-3.47 3.47zM931.48 751.61h-82.56c-1.92 0-3.47-1.55-3.47-3.47s1.55-3.47 3.47-3.47h82.56c1.92 0 3.47 1.55 3.47 3.47s-1.55 3.47-3.47 3.47zM931.48 831.84h-82.56c-1.92 0-3.47-1.55-3.47-3.47s1.55-3.47 3.47-3.47h82.56c1.92 0 3.47 1.55 3.47 3.47s-1.55 3.47-3.47 3.47zM931.48 855.29h-82.56c-1.92 0-3.47-1.55-3.47-3.47s1.55-3.47 3.47-3.47h82.56c1.92 0 3.47 1.55 3.47 3.47s-1.55 3.47-3.47 3.47z" class="colorf6f6f7 svgShape"></path><path fill="#ffc11d" d="M1402.69 1094.53l10.96-72.35 16.85-300.49-12.33 9.35-40.05 106.61 20.02 19.38-15.87 20.67s19.15 127.05 20.41 216.84zM1519.91 1024.49l5.39 79.53c6.36-62.21 38.21-215.56 38.21-215.56l-25.73-25.19 30.34-21.96-30.34-115.9-31.01-11.72 13.14 310.81z" class="colorffe91d svgShape"></path><path fill="#f7f7f6" d="M1181.69 1147.01h0c0-7.1 5.76-12.86 12.86-12.86h101.7v25.71h-101.7c-7.1 0-12.86-5.76-12.86-12.86zM1181.69 1190.89h0c0-7.1 5.76-12.86 12.86-12.86h101.7v25.71h-101.7c-7.1 0-12.86-5.76-12.86-12.86zM1152.71 1234.77h0c0-7.1 5.76-12.86 12.86-12.86h101.7v25.71h-101.7c-7.1 0-12.86-5.76-12.86-12.86z" class="colorf6f6f7 svgShape"></path><path fill="#e9ece4" d="m745.29,1244.98c0-6.45-5.28-11.73-11.73-11.73h221.73c6.45,0,11.73,5.28,11.73,11.73,0,6.45-5.28,11.73-11.73,11.73h-221.73c6.45,0,11.73-5.28,11.73-11.73Z" class="colore4e6ec svgShape"></path><path fill="#d9ddd3" d="m733.56,1233.25h-109.02l14.88,10.68c5.52,3.96,2.72,12.67-4.08,12.67l98.22.1c6.45,0,11.73-5.28,11.73-11.73s-5.28-11.73-11.73-11.73Z" class="colord3d5dd svgShape"></path><path fill="#e9ece4" d="m755.37,1060.03c1.12-4.89,5.47-8.36,10.49-8.36h0c6.92,0,12.04,6.43,10.49,13.17l-38.6,168.42h-22.09s39.7-173.23,39.7-173.23Z" class="colore4e6ec svgShape"></path><path fill="#f7f7f6" d="m765.87,1051.67h235.32c7.67,0,13.36,7.13,11.64,14.61l-36,157.05c-1.33,5.81-6.5,9.92-12.45,9.92h-226.62s38.6-168.42,38.6-168.42c1.55-6.74-3.58-13.17-10.49-13.17Z" class="colorf6f6f7 svgShape"></path><path fill="#e9ece4" d="m859.93,1144.44c2.65-11.74,13.19-19.36,23.52-17.03,10.34,2.34,16.57,13.75,13.91,25.49-2.65,11.74-13.19,19.36-23.52,17.03-10.34-2.34-16.57-13.75-13.91-25.49Z" class="colore4e6ec svgShape"></path><path fill="#ffe297" d="m639.43,1243.94l-47.34-33.98c-7.87-5.65-17.26-8.77-26.95-8.96l-55.7-1.09-6.94,43.51,26.01,1.32s8.72,12.8,24.33,12.8h82.51c6.79,0,9.59-9.64,4.08-13.6Z" class="colorffb197 svgShape"></path><path fill="#efd389" d="m592.08,1209.96l30.75,22.07c2.35-6.04,1.66-10.97-.21-14.77-3.04-6.18-9.62-9.83-16.51-9.83h-18c1.36.78,2.69,1.61,3.97,2.53Z" class="coloref9e89 svgShape"></path><path fill="#ef6656" d="M520.3 1232.19c-1.05-1.6-3.2-2.06-4.81-1-1.6 1.05-2.05 3.2-1 4.81l5.44 8.31 8.58.44-8.21-12.54zM632.21 1265.63c-.69 0-1.39-.21-2-.64l-48.45-34.2c-1.57-1.11-1.94-3.27-.84-4.84 1.11-1.57 3.27-1.94 4.84-.84l48.45 34.2c1.57 1.11 1.94 3.27.84 4.84-.68.96-1.75 1.47-2.84 1.47zM606.22 1267.34c-.64 0-1.29-.18-1.87-.55l-35.94-23c-1.62-1.03-2.09-3.18-1.05-4.8 1.03-1.62 3.18-2.09 4.8-1.05l35.94 23c1.62 1.03 2.09 3.18 1.05 4.8-.66 1.04-1.78 1.6-2.93 1.6z" class="coloref7756 svgShape"></path><path fill="#4f7d7b" d="m336.15,1356.14s-5.81,81.39,34.24,92.38c40.05,10.98,80.75,14.21,80.75,14.21v361.1h109.29l44.33-379.9c4.69-40.17-18.45-78.27-56.12-92.98-57.62-22.5-143.87-41.59-212.48,5.19Z" class="color4f667d svgShape"></path><path fill="#1c4f4c" d="m1996.53,1953.91H3.47c-1.92,0-3.47-1.56-3.47-3.47s1.55-3.47,3.47-3.47h1993.06c1.92,0,3.47,1.56,3.47,3.47s-1.55,3.47-3.47,3.47Z" class="color1c3c4f svgShape"></path><rect width="1929.52" height="42.48" x="35.24" y="1256.71" fill="#ffd566" class="colorf4a37a svgShape"></rect><path fill="#3ca39d" d="m449.42,1177.98c-35.73-6.16-94.06-16.43-105.64-19.33-22.82-5.71-41.14,1.78-41.91,2.1-1.77.74-2.6,2.77-1.86,4.54.74,1.77,2.77,2.61,4.54,1.87.17-.07,17.05-6.9,37.55-1.78,11.91,2.98,70.37,13.28,106.14,19.44,1.88.32,3.67-.93,4.01-2.8.35-1.9-.92-3.72-2.83-4.05Z" class="color4a3ca3 svgShape"></path><path fill="#ffdc7e" d="m1779.71,385.29h-108.9c-1.92,0-3.47-1.55-3.47-3.47s1.55-3.47,3.47-3.47h108.9c1.92,0,3.47,1.55,3.47,3.47s-1.55,3.47-3.47,3.47Z" class="colorff8b7e svgShape"></path><circle cx="1703.07" cy="381.81" r="14.35" fill="#ffdc7e" class="colorff8b7e svgShape"></circle><path fill="#1c4f4c" d="m604.94,1442.97l-2.31,19.25h0l6.71,1.12,2.29-19.59c4.85-41.54-19.1-81.22-58.24-96.5-8.54-3.34-17.16-6.38-25.6-9.03-1.77-.56-3.66.42-4.22,2.2-.56,1.77.43,3.66,2.2,4.22,8.3,2.61,16.77,5.6,25.17,8.88,36.29,14.17,58.5,50.96,54,89.46Z" class="color1c3c4f svgShape"></path><circle cx="1336.33" cy="149.18" r="103.09" fill="#ffc11d" class="colorffe91d svgShape"></circle><path fill="#ffc11c" d="m1381.71,149.18c0-2.97-.31-5.87-.85-8.68l16.49-9.52-14.75-25.54-16.52,9.54c-4.35-3.79-9.43-6.75-15.01-8.67v-19.06h-29.5v19.06c-5.58,1.92-10.65,4.88-15.01,8.67l-16.52-9.54-14.75,25.54,16.49,9.52c-.55,2.81-.85,5.71-.85,8.68s.31,5.87.85,8.68l-16.49,9.52,14.75,25.55,16.52-9.54c4.35,3.79,9.43,6.75,15.01,8.67v19.06h29.5v-19.06c5.58-1.92,10.65-4.88,15.01-8.67l16.52,9.54,14.75-25.55-16.49-9.52c.55-2.81.85-5.71.85-8.68Zm-45.38,19.27c-10.64,0-19.27-8.63-19.27-19.27s8.63-19.27,19.27-19.27,19.27,8.63,19.27,19.27-8.63,19.27-19.27,19.27Z" class="colorffc71c svgShape"></path><ellipse cx="1454.08" cy="622.92" fill="#1c4f4c" rx="7.61" ry="8.75" class="color1c3c4f svgShape"></ellipse><ellipse cx="1413.26" cy="624.19" fill="#1c4f4c" rx="7.61" ry="8.75" class="color1c3c4f svgShape"></ellipse><path fill="#e86c5d" d="m1444.36,658.3c-6.59,1.04-12.48.88-17.09.33-4.58-.54-7.56,4.74-4.62,8.29,2.84,3.43,6.9,6.59,12.54,7.47,7.03,1.09,11.64-3.67,14.47-8.6,2.12-3.69-1.1-8.16-5.31-7.49Z" class="colore85d62 svgShape"></path><path fill="#ef6656" d="m1424.16,650.83c-.96,0-1.91-.38-2.62-1.14-1.36-1.45-1.28-3.72.16-5.08,6.03-5.65,6.15-15.94,6.15-16.05,0-1.97,1.62-3.58,3.59-3.58h0c1.98,0,3.58,1.61,3.58,3.59,0,.54-.09,13.48-8.41,21.28-.69.65-1.58.97-2.46.97Z" class="coloref7756 svgShape"></path><ellipse cx="542.96" cy="816.44" fill="#1c4f4c" rx="8.12" ry="9.33" class="color1c3c4f svgShape"></ellipse><ellipse cx="586.49" cy="817.8" fill="#1c4f4c" rx="8.12" ry="9.33" class="color1c3c4f svgShape"></ellipse><path fill="#ef6656" d="M564.56 865.79c-6.24 0-15.54-1.42-25.48-7.92-1.66-1.08-2.13-3.31-1.04-4.97 1.09-1.66 3.31-2.14 4.97-1.04 14.5 9.46 27 6.28 27.52 6.14 1.91-.54 3.88.61 4.4 2.52.52 1.9-.59 3.87-2.49 4.4-.28.08-3.23.87-7.88.87zM575.18 847.56c-.88 0-1.76-.32-2.45-.97-9.42-8.83-9.53-23.51-9.53-24.13 0-1.98 1.6-3.58 3.58-3.59h0c1.98 0 3.58 1.6 3.59 3.58 0 .12.13 12.22 7.26 18.89 1.45 1.36 1.52 3.63.16 5.08-.71.76-1.66 1.14-2.62 1.14z" class="coloref7756 svgShape"></path></svg>