<svg width="400" height="400" viewBox="0 0 400 400" fill="none" xmlns="http://www.w3.org/2000/svg">
<rect width="400" height="400" fill="white"/>
<rect width="400" height="400" fill="#232F3F"/>
<path d="M215.125 149.732V144.052C195.467 144.052 174.699 148.109 174.699 170.462C174.699 181.787 180.78 189.459 191.221 189.459C198.871 189.459 205.717 184.922 210.038 177.545C215.393 168.471 215.125 159.95 215.125 149.732ZM242.547 213.656C240.75 215.206 238.149 215.316 236.122 214.284C227.096 207.054 225.49 203.697 220.518 196.799C205.602 211.48 195.046 215.87 175.694 215.87C152.823 215.87 135 202.259 135 175C135 153.716 146.971 139.22 163.99 132.137C178.753 125.867 199.368 124.76 215.125 123.026V119.633C215.125 113.399 215.622 106.022 211.836 100.636C208.509 95.8043 202.16 93.8124 196.576 93.8124C186.211 93.8124 176.956 98.9396 174.699 109.563C174.24 111.924 172.443 114.247 169.995 114.358L143.605 111.629C141.387 111.149 138.939 109.415 139.551 106.132C145.632 75.2954 174.508 66 200.362 66C213.595 66 230.882 69.3936 241.324 79.0578C254.557 90.9721 253.295 106.87 253.295 124.17V165.04C253.295 177.323 258.572 182.709 263.544 189.348C265.304 191.709 265.686 194.549 263.468 196.32C257.922 200.783 248.055 209.083 242.624 213.73L242.547 213.656" fill="white"/>
<path d="M264.626 243.529C247.105 255.984 221.71 262.629 199.845 262.629C169.188 262.629 141.588 251.693 120.707 233.504C119.067 232.074 120.537 230.125 122.505 231.239C145.039 243.884 172.902 251.491 201.683 251.491C221.093 251.491 242.446 247.618 262.08 239.58C265.046 238.365 267.526 241.453 264.626 243.529Z" fill="#FF9900"/>
<path d="M271.91 235.492C269.679 232.732 257.106 234.188 251.462 234.833C249.743 235.036 249.481 233.593 251.029 232.555C261.043 225.758 277.474 227.72 279.39 229.998C281.307 232.289 278.892 248.175 269.482 255.756C268.038 256.921 266.66 256.301 267.303 254.756C269.416 249.668 274.154 238.264 271.91 235.492Z" fill="#FF9900"/>
<path d="M96 327.995L105.995 334.309C107.572 335.305 109.518 333.825 109.099 331.949L106.446 320.047L115.279 312.038C116.67 310.777 115.926 308.384 114.092 308.221L102.465 307.19L97.917 295.957C97.1989 294.187 94.8011 294.187 94.083 295.957L89.535 307.19L77.9084 308.221C76.0739 308.384 75.3296 310.777 76.7216 312.038L85.5542 320.047L82.901 331.949C82.4826 333.825 84.4277 335.305 86.0048 334.309L96 327.995Z" fill="#FAB73B"/>
<path d="M148 327.995L157.995 334.309C159.572 335.305 161.518 333.825 161.099 331.949L158.446 320.047L167.279 312.038C168.67 310.777 167.926 308.384 166.092 308.221L154.465 307.19L149.917 295.957C149.199 294.187 146.801 294.187 146.083 295.957L141.535 307.19L129.908 308.221C128.074 308.384 127.33 310.777 128.722 312.038L137.554 320.047L134.901 331.949C134.483 333.825 136.428 335.305 138.005 334.309L148 327.995Z" fill="#FAB73B"/>
<path d="M200 327.995L209.995 334.309C211.572 335.305 213.518 333.825 213.099 331.949L210.446 320.047L219.279 312.038C220.67 310.777 219.926 308.384 218.092 308.221L206.465 307.19L201.917 295.957C201.199 294.187 198.801 294.187 198.083 295.957L193.535 307.19L181.908 308.221C180.074 308.384 179.33 310.777 180.722 312.038L189.554 320.047L186.901 331.949C186.483 333.825 188.428 335.305 190.005 334.309L200 327.995Z" fill="#FAB73B"/>
<path d="M252 327.995L261.995 334.309C263.572 335.305 265.518 333.825 265.099 331.949L262.446 320.047L271.279 312.038C272.67 310.777 271.926 308.384 270.092 308.221L258.465 307.19L253.917 295.957C253.199 294.187 250.801 294.187 250.083 295.957L245.535 307.19L233.908 308.221C232.074 308.384 231.33 310.777 232.722 312.038L241.554 320.047L238.901 331.949C238.483 333.825 240.428 335.305 242.005 334.309L252 327.995Z" fill="#FAB73B"/>
<path d="M304 327.995L313.995 334.309C315.572 335.305 317.518 333.825 317.099 331.949L314.446 320.047L323.279 312.038C324.67 310.777 323.926 308.384 322.092 308.221L310.465 307.19L305.917 295.957C305.199 294.187 302.801 294.187 302.083 295.957L297.535 307.19L285.908 308.221C284.074 308.384 283.33 310.777 284.722 312.038L293.554 320.047L290.901 331.949C290.483 333.825 292.428 335.305 294.005 334.309L304 327.995Z" fill="white"/>
</svg>
