<svg width="400" height="400" viewBox="0 0 400 400" fill="none" xmlns="http://www.w3.org/2000/svg">
<rect width="400" height="400" fill="#002C54"/>
<g clip-path="url(#clip0_1060_33718)">
<path d="M159.681 69.2584C162.131 62.8134 165.499 56.8799 170.501 52.0717C190.507 32.5321 223.579 37.4426 237.155 61.995C247.362 80.6139 258.182 98.8237 268.695 117.238C286.252 147.826 304.013 178.414 321.365 209.105C335.962 234.783 320.14 267.212 291.152 271.611C273.391 274.271 256.753 266.087 247.566 250.128C232.153 223.223 216.638 196.317 201.225 169.514C200.919 168.9 200.51 168.389 200.102 167.877C198.469 166.547 197.754 164.604 196.734 162.865C189.895 150.793 182.852 138.824 176.013 126.854C171.624 119.079 167.03 111.407 162.641 103.632C158.66 96.6753 156.823 89.105 157.027 81.1255C157.333 77.0334 157.844 72.9413 159.681 69.2584Z" fill="#3C8BD9"/>
<path d="M159.681 69.2583C158.762 72.9412 157.946 76.624 157.742 80.5115C157.435 89.1048 159.579 97.0844 163.866 104.552C175.094 123.887 186.322 143.325 197.448 162.762C198.469 164.501 199.285 166.24 200.306 167.877C194.182 178.517 188.057 189.054 181.831 199.693C173.257 214.527 164.683 229.463 156.006 244.297C155.598 244.297 155.496 244.092 155.394 243.785C155.292 242.967 155.598 242.251 155.802 241.432C159.987 226.087 156.517 212.481 146.003 200.818C139.573 193.76 131.407 189.77 122.016 188.44C109.767 186.701 98.9474 189.872 89.2504 197.545C87.5151 198.875 86.3923 200.818 84.3509 201.841C83.9426 201.841 83.7384 201.637 83.6364 201.33C88.5359 192.839 93.3333 184.348 98.2328 175.857C118.443 140.665 138.654 105.473 158.966 70.3836C159.171 69.9744 159.477 69.6675 159.681 69.2583Z" fill="#FABC04"/>
<path d="M84.0446 201.637C85.984 199.898 87.8214 198.056 89.8628 196.419C114.667 176.778 151.923 190.997 157.333 222.097C158.66 229.565 157.946 236.726 155.7 243.887C155.598 244.501 155.496 245.013 155.292 245.627C154.373 247.263 153.557 249.003 152.536 250.639C143.451 265.678 130.08 273.146 112.523 272.02C92.4147 270.588 76.5933 255.448 73.8373 235.396C72.5104 225.678 74.4497 216.573 79.4513 208.184C80.4721 206.343 81.697 204.706 82.8198 202.864C83.3301 202.455 83.126 201.637 84.0446 201.637Z" fill="#34A852"/>
<path d="M84.0446 201.637C83.6364 202.046 83.6364 202.762 82.9218 202.864C82.8198 202.148 83.2281 201.739 83.6364 201.228L84.0446 201.637Z" fill="#FABC04"/>
<path d="M155.292 245.627C154.884 244.911 155.292 244.399 155.7 243.888C155.802 243.99 156.006 244.194 156.108 244.297L155.292 245.627Z" fill="#E1C025"/>
<path d="M93.1292 306.394C81.5949 306.394 72 315.703 72 327.161C72 338.619 81.5949 347.826 93.1292 347.826C99.3557 347.826 103.949 345.78 107.624 341.995C111.4 338.21 112.523 332.992 112.523 328.798C112.523 327.468 112.421 326.24 112.217 325.217H93.1292V330.844H106.705C106.297 334.015 105.276 336.368 103.643 338.005C101.703 339.949 98.5391 342.2 93.1292 342.2C84.7592 342.2 78.2265 335.448 78.2265 327.161C78.2265 318.875 84.7592 312.123 93.1292 312.123C97.6204 312.123 100.989 313.862 103.337 316.215L107.317 312.225C103.949 308.951 99.4577 306.394 93.1292 306.394ZM127.732 321.228C120.485 321.228 114.463 326.854 114.463 334.732C114.463 342.506 120.383 348.235 127.732 348.235C135.081 348.235 141.002 342.506 141.002 334.732C141.002 326.957 134.979 321.228 127.732 321.228ZM127.732 342.916C123.751 342.916 120.281 339.54 120.281 334.732C120.281 329.923 123.751 326.547 127.732 326.547C131.713 326.547 135.183 329.821 135.183 334.732C135.183 339.54 131.713 342.916 127.732 342.916ZM156.517 321.228C149.167 321.228 143.247 326.854 143.247 334.732C143.247 342.506 149.167 348.235 156.517 348.235C163.764 348.235 169.786 342.506 169.786 334.732C169.786 326.957 163.866 321.228 156.517 321.228ZM156.517 342.916C152.536 342.916 149.065 339.54 149.065 334.732C149.065 329.923 152.536 326.547 156.517 326.547C160.498 326.547 163.968 329.821 163.968 334.732C163.968 339.54 160.6 342.916 156.517 342.916ZM185.199 321.228C178.565 321.228 172.542 327.059 172.542 334.629C172.542 342.097 178.565 347.928 185.199 347.928C188.364 347.928 190.813 346.496 192.14 344.859H192.344V346.803C192.344 351.918 189.691 354.68 185.301 354.68C181.729 354.68 179.585 352.123 178.667 349.974L173.563 352.123C174.992 355.703 178.871 360 185.301 360C192.14 360 197.856 355.908 197.856 346.087V322.148H192.344V324.297H192.14C190.813 322.66 188.364 321.228 185.199 321.228ZM185.71 342.711C181.729 342.711 178.36 339.335 178.36 334.629C178.36 329.923 181.729 326.445 185.71 326.445C189.691 326.445 192.753 329.923 192.753 334.629C192.753 339.335 189.691 342.711 185.71 342.711ZM202.144 308.031H207.962V347.519H202.144V308.031ZM223.579 321.228C216.638 321.228 210.82 326.65 210.82 334.732C210.82 342.302 216.536 348.235 224.191 348.235C230.418 348.235 233.99 344.45 235.419 342.302L230.826 339.233C229.295 341.483 227.152 342.916 224.191 342.916C221.129 342.916 218.986 341.586 217.659 338.824L235.726 331.356L235.113 329.821C233.99 326.854 230.52 321.228 223.579 321.228ZM216.638 334.322C216.434 329.105 220.721 326.445 223.681 326.445C226.029 326.445 228.07 327.57 228.683 329.31L216.638 334.322Z" fill="white"/>
<path d="M245.933 346.905L259.407 310.997H264.612L278.086 346.905H272.982L269.512 337.187H254.507L251.037 346.905H245.933ZM256.038 332.89H267.981L262.163 316.726H261.959L256.038 332.89Z" fill="white"/>
<path d="M282.781 343.939C280.536 341.381 279.413 338.312 279.413 334.629C279.413 331.049 280.536 327.98 282.781 325.32C285.129 322.762 287.783 321.535 291.049 321.535C292.887 321.535 294.52 321.944 295.949 322.66C297.48 323.478 298.603 324.399 299.419 325.729H299.624L299.419 322.353V310.997H304.013V346.905H299.624V343.529H299.419C298.603 344.757 297.48 345.78 295.949 346.598C294.418 347.417 292.785 347.724 291.049 347.724C287.783 347.724 285.027 346.496 282.781 343.939ZM297.276 341.074C298.807 339.437 299.522 337.289 299.522 334.629C299.522 332.072 298.807 329.923 297.276 328.286C295.847 326.65 294.01 325.831 291.764 325.831C289.518 325.831 287.681 326.65 286.252 328.286C284.721 329.923 284.006 332.072 284.006 334.629C284.006 337.187 284.721 339.335 286.252 340.972C287.783 342.609 289.62 343.427 291.764 343.427C294.01 343.529 295.847 342.711 297.276 341.074Z" fill="white"/>
<path d="M325.244 345.473C323.407 346.905 321.059 347.724 318.201 347.724C315.751 347.724 313.608 347.11 311.668 345.78C309.831 344.45 308.504 342.813 307.687 340.665L311.77 338.926C312.383 340.358 313.199 341.586 314.424 342.404C315.547 343.223 316.874 343.632 318.201 343.632C319.63 343.632 320.855 343.325 321.876 342.711C322.896 342.097 323.305 341.279 323.305 340.46C323.305 338.926 322.08 337.698 319.732 336.982L315.547 335.959C310.75 334.731 308.402 332.481 308.402 329.003C308.402 326.752 309.321 325.013 311.158 323.581C312.995 322.251 315.343 321.535 318.099 321.535C320.242 321.535 322.182 322.046 324.019 323.069C325.754 324.092 326.979 325.524 327.694 327.263L323.611 329.003C323.1 327.98 322.386 327.161 321.365 326.547C320.344 325.934 319.12 325.627 317.793 325.627C316.568 325.627 315.547 325.934 314.526 326.547C313.608 327.161 313.097 327.877 313.097 328.798C313.097 330.23 314.424 331.253 317.078 331.765L320.753 332.685C325.652 333.913 328 336.368 328 340.051C328.102 342.199 327.081 344.041 325.244 345.473Z" fill="white"/>
</g>
<defs>
<clipPath id="clip0_1060_33718">
<rect width="256" height="320" fill="white" transform="translate(72 40)"/>
</clipPath>
</defs>
</svg>
