<svg width="400" height="400" viewBox="0 0 400 400" fill="none" xmlns="http://www.w3.org/2000/svg">
<rect width="400" height="400" fill="white"/>
<rect width="400" height="400" fill="#1F8DED"/>
<rect x="75" y="72" width="250.054" height="257" fill="white"/>
<path d="M305.156 60H95.1556C75.5556 60 60 75.5556 60 94.8444V304.844C60 324.444 75.5556 340 95.1556 340H305.156C324.444 340 340 324.444 340 305.156V95.1556C340 75.5556 324.444 60 305.156 60ZM237.333 111.333C237.333 106.044 241.378 102 246.667 102C251.956 102 256 106.044 256 111.333V236.089C256 241.378 251.956 245.422 246.667 245.422C241.378 245.422 237.333 241.378 237.333 236.089V111.333ZM190.667 106.667C190.667 101.378 194.711 97.3333 200 97.3333C205.289 97.3333 209.333 101.378 209.333 106.667V242C209.333 247.289 205.289 251.333 200 251.333C194.711 251.333 190.667 247.289 190.667 242V106.667ZM144 111.333C144 106.044 148.044 102 153.333 102C158.622 102 162.667 106.044 162.667 111.333V236.089C162.667 241.378 158.622 245.422 153.333 245.422C148.044 245.422 144 241.378 144 236.089V111.333ZM97.3333 130C97.3333 124.711 101.378 120.667 106.667 120.667C111.956 120.667 116 124.711 116 130V214C116 219.289 111.956 223.333 106.667 223.333C101.378 223.333 97.3333 219.289 97.3333 214V130ZM299.556 272.489C298 273.733 263.467 302.667 200 302.667C136.533 302.667 102 273.733 100.444 272.489C96.4 269.067 96.0889 263.156 99.5111 259.422C102.933 255.378 108.844 255.067 112.578 258.489C113.2 258.489 144 284 200 284C256.622 284 287.111 258.489 287.111 258.178C291.156 254.756 297.067 255.378 300.178 259.111C303.911 263.156 303.289 269.067 299.556 272.489ZM302.667 214C302.667 219.289 298.622 223.333 293.333 223.333C288.044 223.333 284 219.289 284 214V130C284 124.711 288.044 120.667 293.333 120.667C298.622 120.667 302.667 124.711 302.667 130V214Z" fill="#1F8DED"/>
</svg>
