<svg width="400" height="400" viewBox="0 0 400 400" fill="none" xmlns="http://www.w3.org/2000/svg">
<rect width="400" height="400" fill="#3F5134"/>
<path d="M272.156 122.053C271.974 120.779 270.882 120.051 269.972 120.051C269.062 120.051 251.045 119.687 251.045 119.687C251.045 119.687 235.94 105.128 234.484 103.49C233.028 102.034 230.116 102.398 229.024 102.762C229.024 102.762 226.113 103.672 221.381 105.128C220.653 102.58 219.379 99.4861 217.741 96.2103C212.463 86.0189 204.456 80.5592 194.993 80.5592C194.265 80.5592 193.719 80.5592 192.991 80.7412C192.627 80.3772 192.445 80.0133 192.081 79.8313C187.895 75.4636 182.617 73.2797 176.248 73.4617C164.054 73.8257 151.861 82.7431 141.852 98.3941C134.936 109.495 129.659 123.327 128.021 134.064C114.008 138.432 104.18 141.525 103.816 141.525C96.7187 143.709 96.5367 143.891 95.6268 150.625C95.2628 155.721 76.7 299.31 76.7 299.31L232.482 326.244L300 309.501C299.818 309.501 272.338 123.327 272.156 122.053ZM213.555 107.676C209.916 108.767 205.912 110.041 201.544 111.497C201.544 105.31 200.634 96.5742 197.904 89.2947C207.186 90.7506 211.735 101.306 213.555 107.676ZM193.355 113.863C185.165 116.411 176.248 119.141 167.33 121.871C169.878 112.225 174.61 102.762 180.433 96.3922C182.617 94.0264 185.711 91.4786 189.169 90.0226C192.809 97.1202 193.537 107.13 193.355 113.863ZM176.612 81.6512C179.524 81.6512 181.889 82.1971 183.891 83.653C180.615 85.2909 177.34 87.8388 174.428 91.1146C166.602 99.4861 160.597 112.407 158.231 124.964C150.769 127.33 143.49 129.514 136.938 131.516C141.306 111.679 157.867 82.1971 176.612 81.6512Z" fill="#95BF47"/>
<path d="M269.972 120.051C269.062 120.051 251.045 119.687 251.045 119.687C251.045 119.687 235.94 105.128 234.484 103.49C233.938 102.944 233.21 102.58 232.482 102.58V326.244L300 309.501C300 309.501 272.52 123.326 272.338 122.053C271.974 120.779 270.882 120.051 269.972 120.051Z" fill="#5E8E3E"/>
<path d="M194.993 154.81L187.167 184.11C187.167 184.11 178.432 180.106 168.058 180.834C152.771 181.744 152.771 191.39 152.771 193.755C153.681 206.859 188.077 209.77 190.079 240.526C191.535 264.731 177.34 281.292 156.593 282.566C131.843 283.84 118.193 269.281 118.193 269.281L123.471 246.896C123.471 246.896 137.302 257.269 148.221 256.541C155.319 256.178 158.049 250.172 157.685 246.168C156.593 229.061 128.567 230.153 126.747 201.945C125.291 178.286 140.76 154.446 174.974 152.262C188.259 151.352 194.993 154.81 194.993 154.81Z" fill="white"/>
<circle cx="275" cy="271" r="70" fill="white" stroke="#95BF47" stroke-width="6"/>
<path d="M230.863 285.475L244.065 241.219L253.971 258.377C257.517 256.329 264.764 252.145 272.959 247.414C284.537 240.729 328.802 235.577 324.468 290.639C312.342 254.666 286.202 268.211 286.202 268.211L266.287 279.709L276.729 297.795L230.863 285.475Z" fill="#95BF47"/>
</svg>
