<svg width="400" height="400" viewBox="0 0 400 400" fill="none" xmlns="http://www.w3.org/2000/svg">
<rect width="400" height="400" fill="#103552"/>
<path d="M299.509 63H95.4543C90.2328 63 86 67.2261 86 72.4392V272.012C86 275.532 87.9625 278.76 91.0907 280.385L198.031 335.934C200.881 337.415 204.289 337.349 207.079 335.76L304.193 280.458C307.143 278.778 308.963 275.648 308.963 272.258V206.947L335.599 156.953C337.357 153.654 332.914 150.591 330.447 153.401L208.169 292.641C205.391 295.804 200.347 295.408 198.099 291.85L147.221 211.318C145.351 208.359 148.991 205.019 151.787 207.13L198.711 242.552C201.002 244.282 204.175 244.246 206.427 242.464L308.963 161.325V72.4392C308.963 67.2261 304.731 63 299.509 63Z" fill="white"/>
<path d="M105.972 94.1417V87.8847H130.872V94.1417H122.255V116.488H114.589V94.1417H105.972Z" fill="#103552"/>
<path d="M133.799 116.488V87.8847H146.166C148.292 87.8847 150.152 88.2711 151.747 89.0439C153.342 89.8168 154.582 90.9294 155.468 92.382C156.354 93.8345 156.797 95.5756 156.797 97.6055C156.797 99.6539 156.34 101.381 155.426 102.787C154.522 104.193 153.249 105.254 151.607 105.971C149.975 106.688 148.068 107.047 145.886 107.047H138.5V101.013H144.319C145.233 101.013 146.012 100.902 146.655 100.678C147.308 100.445 147.807 100.078 148.152 99.5747C148.506 99.0719 148.684 98.4155 148.684 97.6055C148.684 96.7861 148.506 96.1203 148.152 95.6082C147.807 95.0868 147.308 94.7051 146.655 94.463C146.012 94.2116 145.233 94.0859 144.319 94.0859H141.577V116.488H133.799ZM150.586 103.36L157.748 116.488H149.299L142.305 103.36H150.586Z" fill="#103552"/>
<path d="M177.067 87.8847H184.845V106.209C184.845 108.388 184.323 110.273 183.278 111.865C182.243 113.448 180.798 114.673 178.942 115.539C177.086 116.395 174.931 116.823 172.479 116.823C170.007 116.823 167.844 116.395 165.988 115.539C164.132 114.673 162.686 113.448 161.651 111.865C160.625 110.273 160.113 108.388 160.113 106.209V87.8847H167.89V105.538C167.89 106.423 168.086 107.214 168.478 107.913C168.87 108.602 169.411 109.142 170.101 109.533C170.8 109.924 171.593 110.12 172.479 110.12C173.374 110.12 174.167 109.924 174.857 109.533C175.547 109.142 176.088 108.602 176.48 107.913C176.871 107.214 177.067 106.423 177.067 105.538V87.8847Z" fill="#103552"/>
<path d="M203.985 96.8233C203.911 95.8922 203.561 95.166 202.936 94.6445C202.321 94.1231 201.383 93.8624 200.124 93.8624C199.322 93.8624 198.665 93.9602 198.152 94.1557C197.648 94.3419 197.275 94.598 197.033 94.9239C196.79 95.2498 196.664 95.6222 196.655 96.0412C196.636 96.3857 196.697 96.6976 196.837 96.977C196.986 97.247 197.219 97.4937 197.536 97.7172C197.854 97.9313 198.259 98.1269 198.753 98.3038C199.248 98.4807 199.835 98.639 200.516 98.7786L202.866 99.2814C204.452 99.6166 205.809 100.059 206.937 100.608C208.065 101.158 208.989 101.805 209.707 102.55C210.425 103.285 210.952 104.114 211.288 105.036C211.633 105.957 211.81 106.963 211.819 108.052C211.81 109.933 211.339 111.525 210.406 112.829C209.474 114.133 208.14 115.124 206.405 115.804C204.68 116.484 202.605 116.823 200.18 116.823C197.69 116.823 195.517 116.456 193.661 115.72C191.815 114.985 190.379 113.853 189.353 112.326C188.336 110.79 187.823 108.825 187.814 106.432H195.2C195.247 107.308 195.466 108.043 195.858 108.639C196.249 109.235 196.8 109.687 197.508 109.994C198.227 110.301 199.08 110.455 200.068 110.455C200.898 110.455 201.593 110.352 202.153 110.147C202.712 109.943 203.137 109.659 203.426 109.295C203.715 108.932 203.864 108.518 203.873 108.052C203.864 107.615 203.72 107.233 203.44 106.907C203.169 106.572 202.722 106.274 202.097 106.013C201.472 105.743 200.628 105.492 199.565 105.259L196.711 104.645C194.174 104.095 192.174 103.178 190.71 101.893C189.255 100.599 188.532 98.8345 188.542 96.5999C188.532 94.7842 189.017 93.1967 189.996 91.8373C190.985 90.4685 192.351 89.4024 194.095 88.6389C195.848 87.8754 197.858 87.4937 200.124 87.4937C202.437 87.4937 204.438 87.8801 206.126 88.6529C207.814 89.4257 209.115 90.5151 210.029 91.9211C210.952 93.3177 211.418 94.9518 211.427 96.8233H203.985Z" fill="#103552"/>
<path d="M213.994 94.1417V87.8847H238.895V94.1417H230.278V116.488H222.612V94.1417H213.994Z" fill="#103552"/>
<path d="M241.822 116.488V87.8847H262.47V94.1417H249.6V99.058H261.406V105.315H249.6V110.231H262.414V116.488H241.822Z" fill="#103552"/>
<path d="M277.35 116.488H266.327V87.8847H277.238C280.185 87.8847 282.731 88.4573 284.876 89.6026C287.031 90.7386 288.691 92.3773 289.856 94.5188C291.031 96.6511 291.619 99.207 291.619 102.186C291.619 105.166 291.036 107.727 289.87 109.868C288.705 112 287.054 113.639 284.918 114.784C282.783 115.92 280.26 116.488 277.35 116.488ZM274.105 109.896H277.071C278.488 109.896 279.696 109.668 280.694 109.212C281.701 108.755 282.466 107.969 282.988 106.851C283.519 105.734 283.785 104.179 283.785 102.186C283.785 100.194 283.515 98.639 282.974 97.5217C282.442 96.4043 281.659 95.6175 280.624 95.1613C279.598 94.7051 278.339 94.4769 276.847 94.4769H274.105V109.896Z" fill="#103552"/>
<path d="M112.122 155.818V130.647H121.774C123.596 130.647 125.11 130.934 126.316 131.508C127.531 132.073 128.438 132.847 129.037 133.831C129.644 134.814 129.948 135.928 129.948 137.174C129.948 138.198 129.751 139.075 129.357 139.804C128.963 140.525 128.433 141.111 127.769 141.561C127.104 142.012 126.361 142.336 125.541 142.532V142.778C126.435 142.827 127.293 143.102 128.113 143.602C128.942 144.093 129.619 144.79 130.145 145.691C130.67 146.592 130.932 147.682 130.932 148.96C130.932 150.263 130.616 151.435 129.985 152.475C129.353 153.508 128.401 154.323 127.129 154.921C125.857 155.519 124.256 155.818 122.328 155.818H112.122ZM116.689 152.008H121.601C123.259 152.008 124.453 151.693 125.184 151.062C125.922 150.423 126.291 149.604 126.291 148.604C126.291 147.858 126.107 147.186 125.738 146.588C125.368 145.982 124.843 145.507 124.162 145.163C123.481 144.81 122.668 144.634 121.724 144.634H116.689V152.008ZM116.689 141.352H121.207C121.995 141.352 122.705 141.209 123.337 140.922C123.969 140.627 124.465 140.214 124.827 139.681C125.196 139.14 125.381 138.501 125.381 137.764C125.381 136.789 125.036 135.986 124.346 135.355C123.665 134.724 122.652 134.408 121.306 134.408H116.689V141.352Z" fill="#103552"/>
<path d="M145.77 155.818H140.895L149.77 130.647H155.409L164.297 155.818H159.422L152.688 135.809H152.491L145.77 155.818ZM145.93 145.949H159.225V149.612H145.93V145.949Z" fill="#103552"/>
<path d="M183.787 155.818H175.244V130.647H183.959C186.462 130.647 188.613 131.151 190.41 132.159C192.215 133.159 193.602 134.597 194.571 136.473C195.539 138.349 196.023 140.595 196.023 143.208C196.023 145.83 195.535 148.084 194.559 149.968C193.59 151.853 192.191 153.299 190.361 154.307C188.539 155.315 186.348 155.818 183.787 155.818ZM179.811 151.873H183.565C185.322 151.873 186.787 151.554 187.96 150.915C189.134 150.267 190.016 149.304 190.607 148.026C191.198 146.74 191.493 145.134 191.493 143.208C191.493 141.283 191.198 139.685 190.607 138.415C190.016 137.137 189.142 136.182 187.985 135.551C186.836 134.912 185.408 134.593 183.701 134.593H179.811V151.873Z" fill="#103552"/>
<path d="M224.879 138.685C224.674 138.022 224.391 137.428 224.03 136.903C223.677 136.371 223.25 135.916 222.749 135.539C222.257 135.162 221.691 134.879 221.05 134.691C220.41 134.494 219.713 134.396 218.958 134.396C217.604 134.396 216.397 134.736 215.339 135.416C214.28 136.096 213.447 137.096 212.84 138.415C212.24 139.726 211.941 141.324 211.941 143.208C211.941 145.109 212.24 146.719 212.84 148.039C213.439 149.358 214.272 150.361 215.339 151.05C216.405 151.73 217.645 152.07 219.056 152.07C220.336 152.07 221.444 151.824 222.38 151.332C223.324 150.841 224.05 150.144 224.559 149.243C225.068 148.334 225.322 147.268 225.322 146.047L226.356 146.207H219.512V142.643H229.742V145.666C229.742 147.821 229.282 149.685 228.363 151.259C227.444 152.832 226.18 154.045 224.571 154.897C222.963 155.741 221.116 156.163 219.032 156.163C216.709 156.163 214.67 155.642 212.913 154.602C211.165 153.553 209.799 152.066 208.814 150.14C207.837 148.207 207.349 145.912 207.349 143.257C207.349 141.225 207.636 139.411 208.211 137.813C208.794 136.215 209.606 134.859 210.648 133.745C211.691 132.622 212.913 131.77 214.317 131.188C215.72 130.598 217.247 130.303 218.896 130.303C220.291 130.303 221.592 130.508 222.799 130.918C224.005 131.319 225.076 131.893 226.012 132.638C226.955 133.384 227.731 134.269 228.338 135.293C228.945 136.317 229.343 137.448 229.532 138.685H224.879Z" fill="#103552"/>
<path d="M241.784 155.818V130.647H258.182V134.47H246.351V141.303H257.332V145.126H246.351V151.996H258.28V155.818H241.784Z" fill="#103552"/>
<path d="M284.169 137.567C284.054 136.494 283.57 135.658 282.716 135.06C281.871 134.462 280.771 134.162 279.417 134.162C278.465 134.162 277.648 134.306 276.967 134.593C276.286 134.879 275.765 135.269 275.404 135.76C275.043 136.252 274.858 136.813 274.85 137.444C274.85 137.968 274.969 138.423 275.207 138.808C275.453 139.193 275.785 139.521 276.204 139.792C276.623 140.054 277.086 140.275 277.595 140.455C278.104 140.636 278.617 140.787 279.134 140.91L281.497 141.5C282.449 141.721 283.364 142.02 284.243 142.397C285.129 142.774 285.921 143.249 286.618 143.823C287.324 144.396 287.882 145.089 288.293 145.9C288.703 146.711 288.908 147.662 288.908 148.751C288.908 150.226 288.531 151.525 287.776 152.648C287.021 153.762 285.929 154.634 284.501 155.265C283.081 155.888 281.362 156.199 279.343 156.199C277.382 156.199 275.679 155.896 274.234 155.29C272.798 154.684 271.674 153.799 270.861 152.635C270.057 151.472 269.622 150.054 269.556 148.383H274.05C274.115 149.259 274.386 149.989 274.862 150.57C275.338 151.152 275.958 151.586 276.721 151.873C277.492 152.16 278.354 152.303 279.306 152.303C280.299 152.303 281.169 152.156 281.916 151.861C282.671 151.558 283.262 151.14 283.689 150.607C284.115 150.066 284.333 149.436 284.341 148.715C284.333 148.059 284.14 147.518 283.763 147.092C283.385 146.658 282.856 146.297 282.174 146.011C281.502 145.716 280.714 145.453 279.811 145.224L276.943 144.487C274.866 143.954 273.225 143.147 272.019 142.065C270.82 140.976 270.221 139.529 270.221 137.727C270.221 136.244 270.623 134.945 271.428 133.831C272.24 132.716 273.344 131.852 274.739 131.237C276.134 130.615 277.714 130.303 279.479 130.303C281.268 130.303 282.835 130.615 284.181 131.237C285.535 131.852 286.598 132.708 287.369 133.806C288.141 134.896 288.539 136.149 288.564 137.567H284.169Z" fill="#103552"/>
</svg>
