<svg xmlns="http://www.w3.org/2000/svg" version="1.0" viewBox="0 130 1200 400"><g fill="#0766ff"><path d="M582.5 243.6c-9.3 1.2-17.1 2.3-17.3 2.3-.1.1-.1 44.3 0 98.3l.3 98.3 16.1.3 16.2.2.4-2.3c.3-1.4.6-5.8.7-9.8.1-4.1.4-7.5.6-7.7.2-.2.9.5 1.6 1.4 10.4 13.3 23.3 20 40.4 21.1 31.9 1.9 57.7-19 64.7-52.4 2.3-11.3 2-27.4-.7-37.8-2.8-10.3-9.9-23.5-16.2-30-12.2-12.3-23.4-17.4-40.8-18.2-17.1-.9-29.5 3.2-39.4 12.9-2.7 2.7-5.2 4.8-5.5 4.8-.3 0-.6-18.9-.6-42 0-39.4-.1-42-1.7-41.9-1 .1-9.4 1.2-18.8 2.5zm60.7 95.5c18.4 3.8 29.4 22.8 25.8 44.6-2 12.8-8.2 22.2-18.2 27.5-3.7 2-5.8 2.3-14.8 2.3s-11.1-.3-14.8-2.3c-13.7-7.3-21-23.9-18.3-41.8 1.2-8.5 3.2-13.2 7.9-19.2 4.4-5.6 9.9-9.2 16.5-10.8 6.7-1.6 9.4-1.6 15.9-.3zM1064 242.5c-4.7.8-12 1.7-16.2 2.1-4.3.3-8.2 1.2-8.8 1.9-.7.8-.9 33.4-.8 98.6l.3 97.4 18.8.3 18.7.2v-30.5c0-16.8.4-30.5.9-30.5 1 0 7 6.8 34.1 38.3l19.5 22.7h22.8c12.5 0 22.7-.2 22.7-.4s-13.5-15.9-30.1-34.8c-16.5-18.8-30.3-34.9-30.6-35.5-.3-.7 10-13.6 23-28.5 12.9-15 24.6-28.8 26.1-30.6l2.8-3.2h-41.7l-23.9 28c-13.1 15.4-24.2 28-24.7 28s-.9-27-.9-62.5c0-58.9-.1-62.5-1.7-62.4-1 .1-5.6.7-10.3 1.4zM79.5 244.6c-8.9 2.1-11.6 3-15.8 5.1-14.8 7.4-21.7 22.5-21.7 47.9V310H18.9l.3 15.6.3 15.6 11 .1 11 .2.5 50.5.5 50.5 18.3.3 18.2.2v-49.9c0-38.7.3-50.1 1.3-50.8.6-.5 7.2-.9 14.4-.8 11.2.1 13.4-.2 13.8-1.5.2-.8 1.4-6.9 2.5-13.5 1.2-6.6 2.3-13 2.7-14.2l.5-2.3-17.3-.2-17.4-.3.1-9c.1-5 .6-10.9 1.3-13.2 2.5-9.1 10.8-13.3 26.3-13.3h8.8v-13.5c0-12.8-.1-13.5-2.2-14.6-2.2-1.2-30.4-2.3-34.3-1.3zM169 307.6c-6.4 1.3-15.4 4.9-20.7 8.3-13.6 8.8-22.6 21.3-27.5 38.3-2.9 9.9-3.1 33-.4 42.8 6 22.2 20 38.1 40.4 45.8 6 2.3 8.1 2.6 19.7 2.6 10.5-.1 14.1-.4 18.7-2.1 10.7-3.8 18-9.2 26.1-19.3 1-1.2 1.3.6 1.7 8.5l.5 10h33l.3-66.3.2-66.2h-34v20.5l-5.5-6.2c-10.5-11.7-21-16.3-38.5-16.8-6.3-.2-12.6-.1-14 .1zm29.4 31.9c10.8 2.8 18.3 9.9 22.7 21.2 3 7.9 3.1 23.4.2 30.9-4.3 11-12.4 19-21.7 21.5-2.3.6-7.7.9-12.1.7-6.5-.3-9.1-1-13.4-3.4-20.1-10.9-24.3-44.4-7.7-62.2 8.2-8.8 19.6-11.9 32-8.7zM334.1 308c-31.6 6.7-51.5 28.4-54.9 60-3.3 31 10.4 57.5 36.3 70.3 12.1 5.9 18.2 7.2 34.5 7.1 13.5 0 15.1-.3 23.1-3 9.9-3.5 19.8-8.8 25.2-13.6l3.8-3.3-6.7-11c-3.6-6.1-6.9-11.4-7.4-11.9-.5-.4-3.4.8-6.7 2.8-9.7 6-16.4 7.9-27.8 7.9-8.3.1-10.8-.3-15-2.2-10.6-4.8-16.8-12.4-20-24.6-5.3-20.6 5.2-40.6 24.3-46.1 10.7-3.1 26.8-.4 37.4 6.3 2.1 1.2 4 2.3 4.2 2.3.6 0 14.6-23.7 14.6-24.7 0-2.4-16-11-26.5-14.3-7.9-2.5-30.5-3.7-38.4-2zM462.4 308.5c-31.9 6.9-51.3 32.1-51.5 66.5-.1 12.6.4 16.7 3.1 25 6.9 21.6 22.8 36.4 46.6 43.2 11.4 3.2 35.1 3.2 47.4-.1 14.1-3.7 33-13.7 33-17.4 0-1.1-11.9-22.7-12.5-22.7-.2 0-3 1.6-6.2 3.5-8.7 5.3-20.1 8.6-31.4 9.2-15.1.8-26.5-2.7-34.7-10.9-4.3-4.2-9.6-13.4-8.6-14.9.3-.5 21.6-.9 47.3-.9h46.9l.6-2.3c.3-1.2.6-7.4.6-13.7 0-34-17.6-58.4-46.5-64.5-8.6-1.8-25.9-1.8-34.1 0zm25.1 28c7.5 2 12.7 5.4 16.1 10.5 2.7 4 5.5 13.4 4.7 15.7-.4 1-7.4 1.3-30.8 1.3-16.7 0-30.6-.4-30.9-.8-.6-1 1.9-8.5 4.1-12 8.1-13.1 21.8-18.6 36.8-14.7zM776.5 308.1c-12.8 2.1-30 11.1-37.8 19.8-6.9 7.6-11.7 16.2-15.4 27.1-2.6 8-2.6 33.9.1 42.5 7.2 23.3 23.3 38.9 47.1 45.7 11.6 3.3 33.6 3.2 44.5-.1 19.7-6 33-16.6 41.7-33.1 5.3-10.1 7.5-19.9 7.5-33.5 0-19.8-5.5-35-17.6-48.3-8.9-9.7-24.4-17.8-38.7-20.1-7.4-1.2-24.1-1.2-31.4 0zm29.1 32.8c6.8 3.1 9.9 5.6 13.7 11.3 5.1 7.8 6.7 13.7 6.7 24.3 0 13.8-3.5 22.3-12.3 30.1-5.9 5.2-12.4 7.4-21.8 7.4-6.5 0-8.5-.5-13.7-3.1-12-6-18.2-16.5-19-32.3-1-20.4 8.7-35.3 25.5-39.6 5.4-1.3 15.6-.4 20.9 1.9zM935.5 307.6c-18.6 3.8-30.1 9.8-40.7 21.2-11.8 12.8-17.3 27.7-17.3 47.2 0 14 1.5 20.8 7 32.5 8.5 17.7 21.8 28.5 43 34.8 5.7 1.7 9.8 2.1 21.5 2.1 16.8 0 22.6-1.2 36-7.6 15.8-7.6 28.8-23.5 33.6-41.3 2.5-9.5 3-26.5.9-36-6.1-27.6-24.9-46.2-52.8-51.9-6.9-1.5-25.9-2-31.2-1zm20.7 31.5c13.6 2.8 23.3 13.5 25.9 28.7 3.3 18.6-4.1 36-18.4 43.4-6.4 3.3-19.3 3.7-26.9.9-13.6-5.2-22.2-20.4-21.2-37.9.9-17.7 10.2-30.8 24.5-34.6 6.7-1.8 9.4-1.9 16.1-.5z"/></g></svg>