<?xml version="1.0" standalone="no"?>
<!DOCTYPE svg PUBLIC "-//W3C//DTD SVG 20010904//EN"
 "http://www.w3.org/TR/2001/REC-SVG-20010904/DTD/svg10.dtd">
<svg version="1.0" xmlns="http://www.w3.org/2000/svg" viewBox="0 0 500.000000 180.000000">

<g transform="translate(0.000000,180.000000) scale(0.100000,-0.100000)"
fill="#000000" stroke="none">
<path d="M3555 1428 c-11 -6 -23 -16 -27 -22 -4 -6 -8 -230 -8 -497 0 -455 1
-487 18 -502 16 -15 69 -17 498 -17 l479 -1 23 26 22 26 0 473 c0 452 -1 475
-19 497 l-19 24 -474 2 c-342 2 -479 0 -493 -9z m234 -143 c81 -41 56 -160
-36 -172 -37 -5 -46 -2 -73 25 -41 42 -42 92 -1 133 33 32 67 37 110 14z m536
-245 c27 -13 50 -34 66 -63 23 -41 24 -48 24 -242 l0 -200 -85 0 -85 0 -1 140
c-1 190 -1 192 -24 215 -27 27 -81 26 -106 -1 -17 -19 -19 -41 -22 -190 l-3
-169 -90 0 -90 0 3 258 3 257 83 3 82 3 0 -27 0 -27 23 21 c32 30 64 41 126
41 35 1 69 -6 96 -19z m-497 -247 l-3 -258 -85 0 -85 0 -3 45 c-2 25 -1 141 3
258 l7 212 84 0 84 0 -2 -257z" fill="#0072b1"/>
<path d="M942 1267 c-51 -54 -12 -147 62 -147 26 0 40 7 60 31 33 39 33 69 0
108 -33 40 -89 43 -122 8z"/>
<path d="M390 910 l0 -370 230 0 231 0 -3 73 -3 72 -152 3 -153 3 0 294 0 295
-75 0 -75 0 0 -370z"/>
<path d="M1740 910 l0 -370 75 0 74 0 3 128 3 127 85 -127 85 -128 94 0 c73 0
91 3 84 13 -94 123 -183 247 -183 256 0 9 49 68 174 209 l19 22 -89 0 -90 0
-85 -100 c-46 -55 -87 -100 -91 -100 -5 0 -8 99 -8 220 l0 220 -75 0 -75 0 0
-370z"/>
<path d="M3200 1135 c0 -80 -3 -145 -6 -145 -3 0 -19 11 -36 25 -66 56 -180
56 -254 0 -76 -58 -117 -182 -95 -287 25 -117 100 -186 215 -195 65 -6 125 14
155 51 20 24 31 19 31 -14 l0 -30 65 0 65 0 1 228 c0 125 1 291 3 370 l3 142
-74 0 -73 0 0 -145z m-65 -219 c91 -38 101 -189 16 -239 -36 -21 -102 -22
-141 -2 -86 44 -77 201 13 240 41 18 69 18 112 1z"/>
<path d="M2459 1050 c-96 -17 -183 -87 -207 -169 -44 -144 25 -291 157 -336
103 -35 257 -2 299 65 9 14 3 22 -34 49 -25 17 -47 31 -49 31 -2 0 -21 -12
-42 -26 -32 -21 -46 -25 -86 -21 -53 5 -102 42 -109 82 -3 19 3 20 177 20
l180 0 -2 57 c-3 82 -18 129 -58 175 -55 65 -131 90 -226 73z m95 -115 c26
-17 53 -71 42 -83 -7 -6 -207 -4 -214 3 -7 7 21 51 46 72 32 27 91 30 126 8z"/>
<path d="M1395 1036 c-16 -7 -39 -23 -49 -35 -26 -29 -36 -26 -36 9 l0 30 -70
0 -70 0 0 -250 0 -250 74 0 75 0 3 166 3 166 29 24 c40 35 100 30 130 -9 19
-26 21 -44 24 -188 l3 -160 71 3 71 3 -2 160 c-1 88 -4 179 -7 203 -8 55 -40
102 -84 124 -41 21 -122 23 -165 4z"/>
<path d="M930 790 l0 -250 76 0 76 0 -2 218 c-2 119 -5 232 -7 250 l-5 32 -69
0 -69 0 0 -250z"/>
</g>
</svg>
