<?xml version="1.0" standalone="no"?>
<!DOCTYPE svg PUBLIC "-//W3C//DTD SVG 20010904//EN"
 "http://www.w3.org/TR/2001/REC-SVG-20010904/DTD/svg10.dtd">
<svg version="1.0" xmlns="http://www.w3.org/2000/svg"
viewBox="0 70 900 300"
 preserveAspectRatio="xMidYMid meet">

<g transform="translate(0.000000,457.000000) scale(0.100000,-0.100000)"
fill="#E60023" stroke="none">
<path d="M1093 3174 c-291 -64 -545 -285 -641 -559 -126 -358 -18 -748 271
-983 55 -44 200 -131 220 -132 4 0 7 49 7 109 0 112 -1 107 86 470 20 86 23
109 13 138 -20 61 -13 160 16 217 29 59 62 86 113 93 72 9 119 -29 129 -105 5
-37 -28 -181 -60 -266 -6 -16 -11 -51 -11 -78 0 -131 171 -166 282 -58 80 77
117 185 116 335 0 87 -4 107 -27 155 -34 71 -95 133 -166 167 -51 26 -65 28
-171 28 -106 -1 -120 -3 -175 -30 -76 -36 -143 -104 -180 -180 -27 -54 -30
-70 -30 -160 0 -94 2 -103 33 -160 31 -56 32 -62 22 -110 -16 -74 -22 -81 -59
-65 -98 40 -183 239 -166 389 20 180 119 327 274 409 118 63 300 89 433 61
192 -40 355 -192 402 -374 46 -175 -11 -404 -133 -537 -134 -146 -357 -181
-477 -76 -24 21 -35 26 -38 16 -3 -7 -16 -60 -31 -118 -15 -61 -45 -143 -71
-197 -25 -51 -43 -96 -40 -101 10 -16 150 -35 256 -34 320 2 602 173 762 462
116 210 134 494 46 728 -98 263 -329 468 -606 538 -110 28 -293 32 -399 8z"/>
<path d="M3353 2885 c-77 -33 -98 -153 -38 -215 84 -88 221 -41 233 79 10 109
-92 181 -195 136z"/>
<path d="M2482 2343 l3 -508 110 0 110 0 5 170 5 170 155 5 c134 4 162 8 205
28 63 29 119 83 153 147 24 45 27 60 27 155 0 83 -4 113 -19 145 -36 74 -83
122 -154 157 l-66 33 -268 3 -268 3 2 -508z m492 283 c86 -55 85 -177 0 -233
-22 -14 -49 -18 -143 -18 l-116 0 -3 124 c-2 88 1 128 10 138 18 22 215 14
252 -11z"/>
<path d="M4377 2794 c-4 -4 -7 -56 -7 -115 0 -97 -2 -108 -19 -114 -10 -3 -23
-5 -27 -4 -31 5 -35 -2 -32 -68 l3 -68 38 -3 37 -3 0 -228 c0 -218 1 -230 23
-271 34 -65 78 -84 205 -88 l102 -4 0 84 0 84 -42 10 c-64 14 -68 29 -65 234
l2 175 53 3 53 3 -3 72 -3 72 -40 -3 c-22 -1 -45 1 -52 6 -8 5 -13 45 -15 117
l-3 110 -101 3 c-55 1 -103 0 -107 -4z"/>
<path d="M7427 2793 c-4 -3 -7 -55 -7 -115 0 -79 -3 -108 -12 -109 -7 -1 -22
-2 -33 -3 -18 -1 -20 -8 -20 -71 l0 -70 33 -3 32 -3 0 -210 c0 -237 8 -283 53
-327 44 -41 85 -52 193 -52 l94 0 0 84 0 83 -42 6 c-75 10 -79 22 -76 231 l3
181 58 3 58 3 -3 72 -3 72 -40 1 c-81 1 -75 -9 -75 119 l0 115 -103 0 c-57 0
-107 -3 -110 -7z"/>
<path d="M3945 2573 c-28 -7 -105 -62 -112 -79 -11 -30 -32 -14 -35 28 l-3 42
-100 -2 c-55 -1 -103 -2 -108 -2 -4 0 -6 -163 -5 -362 l3 -363 110 0 110 0 5
230 c4 191 8 235 22 261 45 81 157 91 205 18 16 -25 19 -58 23 -269 l5 -240
107 -3 107 -3 7 26 c3 14 4 141 2 283 -4 233 -7 261 -25 302 -25 54 -74 103
-125 124 -36 15 -148 20 -193 9z"/>
<path d="M4939 2564 c-63 -22 -137 -80 -176 -137 -42 -63 -63 -139 -63 -229 0
-206 115 -342 318 -378 161 -29 327 43 391 169 12 22 21 45 21 51 0 6 -40 10
-110 10 -99 0 -110 -2 -120 -20 -28 -52 -141 -68 -200 -27 -37 24 -67 68 -72
107 l-3 25 260 5 260 5 -3 60 c-4 82 -27 158 -66 219 -42 65 -68 88 -136 123
-48 24 -68 28 -155 30 -71 2 -114 -2 -146 -13z m208 -164 c34 -20 63 -66 63
-100 0 -19 -6 -20 -140 -20 -156 0 -155 0 -123 67 33 69 131 96 200 53z"/>
<path d="M5869 2570 c-54 -7 -88 -27 -126 -75 -15 -19 -31 -35 -35 -35 -4 0
-8 24 -10 53 -2 34 -7 52 -15 51 -7 -1 -56 -2 -108 -2 l-95 -2 2 -362 3 -363
110 0 110 0 5 205 c5 191 7 208 28 245 30 52 77 82 141 91 l51 7 0 93 c0 51
-3 94 -7 96 -5 2 -29 1 -54 -2z"/>
<path d="M6143 2559 c-70 -27 -155 -106 -187 -173 -74 -157 -50 -338 60 -456
138 -147 400 -157 548 -20 36 33 86 112 86 135 0 3 -48 5 -106 5 l-107 0 -38
-35 c-34 -30 -46 -35 -90 -35 -55 0 -93 16 -125 52 -24 26 -47 86 -38 99 3 5
119 9 259 9 184 0 254 3 257 12 2 6 0 41 -5 77 -23 174 -105 289 -240 335 -69
23 -207 21 -274 -5z m223 -158 c30 -18 64 -74 64 -105 0 -14 -19 -16 -146 -16
l-145 0 7 23 c24 78 71 117 144 117 26 0 58 -8 76 -19z"/>
<path d="M6851 2561 c-108 -41 -161 -109 -161 -209 0 -123 65 -186 223 -217
163 -33 181 -38 204 -61 30 -30 29 -55 -2 -84 -18 -17 -40 -25 -78 -28 -63 -5
-105 13 -137 58 l-21 30 -105 0 c-57 0 -104 -4 -104 -9 0 -21 25 -79 48 -110
73 -99 256 -145 422 -105 136 32 199 97 208 214 3 52 0 76 -16 112 -34 79
-102 115 -267 143 -115 19 -159 40 -163 76 -4 37 29 62 91 66 61 5 94 -10 117
-52 16 -30 18 -30 110 -33 51 -1 97 1 101 5 15 15 -13 91 -47 131 -56 66 -109
85 -249 89 -101 3 -129 0 -174 -16z"/>
<path d="M3304 2555 c-3 -6 -3 -170 -2 -365 l3 -355 110 0 110 0 0 363 0 364
-109 1 c-65 1 -110 -2 -112 -8z"/>
</g>
</svg>
